<svg width="142" height="142" viewBox="0 0 142 142" fill="none" xmlns="http://www.w3.org/2000/svg">
<path d="M137.254 138.614H128.201C124.073 138.614 120.342 136.003 118.922 132.111C115.802 123.559 107.611 117.815 98.5444 117.815H53.7678C44.7047 117.815 36.5271 123.559 33.4077 132.108C31.9904 135.999 28.26 138.614 24.1282 138.614H4.72549C2.12083 138.614 0 136.493 0 133.892V59.9495C0 57.3449 2.12083 55.2275 4.72549 55.2275H137.278C139.883 55.2275 142 57.3483 142 59.9495V133.872C142 136.49 139.872 138.614 137.254 138.614ZM53.7678 110.951H98.5444C110.483 110.951 121.266 118.508 125.37 129.757C125.806 130.948 126.945 131.751 128.201 131.751H135.137V62.0875H6.86338V131.751H24.1282C25.3877 131.751 26.5236 130.951 26.9594 129.757C31.0603 118.508 41.8324 110.951 53.7678 110.951Z" fill="#2E2E54"/>
<path d="M110.742 62.0768H31.268C28.3099 62.0768 25.9043 59.6677 25.9043 56.7096V48.6108C25.9043 45.6527 28.3099 43.2471 31.268 43.2471H110.742C113.701 43.2471 116.11 45.6527 116.11 48.6108V56.7096C116.11 59.6677 113.701 62.0768 110.742 62.0768ZM32.7641 55.2134H109.246V50.107H32.7641V55.2134Z" fill="#2E2E54"/>
<path d="M61.7129 47.078L57.2999 9.28138C57.142 7.93959 57.5675 6.59435 58.4632 5.58543C59.3623 4.57652 60.6491 4 61.9977 4H71.0095V10.8634H64.3931L68.5283 46.2784L61.7129 47.078Z" fill="#2E2E54"/>
<path d="M80.3006 47.0775L73.4854 46.2813L77.624 10.8663H71.0078V4.00293H80.0194C81.3714 4.00293 82.6584 4.57945 83.5541 5.58836C84.4498 6.59385 84.8753 7.94251 84.7174 9.28431L80.3006 47.0775Z" fill="#2E2E54"/>
</svg>
