<svg width="142" height="142" viewBox="0 0 142 142" fill="none" xmlns="http://www.w3.org/2000/svg">
<path d="M99.8913 29.7005C98.4466 29.7005 97.2695 28.5269 97.2695 27.0788V2.62174C97.2695 1.17704 98.4431 0 99.8913 0C101.339 0 102.513 1.17361 102.513 2.62174V27.0788C102.513 28.5235 101.339 29.7005 99.8913 29.7005Z" fill="#BBBBBC"/>
<path d="M70.5417 29.7005C69.097 29.7005 67.9199 28.5269 67.9199 27.0788V2.62174C67.9199 1.17704 69.0935 0 70.5417 0C71.9898 0 73.1634 1.17361 73.1634 2.62174V27.0788C73.1634 28.5235 71.9898 29.7005 70.5417 29.7005Z" fill="#BBBBBC"/>
<path d="M41.1862 29.7005C39.7415 29.7005 38.5645 28.5269 38.5645 27.0788V2.62174C38.5645 1.17704 39.7381 0 41.1862 0C42.6343 0 43.8079 1.17361 43.8079 2.62174V27.0788C43.8079 28.5235 42.6343 29.7005 41.1862 29.7005Z" fill="#BBBBBC"/>
<path d="M99.8913 142C98.4466 142 97.2695 140.827 97.2695 139.379V114.922C97.2695 113.477 98.4431 112.3 99.8913 112.3C101.339 112.3 102.513 113.473 102.513 114.922V139.379C102.513 140.823 101.339 142 99.8913 142Z" fill="#BBBBBC"/>
<path d="M70.5417 142C69.097 142 67.9199 140.827 67.9199 139.379V114.922C67.9199 113.477 69.0935 112.3 70.5417 112.3C71.9898 112.3 73.1634 113.473 73.1634 114.922V139.379C73.1634 140.823 71.9898 142 70.5417 142Z" fill="#BBBBBC"/>
<path d="M41.1862 141.999C39.7415 141.999 38.5645 140.826 38.5645 139.378V114.921C38.5645 113.476 39.7381 112.299 41.1862 112.299C42.6343 112.299 43.8079 113.472 43.8079 114.921V139.378C43.8079 140.822 42.6343 141.999 41.1862 141.999Z" fill="#BBBBBC"/>
<path d="M85.5946 102.972H55.4788C46.1517 102.972 38.5645 95.3845 38.5645 86.0574V55.9417C38.5645 46.6146 46.1517 39.0273 55.4788 39.0273H85.5946C94.9216 39.0273 102.509 46.6146 102.509 55.9417V86.0574C102.509 95.3845 94.9216 102.972 85.5946 102.972ZM55.4788 44.2674C49.0411 44.2674 43.8045 49.504 43.8045 55.9417V86.0574C43.8045 92.4951 49.0411 97.7318 55.4788 97.7318H85.5946C92.0322 97.7318 97.2689 92.4951 97.2689 86.0574V55.9417C97.2689 49.504 92.0322 44.2674 85.5946 44.2674H55.4788Z" fill="#BBBBBC"/>
<path d="M101.177 117.539H39.902C31.1343 117.539 24 110.404 24 101.637V40.362C24 31.5942 31.1343 24.46 39.902 24.46H101.177C109.944 24.46 117.079 31.5942 117.079 40.362V101.637C117.079 110.404 109.944 117.539 101.177 117.539ZM39.902 29.7C34.0237 29.7 29.2401 34.4837 29.2401 40.362V101.637C29.2401 107.515 34.0237 112.299 39.902 112.299H101.177C107.055 112.299 111.839 107.515 111.839 101.637V40.362C111.839 34.4837 107.055 29.7 101.177 29.7H39.902Z" fill="#BBBBBC"/>
</svg>
