<svg width="142" height="142" viewBox="0 0 142 142" fill="none" xmlns="http://www.w3.org/2000/svg">
<g clip-path="url(#clip0_184_16)">
<path d="M113.749 86.4497V90.1373C113.749 92.3812 111.968 94.145 109.701 94.145H105.49C104.516 99.4363 102.576 104.244 99.4983 108.415L102.572 111.463C104.193 113.067 104.193 115.631 102.572 117.074L99.9818 119.638C98.3614 121.242 95.7707 121.242 94.3136 119.638L91.2362 116.591C87.0251 119.638 82.1672 121.562 76.8258 122.522V126.69C76.8258 128.934 75.0454 130.698 72.7781 130.698H69.0538C66.7866 130.698 65.0061 128.934 65.0061 126.69V122.522C59.6614 121.559 54.8035 119.635 50.5957 116.591L47.6817 119.638C46.0612 121.242 43.4706 121.242 41.8535 119.638L39.4229 117.074C37.8025 115.47 37.8025 113.067 39.4229 111.463L42.5003 108.415C39.5862 104.248 37.479 99.4363 36.5088 94.145H32.2977C30.0305 94.145 28.25 92.3812 28.25 90.1373V86.4497C28.25 84.2058 30.0305 82.4419 32.2977 82.4419H36.5088C37.319 77.1506 39.4229 72.3393 42.5003 68.1716L39.4229 65.2876C37.8025 63.6838 37.8025 61.1198 39.4229 59.6761L42.0135 57.1121C43.634 55.5084 46.2246 55.5084 47.6817 57.1121L50.5957 59.9995C54.8068 57.1121 59.6647 55.0282 65.0061 54.068V49.9003C65.0061 47.6564 66.7866 45.8926 69.0538 45.8926H72.7781C75.0454 45.8926 76.8258 47.6564 76.8258 49.9003V54.068C82.1705 54.8682 87.0284 56.9521 91.2362 59.9995L94.3136 56.9521C95.9341 55.3483 98.3614 55.3483 99.9818 56.9521L102.572 59.5161C104.193 61.1198 104.193 63.6838 102.572 65.2876L99.4983 68.1716C102.572 72.3393 104.516 77.1506 105.49 82.4419H109.701C111.968 82.4419 113.749 84.2058 113.749 86.4497ZM71.001 110.499C83.6309 110.499 93.9936 100.076 93.5101 87.4099C93.0233 75.8669 83.6342 66.4079 71.9746 66.0844C59.1813 65.6043 48.6552 75.7035 48.6552 88.3701C48.4919 100.557 58.5345 110.496 71.001 110.496V110.499Z" fill="#2E2E54"/>
<path d="M42.0742 91.6272H12.3065C5.52142 91.6272 0 86.1058 0 79.3207V24.3065C0 17.5215 5.52142 12 12.3065 12H70.9983V18.6684H12.3065C9.1957 18.6684 6.66838 21.1957 6.66838 24.3065V79.3207C6.66838 82.4315 9.1957 84.9588 12.3065 84.9588H42.0742V91.6272Z" fill="#2E2E54"/>
<path d="M129.694 91.6272H99.9261V84.9588H129.694C132.805 84.9588 135.332 82.4315 135.332 79.3207V24.3065C135.332 21.1957 132.805 18.6684 129.694 18.6684H71.002V12H129.694C136.479 12 142 17.5215 142 24.3065V79.3207C142 86.1058 136.479 91.6272 129.694 91.6272Z" fill="#2E2E54"/>
</g>
<defs>
<clipPath id="clip0_184_16">
<rect width="142" height="142" fill="white"/>
</clipPath>
</defs>
</svg>
