<?xml version="1.0" encoding="UTF-8"?><svg id="d" xmlns="http://www.w3.org/2000/svg" viewBox="0 0 121 121"><path d="m90.485,36.07h-5.09v-11.84c0-3.99-3.25-7.25-7.25-7.25h-35.29c-3.99,0-7.24,3.26-7.24,7.25v11.84h-5.1c-1.81,0-3.28,1.47-3.28,3.28v29.98c0,15.6,10.75,28.7,25.25,32.29v19.38h16.03v-19.37c14.5-3.59,25.25-16.69,25.25-32.3v-29.98c0-1.81-1.47-3.28-3.28-3.28Zm-21.97,36.63l5.42,5.42c.57.57.57,1.51,0,2.09-.29.28-.67.43-1.05.43s-.76-.15-1.04-.43l-3.33-3.33-8.01-8.01-8.02,8.02-3.32,3.32c-.29.28-.67.43-1.05.43s-.76-.15-1.04-.43c-.58-.58-.58-1.52,0-2.09l5.41-5.41,5.93-5.93-11.34-11.34c-.58-.58-.58-1.52,0-2.09.57-.58,1.51-.58,2.09,0l11.34,11.34,11.34-11.34c.57-.58,1.51-.58,2.09,0,.57.57.57,1.51,0,2.09l-11.34,11.34,5.92,5.92Zm6.33-36.63v-8.57c0-.85-.69-1.54-1.54-1.54s-1.54.69-1.54,1.54v8.57h-9.72v-8.57c0-.85-.69-1.54-1.54-1.54-.86,0-1.54.69-1.54,1.54v8.57h-9.73v-8.57c0-.85-.69-1.54-1.54-1.54s-1.54.69-1.54,1.54v8.57h-7.46v-11.84c0-2.3,1.87-4.16,4.16-4.16h35.29c2.3,0,4.16,1.86,4.16,4.16v11.84h-7.46Z" style="fill:#f9f9f9;"/></svg>