<svg width="142" height="142" viewBox="0 0 142 142" fill="none" xmlns="http://www.w3.org/2000/svg">
<g clip-path="url(#clip0_184_55)">
<path d="M106.482 94.3789C105.771 94.3789 105.051 94.2141 104.378 93.8607L88.0918 85.3504C85.8613 84.1905 84.9966 81.4281 86.1599 79.1976L117.377 19.4538C117.943 18.3695 118.897 17.5733 120.06 17.2096C121.22 16.8458 122.456 16.9591 123.536 17.5219L139.819 26.0287C142.05 27.1955 142.915 29.9579 141.751 32.185L110.534 91.9287C109.724 93.4867 108.129 94.3789 106.482 94.3789ZM90.796 81.1227L106.303 89.2246L137.112 30.2599L121.605 22.1579L90.796 81.1227Z" fill="#2E2E54"/>
<path d="M85.2989 115.099C84.5748 115.099 83.8509 114.924 83.1851 114.578C81.7095 113.802 80.7693 112.289 80.7384 110.621L80.4227 94.4448C80.3918 92.8182 81.1983 91.3323 82.5846 90.4778C83.9641 89.6199 85.6559 89.5616 87.0972 90.3131L100.871 97.5092C102.313 98.2607 103.225 99.6779 103.315 101.308C103.4 102.934 102.646 104.444 101.29 105.347L87.8315 114.331C87.0663 114.842 86.1842 115.099 85.2989 115.099ZM85.4396 95.0899L85.7245 109.726L97.8962 101.6L85.4396 95.0899Z" fill="#2E2E54"/>
<path d="M43.3393 125.774C40.4362 125.774 37.6325 124.35 35.6491 121.869C33.7651 119.515 32.7254 116.416 32.7254 113.146C32.7254 108.99 30.1551 105.493 27.1147 105.493C24.0744 105.493 21.4974 108.99 21.4974 113.132C21.4974 120.105 16.7343 125.774 10.8835 125.774C5.03262 125.774 0.269531 120.102 0.269531 113.132C0.269531 111.753 1.39167 110.631 2.77116 110.631C4.15066 110.631 5.2728 111.753 5.2728 113.132C5.2728 117.274 7.84308 120.771 10.8835 120.771C13.9238 120.771 16.4941 117.274 16.4941 113.132C16.4941 106.159 21.257 100.49 27.1147 100.49C32.9724 100.49 37.7287 106.163 37.7287 113.132C37.7287 115.284 38.3772 117.271 39.5542 118.743C41.6509 121.361 45.031 121.361 47.1242 118.743L47.7111 117.888C47.7832 117.772 47.8519 117.652 47.9136 117.528L48.9087 114.038L48.95 113.142C48.95 111.763 50.0721 110.634 51.4516 110.634C52.8311 110.634 53.9533 111.749 53.9533 113.129C53.9533 113.355 53.9532 113.571 53.9394 113.784L53.8948 114.416C53.8948 114.522 53.8709 114.731 53.8469 114.927L53.6923 115.922C53.6134 116.306 53.5689 116.512 53.5243 116.68L53.5138 116.725C53.4932 116.807 53.4726 116.89 53.452 116.969L53.4143 117.113L53.3733 117.254L53.3459 117.346C53.2944 117.518 53.2496 117.655 53.2085 117.785L53.1982 117.82C53.1467 117.988 53.0884 118.156 53.0197 118.328L52.5326 119.463C52.4777 119.58 52.4192 119.7 52.3575 119.817L52.5085 120.019L51.2868 121.533C51.1392 121.728 51.0431 121.845 50.9402 121.962C49.0391 124.347 46.2355 125.771 43.3324 125.771L43.3393 125.774Z" fill="#2E2E54"/>
<path d="M75.7949 125.783C69.9441 125.783 65.181 120.111 65.181 113.145C65.181 109.003 62.6109 105.506 59.5705 105.506C56.4787 105.506 53.9565 108.931 53.9496 113.138C53.9496 113.361 53.9495 113.577 53.9358 113.79L53.8912 114.421C53.8912 114.528 53.8672 114.737 53.8432 114.933L53.6886 115.928C53.6097 116.312 53.5653 116.518 53.5207 116.686L53.5102 116.731C53.4896 116.813 53.469 116.896 53.4484 116.978L53.4107 117.119C53.397 117.167 53.3834 117.211 53.3696 117.259L53.3422 117.349C53.2907 117.52 53.246 117.657 53.2048 117.788L53.1945 117.822C53.1431 117.99 53.0847 118.158 53.0195 118.327L52.5289 119.466C52.474 119.583 52.4156 119.703 52.3538 119.819L52.5048 120.022L51.2831 121.535C51.1356 121.731 51.0395 121.847 50.9365 121.964C49.056 124.352 46.249 125.78 43.3288 125.78C40.3776 125.78 37.6461 124.387 35.6352 121.858C33.7547 119.507 32.7148 116.412 32.7148 113.141C32.7148 111.762 33.837 110.64 35.2165 110.64C36.596 110.64 37.7181 111.762 37.7181 113.141C37.7181 115.279 38.3666 117.266 39.5436 118.738C41.6472 121.381 45.0445 121.36 47.1034 118.752H47.107L47.7041 117.884C47.7762 117.767 47.8447 117.647 47.9064 117.527L48.9017 114.034L48.9428 113.138C48.9565 106.162 53.7196 100.496 59.567 100.496C65.4144 100.496 70.1809 106.169 70.1809 113.138C70.1809 117.277 72.7512 120.773 75.7916 120.773C78.8319 120.773 81.4022 117.277 81.4022 113.138C81.4022 111.759 82.5241 110.636 83.9036 110.636C85.2831 110.636 86.4053 111.759 86.4053 113.138C86.4053 120.108 81.6458 125.777 75.7916 125.777L75.7949 125.783Z" fill="#2E2E54"/>
</g>
<defs>
<clipPath id="clip0_184_55">
<rect width="142" height="142" fill="white"/>
</clipPath>
</defs>
</svg>
