<?xml version="1.0" encoding="UTF-8" standalone="no"?>
<!-- Generator: Adobe Illustrator 19.1.0, SVG Export Plug-In . SVG Version: 6.00 Build 0)  -->

<svg
   version="1.1"
   id="Capa_1"
   x="0px"
   y="0px"
   viewBox="-70 0 141.7 141.7"
   style="enable-background:new -70 0 141.7 141.7;"
   xml:space="preserve"
   sodipodi:docname="cf_icon_link_active.svg"
   inkscape:version="1.1.2 (0a00cf5339, 2022-02-04)"
   xmlns:inkscape="http://www.inkscape.org/namespaces/inkscape"
   xmlns:sodipodi="http://sodipodi.sourceforge.net/DTD/sodipodi-0.dtd"
   xmlns="http://www.w3.org/2000/svg"
   xmlns:svg="http://www.w3.org/2000/svg"><defs
   id="defs13" /><sodipodi:namedview
   id="namedview11"
   pagecolor="#ffffff"
   bordercolor="#666666"
   borderopacity="1.0"
   inkscape:pageshadow="2"
   inkscape:pageopacity="0.0"
   inkscape:pagecheckerboard="0"
   showgrid="false"
   inkscape:zoom="5.8574454"
   inkscape:cx="32.949517"
   inkscape:cy="70.849998"
   inkscape:window-width="1920"
   inkscape:window-height="1012"
   inkscape:window-x="0"
   inkscape:window-y="1080"
   inkscape:window-maximized="1"
   inkscape:current-layer="Capa_1" />
<style
   type="text/css"
   id="style2">
	.st0{fill:#FFBB00;}
</style>
<g
   id="g8">
	<g
   id="g6">
		<path
   class="st0"
   d="M49.1,65.3l-21,21c-11.6,11.6-30.4,11.6-42,0c-1.8-1.8-3.3-3.9-4.5-6l9.8-9.8c0.5-0.5,1-0.7,1.6-1.1    c0.7,2.3,1.9,4.5,3.7,6.3c5.8,5.8,15.2,5.8,21,0l21-21c5.8-5.8,5.8-15.2,0-21s-15.2-5.8-21,0l-7.5,7.5c-6.1-2.4-12.6-3-18.9-2.1    L7.2,23.2c11.6-11.6,30.4-11.6,42,0C60.7,35,60.7,53.8,49.1,65.3L49.1,65.3z M-6.4,99.8l-7.5,7.5c-5.8,5.8-15.2,5.8-21,0    s-5.8-15.2,0-21l21-21c5.8-5.8,15.2-5.8,21,0c1.8,1.8,3,4,3.7,6.3c0.6-0.3,1.1-0.6,1.6-1l9.8-9.7c-1.2-2.1-2.7-4.2-4.5-6    c-11.6-11.6-30.4-11.6-42,0l-21,21c-11.6,11.6-11.6,30.4,0,42c11.6,11.6,30.4,11.6,42,0L12.6,102C6.2,102.8-0.3,102.2-6.4,99.8    L-6.4,99.8z"
   id="path4" />
	</g>
</g>
<path
   style="fill:#ff7133;stroke-width:0.170723;fill-opacity:1"
   d="M 41.788662,126.25591 C 33.272156,125.0341 25.874343,120.41797 21.142318,113.37288 14.657661,103.71844 14.42446,91.195153 20.545432,81.319064 c 0.53412,-0.861794 1.326547,-2.014173 1.760949,-2.560843 1.054119,-1.32655 24.228846,-24.565241 25.752112,-25.82319 5.892034,-4.865781 14.0178,-7.311099 21.560493,-6.48828 3.706245,0.404308 6.672291,1.254186 10.023241,2.872017 4.702357,2.270287 8.37497,5.450237 11.316273,9.798252 l 1.131659,1.672886 -4.772821,4.786637 c -4.293372,4.305796 -5.92022,5.789831 -6.340089,5.783521 -0.07698,-0.0012 -0.349773,-0.519728 -0.606207,-1.15238 -0.8269,-2.040043 -1.681027,-3.304553 -3.371586,-4.991541 -1.870118,-1.866167 -3.318669,-2.764489 -5.808012,-3.601854 -1.390188,-0.467631 -1.935919,-0.557531 -3.820378,-0.629338 -2.521566,-0.09608 -3.970443,0.105961 -5.975747,0.833311 C 58.486491,62.873333 58.420155,62.931589 45.785,75.527244 33.328225,87.945077 32.852028,88.476879 31.778948,91.168783 c -1.408048,3.532198 -1.408048,7.729991 0,11.262187 1.479105,3.71045 4.862774,6.98973 8.617456,8.35161 2.005304,0.72735 3.454181,0.92939 5.975746,0.83331 1.88446,-0.0718 2.430191,-0.16171 3.820379,-0.62934 3.085407,-1.03787 3.687331,-1.48527 8.792229,-6.53514 l 4.609518,-4.559821 1.451144,0.514701 c 1.858986,0.65935 4.286246,1.24717 6.707547,1.62437 2.036944,0.31733 8.601958,0.43448 9.937935,0.17733 0.640957,-0.12337 0.137746,0.412 -8.194699,8.71825 -9.264207,9.23509 -10.034017,9.914 -13.445008,11.8574 -2.51462,1.4327 -6.16627,2.72802 -9.301809,3.29955 -2.086572,0.38033 -6.870773,0.47255 -8.960724,0.17272 z"
   id="path89"
   transform="translate(-70)" /><path
   style="fill:#ff7133;fill-opacity:1;stroke-width:0.170723"
   d="M 73.837649,94.744761 C 65.705639,93.747922 58.399399,89.602783 53.715208,83.328445 53.05569,82.445039 52.339266,81.388948 52.123155,80.981576 l -0.39293,-0.74068 4.694285,-4.705447 c 4.280921,-4.291099 6.021369,-5.883703 6.424386,-5.87866 0.08132,10e-4 0.356466,0.558001 0.611441,1.237741 1.648913,4.395844 5.934406,7.927608 10.853996,8.945 1.625826,0.336228 5.236573,0.23004 6.779039,-0.199365 1.303399,-0.362851 3.199137,-1.235925 4.471647,-2.059398 1.078491,-0.697918 22.845001,-22.261908 24.298131,-24.07206 4.20267,-5.235211 4.31564,-12.899265 0.2695,-18.28183 -4.16978,-5.547026 -11.852276,-7.487178 -18.145866,-4.582588 -2.163304,0.998399 -3.124939,1.781841 -7.521736,6.127955 l -4.310854,4.261161 -2.005893,-0.63576 c -4.501768,-1.426818 -9.4538,-2.024441 -13.867504,-1.673563 -1.350876,0.107392 -2.478829,0.172565 -2.506562,0.144832 -0.02773,-0.02773 3.9236,-4.005089 8.780742,-8.838569 9.812566,-9.764764 10.368698,-10.236412 14.465021,-12.267603 3.793301,-1.880935 6.858056,-2.73459 11.011626,-3.067172 8.770586,-0.702272 17.314646,2.607949 23.522176,9.113193 7.32607,7.677429 9.97694,18.944021 6.85746,29.145181 -0.98181,3.210648 -2.47202,6.179143 -4.4686,8.901466 -1.16258,1.585157 -24.127763,24.722807 -26.252481,26.449628 -3.977149,3.232347 -8.690326,5.35298 -13.815335,6.21603 -1.824574,0.307259 -6.332064,0.432711 -8.037195,0.223693 z"
   id="path1128"
   transform="translate(-70)" /></svg>
