<?xml version="1.0" encoding="UTF-8"?><svg id="b" xmlns="http://www.w3.org/2000/svg" viewBox="0 0 150 150.182"><g id="c"><g><path d="m100.128,0c-27.543,0-49.872,22.329-49.872,49.872s22.329,49.883,49.872,49.883,49.872-22.34,49.872-49.883S127.671,0,100.128,0Zm0,91.713c-23.109,0-41.841-18.732-41.841-41.841S77.019,8.031,100.128,8.031s41.841,18.732,41.841,41.841-18.732,41.841-41.841,41.841Z" style="fill:#ff7133;"/><path d="m63.86,103.23l-46.246,46.246c-.944.944-2.471.936-3.407,0l-13.501-13.501c-.936-.936-.944-2.464,0-3.407l46.246-46.246c.944-.944,2.479-.944,3.415-.008l1.776,1.776,2.887-2.887c1.168-1.168,3.047-1.16,4.207,0l5.743,5.743c1.16,1.16,1.168,3.039,0,4.207l-2.887,2.887,1.776,1.776c.936.936.936,2.472-.008,3.415Z" style="fill:#ff7133;"/></g></g></svg>