<?xml version="1.0" encoding="UTF-8" standalone="no"?>
<svg
   id="a"
   viewBox="0 0 105.391 83.641"
   version="1.1"
   sodipodi:docname="sensor_sat_on_with_fix (копия).svg"
   inkscape:version="1.1.2 (0a00cf5339, 2022-02-04)"
   xmlns:inkscape="http://www.inkscape.org/namespaces/inkscape"
   xmlns:sodipodi="http://sodipodi.sourceforge.net/DTD/sodipodi-0.dtd"
   xmlns="http://www.w3.org/2000/svg"
   xmlns:svg="http://www.w3.org/2000/svg">
  <defs
     id="defs29" />
  <sodipodi:namedview
     id="namedview27"
     pagecolor="#ffffff"
     bordercolor="#666666"
     borderopacity="1.0"
     inkscape:pageshadow="2"
     inkscape:pageopacity="0.0"
     inkscape:pagecheckerboard="0"
     showgrid="false"
     inkscape:zoom="9.9233631"
     inkscape:cx="52.703906"
     inkscape:cy="41.820499"
     inkscape:window-width="1920"
     inkscape:window-height="1012"
     inkscape:window-x="0"
     inkscape:window-y="0"
     inkscape:window-maximized="1"
     inkscape:current-layer="a" />
  <rect
     x="13.687"
     y="11.85"
     width="78.016"
     height="59.941"
     rx="13.384"
     ry="13.384"
     style="fill:#ff7133;"
     id="rect2" />
  <g
     id="g24">
    <rect
       x="47.228"
       y="35.572"
       width="10.793"
       height="20.521"
       rx="2.298"
       ry="2.298"
       style="fill:none; stroke:#fff; stroke-linecap:round; stroke-miterlimit:10; stroke-width:2px;"
       id="rect4" />
    <g
       id="g10">
      <path
         d="m61.552,45.455v-3.79c0-.527.305-1.006.782-1.229l18.975-8.881c.9-.421,1.932.235,1.932,1.229v12.671"
         style="fill:none; stroke:#fff; stroke-linecap:round; stroke-miterlimit:10; stroke-width:2px;"
         id="path6" />
      <path
         d="m61.552,46.211v3.79c0,.527.305,1.006.782,1.229l18.975,8.881c.9.421,1.932-.235,1.932-1.229v-12.671"
         style="fill:none; stroke:#fff; stroke-linecap:round; stroke-miterlimit:10; stroke-width:2px;"
         id="path8" />
    </g>
    <g
       id="g16">
      <path
         d="m43.839,45.833v-3.747c0-.553-.32-1.055-.82-1.29l-18.84-8.819c-.944-.442-2.028.247-2.028,1.29v12.566"
         style="fill:none; stroke:#fff; stroke-linecap:round; stroke-miterlimit:10; stroke-width:2px;"
         id="path12" />
      <path
         d="m43.839,46.588v3.747c0,.553-.32,1.055-.82,1.29l-18.84,8.819c-.944.442-2.028-.247-2.028-1.29v-12.566"
         style="fill:none; stroke:#fff; stroke-linecap:round; stroke-miterlimit:10; stroke-width:2px;"
         id="path14" />
    </g>
    <path
       d="m47.588,32.877c.768-2.027,2.733-3.456,5.028-3.456s4.26,1.429,5.028,3.456"
       style="fill:none; stroke:#fff; stroke-linecap:round; stroke-miterlimit:10; stroke-width:1.5px;"
       id="path18" />
    <path
       d="m44.212,31.805c1.232-3.447,4.528-5.912,8.404-5.912s7.189,2.474,8.422,5.939"
       style="fill:none; stroke:#fff; stroke-linecap:round; stroke-miterlimit:10; stroke-width:1.5px;"
       id="path20" />
    <path
       d="m41.131,27.73c2.652-3.429,6.805-5.635,11.476-5.635s8.841,2.215,11.494,5.662"
       style="fill:none; stroke:#fff; stroke-linecap:round; stroke-miterlimit:10; stroke-width:1.5px;"
       id="path22" />
  </g>
  <path
     style="fill:#ff0000;stroke-width:0.100772"
     d="m 25.423392,71.6399 c -3.623541,-0.425919 -7.220693,-2.602146 -9.279308,-5.613853 -1.349264,-1.97394 -2.077241,-3.936614 -2.33277,-6.289302 -0.14676,-1.351233 -0.14676,-34.481258 0,-35.832491 0.116717,-1.074627 0.473775,-2.618145 0.792989,-3.427998 1.844623,-4.679846 6.040352,-7.91817 10.994552,-8.485753 0.67024,-0.07679 8.940401,-0.09973 27.760071,-0.077 l 26.805429,0.03237 1.058109,0.265104 c 2.617911,0.655906 4.522977,1.699002 6.364173,3.484627 2.060613,1.998419 3.339532,4.403232 3.891403,7.317192 0.16118,0.851056 0.174356,2.272294 0.174356,18.807705 0,16.802091 -0.01099,17.944244 -0.181227,18.829456 -0.563458,2.929969 -1.823714,5.296823 -3.884532,7.295442 -1.875135,1.818539 -3.918219,2.918869 -6.541141,3.522815 l -0.981913,0.226093 -26.956587,0.01552 C 38.280873,71.718365 25.823251,71.6869 25.423392,71.6399 Z m 8.63822,-14.654946 c 5.292746,-2.475785 9.765866,-4.609289 9.940267,-4.741121 0.1744,-0.131834 0.435149,-0.476606 0.57944,-0.766162 l 0.262349,-0.526466 -0.0022,-4.741704 c -0.002,-4.374305 -0.01648,-4.77311 -0.18634,-5.14703 -0.262891,-0.578712 -0.720133,-0.994383 -1.500253,-1.36385 -2.139051,-1.01306 -18.184942,-8.515908 -18.549586,-8.673543 -0.523311,-0.226228 -1.490422,-0.249446 -1.974005,-0.04739 -0.534132,0.223175 -1.136945,0.832387 -1.337237,1.351432 -0.17252,0.447084 -0.182236,1.186804 -0.182236,13.874976 0,11.094179 0.02379,13.470073 0.138128,13.793782 0.16288,0.461146 0.731028,1.120127 1.15456,1.339144 0.405765,0.209829 1.139279,0.309549 1.630287,0.221636 0.222017,-0.03975 4.734096,-2.097917 10.026843,-4.573702 z m 48.591129,4.166087 c 0.217552,-0.06518 0.593499,-0.292751 0.835435,-0.505711 0.823877,-0.725206 0.765819,0.45637 0.734733,-14.953019 L 84.195246,31.979357 83.89293,31.494108 c -0.430381,-0.690804 -1.137917,-1.074673 -1.989867,-1.079588 -0.632291,-0.0036 -0.713115,0.03183 -10.358264,4.546199 -5.34655,2.502432 -9.880337,4.655029 -10.075081,4.783548 -0.194744,0.128519 -0.489503,0.478194 -0.65502,0.777055 l -0.300939,0.543385 v 4.736298 c 0,4.613812 0.0055,4.748246 0.21372,5.198346 0.117546,0.254127 0.389631,0.608324 0.604633,0.787105 0.235524,0.195845 4.156305,2.088941 9.863509,4.762463 5.209928,2.440574 9.631312,4.497937 9.825298,4.571919 0.446677,0.170351 1.122311,0.182856 1.631822,0.0302 z m -25.502304,-4.34189 c 0.74389,-0.365318 1.411292,-1.087811 1.687972,-1.827305 l 0.218457,-0.583876 -0.02735,-8.732464 -0.02735,-8.732463 -0.249526,-0.503861 c -0.31843,-0.642997 -0.92828,-1.252943 -1.567003,-1.567251 l -0.501233,-0.24665 h -4.081278 -4.081277 l -0.514705,0.27155 c -0.674642,0.35593 -1.388168,1.158832 -1.619604,1.822474 -0.171925,0.492996 -0.183454,1.070816 -0.183454,9.194611 v 8.668557 l 0.331742,0.673844 c 0.453646,0.921457 1.23171,1.561702 2.187565,1.800079 0.166274,0.04147 2.002849,0.06768 4.081278,0.05825 l 3.778961,-0.01714 z M 48.115149,33.460398 c 0.09833,-0.10865 0.279533,-0.414746 0.40268,-0.680213 0.493683,-1.064228 1.744092,-2.088153 2.922403,-2.393074 2.118286,-0.548166 4.205898,0.401325 5.249694,2.387674 0.375208,0.714021 0.566754,0.883159 1.000164,0.883159 0.34092,0 0.757837,-0.419025 0.757837,-0.761668 0,-0.828742 -1.539853,-2.777739 -2.720852,-3.44379 -1.027509,-0.579488 -1.828211,-0.778135 -3.123941,-0.77502 -0.995559,0.0024 -1.270051,0.04137 -1.947709,0.276562 -1.313695,0.455941 -2.281539,1.16612 -3.042493,2.232501 -0.851175,1.192814 -1.025413,1.967438 -0.521872,2.320132 0.304845,0.213521 0.809624,0.190717 1.024089,-0.04626 z m -3.406085,-1.031447 c 0.06453,-0.05026 0.344348,-0.553872 0.621818,-1.119132 0.27747,-0.565261 0.749456,-1.322873 1.048857,-1.683583 1.017956,-1.226403 2.612927,-2.242402 4.207949,-2.680469 1.022469,-0.280817 3.13275,-0.25978 4.176348,0.04163 2.309754,0.667107 4.113769,2.199222 5.203261,4.419031 0.641375,1.306784 0.971743,1.518417 1.56872,1.004919 0.408942,-0.351758 0.367452,-0.757176 -0.193075,-1.886617 -2.169612,-4.371687 -7.266817,-6.471415 -11.877527,-4.892793 -2.469799,0.845613 -4.582583,2.758293 -5.686777,5.148177 -0.482681,1.044701 -0.460354,1.486971 0.08668,1.716981 0.30321,0.12749 0.626059,0.101415 0.843748,-0.06815 z M 42.75058,27.171349 c 1.417782,-1.428291 2.295048,-2.084132 3.775262,-2.822372 2.081513,-1.03813 3.672216,-1.406195 6.077292,-1.406195 1.862925,0 3.044377,0.19263 4.572254,0.74548 2.092936,0.757312 3.436765,1.641769 5.226261,3.439725 1.24382,1.2497 1.419179,1.39057 1.731008,1.39057 0.25482,0 0.402452,-0.07052 0.555838,-0.26552 0.438514,-0.557481 0.219251,-0.968495 -1.337998,-2.508103 -3.211838,-3.175451 -7.50152,-4.745201 -11.969694,-4.380142 -3.164841,0.258574 -6.052601,1.423919 -8.516106,3.436641 -0.822374,0.671892 -2.200682,2.118536 -2.420401,2.540405 -0.290698,0.55815 0.07262,1.176719 0.691157,1.176719 0.222719,0 0.543108,-0.267242 1.615127,-1.347208 z"
     id="path105" />
  <path
     style="fill:#ff0000;stroke-width:0.100772"
     d="m 23.335983,59.398065 c -0.142329,-0.142327 -0.158357,-1.477775 -0.158357,-13.193971 0,-11.911444 0.01416,-13.049771 0.164152,-13.199767 0.09028,-0.09028 0.214989,-0.143924 0.277124,-0.1192 0.954904,0.37996 18.993168,8.90264 19.083355,9.016462 0.182309,0.230085 0.182309,8.372856 0,8.609636 -0.09929,0.128957 -18.989019,9.045197 -19.162933,9.045197 -0.02474,0 -0.116245,-0.07126 -0.203341,-0.158357 z"
     id="path144" />
  <path
     style="fill:#ff0000;stroke-width:0.100772"
     d="m 48.83575,54.811226 c -0.591378,-0.465178 -0.565824,-0.0603 -0.565824,-8.964794 0,-8.956185 -0.02193,-8.619268 0.588122,-9.033453 0.241951,-0.164267 0.576727,-0.185387 3.392383,-0.214021 1.718168,-0.01747 3.325272,-0.0021 3.571342,0.03423 0.31763,0.04686 0.544159,0.162761 0.780985,0.399587 l 0.333585,0.333584 v 8.379182 c 0,9.196842 0.02624,8.798726 -0.601336,9.123259 -0.247427,0.12795 -0.860843,0.152864 -3.763665,0.152864 -3.364347,0 -3.476058,-0.0063 -3.735592,-0.210443 z"
     id="path183" />
  <path
     style="fill:#ff0000;stroke-width:0.100772"
     d="m 72.25373,54.719875 c -5.182215,-2.42906 -9.478893,-4.467667 -9.548174,-4.530234 -0.09701,-0.08761 -0.125965,-1.097094 -0.125965,-4.391159 v -4.277398 l 0.57944,-0.290884 c 0.318693,-0.159987 4.678934,-2.208208 9.689424,-4.551604 8.557915,-4.002517 9.118218,-4.249458 9.245858,-4.0749 0.112324,0.153612 0.135874,2.442896 0.135874,13.208327 0,7.162381 -0.02752,13.094239 -0.06117,13.181909 -0.03364,0.08767 -0.158347,0.15558 -0.277124,0.15091 -0.118775,-0.0047 -4.45595,-1.995905 -9.638165,-4.424967 z"
     id="path222" />
</svg>
