<?xml version="1.0" encoding="UTF-8"?><svg id="a" xmlns="http://www.w3.org/2000/svg" viewBox="0 0 105.391 83.641"><rect x="13.687" y="11.85" width="78.016" height="59.941" rx="13.384" ry="13.384" style="fill:#9f9da8;"/><g><rect x="47.228" y="35.572" width="10.793" height="20.521" rx="2.298" ry="2.298" style="fill:none; stroke:#2e2e54; stroke-linecap:round; stroke-miterlimit:10; stroke-width:2px;"/><g><path d="m61.552,45.455v-3.79c0-.527.305-1.006.782-1.229l18.975-8.881c.9-.421,1.932.235,1.932,1.229v12.671" style="fill:none; stroke:#2e2e54; stroke-linecap:round; stroke-miterlimit:10; stroke-width:2px;"/><path d="m61.552,46.211v3.79c0,.527.305,1.006.782,1.229l18.975,8.881c.9.421,1.932-.235,1.932-1.229v-12.671" style="fill:none; stroke:#2e2e54; stroke-linecap:round; stroke-miterlimit:10; stroke-width:2px;"/></g><g><path d="m43.839,45.833v-3.747c0-.553-.32-1.055-.82-1.29l-18.84-8.819c-.944-.442-2.028.247-2.028,1.29v12.566" style="fill:none; stroke:#2e2e54; stroke-linecap:round; stroke-miterlimit:10; stroke-width:2px;"/><path d="m43.839,46.588v3.747c0,.553-.32,1.055-.82,1.29l-18.84,8.819c-.944.442-2.028-.247-2.028-1.29v-12.566" style="fill:none; stroke:#2e2e54; stroke-linecap:round; stroke-miterlimit:10; stroke-width:2px;"/></g><path d="m47.588,32.877c.768-2.027,2.733-3.456,5.028-3.456s4.26,1.429,5.028,3.456" style="fill:none; stroke:#2e2e54; stroke-linecap:round; stroke-miterlimit:10; stroke-width:1.5px;"/><path d="m44.212,31.805c1.232-3.447,4.528-5.912,8.404-5.912s7.189,2.474,8.422,5.939" style="fill:none; stroke:#2e2e54; stroke-linecap:round; stroke-miterlimit:10; stroke-width:1.5px;"/><path d="m41.131,27.73c2.652-3.429,6.805-5.635,11.476-5.635s8.841,2.215,11.494,5.662" style="fill:none; stroke:#2e2e54; stroke-linecap:round; stroke-miterlimit:10; stroke-width:1.5px;"/></g></svg>