<svg xmlns="http://www.w3.org/2000/svg" xmlns:xlink="http://www.w3.org/1999/xlink" viewBox="0 0 472.56 107.46"><defs><style>.cls-1{fill:#fff;stroke:#9797b6;stroke-miterlimit:10;stroke-width:1.28px;}.cls-2{fill:#ee3f58;}.cls-2,.cls-3,.cls-5,.cls-6{fill-rule:evenodd;}.cls-3{fill:#0065b1;}.cls-4{fill:url(#linear-gradient);}.cls-5{fill:#0066b3;}.cls-6{fill:#ee2f53;}</style><linearGradient id="linear-gradient" x1="397.52" y1="91.45" x2="397.52" y2="19.55" gradientTransform="matrix(1, 0, 0, -1, 0, 110)" gradientUnits="userSpaceOnUse"><stop offset="0" stop-color="#0066b3"/><stop offset="0.35" stop-color="#0066b3"/><stop offset="0.69" stop-color="#ee2f53"/><stop offset="1" stop-color="#ee2f53"/></linearGradient></defs><g id="Layer_2" data-name="Layer 2"><g id="Layer_1-2" data-name="Layer 1"><g id="Layer_2-2" data-name="Layer 2"><g id="b"><g id="c"><rect class="cls-1" x="0.64" y="0.64" width="471.28" height="106.18" rx="15.27"/></g><g id="c-2"><path class="cls-2" d="M225,35.87H202.23a.33.33,0,0,0-.38.27v.1a135.5,135.5,0,0,1-5.31,30.36V67a.47.47,0,0,0,.38.12h7.84c.13,0,.38-.12.38-.25a119.48,119.48,0,0,0,4.55-23.78h7.46V66.72a.33.33,0,0,0,.27.38.21.21,0,0,0,.11,0H225a.33.33,0,0,0,.38-.27.21.21,0,0,0,0-.11V36.37c0-.25-.12-.5-.38-.5Zm96.24,0h-7.46c-.26,0-.38.12-.38.37V59.77a17.3,17.3,0,0,1-5.06.63c-4.93,0-6.07-1.52-6.07-8.09V36.37A.34.34,0,0,0,302,36h-7.55a.33.33,0,0,0-.38.27.21.21,0,0,0,0,.11v17c0,10.62,3.54,14.79,12.77,14.79a46.81,46.81,0,0,0,14.54-2.65c.13,0,.26-.25.26-.38V36.37C321.62,36.12,321.49,35.87,321.24,35.87ZM163.79,36H156.2c-.26,0-.38.13-.38.25A167.81,167.81,0,0,1,149,57l-7.6-20.88c0-.13-.25-.26-.38-.26h-7.59c-.12,0-.25.13-.37.13a.24.24,0,0,0-.06.32l.06.06,11.38,31.11c-1.14,2.4-2.28,4.43-3.29,6.32-.76,1.39-1.52,2.79-2.28,4.3-.12.13,0,.26,0,.38s.26.26.38.26h8.22c.13,0,.26-.13.38-.26,1.39-2.65,3.16-6.45,4.81-10.24A316.19,316.19,0,0,0,164.29,36.5a.44.44,0,0,0-.36-.51.33.33,0,0,0-.14,0Zm27.06,23.9a.28.28,0,0,0-.25-.25h-.38a27.18,27.18,0,0,1-7.59,1.27c-5.19,0-7.59-1.4-7.59-9.36,0-6.33.76-9.36,7.59-9.36a18.4,18.4,0,0,1,6.07,1c.25,0,.38,0,.51-.25.88-1.65,1.89-3.54,3-6.07V36.5a.28.28,0,0,0-.25-.25,32.7,32.7,0,0,0-9.87-1.52c-10.87,0-15.68,5.06-15.68,16.57s4.81,16.82,15.68,16.82c2.66,0,8.1-.64,10.63-1.65.25-.13.25-.25.25-.5l-2.15-6.07h0ZM261.54,36H254c-.13,0-.38.13-.38.26A167.9,167.9,0,0,1,246.75,57l-7.59-20.87c0-.13-.25-.25-.38-.25h-7.59c-.12,0-.25.12-.38.12a.25.25,0,0,0,0,.35l0,0,11.39,31.1c-1.14,2.4-2.28,4.3-3.29,6.32-.76,1.4-1.52,2.79-2.28,4.3-.13.13,0,.26,0,.38s.25.26.38.26h8.22c.13,0,.25-.13.38-.26,1.39-2.65,3.16-6.45,4.81-10.24a283.47,283.47,0,0,0,11.5-31.74.47.47,0,0,0-.12-.38c0-.13-.13-.13-.26-.13Zm27.83-.12h-22a.33.33,0,0,0-.38.27.21.21,0,0,0,0,.11V66.72a.33.33,0,0,0,.27.38.21.21,0,0,0,.11,0h7.46a.33.33,0,0,0,.38-.27.21.21,0,0,0,0-.11V43.2h11.51c.13,0,.38-.13.38-.25.88-2,1.77-4.3,2.65-6.45v-.38c-.12-.13-.25-.25-.37-.25Z"/><path class="cls-3" d="M83,61.16c-4.93,0-6.45-1.39-6.45-9.61,0-8.85,1.65-9.61,6.45-9.61s6.58.76,6.58,9.61C89.58,59.9,87.94,61.16,83,61.16ZM83,35c-10.75,0-14.92,4.55-14.92,16.44S72.22,68.12,83,68.12s15-4.68,15-16.7C98,39.66,93.72,35,83,35Zm44.65,24.91a.27.27,0,0,0-.26-.25H127a27.11,27.11,0,0,1-7.58,1.27c-5.19,0-7.59-1.4-7.59-9.36,0-6.33.76-9.36,7.59-9.36a18.4,18.4,0,0,1,6.07,1A.49.49,0,0,0,126,43c.89-1.65,1.9-3.54,3-6.07V36.5a.26.26,0,0,0-.26-.25A35.27,35.27,0,0,0,119,34.86c-10.88,0-15.69,5-15.69,16.56S108.14,68.24,119,68.24c2.65,0,8.09-.63,10.62-1.64.25-.13.25-.25.25-.51L127.6,59.9h.05Zm-61.85-24h-22c-.25,0-.38.25-.38.5V66.85a.34.34,0,0,0,.29.38h7.55a.34.34,0,0,0,.38-.29V43.2H63.12c.12,0,.25-.13.38-.25.88-2,1.77-4.3,2.65-6.45v-.38c-.12-.13-.25-.25-.38-.25Z"/></g></g></g><path class="cls-4" d="M429.18,42.4c-.28-3.7-3.12-8.45-5.95-10.73a106,106,0,0,0-9.91-6.47,112.6,112.6,0,0,0-10.49-5.51,15.41,15.41,0,0,0-6-1.14,15.06,15.06,0,0,0-6,1.14,112.6,112.6,0,0,0-10.49,5.51c-5.47,3.33-9.91,6.47-9.91,6.47a17.52,17.52,0,0,0-5.19,7.41.78.78,0,0,0,.75,1h4.53a1.75,1.75,0,0,0,1.48-.86,14.5,14.5,0,0,1,3-3.48s3.66-2.58,8.19-5.3A91.08,91.08,0,0,1,391.78,26a12.54,12.54,0,0,1,5-.94,12.72,12.72,0,0,1,5,.94,90.05,90.05,0,0,1,8.66,4.52,88.66,88.66,0,0,1,8.19,5.3c2.33,1.87,4.67,5.76,4.91,8.8,0,0,.54,4.52.62,9.87a93.35,93.35,0,0,1-.54,9.89,14.48,14.48,0,0,1-5,8.81s-3.67,2.65-8.19,5.37A90.05,90.05,0,0,1,401.76,83a12.54,12.54,0,0,1-5,.94,12.74,12.74,0,0,1-5-.92,91,91,0,0,1-8.65-4.51c-4.53-2.65-8.19-5.38-8.19-5.38A13.83,13.83,0,0,1,372,69.71a1.75,1.75,0,0,0-1.46-.83h-4.6a.78.78,0,0,0-.74,1.05,18.93,18.93,0,0,0,5.16,7.34s4.44,3.32,9.91,6.55a108,108,0,0,0,10.49,5.51,15.21,15.21,0,0,0,6,1.12,15.06,15.06,0,0,0,6-1.14,112.6,112.6,0,0,0,10.49-5.51c5.47-3.33,9.91-6.56,9.91-6.56a17.61,17.61,0,0,0,6-10.74,115.58,115.58,0,0,0,.66-12.06C429.84,47.91,429.18,42.4,429.18,42.4Z"/><path class="cls-5" d="M384.51,50.67a.1.1,0,0,0-.05-.06h-.08a5.54,5.54,0,0,1-1.7.29c-1.23,0-1.82-.33-1.82-2.22,0-1.5.18-2.21,1.82-2.21a6.17,6.17,0,0,1,1.57.22.08.08,0,0,0,.11,0c.15-.34.37-.88.54-1.27l.06-.16a.11.11,0,0,0,0-.08.09.09,0,0,0-.06-.06,8.06,8.06,0,0,0-2.35-.36c-2.58,0-3.72,1.21-3.72,3.94s1.14,4,3.72,4a9.07,9.07,0,0,0,2.53-.38.11.11,0,0,0,.06-.13ZM364.59,45a.1.1,0,0,1,.1-.09H370a.09.09,0,0,1,.08.13l-.65,1.57a.11.11,0,0,1-.1.06h-2.74v5.66a.09.09,0,0,1-.09.09h-1.79a.1.1,0,0,1-.1-.09Zm5.91,3.63c0-2.83,1-3.93,3.5-3.93s3.53,1.1,3.53,3.93-1,4-3.53,4S370.5,51.53,370.5,48.65Zm2,0c0,2,.35,2.32,1.5,2.32s1.53-.32,1.53-2.32-.39-2.31-1.53-2.31S372.5,46.56,372.5,48.68Z"/><path class="cls-6" d="M378.25,60.78a.12.12,0,0,0-.05-.05h-.08a5.56,5.56,0,0,1-1.71.29c-1.22,0-1.81-.33-1.81-2.21,0-1.51.18-2.22,1.81-2.22a5.8,5.8,0,0,1,1.58.23.1.1,0,0,0,.11-.05c.15-.33.37-.87.53-1.27h0l.07-.15a.11.11,0,0,0,0-.08.12.12,0,0,0-.06-.06,8.06,8.06,0,0,0-2.35-.36c-2.58,0-3.73,1.21-3.73,3.93s1.15,4,3.73,4a8.77,8.77,0,0,0,2.53-.38.09.09,0,0,0,.05-.12Zm1.57,1.78h1.84a.11.11,0,0,0,.09-.07,26.54,26.54,0,0,0,.74-3,21.1,21.1,0,0,0,.36-2.68h1.8v5.66a.11.11,0,0,0,.1.1h1.79a.1.1,0,0,0,.09-.1V55.14a.09.09,0,0,0-.09-.1h-5.47a.11.11,0,0,0-.1.09,33,33,0,0,1-.39,3.75,35.35,35.35,0,0,1-.85,3.56A.09.09,0,0,0,379.82,62.56ZM396.51,55a.09.09,0,0,0-.1.1v7.32a.1.1,0,0,0,.1.1h1.79a.1.1,0,0,0,.09-.1V56.8h2.74a.07.07,0,0,0,.09,0l.66-1.58a.1.1,0,0,0-.09-.13Zm-31.84,0a.1.1,0,0,0-.09.13l2.72,7.39c-.38.81-.81,1.66-1.3,2.61a.1.1,0,0,0,.09.14H368a.1.1,0,0,0,.08,0A66.07,66.07,0,0,0,372,55.17.1.1,0,0,0,372,55h-1.8a.1.1,0,0,0-.09.07,46.25,46.25,0,0,1-1.66,5l-1.83-5a.1.1,0,0,0-.09-.06Zm23.09.13a.1.1,0,0,1,.09-.13h1.81a.1.1,0,0,1,.09.06l1.83,5a46.25,46.25,0,0,0,1.66-5,.11.11,0,0,1,.09-.07h1.8a.1.1,0,0,1,.09.13,66.07,66.07,0,0,1-3.93,10.09.1.1,0,0,1-.08,0h-1.94a.09.09,0,0,1-.08-.14c.48-1,.91-1.8,1.3-2.61ZM407.51,55h1.79a.09.09,0,0,1,.09.1h0V62a.09.09,0,0,1-.06.09,10.71,10.71,0,0,1-3.49.64c-2.15,0-3-.94-3.06-3.35V55.15h0a.09.09,0,0,1,.09-.1h1.8a.09.09,0,0,1,.09.1v4.23c0,1.28.35,1.59,1.44,1.59a4.39,4.39,0,0,0,1.22-.16V55.14A.09.09,0,0,1,407.51,55Z"/></g></g></svg>