<?xml version="1.0" encoding="UTF-8"?><svg id="b" xmlns="http://www.w3.org/2000/svg" viewBox="0 0 58.72 89.53"><g id="c"><g><path d="m49.54,15.9V1.69c0-.94-.75-1.69-1.69-1.69-.93,0-1.69.75-1.69,1.69v13.72c-.06-.01-.11-.01-.17-.01h-14.94V1.69c0-.94-.75-1.69-1.69-1.69-.93,0-1.69.75-1.69,1.69v13.71h-14.94c-.06,0-.11,0-.17.01V1.69c0-.94-.76-1.69-1.69-1.69s-1.69.75-1.69,1.69v14.21C3.88,17.44,0,22.34,0,28.13v33.26c0,5.79,3.88,10.69,9.18,12.23v14.22c0,.93.76,1.69,1.69,1.69s1.69-.76,1.69-1.69v-13.73c.06.01.11.01.17.01h14.94v13.72c0,.93.76,1.69,1.69,1.69.94,0,1.69-.76,1.69-1.69v-13.72h14.94c.06,0,.11,0,.17-.01v13.73c0,.93.76,1.69,1.69,1.69.94,0,1.69-.76,1.69-1.69v-14.22c5.3-1.54,9.18-6.44,9.18-12.23V28.13c0-5.79-3.88-10.69-9.18-12.23Zm5.8,45.49c0,5.16-4.19,9.35-9.35,9.35H12.73c-5.15,0-9.35-4.19-9.35-9.35V28.13c0-5.15,4.2-9.35,9.35-9.35h33.26c5.16,0,9.35,4.2,9.35,9.35v33.26Z" style="fill:#f9f9f9;"/><path d="m40.476,64.943h-22.229c-5,0-9.067-4.067-9.067-9.067v-22.229c0-4.999,4.067-9.066,9.067-9.066h22.229c4.999,0,9.066,4.067,9.066,9.066v22.229c0,5-4.067,9.067-9.066,9.067ZM18.248,27.962c-3.136,0-5.687,2.551-5.687,5.686v22.229c0,3.136,2.551,5.687,5.687,5.687h22.229c3.135,0,5.686-2.551,5.686-5.687v-22.229c0-3.135-2.551-5.686-5.686-5.686h-22.229Z" style="fill:#f9f9f9;"/></g></g></svg>