<?xml version="1.0" encoding="UTF-8"?><svg id="b" xmlns="http://www.w3.org/2000/svg" viewBox="0 0 441.154 160.688"><g id="c"><g><polygon points="407.307 158.001 432.878 133.834 403.655 141.699 428.561 90.29 389.873 146.057 389.873 101.86 378.416 147.734 335.718 76.996 359.871 150.671 307.35 130.301 349.633 155.409 310.246 145.052 335.718 158.001 407.307 158.001" style="fill:#d7d7e2;"/><g><g><polygon points="270.584 92.695 344.191 144.141 326.328 151.918 335.031 158.001 352.539 149.976 355.115 146.29 361.518 150.765 366.888 143.082 349.816 131.15 344.446 138.833 273.16 89.009 270.584 92.695" style="fill:#ff7133;"/><polygon points="302.914 98.05 292.123 113.49 272.173 119.636 244.738 100.461 243.654 79.614 254.445 64.174 269.608 60.693 300.973 82.614 302.914 98.05" style="fill:#50546d;"/><polygon points="270.584 92.695 196.977 41.25 195.812 60.697 187.108 54.615 188.629 35.415 191.205 31.729 184.802 27.254 190.172 19.571 207.244 31.503 201.874 39.186 273.16 89.009 270.584 92.695" style="fill:#50546d;"/></g><polygon points="168.972 0 239.355 44.817 238.099 46.456 167.715 1.638 168.972 0" style="fill:#8088a8;"/><rect x="195.692" y="21.855" width="5.884" height="7.576" transform="translate(50.514 -109.167) rotate(34.951)" style="fill:#50546d;"/><rect x="360.021" y="94.181" width="1.999" height="78.233" transform="translate(44.946 352.845) rotate(-55.049)" style="fill:#8088a8;"/><rect x="355.336" y="133.434" width="5.884" height="7.576" transform="translate(143.226 -180.498) rotate(34.951)" style="fill:#ff7133;"/></g><line x1="1.352" y1="159.188" x2="441.154" y2="159.188" style="fill:none; stroke:#50546d; stroke-miterlimit:10; stroke-width:3px;"/><g><path d="m33.307,136.212h.006l-15.067,22.975-15.067-22.975c-2.007-2.925-3.179-6.471-3.179-10.287,0-10.078,8.168-18.246,18.246-18.246s18.24,8.168,18.24,18.246c0,3.816-1.172,7.362-3.179,10.287Z" style="fill:#ff7133;"/><path d="m9.962,136.246v-5.564h1.455c1.27-2.511,1.905-6.013,1.905-10.507v-2.119h10.442v12.626h1.862l-.364,5.564h-2.183v-3.21h-10.55l-.257,3.21h-2.312Zm4.259-5.564h6.912v-10.25h-5.286v1.712c0,3.495-.542,6.342-1.626,8.538Z" style="fill:#fff;"/></g></g></g></svg>