<svg width="142" height="142" viewBox="0 0 142 142" fill="none" xmlns="http://www.w3.org/2000/svg">
<path d="M114.632 141.997H27.2571C19.357 141.997 12.9297 135.569 12.9297 127.669V14.3274C12.9297 6.42732 19.357 0 27.2571 0H114.632C122.532 0 128.959 6.42732 128.959 14.3274V127.673C128.959 135.573 122.532 141.997 114.632 141.997ZM27.2571 6.20101C22.7795 6.20101 19.1341 9.84293 19.1341 14.324V127.669C19.1341 132.15 22.7761 135.792 27.2571 135.792H114.632C119.109 135.792 122.755 132.15 122.755 127.669V14.3274C122.755 9.84641 119.113 6.20449 114.632 6.20449L27.2571 6.20101Z" fill="#2E2E54"/>
<path d="M108.141 36.8402H33.7467C32.0337 36.8402 30.6445 35.451 30.6445 33.738C30.6445 32.025 32.0337 30.6357 33.7467 30.6357H108.141C109.855 30.6357 111.244 32.025 111.244 33.738C111.244 35.451 109.855 36.8402 108.141 36.8402Z" fill="#2E2E54"/>
<path d="M108.141 61.6781H33.7467C32.0337 61.6781 30.6445 60.2889 30.6445 58.5759C30.6445 56.8629 32.0337 55.4736 33.7467 55.4736H108.141C109.855 55.4736 111.244 56.8629 111.244 58.5759C111.244 60.2889 109.855 61.6781 108.141 61.6781Z" fill="#2E2E54"/>
<path d="M97.5115 86.5219H33.7467C32.0337 86.5219 30.6445 85.1327 30.6445 83.4196C30.6445 81.7066 32.0337 80.3174 33.7467 80.3174H97.5115C99.2246 80.3174 100.614 81.7066 100.614 83.4196C100.614 85.1327 99.2246 86.5219 97.5115 86.5219Z" fill="#2E2E54"/>
<path d="M81.572 111.36H33.7467C32.0337 111.36 30.6445 109.971 30.6445 108.258C30.6445 106.544 32.0337 105.155 33.7467 105.155H81.572C83.2851 105.155 84.6743 106.544 84.6743 108.258C84.6743 109.971 83.2851 111.36 81.572 111.36Z" fill="#2E2E54"/>
</svg>
