<svg width="142" height="142" viewBox="0 0 142 142" fill="none" xmlns="http://www.w3.org/2000/svg">
<path d="M97.9254 24.276V90.4473C97.9254 91.0615 97.4278 91.5591 96.8135 91.5591H85.0569C84.4427 91.5591 83.9451 91.0615 83.9451 90.4473V78.6907C83.9451 78.0764 84.4427 77.5788 85.0569 77.5788H95.4924C96.1066 77.5788 96.6042 77.0812 96.6042 76.467V24.5334C96.6042 24.2382 96.4875 23.9568 96.2782 23.7475L76.2034 3.67617C75.5034 2.97612 74.3058 3.4737 74.3058 4.462V140.888C74.3058 141.502 73.8082 142 73.1939 142H69.5461C68.9319 142 68.4343 141.502 68.4343 140.888V87.7981C68.4343 86.8098 67.2367 80.3412 66.5366 81.0413L60.2225 87.3554C60.0132 87.5647 59.8965 87.8461 59.8965 88.1412V130.926C59.8965 131.541 59.3989 132.038 58.7847 132.038H49.3204C48.7061 132.038 48.2085 131.541 48.2085 130.926V106.85C48.2085 106.236 47.711 105.738 47.0967 105.738H45V104.407H57.4567C58.0709 104.407 58.5685 103.909 58.5685 103.295V87.7947C58.5685 87.4995 58.6852 87.2181 58.8945 87.0088L59.773 86.1303C59.9823 85.921 60.099 85.6396 60.099 85.3445V32.6696C60.099 32.5289 60.1264 32.3883 60.1779 32.2579L72.8267 0.697551C73.1253 -0.0436714 74.0827 -0.239272 74.6455 0.330372L97.6062 23.4936C97.8121 23.7029 97.9288 23.9843 97.9288 24.276H97.9254Z" fill="#2E2E54"/>
</svg>
