<svg width="142" height="142" viewBox="0 0 142 142" fill="none" xmlns="http://www.w3.org/2000/svg">
<g clip-path="url(#clip0_184_209)">
<path d="M74.7235 28.9196C82.7094 28.9196 89.1833 22.4457 89.1833 14.4598C89.1833 6.47387 82.7094 0 74.7235 0C66.7376 0 60.2637 6.47387 60.2637 14.4598C60.2637 22.4457 66.7376 28.9196 74.7235 28.9196Z" fill="#BBBBBC"/>
<path d="M74.72 142.001C79.1831 142.001 82.8012 138.382 82.8012 133.919C82.8012 129.456 79.1831 125.838 74.72 125.838C70.2568 125.838 66.6387 129.456 66.6387 133.919C66.6387 138.382 70.2568 142.001 74.72 142.001Z" fill="#BBBBBC"/>
<path d="M32.4834 128.492C39.1481 128.492 44.5508 123.09 44.5508 116.425C44.5508 109.76 39.1481 104.357 32.4834 104.357C25.8188 104.357 20.416 109.76 20.416 116.425C20.416 123.09 25.8188 128.492 32.4834 128.492Z" fill="#BBBBBC"/>
<path d="M116.957 34.9833C118.631 34.9833 119.989 33.6256 119.989 31.9507C119.989 30.2757 118.631 28.918 116.957 28.918C115.282 28.918 113.924 30.2757 113.924 31.9507C113.924 33.6256 115.282 34.9833 116.957 34.9833Z" fill="#BBBBBC"/>
<path d="M14.9927 87.1797C22.1683 87.1797 27.9855 81.3627 27.9855 74.187C27.9855 67.0113 22.1683 61.1943 14.9927 61.1943C7.81701 61.1943 2 67.0113 2 74.187C2 81.3627 7.81701 87.1797 14.9927 87.1797Z" fill="#BBBBBC"/>
<path d="M134.445 80.2828C137.81 80.2828 140.539 77.5546 140.539 74.1892C140.539 70.8238 137.81 68.0957 134.445 68.0957C131.08 68.0957 128.352 70.8238 128.352 74.1892C128.352 77.5546 131.08 80.2828 134.445 80.2828Z" fill="#BBBBBC"/>
<path d="M32.4824 45.1853C39.7882 45.1853 45.7107 39.2628 45.7107 31.9569C45.7107 24.6511 39.7882 18.7285 32.4824 18.7285C25.1765 18.7285 19.2539 24.6511 19.2539 31.9569C19.2539 39.2628 25.1765 45.1853 32.4824 45.1853Z" fill="#BBBBBC"/>
<path d="M116.96 124.152C121.229 124.152 124.689 120.692 124.689 116.423C124.689 112.154 121.229 108.693 116.96 108.693C112.691 108.693 109.23 112.154 109.23 116.423C109.23 120.692 112.691 124.152 116.96 124.152Z" fill="#BBBBBC"/>
</g>
<defs>
<clipPath id="clip0_184_209">
<rect width="142" height="142" fill="white"/>
</clipPath>
</defs>
</svg>
