<svg width="142" height="142" viewBox="0 0 142 142" fill="none" xmlns="http://www.w3.org/2000/svg">
<g clip-path="url(#clip0_184_221)">
<path d="M55.8921 142.001C55.6568 142.001 55.4179 141.979 55.1789 141.925C55.0232 141.892 51.2796 141.106 45.9031 139.452C44.0712 138.887 43.0394 136.943 43.6042 135.111C44.169 133.279 46.1167 132.251 47.9451 132.812C52.9921 134.365 56.5619 135.118 56.5982 135.125C58.4772 135.516 59.6792 137.359 59.2882 139.234C58.9443 140.871 57.4996 141.997 55.8921 141.997V142.001Z" fill="#BBBBBC"/>
<path d="M30.7369 133.285C30.2192 133.285 29.6978 133.17 29.2054 132.927C22.8551 129.799 17.7212 126.309 13.9558 122.562C12.5982 121.207 12.5909 119.01 13.945 117.652C15.2955 116.291 17.4968 116.287 18.8545 117.641C22.084 120.856 26.5987 123.901 32.2721 126.696C33.9918 127.543 34.7014 129.629 33.8542 131.349C33.2495 132.576 32.015 133.285 30.7369 133.285ZM9.47727 108.192C9.44107 108.192 9.40487 108.192 9.36866 108.192C7.44979 108.134 5.94369 106.534 6.00162 104.615C6.1754 98.9667 8.59029 93.0724 13.1811 87.0986L16.121 88.974L18.8617 91.1065C15.0022 96.1281 13.0688 100.668 12.9421 104.828C12.8842 106.711 11.3419 108.195 9.47374 108.195L9.47727 108.192ZM98.216 82.7685C96.2971 82.7685 94.5629 81.2117 94.5629 79.2964C94.5629 77.3812 95.9387 75.8208 97.8576 75.8208C97.8757 75.8208 98.2522 75.8208 98.2667 75.8208C104.172 75.8208 109.204 74.9627 113.596 73.2032C115.384 72.4935 117.397 73.3552 118.114 75.1365C118.828 76.9178 117.962 78.938 116.181 79.6548C110.953 81.7511 105.077 82.7685 98.216 82.7685ZM29.325 81.3601C28.0506 81.3601 26.8232 80.6578 26.2149 79.4413C25.3569 77.7251 26.052 75.6397 27.7681 74.7816C33.083 72.1241 39.0134 70.6616 45.9032 70.3176C47.7714 70.1945 49.4477 71.6933 49.5455 73.6122C49.6433 75.5311 48.1697 77.1603 46.2508 77.2545C40.3385 77.555 35.3097 78.775 30.871 80.9944C30.3713 81.2442 29.8427 81.3638 29.3213 81.3638L29.325 81.3601ZM80.5733 81.0885C80.3959 81.0885 80.2148 81.0741 80.0338 81.0451C77.7927 80.6939 75.5444 80.3138 73.296 79.9336C69.8348 79.3507 66.3663 78.7642 62.9268 78.2827C61.0261 78.0148 59.701 76.2588 59.9689 74.3616C60.2369 72.4645 61.9928 71.1286 63.89 71.4037C67.3983 71.8961 70.9282 72.4898 74.4546 73.0836C76.6776 73.4601 78.9006 73.8331 81.1127 74.1806C83.0062 74.4775 84.3024 76.2552 84.0055 78.1488C83.7376 79.8613 82.2604 81.085 80.5768 81.085L80.5733 81.0885ZM128.733 69.7021C127.973 69.7021 127.209 69.4523 126.568 68.9418C125.069 67.7434 124.827 65.5602 126.021 64.0613C128.397 61.0888 129.551 58.1743 129.551 55.1512C129.551 53.8261 129.32 52.4539 128.864 51.0781C128.259 49.257 129.247 47.2948 131.068 46.6902C132.893 46.0892 134.852 47.0739 135.457 48.895C136.148 50.9768 136.499 53.0839 136.499 55.1549C136.499 59.7529 134.801 64.2061 131.449 68.4023C130.764 69.2604 129.754 69.7094 128.733 69.7094V69.7021ZM121.851 39.7206C121.051 39.7206 120.247 39.4455 119.591 38.8843C115.855 35.6802 111.21 32.5521 105.79 29.5869C104.107 28.6673 103.491 26.5565 104.411 24.873C105.33 23.1931 107.434 22.5739 109.125 23.4935C114.968 26.6904 120.011 30.0937 124.117 33.6093C125.573 34.8583 125.743 37.0523 124.494 38.5078C123.806 39.3079 122.832 39.7206 121.851 39.7206Z" fill="#BBBBBC"/>
<path d="M91.4999 22.7427C91.098 22.7427 90.6889 22.6739 90.2907 22.5254C87.2675 21.3995 84.3276 20.4654 81.7933 19.8137C79.936 19.3394 78.8137 17.4458 79.2916 15.5885C79.7659 13.7276 81.6557 12.6089 83.5167 13.0868C86.2828 13.7928 89.4616 14.8065 92.7092 16.0121C94.5086 16.6819 95.4246 18.6804 94.7548 20.4762C94.2334 21.8773 92.9082 22.739 91.4999 22.739V22.7427Z" fill="#BBBBBC"/>
<path d="M42.9562 32.9005C42.0655 32.9005 41.1785 32.5601 40.5014 31.8831C39.1437 30.5254 39.1437 28.3278 40.5014 26.9737L66.4569 1.01827C67.811 -0.339423 70.0123 -0.339423 71.3664 1.01827C72.7241 2.37596 72.7241 4.57356 71.3664 5.92763L45.4109 31.8831C44.7339 32.5637 43.8432 32.9005 42.9562 32.9005Z" fill="#BBBBBC"/>
<path d="M68.9116 32.9005C68.021 32.9005 67.1339 32.5601 66.4569 31.8831L40.5014 5.92763C39.1437 4.56994 39.1437 2.37234 40.5014 1.01827C41.8555 -0.339423 44.0568 -0.339423 45.4109 1.01827L71.3664 26.9737C72.7241 28.3314 72.7241 30.529 71.3664 31.8831C70.6893 32.5637 69.7986 32.9005 68.9116 32.9005Z" fill="#BBBBBC"/>
</g>
<defs>
<clipPath id="clip0_184_221">
<rect width="142" height="142" fill="white"/>
</clipPath>
</defs>
</svg>
