<svg width="142" height="142" viewBox="0 0 142 142" fill="none" xmlns="http://www.w3.org/2000/svg">
<path d="M73.8882 142C72.8523 142 71.8502 141.524 71.2023 140.667L55.6673 120.229C53.9465 117.965 51.2201 116.612 48.3756 116.612C38.6342 116.612 30.752 108.73 30.752 99.0388V63.7814C30.752 61.9188 32.2636 60.4072 34.1262 60.4072C35.9888 60.4072 37.5004 61.9188 37.5004 63.7814V99.0388C37.5004 105.008 42.356 109.863 48.325 109.863C53.3188 109.863 58.0529 112.212 61.0425 116.146L70.514 128.611V33.9397C70.514 32.0771 72.0256 30.5654 73.8882 30.5654C75.7508 30.5654 77.2624 32.0771 77.2624 33.9397V138.625C77.2624 140.073 76.3379 141.362 74.9646 141.824C74.6103 141.942 74.2459 142 73.8882 142Z" fill="#BBBBBC"/>
<path d="M73.886 118.548C73.5384 118.548 73.1841 118.494 72.8366 118.379C71.0651 117.798 70.1001 115.895 70.6804 114.124L76.2648 97.0638C78.4108 90.5076 84.4844 86.1042 91.3814 86.1042H100.438C105.489 86.1042 109.596 81.9944 109.596 76.9432V51.0324C109.596 49.1699 111.107 47.6582 112.97 47.6582C114.832 47.6582 116.344 49.1699 116.344 51.0324V76.9432C116.344 85.7162 109.207 92.8527 100.438 92.8527H91.3814C87.4099 92.8527 83.9108 95.3868 82.6759 99.1626L77.0915 116.223C76.6258 117.647 75.3065 118.548 73.886 118.548Z" fill="#BBBBBC"/>
<path d="M34.1255 67.1562C25.2344 67.1562 18 59.9219 18 51.0307C18 42.1396 25.2344 34.9053 34.1255 34.9053C43.0166 34.9053 50.251 42.1396 50.251 51.0307C50.251 59.9219 43.0166 67.1562 34.1255 67.1562ZM34.1255 41.6537C28.9561 41.6537 24.7485 45.8614 24.7485 51.0307C24.7485 56.2001 28.9561 60.4077 34.1255 60.4077C39.2948 60.4077 43.5025 56.2001 43.5025 51.0307C43.5025 45.8614 39.2948 41.6537 34.1255 41.6537Z" fill="#BBBBBC"/>
<path d="M116.166 53.084H109.789C105.396 53.084 101.822 49.5073 101.822 45.1141V37.1711C101.822 32.7779 105.396 29.2012 109.789 29.2012H116.166C120.559 29.2012 124.133 32.7779 124.133 37.1711V45.1141C124.133 49.5073 120.559 53.084 116.166 53.084ZM109.789 35.953C109.127 35.953 108.571 36.5131 108.571 37.1745V45.1175C108.571 45.7788 109.131 46.3389 109.789 46.3389H116.166C116.827 46.3389 117.384 45.7788 117.384 45.1175V37.1745C117.384 36.5131 116.824 35.953 116.166 35.953H109.789Z" fill="#BBBBBC"/>
<path d="M83.9926 36.5902H63.7944C60.3426 36.5902 57.2518 34.8053 55.5276 31.8157C53.8033 28.8261 53.8033 25.2595 55.5276 22.27L65.6266 4.77455C67.3543 1.78497 70.4451 0 73.8935 0C77.342 0 80.4362 1.78497 82.1638 4.77455L92.2629 22.27C93.9871 25.2562 93.9871 28.8261 92.2629 31.8157C90.5353 34.8053 87.4445 36.5902 83.9926 36.5902ZM71.4708 8.15216L61.3717 25.6476C60.6429 26.9095 61.1288 28.0264 61.3717 28.4448C61.6147 28.8666 62.3368 29.8451 63.7944 29.8451H83.9926C85.4503 29.8451 86.1724 28.8666 86.4153 28.4448C86.6583 28.023 87.1442 26.9095 86.4153 25.6476L76.3162 8.15216C75.5874 6.89019 74.3794 6.75185 73.8935 6.75185C73.4076 6.75185 72.1997 6.89019 71.4708 8.15216Z" fill="#BBBBBC"/>
</svg>
