<svg width="142" height="142" viewBox="0 0 142 142" fill="none" xmlns="http://www.w3.org/2000/svg">
<g clip-path="url(#clip0_184_22)">
<path d="M80.5657 134.339C80.5243 134.339 80.4795 134.339 80.4382 134.339C78.7272 134.274 77.3226 132.966 77.1401 131.262L66.5195 30.99L51.1617 96.432C50.8243 97.8641 49.6159 98.9245 48.1493 99.0725C46.6965 99.2274 45.2884 98.4183 44.6756 97.0757L24.1091 52.0799H3.44268C1.54232 52.0799 0 50.5375 0 48.6372C0 46.7368 1.54232 45.1945 3.44268 45.1945H26.3227C27.6723 45.1945 28.8944 45.9829 29.4556 47.205L46.7585 85.0608L64.4538 9.65918C64.8394 8.02391 66.3783 6.89125 68.0205 7.0083C69.6971 7.11158 71.0501 8.41293 71.2291 10.0826L81.4539 106.619L91.868 49.0056C92.164 47.3669 93.5893 46.1757 95.2556 46.1757H115.998C117.898 46.1757 119.44 47.718 119.44 49.6184C119.44 51.5187 117.898 53.061 115.998 53.061H98.1302L83.9498 131.513C83.6538 133.159 82.2216 134.343 80.5657 134.343V134.339Z" fill="#2E2E54"/>
<path d="M127.452 63.6727C119.43 63.6727 112.903 57.1453 112.903 49.1239C112.903 41.1024 119.43 34.5751 127.452 34.5751C135.473 34.5751 142.001 41.1024 142.001 49.1239C142.001 57.1453 135.473 63.6727 127.452 63.6727ZM127.452 41.4605C123.228 41.4605 119.789 44.8997 119.789 49.1239C119.789 53.348 123.228 56.7873 127.452 56.7873C131.676 56.7873 135.115 53.348 135.115 49.1239C135.115 44.8997 131.676 41.4605 127.452 41.4605Z" fill="#2E2E54"/>
</g>
<defs>
<clipPath id="clip0_184_22">
<rect width="142" height="142" fill="white"/>
</clipPath>
</defs>
</svg>
