<svg xmlns="http://www.w3.org/2000/svg" viewBox="0 0 92 92"><defs><style>.cls-1{fill:#dcdce5;}.cls-2{fill:#fff;}</style></defs><g id="Layer_2" data-name="Layer 2"><g id="Layer_10" data-name="Layer 10"><circle class="cls-1" cx="46" cy="46" r="46"/><path class="cls-2" d="M42.37,55.69l-.93-11.63.36-.36q7.11-.15,11-3.23a10.13,10.13,0,0,0,3.92-8.4,10.22,10.22,0,0,0-3.31-7.69,11.93,11.93,0,0,0-8.62-3.16Q37,21.22,31,28.62l-2.58-2.16a24.6,24.6,0,0,1,7.25-6.35A19,19,0,0,1,45,17.92q7,0,11.27,4.06a13.25,13.25,0,0,1,4.31,10.09,12.79,12.79,0,0,1-4.27,10.09,19.62,19.62,0,0,1-11,4.56l-.65,9ZM41.15,68.84V62.73h4.74v6.11Z"/></g></g></svg>