<svg width="142" height="142" viewBox="0 0 142 142" fill="none" xmlns="http://www.w3.org/2000/svg">
<path d="M135.205 142H6.36836C4.50903 142 3 140.491 3 138.632V3.36836C3 1.50903 4.50903 0 6.36836 0H119.101C120.31 0 121.428 0.65011 122.028 1.70104L138.132 29.9717C138.418 30.4803 138.573 31.0563 138.573 31.639V138.632C138.573 140.491 137.064 142 135.205 142ZM9.73672 135.263H131.836V32.5316L117.144 6.73672H9.73672V135.263Z" fill="#2E2E54"/>
<path d="M98.7685 27.4881H42.8098C40.9504 27.4881 39.4414 25.9791 39.4414 24.1198V6.08223C39.4414 4.22289 40.9504 2.71387 42.8098 2.71387C44.6691 2.71387 46.1781 4.22289 46.1781 6.08223V20.7514H95.4001V6.08223C95.4001 4.22289 96.9091 2.71387 98.7685 2.71387C100.628 2.71387 102.137 4.22289 102.137 6.08223V24.1198C102.137 25.9791 100.628 27.4881 98.7685 27.4881Z" fill="#2E2E54"/>
<path d="M109.867 141.999H31.718C29.8586 141.999 28.3496 140.49 28.3496 138.631V60.4817C28.3496 58.6224 29.8586 57.1133 31.718 57.1133H109.867C111.727 57.1133 113.236 58.6224 113.236 60.4817V138.631C113.236 140.49 111.727 141.999 109.867 141.999ZM35.0863 135.263H106.499V63.8501H35.0863V135.263Z" fill="#2E2E54"/>
</svg>
