<?xml version="1.0" encoding="UTF-8"?><svg id="d" xmlns="http://www.w3.org/2000/svg" viewBox="0 0 121 121"><path d="m90.49,35.921h-5.1v-11.83c0-4-3.25-7.25-7.25-7.25h-35.28c-4,0-7.25,3.25-7.25,7.25v11.83h-5.09c-1.82,0-3.28,1.47-3.28,3.28v29.99c0,15.61,10.75,28.71,25.25,32.29v19.38h16.02v-19.38c14.5-3.58,25.25-16.68,25.25-32.29v-29.99c0-1.81-1.46-3.28-3.27-3.28Zm-8.18,0h-7.46v-8.56c0-.85-.69-1.54-1.55-1.54-.85,0-1.54.69-1.54,1.54v8.56h-9.72v-8.56c0-.85-.69-1.54-1.54-1.54s-1.54.69-1.54,1.54v8.56h-9.72v-8.56c0-.85-.69-1.54-1.54-1.54s-1.54.69-1.54,1.54v8.56h-7.47v-11.83c0-2.3,1.87-4.17,4.17-4.17h35.28c2.3,0,4.17,1.87,4.17,4.17v11.83Z" style="fill:#f9f9f9;"/></svg>