<svg width="142" height="142" viewBox="0 0 142 142" fill="none" xmlns="http://www.w3.org/2000/svg">
<path d="M138.557 113.61H3.44276C1.54236 113.61 0 112.068 0 110.168V90.5267C0 88.6263 1.54236 87.084 3.44276 87.084H138.557C140.458 87.084 142 88.6263 142 90.5267V110.168C142 112.068 140.458 113.61 138.557 113.61ZM6.88552 106.725H135.114V93.9695H6.88552V106.725Z" fill="#BBBBBC"/>
<path d="M118.529 93.9744H23.474C21.5736 93.9744 20.0312 92.432 20.0312 90.5316V55.5532C20.0312 28.7823 41.8136 7 68.5845 7H73.4147C100.186 7 121.968 28.7823 121.968 55.5532V90.5316C121.968 92.432 120.426 93.9744 118.525 93.9744H118.529ZM26.9202 87.0888H115.086V55.5532C115.086 32.5762 96.3951 13.8855 73.4181 13.8855H68.5879C45.6109 13.8855 26.9202 32.5762 26.9202 55.5532V87.0888Z" fill="#BBBBBC"/>
<path d="M32.1222 135.4H23.474C21.5736 135.4 20.0312 133.858 20.0312 131.958V110.168C20.0312 108.268 21.5736 106.726 23.474 106.726H32.1222C34.0226 106.726 35.565 108.268 35.565 110.168V131.958C35.565 133.858 34.0226 135.4 32.1222 135.4ZM26.9168 128.515H28.6795V113.611H26.9168V128.515Z" fill="#BBBBBC"/>
<path d="M118.527 135.4H109.878C107.978 135.4 106.436 133.858 106.436 131.958V110.168C106.436 108.268 107.978 106.726 109.878 106.726H118.527C120.427 106.726 121.969 108.268 121.969 110.168V131.958C121.969 133.858 120.427 135.4 118.527 135.4ZM113.321 128.515H115.084V113.611H113.321V128.515Z" fill="#BBBBBC"/>
</svg>
