<svg width="142" height="142" viewBox="0 0 142 142" fill="none" xmlns="http://www.w3.org/2000/svg">
<path fill-rule="evenodd" clip-rule="evenodd" d="M107.062 41.6268H98.5783C98.6716 34.9903 98.7751 26.0264 98.6681 24.369C97.8601 11.8142 87.0317 1.15845 74.0211 0.112209C73.2062 0.0466029 72.3878 0.00862867 71.5937 0.00172281C64.4979 -0.0707887 58.2378 2.14598 52.9824 6.5899C47.7685 10.9993 44.3432 17.5012 43.8218 23.9789C43.7009 25.4947 43.7147 34.935 43.7285 41.6268H35.2862C26.3327 41.6268 19.0781 48.619 19.0781 57.2409V126.386C19.0781 135.011 26.3362 142 35.2862 142H107.062C116.016 142 123.27 135.008 123.27 126.386V57.2409C123.27 48.619 116.012 41.6268 107.062 41.6268ZM80.1846 105.309C80.2571 105.903 80.0741 106.497 79.677 106.942C79.2799 107.391 78.7136 107.647 78.1163 107.647H66.2174C65.6201 107.647 65.0538 107.391 64.6567 106.942C64.2596 106.497 64.0766 105.9 64.1491 105.309L65.8273 91.6943C64.0767 90.0403 63.0615 87.7441 63.0615 85.3443C63.0615 80.4653 67.1463 76.4945 72.1703 76.4945C77.1908 76.4945 81.2791 80.4653 81.2791 85.3443C81.2791 87.7441 80.264 90.0403 78.5133 91.6943L80.1914 105.309H80.1846ZM87.049 41.6268H55.3062C55.3821 33.5504 55.7793 21.9865 57.668 18.9169C60.5754 14.1829 65.3646 11.3998 70.8029 11.2824C70.9963 11.279 71.1862 11.2755 71.3796 11.2824C76.8939 11.3377 81.7281 14.0689 84.6389 18.7684C86.6623 22.0383 87.0662 33.1498 87.0524 41.6302L87.049 41.6268Z" fill="#BBBBBC"/>
</svg>
