<svg xmlns="http://www.w3.org/2000/svg" xmlns:xlink="http://www.w3.org/1999/xlink" viewBox="0 0 386.6 71.83"><defs><style>.cls-1{fill:#ee3f58;}.cls-1,.cls-2,.cls-4,.cls-5{fill-rule:evenodd;}.cls-2{fill:#0065b1;}.cls-3{fill:url(#linear-gradient);}.cls-4{fill:#0066b3;}.cls-5{fill:#ee2f53;}</style><linearGradient id="linear-gradient" x1="354.22" y1="970" x2="354.22" y2="1041.83" gradientTransform="translate(0 -970)" gradientUnits="userSpaceOnUse"><stop offset="0" stop-color="#0066b3"/><stop offset="0.35" stop-color="#0066b3"/><stop offset="0.69" stop-color="#ee2f53"/><stop offset="1" stop-color="#ee2f53"/></linearGradient></defs><g id="Layer_2" data-name="Layer 2"><g id="Layer_1-2" data-name="Layer 1"><g id="Layer_2-2" data-name="Layer 2"><g id="b"><g id="c-2"><path class="cls-1" d="M181.6,17.32H158.8c-.2,0-.3.1-.4.3v.1a136.4,136.4,0,0,1-5.3,30.4v.3c.1.1.2.1.4.1h7.8c.1,0,.4-.1.4-.2a128.33,128.33,0,0,0,4.6-23.8h7.5v23.6c0,.2.1.3.3.4h7.6c.2,0,.3-.1.4-.3V17.82c-.1-.3-.2-.5-.5-.5Zm96.2,0h-7.5c-.3,0-.4.1-.4.4v23.5a14.58,14.58,0,0,1-5.1.6c-4.9,0-6.1-1.5-6.1-8.1V17.82c0-.2-.1-.4-.3-.4h-7.6c-.2,0-.3.1-.4.3v17.1c0,10.6,3.5,14.8,12.8,14.8a44.36,44.36,0,0,0,14.5-2.7.45.45,0,0,0,.3-.4V17.82C278.2,17.52,278.1,17.32,277.8,17.32Zm-157.4.1h-7.6c-.3,0-.4.1-.4.2a168.44,168.44,0,0,1-6.8,20.8L98,17.52a.45.45,0,0,0-.4-.3H90c-.1,0-.2.1-.4.1a.37.37,0,0,0-.1.3l.1.1L101,48.82c-1.1,2.4-2.3,4.4-3.3,6.3-.8,1.4-1.5,2.8-2.3,4.3-.1.1,0,.3,0,.4s.3.3.4.3H104a.54.54,0,0,0,.4-.3c1.4-2.7,3.2-6.4,4.8-10.2a334.53,334.53,0,0,0,11.6-31.7c0-.2-.1-.5-.4-.5Zm27,23.9a.22.22,0,0,0-.2-.2h-.4a28.17,28.17,0,0,1-7.6,1.3c-5.2,0-7.6-1.4-7.6-9.4,0-6.3.8-9.4,7.6-9.4a18.15,18.15,0,0,1,6.1,1c.2,0,.4,0,.5-.2.9-1.7,1.9-3.5,3-6.1v-.4a.22.22,0,0,0-.2-.2,33,33,0,0,0-9.9-1.5c-10.9,0-15.7,5.1-15.7,16.6s4.8,16.8,15.7,16.8c2.7,0,8.1-.6,10.6-1.7.2-.1.2-.2.2-.5l-2.1-6.1Zm70.7-23.9h-7.5c-.1,0-.4.1-.4.3a147.8,147.8,0,0,1-6.9,20.7l-7.6-20.9c0-.1-.2-.2-.4-.2h-7.6c-.1,0-.2.1-.4.1s-.1.2,0,.4h0l11.4,31.1c-1.1,2.4-2.3,4.3-3.3,6.3-.8,1.4-1.5,2.8-2.3,4.3-.1.1,0,.3,0,.4a.45.45,0,0,0,.4.3h8.2c.1,0,.2-.1.4-.3,1.4-2.7,3.2-6.4,4.8-10.2A272.45,272.45,0,0,0,218.4,18a.6.6,0,0,0-.1-.4c.1-.2,0-.2-.2-.2Zm27.9-.1H224c-.2,0-.3.1-.4.3v30.6c0,.2.1.3.3.4h7.6c.2,0,.3-.1.4-.3V24.62h11.5c.1,0,.4-.1.4-.2.9-2,1.8-4.3,2.6-6.5v-.4c-.2-.1-.3-.2-.4-.2Z"/><path class="cls-2" d="M39.6,42.62c-4.9,0-6.4-1.4-6.4-9.6,0-8.9,1.7-9.6,6.4-9.6s6.6.8,6.6,9.6C46.2,41.32,44.5,42.62,39.6,42.62Zm0-26.2c-10.8,0-14.9,4.5-14.9,16.4s4.1,16.7,14.9,16.7,15-4.7,15-16.7C54.6,21.12,50.3,16.42,39.6,16.42Zm44.7,24.9c0-.1-.1-.2-.3-.2h-.4a28.17,28.17,0,0,1-7.6,1.3c-5.2,0-7.6-1.4-7.6-9.4,0-6.3.8-9.4,7.6-9.4a18.15,18.15,0,0,1,6.1,1c.2,0,.4,0,.5-.2.9-1.7,1.9-3.5,3-6.1v-.4c0-.1-.1-.2-.3-.2a35.54,35.54,0,0,0-9.7-1.4c-10.9,0-15.7,5-15.7,16.6s4.8,16.8,15.7,16.8c2.7,0,8.1-.6,10.6-1.6.2-.1.2-.2.2-.5l-2.1-6.3Zm-61.9-24H.4a.46.46,0,0,0-.4.5v30.4c0,.2.1.4.3.4H7.9c.2,0,.4-.1.4-.3V24.62H19.8c.1,0,.2-.1.4-.2.9-2,1.8-4.3,2.7-6.5v-.4c-.3-.1-.4-.2-.5-.2Z"/></g></g></g><path class="cls-3" d="M385.8,23.82c-.3-3.7-3.1-8.5-5.9-10.7-3.2-2.3-6.5-4.5-9.9-6.5a104.82,104.82,0,0,0-10.5-5.5,13.9,13.9,0,0,0-6-1.1,15.23,15.23,0,0,0-6,1.1A104.82,104.82,0,0,0,337,6.62c-5.5,3.3-9.9,6.5-9.9,6.5a17.54,17.54,0,0,0-5.2,7.4.76.76,0,0,0,.8,1h4.5a1.65,1.65,0,0,0,1.5-.9,14.29,14.29,0,0,1,3-3.5s3.7-2.6,8.2-5.3a71.6,71.6,0,0,1,8.7-4.5,10.84,10.84,0,0,1,5-.9,14.26,14.26,0,0,1,5,.9q4.5,2.1,8.7,4.5a88.21,88.21,0,0,1,8.2,5.3c2.3,1.9,4.7,5.8,4.9,8.8,0,0,.5,4.5.6,9.9,0,3.3-.2,6.6-.5,9.9a14.1,14.1,0,0,1-5,8.8s-3.7,2.6-8.2,5.4a71.6,71.6,0,0,1-8.7,4.5,10.84,10.84,0,0,1-5,.9,14.26,14.26,0,0,1-5-.9q-4.5-2.1-8.7-4.5a89.32,89.32,0,0,1-8.2-5.4,15.21,15.21,0,0,1-3-3.5,1.76,1.76,0,0,0-1.5-.8h-4.6c-.6,0-.9.5-.7,1.1a17.34,17.34,0,0,0,5.2,7.3s4.4,3.3,9.9,6.6a104.82,104.82,0,0,0,10.5,5.5,13.9,13.9,0,0,0,6,1.1,15.23,15.23,0,0,0,6-1.1,104.82,104.82,0,0,0,10.5-5.5c5.5-3.3,9.9-6.6,9.9-6.6a17.28,17.28,0,0,0,6-10.7,121,121,0,0,0,.7-12.1C386.4,29.32,385.8,23.82,385.8,23.82Z"/><path class="cls-4" d="M341.1,32.12h0L341,32a4.31,4.31,0,0,1-1.7.3c-1.2,0-1.8-.3-1.8-2.2,0-1.5.2-2.2,1.8-2.2a10,10,0,0,1,1.6.2h.1a5,5,0,0,0,.5-1.3l.1-.2v-.1l-.1-.1a9.27,9.27,0,0,0-2.4-.4c-2.6,0-3.7,1.2-3.7,3.9s1.1,4,3.7,4a7.27,7.27,0,0,0,2.5-.4l.1-.1Zm-19.9-5.7h0l5.4-.1a.1.1,0,0,1,.1.1L326,28l-.1.1h-2.7v5.7c0,.1,0,.1-.1.1h-1.8c-.1,0-.1,0-.1-.1v-7.4Zm5.9,3.7c0-2.8,1-3.9,3.5-3.9s3.5,1.1,3.5,3.9-1,4-3.5,4S327.1,32.92,327.1,30.12Zm2,0c0,2,.4,2.3,1.5,2.3s1.5-.3,1.5-2.3-.4-2.3-1.5-2.3S329.1,28,329.1,30.12Z"/><path class="cls-5" d="M334.8,42.22h0l-.1-.1a4.31,4.31,0,0,1-1.7.3c-1.2,0-1.8-.3-1.8-2.2,0-1.5.2-2.2,1.8-2.2a10,10,0,0,1,1.6.2h.1a5,5,0,0,0,.5-1.3h0l.1-.2v-.1l-.1-.1a9.27,9.27,0,0,0-2.4-.4c-2.6,0-3.7,1.2-3.7,3.9s1.1,4,3.7,4a7.27,7.27,0,0,0,2.5-.4l.1-.1Zm1.6,1.8h1.8a.1.1,0,0,0,.1-.1,22.14,22.14,0,0,0,.7-3,25.12,25.12,0,0,0,.4-2.7h1.8v5.7c0,.1,0,.1.1.1h1.8c.1,0,.1,0,.1-.1v-7.3c0-.1,0-.1-.1-.1h-5.5c-.1,0-.1,0-.1.1-.1,1.1-.2,2.4-.4,3.7a19,19,0,0,1-.9,3.6A.35.35,0,0,1,336.4,44Zm16.7-7.6h0l-.1,7.4c0,.1,0,.1.1.1h1.8c.1,0,.1,0,.1-.1v-5.7h2.7a.1.1,0,0,0,.1-.1l.7-1.6c0-.1,0-.1-.1-.1h-5.3Zm-31.8,0a.1.1,0,0,0-.1.1l2.7,7.4c-.4.8-.8,1.7-1.3,2.6,0,.1,0,.1.1.1h1.9a.1.1,0,0,0,.1-.1,63.15,63.15,0,0,0,3.9-10.1c0-.1,0-.1-.1-.1h-1.8a.1.1,0,0,0-.1.1c-.6,2-1.1,3.5-1.7,5l-1.8-5a.1.1,0,0,0-.1-.1h-1.7Zm23.1.2c0-.1,0-.1.1-.1h1.8a.1.1,0,0,1,.1.1l1.8,5c.6-1.5,1.1-3,1.7-5a.1.1,0,0,1,.1-.1h1.8a.1.1,0,0,1,.1.1,63.15,63.15,0,0,1-3.9,10.1.1.1,0,0,1-.1.1H346a.1.1,0,0,1-.1-.1l1.3-2.6Zm19.7-.2h1.8c.1,0,.1,0,.1.1h0v6.9a.1.1,0,0,1-.1.1,11,11,0,0,1-3.5.6c-2.1,0-3-.9-3.1-3.3v-4.3h0c0-.1,0-.1.1-.1h1.8c.1,0,.1,0,.1.1v4.2c0,1.3.4,1.6,1.4,1.6a5,5,0,0,0,1.2-.2l.2-5.7Z"/></g></g></svg>