<svg xmlns="http://www.w3.org/2000/svg" viewBox="0 0 66.53 104.02"><defs><style>.cls-1,.cls-3{fill:none;stroke:#f9f9f9;stroke-miterlimit:10;stroke-width:3.08px;}.cls-1{stroke-linecap:round;}.cls-2{fill:#f9f9f9;}</style></defs><g id="Layer_2" data-name="Layer 2"><g id="база"><line class="cls-1" x1="46.07" y1="10.52" x2="46.07" y2="21.19"/><line class="cls-1" x1="33.26" y1="10.52" x2="33.26" y2="21.19"/><line class="cls-1" x1="20.46" y1="10.52" x2="20.46" y2="21.19"/><path class="cls-2" d="M3.28,19.08h60a3.28,3.28,0,0,1,3.28,3.28v30A33.26,33.26,0,0,1,33.26,85.61h0A33.26,33.26,0,0,1,0,52.35v-30a3.28,3.28,0,0,1,3.28-3.28Z"/><path class="cls-3" d="M15.62,1.54H50.91a5.7,5.7,0,0,1,5.7,5.7V50A23.35,23.35,0,0,1,33.26,73.38h0A23.35,23.35,0,0,1,9.92,50V7.25a5.7,5.7,0,0,1,5.7-5.7Z"/><rect class="cls-2" x="25.25" y="49.79" width="16.03" height="54.23"/></g></g></svg>