<svg xmlns="http://www.w3.org/2000/svg" viewBox="0 0 401.33 417.87"><defs><style>.cls-1{fill:#d0d6e2;}.cls-2{fill:#2e2e54;}.cls-3,.cls-5{fill:none;stroke:#382f56;stroke-miterlimit:10;}.cls-3{stroke-width:2.2px;}.cls-4{fill:#382f56;}.cls-5{stroke-width:2.2px;}.cls-6{fill:#ff2c2c;}</style></defs><g id="Layer_2" data-name="Layer 2"><g id="Layer_1-2" data-name="Layer 1"><rect class="cls-1" x="39.31" y="31.54" width="160.86" height="11.35"/><rect class="cls-1" x="66.19" y="159.84" width="267.95" height="11.35" transform="translate(34.65 365.69) rotate(-90)"/><polygon class="cls-1" points="204.17 297.34 89.77 380.6 81.75 374.76 196.15 291.5 204.17 297.34"/><circle class="cls-1" cx="39.31" cy="37.21" r="26.23"/><circle class="cls-1" cx="83.42" cy="380.6" r="26.23"/><rect class="cls-1" x="200.17" y="31.54" width="160.86" height="11.35" transform="translate(561.2 74.43) rotate(-180)"/><rect class="cls-1" x="66.19" y="159.84" width="267.95" height="11.35" transform="translate(34.65 365.69) rotate(-90)"/><polygon class="cls-1" points="196.17 297.34 310.57 380.6 318.6 374.76 204.19 291.5 196.17 297.34"/><circle class="cls-1" cx="361.03" cy="37.21" r="26.23"/><circle class="cls-1" cx="316.92" cy="380.6" r="26.23"/><path class="cls-2" d="M42.59,48.34V42.69H30l-.68-1.94,13.48-16.4h2.35v16.1h3.71v2.24H45.18v5.65Zm-10-7.89h10V28.16Z"/><path class="cls-2" d="M351.25,48.34V46.27l8.64-7.63a22.79,22.79,0,0,0,3.88-4.08,6,6,0,0,0,1.09-3.4,4.24,4.24,0,0,0-1.39-3.31,4.91,4.91,0,0,0-3.41-1.26,6,6,0,0,0-3.42,1,12.18,12.18,0,0,0-3,3.1l-2-1.43a13,13,0,0,1,3.68-3.83,8.89,8.89,0,0,1,4.9-1.24,7.52,7.52,0,0,1,5.29,1.92A6.32,6.32,0,0,1,367.65,31a7.46,7.46,0,0,1-1.32,4.36,31.08,31.08,0,0,1-4.7,4.9l-6.37,5.65h12.63v2.45Z"/><path class="cls-2" d="M317.07,392.14a10.62,10.62,0,0,1-8.88-4.25l1.94-1.74a8.75,8.75,0,0,0,7,3.54,5.5,5.5,0,0,0,3.71-1.29,4.28,4.28,0,0,0,1.5-3.41,3.83,3.83,0,0,0-1.84-3.38,8.66,8.66,0,0,0-4.84-1.21h-1.53l-.54-1.6,7.52-8.48H309.45v-2.41h15.22v2l-7.49,8.31a10.53,10.53,0,0,1,5.63,1.95A5.68,5.68,0,0,1,325,385a6.58,6.58,0,0,1-2.3,5.16A8.26,8.26,0,0,1,317.07,392.14Z"/><path class="cls-2" d="M83.42,391.73v-21.2l-4.49,1.39-.65-2.18,5.82-2h2v24Z"/><circle class="cls-3" cx="316.77" cy="380.6" r="36.12"/><polygon class="cls-4" points="352.6 376.02 356.34 368.93 346.13 371.29 352.6 376.02"/><circle class="cls-3" cx="361.76" cy="37.21" r="36.12"/><polygon class="cls-4" points="397.59 41.79 401.33 48.89 391.12 46.53 397.59 41.79"/><circle class="cls-3" cx="39.31" cy="37.21" r="36.12"/><polygon class="cls-4" points="3.37 41.47 10.08 45.88 0 48.75 3.37 41.47"/><circle class="cls-5" cx="83.58" cy="380.6" r="36.16"/><polygon class="cls-4" points="47.7 376.02 43.95 368.91 54.18 371.27 47.7 376.02"/><polygon class="cls-6" points="200.17 133.34 184.03 175.68 200.17 162.44 216.31 175.68 200.17 133.34"/><rect class="cls-6" x="198.3" y="159.13" width="3.75" height="67.12"/></g></g></svg>