<svg xmlns="http://www.w3.org/2000/svg" viewBox="0 0 401.14 201.82"><defs><style>.cls-1{fill:#d0d6e2;}.cls-2{fill:#2e2e54;}.cls-3{fill:none;stroke:#382f56;stroke-miterlimit:10;stroke-width:2.2px;}.cls-4{fill:#382f56;}.cls-5{fill:#ff2c2c;}</style></defs><g id="Layer_2" data-name="Layer 2"><g id="Layer_1-2" data-name="Layer 1"><rect class="cls-1" x="39.29" y="86.84" width="160.86" height="11.35"/><circle class="cls-1" cx="39.29" cy="92.52" r="26.23"/><rect class="cls-1" x="200.16" y="86.84" width="160.86" height="11.35" transform="translate(561.17 185.03) rotate(-180)"/><circle class="cls-1" cx="361.02" cy="92.52" r="26.23"/><path class="cls-2" d="M351.06,103.65v-2.08L359.7,94a23.12,23.12,0,0,0,3.88-4.09,6,6,0,0,0,1.09-3.4,4.23,4.23,0,0,0-1.39-3.3,4.91,4.91,0,0,0-3.41-1.26,6.09,6.09,0,0,0-3.42,1,12.35,12.35,0,0,0-3,3.1l-2-1.43a13.16,13.16,0,0,1,3.68-3.83,8.89,8.89,0,0,1,4.9-1.24,7.52,7.52,0,0,1,5.29,1.92,6.35,6.35,0,0,1,2.1,4.89,7.46,7.46,0,0,1-1.33,4.35,31,31,0,0,1-4.7,4.91l-6.37,5.65H367.7v2.45Z"/><path class="cls-2" d="M39.61,103.65V82.44l-4.49,1.4-.65-2.18,5.82-2h2v24Z"/><path class="cls-2" d="M126.17,186a14.12,14.12,0,0,1-9.73-3.82l1.66-2a13.59,13.59,0,0,0,3.83,2.55,10.9,10.9,0,0,0,4.34.82,6.1,6.1,0,0,0,3.85-1.14,3.61,3.61,0,0,0,1.46-3,3.33,3.33,0,0,0-1.29-2.76,12.68,12.68,0,0,0-4.9-1.77,14.52,14.52,0,0,1-6.13-2.48,5.48,5.48,0,0,1-1.87-4.46,5.81,5.81,0,0,1,2.21-4.66,8.49,8.49,0,0,1,5.62-1.84,13,13,0,0,1,8.37,2.93L132,166.51a10.71,10.71,0,0,0-6.88-2.59,5.74,5.74,0,0,0-3.68,1.11,3.43,3.43,0,0,0-1.39,2.81,3.32,3.32,0,0,0,1.34,2.79,14.31,14.31,0,0,0,5.13,1.84,13.61,13.61,0,0,1,5.9,2.47,5.39,5.39,0,0,1,1.86,4.34,6,6,0,0,1-2.28,4.88A9,9,0,0,1,126.17,186Z"/><path class="cls-2" d="M142.51,185.68V164.47l-4.49,1.4-.65-2.18,5.82-2h2v24Z"/><circle class="cls-3" cx="361.57" cy="92.52" r="36.12"/><polygon class="cls-4" points="397.4 97.1 401.14 104.19 390.93 101.83 397.4 97.1"/><circle class="cls-3" cx="39.31" cy="92.91" r="36.12"/><polygon class="cls-4" points="3.37 97.17 10.08 101.57 0 104.45 3.37 97.17"/><rect class="cls-3" x="105.43" y="148.36" width="52.36" height="52.36" rx="17.5"/><path class="cls-2" d="M259.14,186a14.14,14.14,0,0,1-9.73-3.82l1.67-2a13.45,13.45,0,0,0,3.83,2.55,10.9,10.9,0,0,0,4.34.82,6.05,6.05,0,0,0,3.84-1.14,3.59,3.59,0,0,0,1.47-3,3.31,3.31,0,0,0-1.3-2.76,12.62,12.62,0,0,0-4.9-1.77,14.52,14.52,0,0,1-6.13-2.48,5.51,5.51,0,0,1-1.87-4.46,5.79,5.79,0,0,1,2.22-4.66,8.44,8.44,0,0,1,5.61-1.84,13,13,0,0,1,8.38,2.93L265,166.51a10.67,10.67,0,0,0-6.88-2.59,5.71,5.71,0,0,0-3.67,1.11,3.44,3.44,0,0,0-1.4,2.81,3.31,3.31,0,0,0,1.35,2.79,14.17,14.17,0,0,0,5.12,1.84,13.66,13.66,0,0,1,5.91,2.47,5.41,5.41,0,0,1,1.85,4.34,6,6,0,0,1-2.28,4.88A9,9,0,0,1,259.14,186Z"/><path class="cls-2" d="M271,185.68V183.6l8.65-7.63a23.17,23.17,0,0,0,3.88-4.08,6,6,0,0,0,1.09-3.4,4.21,4.21,0,0,0-1.4-3.31,4.93,4.93,0,0,0-3.4-1.26,6,6,0,0,0-3.42,1,12,12,0,0,0-3,3.1l-2-1.43a13.14,13.14,0,0,1,3.67-3.83,9,9,0,0,1,4.91-1.24,7.53,7.53,0,0,1,5.29,1.92,6.36,6.36,0,0,1,2.09,4.89,7.39,7.39,0,0,1-1.33,4.35,30.91,30.91,0,0,1-4.69,4.9L275,183.22h12.63v2.46Z"/><rect class="cls-3" x="242.51" y="148.36" width="52.36" height="52.36" rx="17.5" transform="translate(537.39 349.09) rotate(-180)"/><polygon class="cls-5" points="200.16 0 184.02 42.34 200.16 29.1 216.29 42.34 200.16 0"/><rect class="cls-5" x="198.28" y="25.79" width="3.75" height="67.12"/></g></g></svg>