<svg xmlns="http://www.w3.org/2000/svg" viewBox="0 0 473.87 269.96"><defs><style>.cls-1{fill:#d0d6e2;}.cls-2{fill:#2e2e54;}.cls-3,.cls-4,.cls-5{fill:none;stroke-miterlimit:10;stroke-width:2px;}.cls-3{stroke:#646368;}.cls-4{stroke:#93ff15;}.cls-5{stroke:#ff2c2c;}.cls-6{fill:#ff2c2c;}.cls-7{fill:#93ff15;}</style></defs><g id="Layer_2" data-name="Layer 2"><g id="Layer_1-2" data-name="Layer 1"><polyline class="cls-1" points="176.88 159.84 163.39 159.84 0 236.46 31.48 139.22 182.87 28.29 208.73 0 265.14 0 290.99 28.29 442.39 139.22 473.87 236.46 310.48 159.84 296.99 159.84"/><path class="cls-2" d="M218.66,227.22V206l-4.49,1.4-.65-2.18,5.82-2h2v24Z"/><path class="cls-2" d="M224,231.57l15.79-31.52h2.42l-15.79,31.52Z"/><path class="cls-2" d="M243,227.22v-2.08l8.65-7.62a23.51,23.51,0,0,0,3.88-4.09,6.09,6.09,0,0,0,1.09-3.4,4.24,4.24,0,0,0-1.4-3.3,4.88,4.88,0,0,0-3.4-1.26,6,6,0,0,0-3.42,1,12.18,12.18,0,0,0-3,3.1l-2-1.43a13.29,13.29,0,0,1,3.68-3.83,8.91,8.91,0,0,1,4.9-1.24,7.52,7.52,0,0,1,5.29,1.92,6.35,6.35,0,0,1,2.1,4.89,7.51,7.51,0,0,1-1.33,4.36,31,31,0,0,1-4.7,4.9L247,224.77h12.63v2.45Z"/><circle class="cls-3" cx="236.93" cy="216.19" r="32.9"/><path class="cls-2" d="M63.31,260.53a10.62,10.62,0,0,1-8.88-4.25l1.94-1.74a8.71,8.71,0,0,0,7,3.54,5.46,5.46,0,0,0,3.71-1.29,4.29,4.29,0,0,0,1.5-3.41A3.81,3.81,0,0,0,66.71,250a8.6,8.6,0,0,0-4.83-1.21H60.35l-.55-1.6,7.53-8.48H55.69V236.3H70.9v2l-7.49,8.3a10.66,10.66,0,0,1,5.64,2,5.71,5.71,0,0,1,2.23,4.82,6.58,6.58,0,0,1-2.3,5.16A8.26,8.26,0,0,1,63.31,260.53Z"/><path class="cls-2" d="M409,260.12v-5.65H396.41l-.68-1.94,13.48-16.41h2.35v16.11h3.71v2.24h-3.71v5.65Zm-10-7.89h10V239.94Z"/><circle class="cls-4" cx="407.46" cy="249.1" r="19.86"/><circle class="cls-5" cx="63.06" cy="249.1" r="19.86"/><polygon class="cls-6" points="163.39 159.84 163.39 136.34 7.42 213.54 0 236.46 163.39 159.84"/><polygon class="cls-7" points="310.48 159.84 310.48 136.34 466.45 213.54 473.87 236.46 310.48 159.84"/><polygon class="cls-6" points="236.93 31.23 220.79 73.56 236.93 60.32 253.07 73.56 236.93 31.23"/><rect class="cls-6" x="235.06" y="57.01" width="3.75" height="67.12"/></g></g></svg>