<svg xmlns="http://www.w3.org/2000/svg" viewBox="0 0 511.07 456.88"><defs><style>.cls-1{fill:#d0d6e2;}.cls-2{fill:#2e2e54;}.cls-3{fill:none;stroke:#382f56;stroke-miterlimit:10;stroke-width:2.57px;}.cls-4{fill:#382f56;}.cls-5{fill:#ff2c2c;}.cls-6{fill:red;}</style></defs><g id="Layer_2" data-name="Layer 2"><g id="Layer_1-2" data-name="Layer 1"><rect class="cls-1" x="203.3" y="311.43" width="211.92" height="14.95" transform="translate(187.71 746.19) rotate(-120)"/><circle class="cls-1" cx="362.24" cy="410.67" r="34.56"/><rect class="cls-1" x="97.34" y="127.9" width="211.92" height="14.95" transform="translate(218.89 -108.38) rotate(60)"/><circle class="cls-1" cx="150.32" cy="43.61" r="34.56"/><rect class="cls-1" x="255.53" y="220.97" width="211.92" height="14.95" transform="translate(722.99 456.88) rotate(-180)"/><circle class="cls-1" cx="467.46" cy="228.44" r="34.56"/><rect class="cls-1" x="43.61" y="220.97" width="211.92" height="14.95"/><circle class="cls-1" cx="43.61" cy="228.44" r="34.56"/><rect class="cls-1" x="203.3" y="130.5" width="211.92" height="14.95" transform="matrix(-0.5, 0.87, -0.87, -0.5, 583.39, -60.87)"/><circle class="cls-1" cx="362.24" cy="46.21" r="34.56"/><rect class="cls-1" x="97.34" y="314.03" width="211.92" height="14.95" transform="translate(-176.78 336.82) rotate(-60)"/><circle class="cls-1" cx="150.32" cy="413.27" r="34.56"/><path class="cls-2" d="M353.68,57.34V55.26l8.65-7.62a23.51,23.51,0,0,0,3.88-4.09,6,6,0,0,0,1.09-3.4,4.21,4.21,0,0,0-1.4-3.3,4.88,4.88,0,0,0-3.4-1.26,6,6,0,0,0-3.42,1,12,12,0,0,0-3,3.09l-2-1.43a13.14,13.14,0,0,1,3.67-3.83,9,9,0,0,1,4.91-1.24A7.53,7.53,0,0,1,368,35.09,6.39,6.39,0,0,1,370.09,40a7.42,7.42,0,0,1-1.33,4.36,31.35,31.35,0,0,1-4.69,4.9l-6.37,5.65h12.63v2.45Z"/><circle class="cls-3" cx="150.32" cy="43.61" r="42.33"/><polygon class="cls-4" points="168.43 5.35 171.52 14.23 177.67 3.59 168.43 5.35"/><path class="cls-2" d="M467.35,240a11.76,11.76,0,0,1-8.51-3.78l1.77-1.94q3.38,3.27,6.78,3.27a5.83,5.83,0,0,0,4.15-1.5,5,5,0,0,0,1.6-3.85,4.5,4.5,0,0,0-1.65-3.6,6.38,6.38,0,0,0-4.27-1.4,10.59,10.59,0,0,0-5,1.36l-1.8-1.19.68-11.61h13.72v2.49H463.44l-.51,7.62a11.76,11.76,0,0,1,4.7-1,8.74,8.74,0,0,1,5.9,2,6.67,6.67,0,0,1,2.33,5.36,7.3,7.3,0,0,1-2.38,5.65A8.74,8.74,0,0,1,467.35,240Z"/><path class="cls-2" d="M362.25,421.8V400.6l-4.5,1.39-.64-2.18,5.82-2h2v24Z"/><path class="cls-2" d="M150.48,424.81a10.6,10.6,0,0,1-8.89-4.26l1.94-1.73a8.75,8.75,0,0,0,7,3.54,5.44,5.44,0,0,0,3.71-1.3,4.26,4.26,0,0,0,1.5-3.4,3.84,3.84,0,0,0-1.84-3.39,8.7,8.7,0,0,0-4.83-1.21h-1.54l-.54-1.6,7.52-8.47H142.85v-2.42h15.22v2l-7.49,8.3a10.51,10.51,0,0,1,5.63,2,5.66,5.66,0,0,1,2.23,4.81,6.55,6.55,0,0,1-2.3,5.16A8.26,8.26,0,0,1,150.48,424.81Z"/><path class="cls-2" d="M43.94,240a8.56,8.56,0,0,1-6.78-2.83q-2.47-2.82-2.48-8.88A15.35,15.35,0,0,1,37.35,219a8.48,8.48,0,0,1,7.23-3.68,11,11,0,0,1,7.05,2.73l-1.57,2.07a8.74,8.74,0,0,0-5.61-2.34,5.81,5.81,0,0,0-5.07,2.89,13.38,13.38,0,0,0-1.91,7.52v.1a7.8,7.8,0,0,1,6.77-3.64,8.72,8.72,0,0,1,5.84,2,6.71,6.71,0,0,1,2.4,5.35A7.39,7.39,0,0,1,50,237.73,8.67,8.67,0,0,1,43.94,240Zm0-2.38A5.69,5.69,0,0,0,48.14,236a5.3,5.3,0,0,0,1.58-3.95,4.69,4.69,0,0,0-1.63-3.66A6.11,6.11,0,0,0,43.9,227a6,6,0,0,0-4.27,1.58,5,5,0,0,0,0,7.5A6.16,6.16,0,0,0,44,237.6Z"/><path class="cls-2" d="M151,54.74V49.09H138.46l-.68-1.94,13.48-16.4h2.35v16.1h3.71v2.24h-3.71v5.65Zm-10-7.89h10V34.56Z"/><circle class="cls-3" cx="43.61" cy="228.44" r="42.33"/><polygon class="cls-4" points="70.28 261.69 79.51 259.9 69.86 252.3 70.28 261.69"/><circle class="cls-3" cx="467.46" cy="228.44" r="42.33"/><polygon class="cls-4" points="435.58 256.27 436.05 246.88 426.36 254.43 435.58 256.27"/><circle class="cls-3" cx="362.07" cy="45.48" r="42.33"/><polygon class="cls-4" points="319.51 44.32 313.61 51.64 325.88 51.23 319.51 44.32"/><circle class="cls-3" cx="362.24" cy="410.67" r="42.33"/><polygon class="cls-4" points="342.04 447.58 351.28 445.82 345.14 456.45 342.04 447.58"/><circle class="cls-3" cx="150.32" cy="413.27" r="42.33"/><polygon class="cls-4" points="176.97 446.5 173.72 455.32 167.77 444.57 176.97 446.5"/><polygon class="cls-5" points="255.53 174.51 239.4 216.84 255.53 203.61 271.67 216.84 255.53 174.51"/><rect class="cls-5" x="253.66" y="200.3" width="3.75" height="67.12"/><path class="cls-6" d="M375.94,318.91,372,313.42a12,12,0,0,1-1.36.07h-4.59v5.42h-1.8V301.83h6.39a7.71,7.71,0,0,1,5.12,1.56,5.31,5.31,0,0,1,1.85,4.3,5.53,5.53,0,0,1-1,3.38,5.6,5.6,0,0,1-2.89,2l4.17,5.86Zm-1.44-8.08a3.86,3.86,0,0,0,1.34-3.14,3.91,3.91,0,0,0-1.34-3.19,6,6,0,0,0-3.88-1.11h-4.54V312h4.54A5.91,5.91,0,0,0,374.5,310.83Z"/><path class="cls-6" d="M394,317.35v1.56H381.91V301.83h11.71v1.56h-9.9v6.08h8.83V311h-8.83v6.35Z"/><path class="cls-6" d="M412.18,301.83l-7.56,17.08h-1.78l-7.56-17.08h2l6.54,14.83,6.58-14.83Z"/><path class="cls-6" d="M426.72,317.35v1.56H414.65V301.83h11.71v1.56h-9.91v6.08h8.83V311h-8.83v6.35Z"/><path class="cls-6" d="M442.63,318.91l-3.91-5.49a12,12,0,0,1-1.36.07h-4.59v5.42H431V301.83h6.39a7.71,7.71,0,0,1,5.12,1.56,5.31,5.31,0,0,1,1.85,4.3,5.53,5.53,0,0,1-1,3.38,5.6,5.6,0,0,1-2.89,2l4.17,5.86Zm-1.44-8.08a3.86,3.86,0,0,0,1.34-3.14,3.91,3.91,0,0,0-1.34-3.19,6,6,0,0,0-3.88-1.11h-4.54V312h4.54A5.91,5.91,0,0,0,441.19,310.83Z"/><path class="cls-6" d="M449.66,318.44a6.56,6.56,0,0,1-2.69-1.61l.7-1.39a6.72,6.72,0,0,0,2.47,1.5,8.81,8.81,0,0,0,3.17.58,5.82,5.82,0,0,0,3.44-.84,2.61,2.61,0,0,0,1.14-2.19,2.15,2.15,0,0,0-.62-1.63,4.12,4.12,0,0,0-1.52-.94,24.51,24.51,0,0,0-2.51-.72,27.71,27.71,0,0,1-3.08-.94,5,5,0,0,1-2-1.38,3.63,3.63,0,0,1-.82-2.51,4.27,4.27,0,0,1,.68-2.35,4.7,4.7,0,0,1,2.1-1.7,8.68,8.68,0,0,1,3.51-.63,10.25,10.25,0,0,1,2.87.4A8.24,8.24,0,0,1,459,303.2l-.61,1.44a8.35,8.35,0,0,0-2.29-1.06,8.47,8.47,0,0,0-2.4-.36,5.47,5.47,0,0,0-3.37.87,2.68,2.68,0,0,0-1.14,2.23,2.26,2.26,0,0,0,.62,1.65,4.18,4.18,0,0,0,1.57.95q.93.33,2.52.72a26.53,26.53,0,0,1,3,.91,5,5,0,0,1,2,1.37,3.59,3.59,0,0,1,.81,2.47,4.24,4.24,0,0,1-.7,2.36,4.59,4.59,0,0,1-2.13,1.68,8.84,8.84,0,0,1-3.54.62A10.88,10.88,0,0,1,449.66,318.44Z"/><path class="cls-6" d="M475.68,317.35v1.56H463.6V301.83h11.71v1.56h-9.9v6.08h8.83V311h-8.83v6.35Z"/><path class="cls-6" d="M479.92,301.83h6.95a10.06,10.06,0,0,1,4.78,1.09,7.83,7.83,0,0,1,3.22,3,9.11,9.11,0,0,1,0,8.86,7.83,7.83,0,0,1-3.22,3,10.06,10.06,0,0,1-4.78,1.09h-6.95Zm6.85,15.52a8.32,8.32,0,0,0,3.93-.89,6.54,6.54,0,0,0,2.61-2.47,7.51,7.51,0,0,0,0-7.24,6.54,6.54,0,0,0-2.61-2.47,8.32,8.32,0,0,0-3.93-.89h-5v14Z"/></g></g></svg>