<svg xmlns="http://www.w3.org/2000/svg" viewBox="0 0 510.72 510.75"><defs><style>.cls-1{fill:#d0d6e2;}.cls-2{fill:#2e2e54;}.cls-3{fill:none;stroke:#382f56;stroke-miterlimit:10;stroke-width:2.57px;}.cls-4{fill:#382f56;}.cls-5{fill:#ff2c2c;}.cls-6{fill:red;}</style></defs><g id="Layer_2" data-name="Layer 2"><g id="Layer_1-2" data-name="Layer 1"><rect class="cls-1" x="43.26" y="246.62" width="211.92" height="14.95"/><circle class="cls-1" cx="43.26" cy="254.09" r="34.56"/><rect class="cls-1" x="255.19" y="246.62" width="211.92" height="14.95" transform="translate(722.29 508.19) rotate(-180)"/><circle class="cls-1" cx="467.11" cy="254.09" r="34.56"/><rect class="cls-1" x="73.28" y="321.97" width="211.92" height="14.95" transform="translate(-180.45 223.23) rotate(-45)"/><circle class="cls-1" cx="104.32" cy="404.37" r="34.56"/><rect class="cls-1" x="223.13" y="172.12" width="211.92" height="14.95" transform="translate(688.79 73.88) rotate(135)"/><circle class="cls-1" cx="404.02" cy="104.66" r="34.56"/><rect class="cls-1" x="147.78" y="354.02" width="211.92" height="14.95" transform="translate(-107.75 615.24) rotate(-90)"/><circle class="cls-1" cx="253.75" cy="467.46" r="34.56"/><rect class="cls-1" x="147.78" y="142.1" width="211.92" height="14.95" transform="translate(403.32 -104.17) rotate(90)"/><circle class="cls-1" cx="253.75" cy="43.61" r="34.56"/><rect class="cls-1" x="223.13" y="324.01" width="211.92" height="14.95" transform="translate(327.41 798.57) rotate(-135)"/><circle class="cls-1" cx="404.02" cy="406.4" r="34.56"/><rect class="cls-1" x="73.28" y="174.15" width="211.92" height="14.95" transform="translate(180.93 -73.55) rotate(45)"/><circle class="cls-1" cx="104.32" cy="106.7" r="34.56"/><path class="cls-2" d="M245.18,54.74V52.67L253.83,45A22.79,22.79,0,0,0,257.71,41a6,6,0,0,0,1.09-3.41,4.27,4.27,0,0,0-1.39-3.3A4.93,4.93,0,0,0,254,33a6,6,0,0,0-3.42,1,12,12,0,0,0-3,3.1l-2-1.43a13,13,0,0,1,3.67-3.83,9,9,0,0,1,4.91-1.24,7.53,7.53,0,0,1,5.29,1.92,6.35,6.35,0,0,1,2.09,4.88,7.4,7.4,0,0,1-1.33,4.36,30.91,30.91,0,0,1-4.69,4.9l-6.37,5.65h12.63v2.45Z"/><circle class="cls-3" cx="253.75" cy="43.61" r="42.33"/><path class="cls-2" d="M467.26,265.63a10.62,10.62,0,0,1-8.88-4.25l1.94-1.74a8.73,8.73,0,0,0,7,3.54,5.45,5.45,0,0,0,3.7-1.29,4.28,4.28,0,0,0,1.5-3.41,3.82,3.82,0,0,0-1.83-3.38,8.66,8.66,0,0,0-4.84-1.21H464.3l-.55-1.6,7.53-8.48H459.64V241.4h15.21v2l-7.49,8.31a10.57,10.57,0,0,1,5.64,1.95,5.71,5.71,0,0,1,2.23,4.82,6.58,6.58,0,0,1-2.3,5.16A8.26,8.26,0,0,1,467.26,265.63Z"/><circle class="cls-3" cx="467.11" cy="254.09" r="42.33"/><path class="cls-2" d="M399.79,417.54l10.75-21.38h-13.1v-2.45h16.17v2l-10.83,21.82Z"/><circle class="cls-3" cx="404.02" cy="406.4" r="42.33"/><path class="cls-2" d="M254.25,478.59v-5.65H241.69L241,471l13.48-16.41h2.35v16.1h3.71v2.25h-3.71v5.65Zm-10-7.9h10V458.4Z"/><circle class="cls-3" cx="253.57" cy="467.13" r="42.33"/><path class="cls-2" d="M110.72,414a11.73,11.73,0,0,1-12.8,0,5.87,5.87,0,0,1-2.56-4.9,5.19,5.19,0,0,1,1.33-3.54,8.55,8.55,0,0,1,3.58-2.31q-4.09-1.87-4.09-5.55a5.44,5.44,0,0,1,2.4-4.5,10,10,0,0,1,11.47,0,5.51,5.51,0,0,1,2.4,4.57q0,3.6-4.08,5.48,4.91,1.83,4.9,5.88A5.83,5.83,0,0,1,110.72,414Zm-11-1.75a8.65,8.65,0,0,0,9.09,0,4,4,0,0,0,1.69-3.24,3.86,3.86,0,0,0-1.81-3.25,8.27,8.27,0,0,0-8.87,0,3.89,3.89,0,0,0-.1,6.47Zm.67-11.2a6.78,6.78,0,0,0,7.76,0,3.89,3.89,0,0,0,1.56-3.2,3.57,3.57,0,0,0-1.56-2.95,7.05,7.05,0,0,0-7.78,0,3.65,3.65,0,0,0-1.55,3A3.8,3.8,0,0,0,100.44,401Z"/><circle class="cls-3" cx="104.32" cy="404.37" r="42.33"/><path class="cls-2" d="M43.26,265.22V244l-4.49,1.39-.65-2.18,5.82-2h2v24Z"/><circle class="cls-3" cx="43.62" cy="253.74" r="42.33"/><path class="cls-2" d="M104.21,118.24a11.76,11.76,0,0,1-8.51-3.78l1.77-1.94q3.38,3.27,6.78,3.27a5.83,5.83,0,0,0,4.15-1.5,5,5,0,0,0,1.6-3.84,4.5,4.5,0,0,0-1.65-3.61,6.38,6.38,0,0,0-4.27-1.4,10.71,10.71,0,0,0-5,1.36l-1.8-1.19L98,94h13.72v2.48H100.3l-.51,7.62a11.76,11.76,0,0,1,4.7-1,8.74,8.74,0,0,1,5.9,2,6.68,6.68,0,0,1,2.33,5.36,7.28,7.28,0,0,1-2.38,5.65A8.7,8.7,0,0,1,104.21,118.24Z"/><circle class="cls-3" cx="104.32" cy="106.7" r="42.33"/><path class="cls-2" d="M404.34,116.2a8.56,8.56,0,0,1-6.77-2.82q-2.49-2.84-2.49-8.89a15.32,15.32,0,0,1,2.67-9.25A8.49,8.49,0,0,1,405,91.56a11,11,0,0,1,7,2.72l-1.56,2.08A8.71,8.71,0,0,0,404.85,94a5.81,5.81,0,0,0-5.07,2.89,13.47,13.47,0,0,0-1.91,7.53v.1a7.8,7.8,0,0,1,6.78-3.64,8.72,8.72,0,0,1,5.84,2,6.67,6.67,0,0,1,2.4,5.34,7.38,7.38,0,0,1-2.46,5.69A8.69,8.69,0,0,1,404.34,116.2Zm0-2.38a5.67,5.67,0,0,0,4.17-1.57,5.33,5.33,0,0,0,1.58-3.94,4.69,4.69,0,0,0-1.63-3.66,6.07,6.07,0,0,0-4.19-1.45,6,6,0,0,0-4.27,1.58,5,5,0,0,0,0,7.51A6.24,6.24,0,0,0,404.38,113.82Z"/><circle class="cls-3" cx="405.16" cy="104.66" r="42.33"/><polygon class="cls-4" points="227.98 9.78 230.61 0.75 237.29 11.06 227.98 9.78"/><polygon class="cls-4" points="228.33 10.4 230.97 1.38 237.65 11.69 228.33 10.4"/><polygon class="cls-4" points="427.88 238.1 426.45 228.81 436.86 235.34 427.88 238.1"/><polygon class="cls-4" points="370.9 432.99 372.41 423.71 361.94 430.14 370.9 432.99"/><polygon class="cls-4" points="211.8 473.09 204.9 466.71 217.1 465.33 211.8 473.09"/><polygon class="cls-4" points="63 396.59 68.04 404.52 55.88 402.73 63 396.59"/><polygon class="cls-4" points="22.23 290.31 12.93 291.63 19.57 281.3 22.23 290.31"/><polygon class="cls-4" points="91.16 147.3 99.49 142.93 96.7 154.9 91.16 147.3"/><polygon class="cls-4" points="365.72 89.25 368.86 98.11 357.41 93.65 365.72 89.25"/><polygon class="cls-5" points="255.19 193.46 239.05 235.79 255.19 222.56 271.33 235.79 255.19 193.46"/><rect class="cls-5" x="253.31" y="219.25" width="3.75" height="67.12"/><path class="cls-6" d="M378.44,329.44,374.53,324a12,12,0,0,1-1.36.08h-4.59v5.41h-1.8V312.37h6.39a7.71,7.71,0,0,1,5.12,1.56,5.29,5.29,0,0,1,1.85,4.29,5.53,5.53,0,0,1-1,3.38,5.61,5.61,0,0,1-2.89,2l4.17,5.85ZM377,321.37a4.41,4.41,0,0,0,0-6.33,6,6,0,0,0-3.88-1.11h-4.54v8.56h4.54A5.9,5.9,0,0,0,377,321.37Z"/><path class="cls-6" d="M396.49,327.88v1.56H384.41V312.37h11.71v1.56h-9.9V320h8.83v1.54h-8.83v6.34Z"/><path class="cls-6" d="M414.68,312.37l-7.56,17.07h-1.78l-7.56-17.07h2l6.54,14.83,6.58-14.83Z"/><path class="cls-6" d="M429.22,327.88v1.56H417.15V312.37h11.71v1.56H419V320h8.83v1.54H419v6.34Z"/><path class="cls-6" d="M445.12,329.44l-3.9-5.49a12,12,0,0,1-1.36.08h-4.59v5.41h-1.8V312.37h6.39a7.71,7.71,0,0,1,5.12,1.56,5.32,5.32,0,0,1,1.85,4.29,5.53,5.53,0,0,1-1,3.38,5.61,5.61,0,0,1-2.89,2l4.17,5.85Zm-1.43-8.07a4.41,4.41,0,0,0,0-6.33,6,6,0,0,0-3.88-1.11h-4.54v8.56h4.54A5.9,5.9,0,0,0,443.69,321.37Z"/><path class="cls-6" d="M452.16,329a6.67,6.67,0,0,1-2.69-1.61l.7-1.39a6.72,6.72,0,0,0,2.47,1.5,9,9,0,0,0,3.17.57,5.82,5.82,0,0,0,3.44-.84,2.6,2.6,0,0,0,1.14-2.18,2.17,2.17,0,0,0-.62-1.64,4.25,4.25,0,0,0-1.52-.94,24.51,24.51,0,0,0-2.51-.72,24,24,0,0,1-3.08-.94,5.09,5.09,0,0,1-2-1.37,3.66,3.66,0,0,1-.82-2.52,4.3,4.3,0,0,1,.68-2.35,4.77,4.77,0,0,1,2.1-1.7,8.68,8.68,0,0,1,3.51-.63,10.25,10.25,0,0,1,2.87.4,8.24,8.24,0,0,1,2.43,1.11l-.61,1.44a8.66,8.66,0,0,0-2.29-1.06,8.82,8.82,0,0,0-2.4-.35,5.54,5.54,0,0,0-3.37.86,2.68,2.68,0,0,0-1.14,2.23,2.23,2.23,0,0,0,.62,1.65,4.06,4.06,0,0,0,1.57.95q.93.33,2.52.72a26.29,26.29,0,0,1,3,.92,5,5,0,0,1,2,1.36,3.61,3.61,0,0,1,.81,2.48,4.21,4.21,0,0,1-.7,2.35,4.67,4.67,0,0,1-2.13,1.69,9,9,0,0,1-3.54.62A11.14,11.14,0,0,1,452.16,329Z"/><path class="cls-6" d="M478.18,327.88v1.56H466.1V312.37h11.71v1.56h-9.9V320h8.83v1.54h-8.83v6.34Z"/><path class="cls-6" d="M482.42,312.37h6.95a10.18,10.18,0,0,1,4.78,1.08,7.85,7.85,0,0,1,3.22,3,9.09,9.09,0,0,1,0,8.85,7.92,7.92,0,0,1-3.22,3,10.18,10.18,0,0,1-4.78,1.08h-6.95Zm6.85,15.51a8.32,8.32,0,0,0,3.93-.89,6.45,6.45,0,0,0,2.61-2.46,7.53,7.53,0,0,0,0-7.25,6.45,6.45,0,0,0-2.61-2.46,8.2,8.2,0,0,0-3.93-.89h-5v13.95Z"/></g></g></svg>