<svg xmlns="http://www.w3.org/2000/svg" viewBox="0 0 515.92 511.07"><defs><style>.cls-1{fill:#d0d6e2;}.cls-2{fill:#2e2e54;}.cls-3{fill:none;stroke:#382f56;stroke-miterlimit:10;stroke-width:2.57px;}.cls-4{fill:#382f56;}.cls-5{fill:#ff2c2c;}</style></defs><g id="Layer_2" data-name="Layer 2"><g id="Layer_1-2" data-name="Layer 1"><rect class="cls-1" x="48.47" y="246.62" width="211.92" height="14.95"/><circle class="cls-1" cx="48.47" cy="254.09" r="34.56"/><rect class="cls-1" x="260.39" y="246.62" width="211.92" height="14.95" transform="translate(732.7 508.19) rotate(-180)"/><circle class="cls-1" cx="472.31" cy="254.09" r="34.56"/><rect class="cls-1" x="78.48" y="321.97" width="211.92" height="14.95" transform="translate(-178.93 226.91) rotate(-45)"/><circle class="cls-1" cx="109.52" cy="404.37" r="34.56"/><rect class="cls-1" x="228.34" y="172.12" width="211.92" height="14.95" transform="translate(697.67 70.2) rotate(135)"/><circle class="cls-1" cx="409.22" cy="104.66" r="34.56"/><rect class="cls-1" x="152.99" y="354.02" width="211.92" height="14.95" transform="translate(-102.55 620.44) rotate(-90)"/><circle class="cls-1" cx="258.95" cy="467.46" r="34.56"/><rect class="cls-1" x="152.99" y="142.1" width="211.92" height="14.95" transform="translate(408.52 -109.38) rotate(90)"/><circle class="cls-1" cx="258.95" cy="43.61" r="34.56"/><rect class="cls-1" x="228.34" y="324.01" width="211.92" height="14.95" transform="translate(336.29 802.25) rotate(-135)"/><circle class="cls-1" cx="409.22" cy="406.4" r="34.56"/><rect class="cls-1" x="78.48" y="174.15" width="211.92" height="14.95" transform="translate(182.45 -77.23) rotate(45)"/><circle class="cls-1" cx="109.52" cy="106.7" r="34.56"/><path class="cls-2" d="M250.39,54.74V52.67L259,45A22.43,22.43,0,0,0,262.91,41,6,6,0,0,0,264,37.55a4.23,4.23,0,0,0-1.39-3.3,4.9,4.9,0,0,0-3.4-1.26,6,6,0,0,0-3.43,1,12,12,0,0,0-3,3.1l-2-1.43a13,13,0,0,1,3.68-3.83,8.89,8.89,0,0,1,4.9-1.24,7.52,7.52,0,0,1,5.29,1.92,6.33,6.33,0,0,1,2.1,4.88,7.47,7.47,0,0,1-1.33,4.36,31.08,31.08,0,0,1-4.7,4.9l-6.36,5.65H267v2.45Z"/><circle class="cls-3" cx="258.95" cy="43.61" r="42.33"/><path class="cls-2" d="M472.46,265.63a10.62,10.62,0,0,1-8.88-4.25l1.94-1.74a8.75,8.75,0,0,0,7,3.54,5.5,5.5,0,0,0,3.71-1.29,4.28,4.28,0,0,0,1.5-3.41,3.83,3.83,0,0,0-1.84-3.38,8.64,8.64,0,0,0-4.83-1.21H469.5l-.54-1.6,7.52-8.48H464.84V241.4h15.22v2l-7.49,8.31a10.53,10.53,0,0,1,5.63,1.95,5.68,5.68,0,0,1,2.23,4.82,6.58,6.58,0,0,1-2.3,5.16A8.26,8.26,0,0,1,472.46,265.63Z"/><circle class="cls-3" cx="472.31" cy="254.09" r="42.33"/><path class="cls-2" d="M405,417.54l10.76-21.38H402.64v-2.45h16.17v2L408,417.54Z"/><circle class="cls-3" cx="409.22" cy="406.4" r="42.33"/><path class="cls-2" d="M259.45,478.59v-5.65H246.89l-.68-1.94,13.48-16.41H262v16.1h3.71v2.25H262v5.65Zm-10-7.9h10V458.4Z"/><circle class="cls-3" cx="258.95" cy="467.46" r="42.33"/><path class="cls-2" d="M115.92,414a11.73,11.73,0,0,1-12.8,0,5.86,5.86,0,0,1-2.55-4.9,5.15,5.15,0,0,1,1.33-3.54,8.45,8.45,0,0,1,3.57-2.31c-2.72-1.25-4.09-3.1-4.09-5.55a5.44,5.44,0,0,1,2.4-4.5,10.05,10.05,0,0,1,11.48,0,5.51,5.51,0,0,1,2.4,4.57c0,2.4-1.37,4.23-4.09,5.48q4.91,1.83,4.9,5.88A5.83,5.83,0,0,1,115.92,414ZM105,412.2a8.63,8.63,0,0,0,9.08,0,3.93,3.93,0,0,0,1.69-3.24,3.85,3.85,0,0,0-1.8-3.25,7.5,7.5,0,0,0-4.43-1.28,7.39,7.39,0,0,0-4.44,1.3,3.92,3.92,0,0,0-1.79,3.3A3.87,3.87,0,0,0,105,412.2Zm.66-11.2a6.78,6.78,0,0,0,7.76,0,3.9,3.9,0,0,0,1.57-3.2,3.58,3.58,0,0,0-1.57-2.95,7.05,7.05,0,0,0-7.78,0,3.65,3.65,0,0,0-1.55,3A3.82,3.82,0,0,0,105.64,401Z"/><circle class="cls-3" cx="109.52" cy="404.37" r="42.33"/><path class="cls-2" d="M48.47,265.22V244L44,245.41l-.64-2.18,5.82-2h2v24Z"/><circle class="cls-3" cx="48.47" cy="254.09" r="42.33"/><path class="cls-2" d="M109.42,118.24a11.75,11.75,0,0,1-8.51-3.78l1.77-1.94q3.36,3.27,6.77,3.27a5.81,5.81,0,0,0,4.15-1.5,5,5,0,0,0,1.6-3.84,4.5,4.5,0,0,0-1.65-3.61,6.38,6.38,0,0,0-4.27-1.4,10.67,10.67,0,0,0-5,1.36l-1.81-1.19.68-11.6h13.72v2.48H105.5l-.51,7.62a11.76,11.76,0,0,1,4.7-1,8.79,8.79,0,0,1,5.91,2,6.71,6.71,0,0,1,2.33,5.36,7.29,7.29,0,0,1-2.39,5.65A8.67,8.67,0,0,1,109.42,118.24Z"/><circle class="cls-3" cx="109.52" cy="106.7" r="42.33"/><path class="cls-2" d="M409.55,116.2a8.58,8.58,0,0,1-6.78-2.82q-2.47-2.84-2.48-8.89A15.32,15.32,0,0,1,403,95.24a8.46,8.46,0,0,1,7.23-3.68,11,11,0,0,1,7.05,2.72l-1.57,2.08A8.7,8.7,0,0,0,410.06,94,5.83,5.83,0,0,0,405,96.9a13.47,13.47,0,0,0-1.9,7.53v.1a7.77,7.77,0,0,1,6.77-3.64,8.72,8.72,0,0,1,5.84,2,6.67,6.67,0,0,1,2.4,5.34,7.41,7.41,0,0,1-2.45,5.69A8.72,8.72,0,0,1,409.55,116.2Zm0-2.38a5.67,5.67,0,0,0,4.17-1.57,5.33,5.33,0,0,0,1.58-3.94,4.66,4.66,0,0,0-1.63-3.66,6.67,6.67,0,0,0-8.46.13,5,5,0,0,0,0,7.51A6.2,6.2,0,0,0,409.58,113.82Z"/><circle class="cls-3" cx="409.22" cy="104.66" r="42.33"/><polygon class="cls-4" points="284.72 9.78 282.08 0.75 275.4 11.06 284.72 9.78"/><polygon class="cls-4" points="284.36 10.4 281.73 1.38 275.05 11.69 284.36 10.4"/><polygon class="cls-4" points="511.54 238.1 512.97 228.81 502.56 235.34 511.54 238.1"/><polygon class="cls-4" points="449.5 419.9 440.87 423.64 451.94 428.98 449.5 419.9"/><polygon class="cls-4" points="231.35 499.37 232.99 508.63 240.75 499.1 231.35 499.37"/><polygon class="cls-4" points="93.73 443.33 89.78 434.8 84.71 446 93.73 443.33"/><polygon class="cls-4" points="6.14 252.31 0 259.43 12.28 259.43 6.14 252.31"/><polygon class="cls-4" points="68.25 95.82 76.43 91.18 64.86 87.06 68.25 95.82"/><polygon class="cls-4" points="448.66 89.25 445.52 98.11 456.97 93.65 448.66 89.25"/><polygon class="cls-5" points="260.39 193.46 244.25 235.79 260.39 222.56 276.53 235.79 260.39 193.46"/><rect class="cls-5" x="258.52" y="219.25" width="3.75" height="67.12"/></g></g></svg>