<svg xmlns="http://www.w3.org/2000/svg" viewBox="0 0 471.04 478.25"><defs><style>.cls-1{fill:none;stroke:#382f56;stroke-miterlimit:10;stroke-width:2.57px;}.cls-2{fill:#382f56;}.cls-3{fill:#2e2e54;}.cls-4{fill:#d0d6e2;}.cls-5{fill:#ff2c2c;}</style></defs><g id="Layer_2" data-name="Layer 2"><g id="Layer_1-2" data-name="Layer 1"><circle class="cls-1" cx="427.16" cy="43.62" r="42.33"/><polygon class="cls-2" points="462.32 67.57 471.04 64.05 460.12 58.43 462.32 67.57"/><path class="cls-3" d="M434.59,48.06a8.58,8.58,0,0,1-6.77-2.83c-1.66-1.88-2.48-4.84-2.48-8.88A15.33,15.33,0,0,1,428,27.09a8.48,8.48,0,0,1,7.23-3.68,11,11,0,0,1,7.05,2.72l-1.57,2.08a8.7,8.7,0,0,0-5.61-2.35A5.85,5.85,0,0,0,430,28.75a13.47,13.47,0,0,0-1.9,7.53v.1a7.77,7.77,0,0,1,6.77-3.64,8.72,8.72,0,0,1,5.84,2,6.67,6.67,0,0,1,2.4,5.34,7.39,7.39,0,0,1-2.45,5.69A8.69,8.69,0,0,1,434.59,48.06Zm0-2.39a5.7,5.7,0,0,0,4.17-1.56,5.35,5.35,0,0,0,1.58-4,4.66,4.66,0,0,0-1.63-3.66,6.67,6.67,0,0,0-8.46.13,5,5,0,0,0,0,7.51A6.2,6.2,0,0,0,434.63,45.67Z"/><circle class="cls-1" cx="48.72" cy="43.62" r="42.33"/><polygon class="cls-2" points="7.36 52.95 12.07 44.81 0 47.11 7.36 52.95"/><path class="cls-3" d="M44.2,42.82a10.49,10.49,0,0,1-6.4,1.89,10.39,10.39,0,0,1-6.4-1.9,5.88,5.88,0,0,1-2.56-4.9,5.16,5.16,0,0,1,1.33-3.54,8.67,8.67,0,0,1,3.58-2.32q-4.09-1.87-4.09-5.55A5.43,5.43,0,0,1,32.06,22a9.29,9.29,0,0,1,5.74-1.8A9.28,9.28,0,0,1,43.53,22a5.48,5.48,0,0,1,2.4,4.56c0,2.41-1.36,4.23-4.08,5.48q4.9,1.85,4.9,5.89A5.81,5.81,0,0,1,44.2,42.82Zm-11-1.75a7.32,7.32,0,0,0,4.55,1.29,7.29,7.29,0,0,0,4.54-1.29A3.91,3.91,0,0,0,44,37.84a3.82,3.82,0,0,0-1.81-3.25,7.47,7.47,0,0,0-4.42-1.28,7.38,7.38,0,0,0-4.44,1.29,3.93,3.93,0,0,0-1.79,3.31A3.87,3.87,0,0,0,33.25,41.07Zm.67-11.2A6.07,6.07,0,0,0,37.8,31.1a6.1,6.1,0,0,0,3.88-1.23,3.86,3.86,0,0,0,1.56-3.2,3.54,3.54,0,0,0-1.56-2.94,6.32,6.32,0,0,0-3.88-1.18,6.28,6.28,0,0,0-3.9,1.18,3.63,3.63,0,0,0-1.55,3A3.78,3.78,0,0,0,33.92,29.87Z"/><circle class="cls-1" cx="427.16" cy="431.32" r="42.33"/><polygon class="cls-2" points="466.6 446.79 457.94 450.45 468.95 455.89 466.6 446.79"/><path class="cls-3" d="M431.68,447.48a11.76,11.76,0,0,1-8.51-3.78l1.77-1.94q3.38,3.27,6.78,3.27a5.83,5.83,0,0,0,4.15-1.5,5,5,0,0,0,1.6-3.84,4.5,4.5,0,0,0-1.65-3.61,6.4,6.4,0,0,0-4.27-1.4,10.71,10.71,0,0,0-5,1.36l-1.8-1.19.68-11.6h13.72v2.48H427.77l-.51,7.63a11.58,11.58,0,0,1,4.7-1.06,8.74,8.74,0,0,1,5.9,2,6.68,6.68,0,0,1,2.33,5.36,7.28,7.28,0,0,1-2.38,5.65A8.7,8.7,0,0,1,431.68,447.48Z"/><circle class="cls-1" cx="49.6" cy="434.63" r="42.33"/><polygon class="cls-2" points="7.17 434.01 1.57 441.56 13.82 440.65 7.17 434.01"/><path class="cls-3" d="M36.21,462.64,47,441.27H33.86v-2.45H50v2L39.21,462.64Z"/><rect class="cls-4" x="38.2" y="155.44" width="223.07" height="15.73" transform="translate(159.34 -58.05) rotate(45)"/><circle class="cls-4" cx="70.87" cy="84.44" r="36.38"/><rect class="cls-4" x="195.94" y="313.18" width="223.07" height="15.73" transform="translate(297.88 765.48) rotate(-135)"/><circle class="cls-4" cx="386.35" cy="399.91" r="36.38"/><rect class="cls-4" x="38.2" y="313.18" width="223.07" height="15.73" transform="translate(-183.16 199.91) rotate(-45)"/><circle class="cls-4" cx="70.87" cy="399.91" r="36.38"/><rect class="cls-4" x="195.94" y="155.44" width="223.07" height="15.73" transform="translate(640.37 61.37) rotate(135)"/><circle class="cls-4" cx="386.35" cy="84.44" r="36.38"/><polygon class="cls-5" points="228.61 173.12 212.47 215.46 228.61 202.22 244.75 215.46 228.61 173.12"/><rect class="cls-5" x="226.74" y="198.91" width="3.75" height="67.12"/><circle class="cls-1" cx="386.35" cy="84.44" r="42.33"/><polygon class="cls-2" points="397.02 125.62 390.77 132.64 389.16 120.46 397.02 125.62"/><path class="cls-3" d="M377.79,95.57V93.5l8.64-7.63a22.79,22.79,0,0,0,3.88-4.08,6,6,0,0,0,1.09-3.41,4.23,4.23,0,0,0-1.39-3.3,4.93,4.93,0,0,0-3.41-1.26,6,6,0,0,0-3.42,1,12,12,0,0,0-3,3.1l-2-1.43a13.14,13.14,0,0,1,3.67-3.83,9,9,0,0,1,4.91-1.25,7.54,7.54,0,0,1,5.29,1.93,6.35,6.35,0,0,1,2.09,4.88,7.4,7.4,0,0,1-1.33,4.36,31.35,31.35,0,0,1-4.69,4.9l-6.37,5.65h12.63v2.45Z"/><circle class="cls-1" cx="386.35" cy="399.91" r="42.33"/><polygon class="cls-2" points="356.22 430.13 357.6 439.43 365.63 430.13 356.22 430.13"/><path class="cls-3" d="M386.35,411.05V389.84l-4.5,1.39-.64-2.17,5.82-2h2v24Z"/><circle class="cls-1" cx="70.87" cy="399.91" r="42.33"/><polygon class="cls-2" points="86.8 439.33 81.15 446.85 78.54 434.85 86.8 439.33"/><path class="cls-3" d="M71,411.45a10.6,10.6,0,0,1-8.89-4.25l1.94-1.74a8.75,8.75,0,0,0,7,3.54,5.5,5.5,0,0,0,3.71-1.29,4.27,4.27,0,0,0,1.5-3.4,3.81,3.81,0,0,0-1.84-3.39,8.64,8.64,0,0,0-4.83-1.21H68.06l-.54-1.6L75,389.63H63.4v-2.41H78.62v2l-7.49,8.31a10.46,10.46,0,0,1,5.63,2A5.65,5.65,0,0,1,79,404.27a6.58,6.58,0,0,1-2.3,5.16A8.25,8.25,0,0,1,71,411.45Z"/><circle class="cls-1" cx="70.87" cy="84.44" r="42.33"/><polygon class="cls-2" points="110.78 70.14 113.21 61.06 102.15 66.42 110.78 70.14"/><path class="cls-3" d="M71,95.57V89.92H58.47L57.79,88,71.27,71.57h2.35v16.1h3.71v2.25H73.62v5.65Zm-10-7.9H71V75.39Z"/></g></g></svg>