<svg xmlns="http://www.w3.org/2000/svg" viewBox="0 0 465.68 483.28"><defs><style>.cls-1{fill:none;stroke:#382f56;stroke-miterlimit:10;stroke-width:2.57px;}.cls-2{fill:#382f56;}.cls-3{fill:#2e2e54;}.cls-4{fill:#d0d6e2;}.cls-5{fill:#ff2c2c;}.cls-6{fill:red;}</style></defs><g id="Layer_2" data-name="Layer 2"><g id="Layer_1-2" data-name="Layer 1"><circle class="cls-1" cx="422.06" cy="47.96" r="42.33"/><polygon class="cls-2" points="420.92 5.44 428.59 0 427.42 12.23 420.92 5.44"/><path class="cls-3" d="M429.49,52.39a8.55,8.55,0,0,1-6.77-2.82q-2.49-2.84-2.49-8.89a15.35,15.35,0,0,1,2.67-9.26,8.5,8.5,0,0,1,7.24-3.67,10.94,10.94,0,0,1,7,2.72l-1.56,2.08A8.73,8.73,0,0,0,430,30.2a5.81,5.81,0,0,0-5.07,2.89A13.46,13.46,0,0,0,423,40.61v.11a7.8,7.8,0,0,1,6.78-3.65,8.65,8.65,0,0,1,5.83,2,6.67,6.67,0,0,1,2.4,5.34,7.34,7.34,0,0,1-2.45,5.68A8.65,8.65,0,0,1,429.49,52.39Zm0-2.38a5.63,5.63,0,0,0,4.16-1.57,5.31,5.31,0,0,0,1.59-3.95,4.7,4.7,0,0,0-1.64-3.66,6.09,6.09,0,0,0-4.18-1.44A6,6,0,0,0,425.19,41a4.91,4.91,0,0,0-1.69,3.69,5,5,0,0,0,1.7,3.82A6.24,6.24,0,0,0,429.53,50Z"/><circle class="cls-1" cx="43.61" cy="47.96" r="42.33"/><polygon class="cls-2" points="66.35 12.18 57.1 13.86 63.34 3.28 66.35 12.18"/><path class="cls-3" d="M39.09,47.16a10.45,10.45,0,0,1-6.4,1.89,10.43,10.43,0,0,1-6.4-1.91,5.86,5.86,0,0,1-2.55-4.9,5.15,5.15,0,0,1,1.33-3.54,8.52,8.52,0,0,1,3.57-2.31q-4.08-1.87-4.08-5.55a5.46,5.46,0,0,1,2.4-4.5,9.28,9.28,0,0,1,5.73-1.8,9.29,9.29,0,0,1,5.74,1.8,5.51,5.51,0,0,1,2.4,4.57q0,3.6-4.09,5.48,4.9,1.83,4.91,5.89A5.83,5.83,0,0,1,39.09,47.16ZM28.15,45.41a7.29,7.29,0,0,0,4.54,1.29,7.32,7.32,0,0,0,4.55-1.29,4,4,0,0,0,1.68-3.24,3.85,3.85,0,0,0-1.8-3.25,7.47,7.47,0,0,0-4.43-1.27,7.38,7.38,0,0,0-4.44,1.29,3.88,3.88,0,0,0-.1,6.47Zm.66-11.2a6.16,6.16,0,0,0,3.88,1.22,6.12,6.12,0,0,0,3.88-1.22A3.87,3.87,0,0,0,38.14,31a3.56,3.56,0,0,0-1.57-3,6.28,6.28,0,0,0-3.88-1.17,6.27,6.27,0,0,0-3.89,1.17,3.62,3.62,0,0,0-1.55,3A3.81,3.81,0,0,0,28.81,34.21Z"/><circle class="cls-1" cx="422.06" cy="435.66" r="42.33"/><polygon class="cls-2" points="423.31 478 429.68 471.08 431.09 483.28 423.31 478"/><path class="cls-3" d="M426.58,451.82a11.76,11.76,0,0,1-8.51-3.78l1.77-1.94c2.25,2.18,4.5,3.27,6.77,3.27a5.84,5.84,0,0,0,4.16-1.5,5.06,5.06,0,0,0,1.6-3.85,4.52,4.52,0,0,0-1.65-3.61,6.42,6.42,0,0,0-4.28-1.39,10.55,10.55,0,0,0-5,1.36l-1.8-1.19.68-11.61H434v2.49H422.67l-.52,7.62a11.8,11.8,0,0,1,4.7-1.05,8.79,8.79,0,0,1,5.91,2,6.68,6.68,0,0,1,2.33,5.36,7.33,7.33,0,0,1-2.38,5.65A8.74,8.74,0,0,1,426.58,451.82Z"/><circle class="cls-1" cx="44.5" cy="438.96" r="42.33"/><polygon class="cls-2" points="22.09 475 12.71 475.63 20.09 465.81 22.09 475"/><path class="cls-3" d="M31.11,467,41.86,445.6H28.76v-2.45H44.93v2L34.1,467Z"/><rect class="cls-4" x="33.1" y="159.78" width="223.07" height="15.73" transform="translate(160.91 -53.17) rotate(45)"/><circle class="cls-4" cx="65.77" cy="88.78" r="36.38"/><rect class="cls-4" x="190.84" y="317.51" width="223.07" height="15.73" transform="translate(286.1 769.27) rotate(-135)"/><circle class="cls-4" cx="381.24" cy="404.25" r="36.38"/><rect class="cls-4" x="33.1" y="317.51" width="223.07" height="15.73" transform="translate(-187.72 197.58) rotate(-45)"/><circle class="cls-4" cx="65.77" cy="404.25" r="36.38"/><rect class="cls-4" x="190.84" y="159.78" width="223.07" height="15.73" transform="translate(634.73 72.38) rotate(135)"/><circle class="cls-4" cx="381.24" cy="88.78" r="36.38"/><polygon class="cls-5" points="223.5 177.46 207.37 219.79 223.5 206.56 239.65 219.79 223.5 177.46"/><rect class="cls-5" x="221.63" y="203.25" width="3.75" height="67.12"/><circle class="cls-1" cx="381.24" cy="88.78" r="42.33"/><polygon class="cls-2" points="416.4 112.72 425.12 109.21 414.2 103.58 416.4 112.72"/><path class="cls-3" d="M372.68,99.91V97.83l8.65-7.62a23.51,23.51,0,0,0,3.88-4.09,6.09,6.09,0,0,0,1.09-3.4,4.24,4.24,0,0,0-1.4-3.3,4.88,4.88,0,0,0-3.4-1.26,6,6,0,0,0-3.42,1,12,12,0,0,0-3,3.1l-2-1.43A13.29,13.29,0,0,1,376.8,77a8.91,8.91,0,0,1,4.9-1.24,7.54,7.54,0,0,1,5.3,1.92,6.37,6.37,0,0,1,2.09,4.89,7.39,7.39,0,0,1-1.33,4.35,30.59,30.59,0,0,1-4.7,4.91l-6.36,5.65h12.63v2.45Z"/><circle class="cls-1" cx="381.35" cy="404.45" r="42.33"/><polygon class="cls-2" points="339.65 413.46 332.57 407.27 344.73 405.55 339.65 413.46"/><path class="cls-3" d="M381.24,415.38v-21.2l-4.49,1.39-.65-2.18,5.82-2h2v24Z"/><circle class="cls-1" cx="65.77" cy="404.25" r="42.33"/><polygon class="cls-2" points="41.22 369.54 31.84 370.23 40.53 378.92 41.22 369.54"/><path class="cls-3" d="M65.92,415.79A10.6,10.6,0,0,1,57,411.53L59,409.8a8.73,8.73,0,0,0,7,3.54,5.5,5.5,0,0,0,3.71-1.29,4.32,4.32,0,0,0,1.49-3.41,3.85,3.85,0,0,0-1.83-3.39,8.74,8.74,0,0,0-4.84-1.2H63l-.54-1.6L69.94,394H58.3v-2.42H73.51v2L66,401.83a10.66,10.66,0,0,1,5.64,2,5.69,5.69,0,0,1,2.23,4.82,6.56,6.56,0,0,1-2.3,5.15A8.27,8.27,0,0,1,65.92,415.79Z"/><circle class="cls-1" cx="65.77" cy="88.78" r="42.33"/><polygon class="cls-2" points="99.37 62.93 108.32 65.8 97.84 72.2 99.37 62.93"/><path class="cls-3" d="M65.93,99.91V94.26H53.37l-.68-1.94L66.17,75.91h2.35V92h3.71v2.25H68.52v5.65Zm-10-7.9h10V79.72Z"/><path class="cls-6" d="M291.47,246.51,287.56,241c-.44,0-.89.07-1.36.07h-4.59v5.41h-1.8V229.44h6.39a7.71,7.71,0,0,1,5.12,1.56,5.29,5.29,0,0,1,1.85,4.29,5.51,5.51,0,0,1-1,3.38,5.61,5.61,0,0,1-2.89,2l4.17,5.85ZM290,238.44a4.41,4.41,0,0,0,0-6.33,6,6,0,0,0-3.88-1.11h-4.54v8.56h4.54A5.9,5.9,0,0,0,290,238.44Z"/><path class="cls-6" d="M309.52,245v1.56H297.44V229.44h11.71V231h-9.9v6.07h8.83v1.54h-8.83V245Z"/><path class="cls-6" d="M327.71,229.44l-7.56,17.07h-1.78l-7.56-17.07h1.95l6.54,14.83,6.58-14.83Z"/><path class="cls-6" d="M342.25,245v1.56H330.18V229.44h11.71V231H332v6.07h8.83v1.54H332V245Z"/><path class="cls-6" d="M358.16,246.51,354.25,241c-.44,0-.89.07-1.36.07H348.3v5.41h-1.8V229.44h6.39A7.71,7.71,0,0,1,358,231a5.29,5.29,0,0,1,1.85,4.29,5.51,5.51,0,0,1-1,3.38,5.61,5.61,0,0,1-2.89,2l4.17,5.85Zm-1.44-8.07a4.41,4.41,0,0,0,0-6.33,6,6,0,0,0-3.88-1.11H348.3v8.56h4.54A5.9,5.9,0,0,0,356.72,238.44Z"/><path class="cls-6" d="M365.19,246.05a6.67,6.67,0,0,1-2.69-1.61l.7-1.39a6.72,6.72,0,0,0,2.47,1.5,9,9,0,0,0,3.17.57,5.82,5.82,0,0,0,3.44-.84,2.61,2.61,0,0,0,1.15-2.18,2.19,2.19,0,0,0-.63-1.64,4.25,4.25,0,0,0-1.52-.94c-.6-.21-1.44-.45-2.51-.71a27.71,27.71,0,0,1-3.08-.94,5,5,0,0,1-2-1.38,3.65,3.65,0,0,1-.82-2.51,4.23,4.23,0,0,1,.69-2.36,4.6,4.6,0,0,1,2.09-1.69,8.52,8.52,0,0,1,3.52-.64,10.62,10.62,0,0,1,2.86.4,8.24,8.24,0,0,1,2.43,1.11l-.61,1.44a8.66,8.66,0,0,0-2.29-1.06,8.81,8.81,0,0,0-2.39-.35,5.55,5.55,0,0,0-3.38.86,2.7,2.7,0,0,0-1.14,2.24,2.19,2.19,0,0,0,.63,1.64,4,4,0,0,0,1.56,1q.93.33,2.52.72a25.69,25.69,0,0,1,3,.92,5,5,0,0,1,2,1.36,3.61,3.61,0,0,1,.81,2.48,4.21,4.21,0,0,1-.7,2.35,4.67,4.67,0,0,1-2.13,1.69,9,9,0,0,1-3.54.62A10.92,10.92,0,0,1,365.19,246.05Z"/><path class="cls-6" d="M391.21,245v1.56H379.13V229.44h11.71V231h-9.9v6.07h8.83v1.54h-8.83V245Z"/><path class="cls-6" d="M395.45,229.44h6.95a10.18,10.18,0,0,1,4.78,1.08,7.92,7.92,0,0,1,3.22,3,9.09,9.09,0,0,1,0,8.85,7.85,7.85,0,0,1-3.22,3,10.18,10.18,0,0,1-4.78,1.08h-6.95ZM402.31,245a8.19,8.19,0,0,0,3.92-.89,6.33,6.33,0,0,0,2.61-2.46,7.53,7.53,0,0,0,0-7.25,6.33,6.33,0,0,0-2.61-2.46,8.3,8.3,0,0,0-3.92-.89h-5.05V245Z"/></g></g></svg>