<svg xmlns="http://www.w3.org/2000/svg" viewBox="0 0 484.37 485.5"><defs><style>.cls-1{fill:#d0d6e2;}.cls-2{fill:none;stroke:#382f56;stroke-miterlimit:10;stroke-width:2.57px;}.cls-3{fill:#382f56;}.cls-4{fill:#ff2c2c;}.cls-5{fill:#2e2e54;}.cls-6{fill:red;}</style></defs><g id="Layer_2" data-name="Layer 2"><g id="Layer_1-2" data-name="Layer 1"><rect class="cls-1" x="39.12" y="277.01" width="211.92" height="14.95" transform="translate(-104.02 84.66) rotate(-24.24)"/><circle class="cls-1" cx="48.47" cy="328" r="34.56"/><rect class="cls-1" x="232.36" y="190" width="211.92" height="14.95" transform="translate(727.89 238.62) rotate(155.76)"/><circle class="cls-1" cx="434.94" cy="153.97" r="34.56"/><rect class="cls-1" x="97.43" y="333.39" width="211.92" height="14.95" transform="translate(-187.43 410.25) rotate(-69.24)"/><circle class="cls-1" cx="165.84" cy="439.95" r="34.56"/><rect class="cls-1" x="172.54" y="135.23" width="211.92" height="14.95" transform="translate(510.64 -67.15) rotate(110.76)"/><circle class="cls-1" cx="316.05" cy="43.62" r="34.56"/><rect class="cls-1" x="178.53" y="332.03" width="211.92" height="14.95" transform="translate(91.73 738.3) rotate(-114.24)"/><circle class="cls-1" cx="328" cy="436.12" r="34.56"/><rect class="cls-1" x="91.51" y="138.79" width="211.92" height="14.95" transform="translate(249.76 -93.85) rotate(65.76)"/><circle class="cls-1" cx="153.97" cy="49.65" r="34.56"/><rect class="cls-1" x="234.91" y="273.72" width="211.92" height="14.95" transform="translate(559.95 664.95) rotate(-159.24)"/><circle class="cls-1" cx="439.95" cy="318.75" r="34.56"/><rect class="cls-1" x="36.74" y="198.61" width="211.92" height="14.95" transform="translate(82.3 -37.2) rotate(20.76)"/><circle class="cls-1" cx="43.62" cy="168.53" r="34.56"/><circle class="cls-2" cx="434.94" cy="153.97" r="42.33"/><circle class="cls-2" cx="440.75" cy="318.75" r="42.33"/><circle class="cls-2" cx="328.48" cy="434.93" r="42.33"/><circle class="cls-2" cx="165.69" cy="441.88" r="42.33"/><circle class="cls-2" cx="49" cy="328" r="42.33"/><circle class="cls-2" cx="43.62" cy="168.53" r="42.33"/><circle class="cls-2" cx="316.05" cy="43.62" r="42.33"/><polygon class="cls-3" points="476.54 145.99 482.8 153 470.52 153.21 476.54 145.99"/><polygon class="cls-3" points="467.16 285.48 457.89 287.05 464.26 276.54 467.16 285.48"/><polygon class="cls-3" points="131.21 417.82 132.54 427.13 122.19 420.5 131.21 417.82"/><polygon class="cls-3" points="313.48 395.37 318.86 387.66 321.89 399.56 313.48 395.37"/><polygon class="cls-3" points="14.95 200.15 24.34 199.58 16.88 209.35 14.95 200.15"/><polygon class="cls-3" points="14.64 352.69 5.61 350.07 15.91 343.37 14.64 352.69"/><circle class="cls-2" cx="153.91" cy="49.55" r="42.33"/><polygon class="cls-3" points="181.23 82.28 178.61 91.31 171.91 81.01 181.23 82.28"/><polygon class="cls-3" points="357.52 35.05 350.06 29.33 362.09 26.83 357.52 35.05"/><polygon class="cls-4" points="241.5 183.5 225.36 225.84 241.5 212.6 257.64 225.84 241.5 183.5"/><rect class="cls-4" x="239.62" y="209.29" width="3.75" height="67.12"/><path class="cls-5" d="M307.49,54.75V52.67l8.65-7.62A23.51,23.51,0,0,0,320,41a6,6,0,0,0,1.09-3.4,4.24,4.24,0,0,0-1.4-3.3,4.88,4.88,0,0,0-3.4-1.26,6.09,6.09,0,0,0-3.42,1,12.18,12.18,0,0,0-3,3.1l-2-1.43a13.14,13.14,0,0,1,3.67-3.83,8.93,8.93,0,0,1,4.9-1.24,7.54,7.54,0,0,1,5.3,1.92,6.37,6.37,0,0,1,2.09,4.89,7.44,7.44,0,0,1-1.33,4.36,31.35,31.35,0,0,1-4.69,4.9l-6.37,5.65h12.63v2.45Z"/><path class="cls-5" d="M435.26,165.5a8.55,8.55,0,0,1-6.77-2.82c-1.66-1.88-2.49-4.85-2.49-8.89a15.32,15.32,0,0,1,2.67-9.25,8.5,8.5,0,0,1,7.24-3.68,11,11,0,0,1,7,2.72l-1.56,2.08a8.73,8.73,0,0,0-5.62-2.35,5.83,5.83,0,0,0-5.07,2.89,13.47,13.47,0,0,0-1.91,7.53v.1a7.8,7.8,0,0,1,6.78-3.64,8.69,8.69,0,0,1,5.83,2,6.67,6.67,0,0,1,2.4,5.34,7.37,7.37,0,0,1-2.45,5.69A8.64,8.64,0,0,1,435.26,165.5Zm0-2.38a5.67,5.67,0,0,0,4.17-1.56,5.32,5.32,0,0,0,1.59-3.95,4.67,4.67,0,0,0-1.64-3.66,6.67,6.67,0,0,0-8.46.13,5,5,0,0,0,0,7.51A6.24,6.24,0,0,0,435.29,163.12Z"/><path class="cls-5" d="M440.1,330.29a10.6,10.6,0,0,1-8.88-4.26l1.94-1.73a8.73,8.73,0,0,0,7,3.54,5.45,5.45,0,0,0,3.71-1.3,4.25,4.25,0,0,0,1.49-3.4,3.85,3.85,0,0,0-1.83-3.39,8.74,8.74,0,0,0-4.84-1.21h-1.53L436.6,317l7.52-8.48H432.48v-2.42h15.21v2l-7.49,8.3a10.57,10.57,0,0,1,5.64,2,5.69,5.69,0,0,1,2.23,4.82,6.57,6.57,0,0,1-2.3,5.15A8.27,8.27,0,0,1,440.1,330.29Z"/><path class="cls-5" d="M322.51,447.25l10.76-21.38h-13.1v-2.45h16.16v2l-10.82,21.82Z"/><path class="cls-5" d="M169.12,451.08v-5.65H156.56l-.68-1.94,13.48-16.41h2.35v16.1h3.71v2.25h-3.71v5.65Zm-10-7.9h10V430.89Z"/><path class="cls-5" d="M54.87,337.58a10.47,10.47,0,0,1-6.4,1.89,10.39,10.39,0,0,1-6.4-1.91,5.86,5.86,0,0,1-2.55-4.9,5.18,5.18,0,0,1,1.32-3.54,8.67,8.67,0,0,1,3.58-2.32c-2.72-1.24-4.09-3.09-4.09-5.55a5.43,5.43,0,0,1,2.4-4.49,10,10,0,0,1,11.47,0,5.48,5.48,0,0,1,2.4,4.56q0,3.62-4.08,5.48,4.9,1.84,4.9,5.89A5.83,5.83,0,0,1,54.87,337.58Zm-10.94-1.76a7.21,7.21,0,0,0,4.54,1.3,7.23,7.23,0,0,0,4.54-1.3,3.91,3.91,0,0,0,1.69-3.23,3.82,3.82,0,0,0-1.81-3.25,7.45,7.45,0,0,0-4.42-1.28,7.32,7.32,0,0,0-4.44,1.3,3.92,3.92,0,0,0-1.79,3.3A3.84,3.84,0,0,0,43.93,335.82Zm.66-11.2a6.73,6.73,0,0,0,7.76,0,3.87,3.87,0,0,0,1.57-3.19,3.57,3.57,0,0,0-1.57-2.95,7.05,7.05,0,0,0-7.78,0,3.63,3.63,0,0,0-1.55,3A3.78,3.78,0,0,0,44.59,324.62Z"/><path class="cls-5" d="M43.62,179.66v-21.2l-4.5,1.39-.64-2.18,5.82-2h2v24Z"/><path class="cls-5" d="M153.86,61.19a11.76,11.76,0,0,1-8.51-3.78l1.77-1.94q3.38,3.27,6.78,3.27a5.83,5.83,0,0,0,4.15-1.5,5,5,0,0,0,1.6-3.84A4.5,4.5,0,0,0,158,49.79a6.4,6.4,0,0,0-4.27-1.4,10.71,10.71,0,0,0-5,1.36l-1.8-1.19L147.6,37h13.72v2.49H150l-.51,7.62a11.76,11.76,0,0,1,4.7-1.05,8.74,8.74,0,0,1,5.9,2,6.67,6.67,0,0,1,2.33,5.36A7.28,7.28,0,0,1,160,59,8.74,8.74,0,0,1,153.86,61.19Z"/><path class="cls-6" d="M352.76,242.85l-3.9-5.49a12.16,12.16,0,0,1-1.37.08h-4.58v5.41H341.1V225.78h6.39a7.7,7.7,0,0,1,5.12,1.56,5.3,5.3,0,0,1,1.86,4.29,5.32,5.32,0,0,1-3.91,5.37l4.18,5.85Zm-1.44-8.07a4.41,4.41,0,0,0,0-6.33,5.94,5.94,0,0,0-3.88-1.11h-4.53v8.56h4.53A5.94,5.94,0,0,0,351.32,234.78Z"/><path class="cls-6" d="M370.81,241.29v1.56H358.74V225.78h11.7v1.56h-9.9v6.07h8.83V235h-8.83v6.34Z"/><path class="cls-6" d="M389,225.78l-7.56,17.07h-1.79l-7.56-17.07h1.95l6.54,14.83,6.59-14.83Z"/><path class="cls-6" d="M403.55,241.29v1.56H391.47V225.78h11.71v1.56h-9.9v6.07h8.83V235h-8.83v6.34Z"/><path class="cls-6" d="M419.45,242.85l-3.9-5.49a12.16,12.16,0,0,1-1.37.08h-4.59v5.41h-1.8V225.78h6.39a7.7,7.7,0,0,1,5.12,1.56,5.3,5.3,0,0,1,1.86,4.29,5.32,5.32,0,0,1-3.91,5.37l4.17,5.85ZM418,234.78a4.41,4.41,0,0,0,0-6.33,5.94,5.94,0,0,0-3.88-1.11h-4.54v8.56h4.54A5.94,5.94,0,0,0,418,234.78Z"/><path class="cls-6" d="M426.49,242.39a6.76,6.76,0,0,1-2.7-1.61l.71-1.39a7,7,0,0,0,2.46,1.5,9.06,9.06,0,0,0,3.17.57,5.8,5.8,0,0,0,3.44-.84,2.58,2.58,0,0,0,1.15-2.18,2.21,2.21,0,0,0-.62-1.64,4.24,4.24,0,0,0-1.53-.94,24.51,24.51,0,0,0-2.51-.72,25.48,25.48,0,0,1-3.07-.94,5,5,0,0,1-2-1.38,3.66,3.66,0,0,1-.81-2.51,4.22,4.22,0,0,1,.68-2.35,4.66,4.66,0,0,1,2.1-1.7,8.61,8.61,0,0,1,3.51-.63,10.36,10.36,0,0,1,2.87.4,8.3,8.3,0,0,1,2.42,1.11l-.61,1.44a8.51,8.51,0,0,0-2.29-1.06,8.38,8.38,0,0,0-2.39-.35,5.51,5.51,0,0,0-3.38.86,2.67,2.67,0,0,0-1.13,2.23,2.19,2.19,0,0,0,.62,1.65,4.07,4.07,0,0,0,1.56,1c.62.22,1.47.46,2.52.72a25.12,25.12,0,0,1,3,.92,4.92,4.92,0,0,1,2,1.36,3.61,3.61,0,0,1,.81,2.48,4.16,4.16,0,0,1-.7,2.35,4.59,4.59,0,0,1-2.13,1.68,8.83,8.83,0,0,1-3.54.63A11.08,11.08,0,0,1,426.49,242.39Z"/><path class="cls-6" d="M452.5,241.29v1.56H440.43V225.78h11.7v1.56h-9.9v6.07h8.83V235h-8.83v6.34Z"/><path class="cls-6" d="M456.74,225.78h7a10.21,10.21,0,0,1,4.78,1.08,7.91,7.91,0,0,1,3.22,3,9.16,9.16,0,0,1,0,8.85,8,8,0,0,1-3.22,3,10.09,10.09,0,0,1-4.78,1.09h-7Zm6.86,15.51a8.37,8.37,0,0,0,3.93-.89,6.52,6.52,0,0,0,2.61-2.46,7.6,7.6,0,0,0,0-7.25,6.45,6.45,0,0,0-2.61-2.46,8.25,8.25,0,0,0-3.93-.89h-5.05v13.95Z"/></g></g></svg>