<svg xmlns="http://www.w3.org/2000/svg" viewBox="0 0 493.34 488.1"><defs><style>.cls-1{fill:#d0d6e2;}.cls-2{fill:none;stroke:#382f56;stroke-miterlimit:10;stroke-width:2.57px;}.cls-3{fill:#382f56;}.cls-4{fill:#ff2c2c;}.cls-5{fill:#2e2e54;}</style></defs><g id="Layer_2" data-name="Layer 2"><g id="Layer_1-2" data-name="Layer 1"><rect class="cls-1" x="44.3" y="277.02" width="211.92" height="14.95" transform="translate(-103.56 86.78) rotate(-24.24)"/><circle class="cls-1" cx="53.64" cy="328" r="34.56"/><rect class="cls-1" x="237.53" y="190" width="211.92" height="14.95" transform="translate(737.78 236.51) rotate(155.76)"/><circle class="cls-1" cx="440.11" cy="153.97" r="34.56"/><rect class="cls-1" x="102.6" y="333.4" width="211.92" height="14.95" transform="translate(-184.1 415.09) rotate(-69.24)"/><circle class="cls-1" cx="171.01" cy="439.95" r="34.56"/><rect class="cls-1" x="177.71" y="135.23" width="211.92" height="14.95" transform="translate(517.65 -71.98) rotate(110.76)"/><circle class="cls-1" cx="321.23" cy="43.62" r="34.56"/><rect class="cls-1" x="183.7" y="332.03" width="211.92" height="14.95" transform="translate(99.02 743.03) rotate(-114.24)"/><circle class="cls-1" cx="333.17" cy="436.12" r="34.56"/><rect class="cls-1" x="96.68" y="138.8" width="211.92" height="14.95" transform="translate(252.81 -98.56) rotate(65.76)"/><circle class="cls-1" cx="159.14" cy="49.66" r="34.56"/><rect class="cls-1" x="240.08" y="273.73" width="211.92" height="14.95" transform="translate(569.95 666.79) rotate(-159.24)"/><circle class="cls-1" cx="445.12" cy="318.75" r="34.56"/><rect class="cls-1" x="41.91" y="198.62" width="211.92" height="14.95" transform="translate(82.64 -39.03) rotate(20.76)"/><circle class="cls-1" cx="48.79" cy="168.54" r="34.56"/><circle class="cls-2" cx="159.14" cy="49.66" r="42.33"/><circle class="cls-2" cx="440.11" cy="153.97" r="42.33"/><circle class="cls-2" cx="445.12" cy="318.75" r="42.33"/><circle class="cls-2" cx="333.17" cy="436.12" r="42.33"/><circle class="cls-2" cx="171.01" cy="439.95" r="42.33"/><circle class="cls-2" cx="53.64" cy="328" r="42.33"/><circle class="cls-2" cx="48.79" cy="168.54" r="42.33"/><circle class="cls-2" cx="321.23" cy="43.62" r="42.33"/><polygon class="cls-3" points="469.31 123.28 466.8 114.22 459.98 124.45 469.31 123.28"/><polygon class="cls-3" points="487.38 314.52 481.06 321.47 493.33 321.8 487.38 314.52"/><polygon class="cls-3" points="172.61 481.97 165.5 475.81 165.48 488.1 172.61 481.97"/><polygon class="cls-3" points="358.34 470.13 367.73 469.77 359.36 460.78 358.34 470.13"/><polygon class="cls-3" points="6.7 175.56 12.24 167.97 0 168.97 6.7 175.56"/><polygon class="cls-3" points="14.29 343.56 11.62 352.57 22.82 347.53 14.29 343.56"/><polygon class="cls-3" points="146.37 8.98 137.36 6.31 142.41 17.51 146.37 8.98"/><polygon class="cls-3" points="350.86 13.37 351.63 22.74 360.24 13.97 350.86 13.37"/><polygon class="cls-4" points="246.67 183.51 230.53 225.84 246.67 212.6 262.81 225.84 246.67 183.51"/><rect class="cls-4" x="244.79" y="209.29" width="3.75" height="67.12"/><path class="cls-5" d="M312.67,54.75V52.68l8.64-7.63A22.79,22.79,0,0,0,325.19,41a6,6,0,0,0,1.09-3.41,4.23,4.23,0,0,0-1.39-3.3A4.93,4.93,0,0,0,321.48,33a6,6,0,0,0-3.42,1,12,12,0,0,0-3,3.1l-2-1.43a13,13,0,0,1,3.67-3.83,9,9,0,0,1,4.91-1.24A7.53,7.53,0,0,1,327,32.51a6.35,6.35,0,0,1,2.09,4.88,7.4,7.4,0,0,1-1.33,4.36,30.91,30.91,0,0,1-4.69,4.9l-6.37,5.65h12.63v2.45Z"/><path class="cls-5" d="M440.43,165.51a8.52,8.52,0,0,1-6.77-2.83q-2.49-2.82-2.49-8.88a15.35,15.35,0,0,1,2.67-9.26,8.5,8.5,0,0,1,7.24-3.67,10.94,10.94,0,0,1,7,2.72l-1.56,2.07a8.76,8.76,0,0,0-5.62-2.34,5.81,5.81,0,0,0-5.07,2.89,13.46,13.46,0,0,0-1.91,7.52v.1a7.82,7.82,0,0,1,6.78-3.64,8.69,8.69,0,0,1,5.83,2,6.71,6.71,0,0,1,2.4,5.35,7.34,7.34,0,0,1-2.45,5.68A8.65,8.65,0,0,1,440.43,165.51Zm0-2.38a5.67,5.67,0,0,0,4.16-1.57,5.31,5.31,0,0,0,1.59-3.95,4.7,4.7,0,0,0-1.64-3.66,6.09,6.09,0,0,0-4.18-1.44,6,6,0,0,0-4.28,1.58,5,5,0,0,0,0,7.51A6.24,6.24,0,0,0,440.47,163.13Z"/><path class="cls-5" d="M445.27,330.29a10.59,10.59,0,0,1-8.88-4.25l1.94-1.74a8.73,8.73,0,0,0,7,3.54,5.5,5.5,0,0,0,3.71-1.29,4.27,4.27,0,0,0,1.5-3.4,3.84,3.84,0,0,0-1.84-3.39,8.66,8.66,0,0,0-4.84-1.21h-1.53l-.54-1.6,7.52-8.48H437.65v-2.41h15.21v2l-7.48,8.31a10.56,10.56,0,0,1,5.63,2,5.68,5.68,0,0,1,2.23,4.82,6.58,6.58,0,0,1-2.3,5.16A8.26,8.26,0,0,1,445.27,330.29Z"/><path class="cls-5" d="M327.69,447.26l10.75-21.38h-13.1v-2.45h16.17v2l-10.83,21.82Z"/><path class="cls-5" d="M174.29,451.08v-5.65H161.73l-.68-1.94,13.48-16.4h2.35v16.1h3.71v2.24h-3.71v5.65Zm-10-7.89h10V430.9Z"/><path class="cls-5" d="M60,337.58a10.47,10.47,0,0,1-6.4,1.89,10.35,10.35,0,0,1-6.4-1.91,5.86,5.86,0,0,1-2.55-4.9A5.15,5.15,0,0,1,46,329.12a8.45,8.45,0,0,1,3.57-2.31q-4.08-1.87-4.08-5.55a5.44,5.44,0,0,1,2.39-4.49,10,10,0,0,1,11.48,0,5.48,5.48,0,0,1,2.4,4.56c0,2.4-1.37,4.23-4.09,5.48,3.27,1.22,4.9,3.19,4.9,5.89A5.82,5.82,0,0,1,60,337.58ZM49.1,335.83a7.27,7.27,0,0,0,4.54,1.29,7.27,7.27,0,0,0,4.54-1.29,3.91,3.91,0,0,0,1.69-3.23,3.87,3.87,0,0,0-1.8-3.26,7.5,7.5,0,0,0-4.43-1.27,7.38,7.38,0,0,0-4.44,1.29,3.92,3.92,0,0,0-1.79,3.3A3.86,3.86,0,0,0,49.1,335.83Zm.66-11.2a6.73,6.73,0,0,0,7.76,0,3.89,3.89,0,0,0,1.57-3.2,3.55,3.55,0,0,0-1.57-2.94,7,7,0,0,0-7.78,0,3.62,3.62,0,0,0-1.55,3A3.82,3.82,0,0,0,49.76,324.63Z"/><path class="cls-5" d="M48.79,179.67V158.46l-4.49,1.4-.65-2.18,5.82-2h2v24Z"/><path class="cls-5" d="M159,61.2a11.76,11.76,0,0,1-8.51-3.78l1.78-1.94c2.24,2.18,4.5,3.26,6.77,3.26a5.82,5.82,0,0,0,4.15-1.49,5,5,0,0,0,1.6-3.85,4.52,4.52,0,0,0-1.65-3.61,6.38,6.38,0,0,0-4.27-1.39,10.59,10.59,0,0,0-5,1.36l-1.8-1.19L152.77,37h13.72v2.49H155.12l-.51,7.62a11.78,11.78,0,0,1,4.7-1.06,8.75,8.75,0,0,1,5.9,2,6.65,6.65,0,0,1,2.33,5.36A7.3,7.3,0,0,1,165.16,59,8.74,8.74,0,0,1,159,61.2Z"/></g></g></svg>