<svg xmlns="http://www.w3.org/2000/svg" viewBox="0 0 536.99 538.94"><defs><style>.cls-1{fill:#382f56;}.cls-2{fill:#d0d6e2;}.cls-3{fill:#ff2c2c;}.cls-4{fill:none;stroke:#382f56;stroke-miterlimit:10;stroke-width:2.57px;}.cls-5{fill:#2e2e54;}</style></defs><g id="Layer_2" data-name="Layer 2"><g id="Layer_1-2" data-name="Layer 1"><polygon class="cls-1" points="236.84 524.85 238.22 534.15 246.24 524.85 236.84 524.85"/><rect class="cls-2" x="43.62" y="264.37" width="223.07" height="15.73"/><circle class="cls-2" cx="43.62" cy="272.24" r="36.38"/><rect class="cls-2" x="266.7" y="264.37" width="223.07" height="15.73" transform="translate(756.47 544.48) rotate(-180)"/><circle class="cls-2" cx="489.77" cy="272.24" r="36.38"/><rect class="cls-2" x="155.16" y="375.91" width="223.07" height="15.73" transform="translate(-117.08 650.48) rotate(-90)"/><circle class="cls-2" cx="266.7" cy="495.32" r="36.38"/><rect class="cls-2" x="155.16" y="152.84" width="223.07" height="15.73" transform="translate(427.4 -105.99) rotate(90)"/><circle class="cls-2" cx="266.7" cy="49.17" r="36.38"/><polygon class="cls-3" points="266.7 212.75 250.56 255.08 266.7 241.85 282.84 255.08 266.7 212.75"/><rect class="cls-3" x="264.82" y="238.54" width="3.75" height="67.12"/><circle class="cls-4" cx="266.7" cy="49.17" r="42.33"/><polygon class="cls-1" points="273.25 7.12 267.12 0 265.31 12.15 273.25 7.12"/><path class="cls-5" d="M268.62,60.3V54.65H256.06l-.68-1.94L268.86,36.3h2.35V52.4h3.71v2.25h-3.71V60.3Zm-10-7.9h10V40.11Z"/><circle class="cls-4" cx="489.77" cy="272.24" r="42.33"/><polygon class="cls-1" points="532.21 275.63 524.9 281.54 536.99 283.72 532.21 275.63"/><path class="cls-5" d="M481.21,283.37V281.3l8.65-7.63a23.17,23.17,0,0,0,3.88-4.08,6.12,6.12,0,0,0,1.09-3.41,4.24,4.24,0,0,0-1.4-3.3,4.88,4.88,0,0,0-3.4-1.26,6,6,0,0,0-3.42,1,12,12,0,0,0-3,3.1l-2-1.43a13.16,13.16,0,0,1,3.68-3.83,8.91,8.91,0,0,1,4.9-1.24,7.52,7.52,0,0,1,5.29,1.92,6.33,6.33,0,0,1,2.1,4.88,7.47,7.47,0,0,1-1.33,4.36,31.08,31.08,0,0,1-4.7,4.9l-6.36,5.65h12.63v2.45Z"/><circle class="cls-4" cx="266.7" cy="495.32" r="42.33"/><polygon class="cls-1" points="22.85 309.14 20.32 300.08 13.52 310.31 22.85 309.14"/><path class="cls-5" d="M266.7,506.45V485.24l-4.5,1.4-.64-2.18,5.82-2h2v24Z"/><circle class="cls-4" cx="43.62" cy="272.24" r="42.33"/><path class="cls-5" d="M43.78,283.78a10.62,10.62,0,0,1-8.89-4.25l1.94-1.74a8.75,8.75,0,0,0,7,3.54A5.48,5.48,0,0,0,47.52,280a4.28,4.28,0,0,0,1.5-3.41,3.81,3.81,0,0,0-1.84-3.38A8.62,8.62,0,0,0,42.35,272H40.81l-.54-1.6L47.79,262H36.15v-2.41H51.37v2l-7.49,8.31a10.5,10.5,0,0,1,5.63,1.95,5.68,5.68,0,0,1,2.23,4.82,6.55,6.55,0,0,1-2.3,5.16A8.25,8.25,0,0,1,43.78,283.78Z"/></g></g></svg>