<svg xmlns="http://www.w3.org/2000/svg" viewBox="0 0 539.8 533.38"><defs><style>.cls-1{fill:#d0d6e2;}.cls-2{fill:#ff2c2c;}.cls-3{fill:none;stroke:#382f56;stroke-miterlimit:10;stroke-width:2.57px;}.cls-4{fill:#382f56;}.cls-5{fill:#2e2e54;}.cls-6{fill:red;}</style></defs><g id="Layer_2" data-name="Layer 2"><g id="Layer_1-2" data-name="Layer 1"><rect class="cls-1" x="48.3" y="258.82" width="223.07" height="15.73"/><circle class="cls-1" cx="48.3" cy="266.69" r="36.38"/><rect class="cls-1" x="271.37" y="258.82" width="223.07" height="15.73" transform="translate(765.82 533.38) rotate(-180)"/><circle class="cls-1" cx="494.45" cy="266.69" r="36.38"/><rect class="cls-1" x="159.83" y="370.36" width="223.07" height="15.73" transform="translate(-106.86 649.6) rotate(-90)"/><circle class="cls-1" cx="271.37" cy="489.77" r="36.38"/><rect class="cls-1" x="159.83" y="147.29" width="223.07" height="15.73" transform="translate(426.53 -116.22) rotate(90)"/><circle class="cls-1" cx="271.37" cy="43.62" r="36.38"/><polygon class="cls-2" points="271.37 207.2 255.23 249.53 271.37 236.3 287.51 249.53 271.37 207.2"/><rect class="cls-2" x="269.5" y="232.99" width="3.75" height="67.12"/><circle class="cls-3" cx="271.37" cy="43.62" r="42.33"/><polygon class="cls-4" points="310.29 60.83 312.96 69.85 301.76 64.8 310.29 60.83"/><path class="cls-5" d="M273.29,54.75V49.1H260.73l-.68-1.94,13.48-16.41h2.35v16.1h3.71V49.1h-3.71v5.65Zm-10-7.9h10V34.56Z"/><circle class="cls-3" cx="496.19" cy="265.67" r="42.33"/><polygon class="cls-4" points="485.05 306.76 493.08 301.88 491.06 313.99 485.05 306.76"/><path class="cls-5" d="M485.88,277.82v-2.07l8.65-7.63a23.17,23.17,0,0,0,3.88-4.08,6,6,0,0,0,1.09-3.41,4.21,4.21,0,0,0-1.4-3.3,4.88,4.88,0,0,0-3.4-1.26,6,6,0,0,0-3.42,1,12,12,0,0,0-3,3.1l-2-1.43A13,13,0,0,1,490,254.9a9,9,0,0,1,4.91-1.24,7.53,7.53,0,0,1,5.29,1.92,6.35,6.35,0,0,1,2.09,4.88,7.4,7.4,0,0,1-1.33,4.36,30.91,30.91,0,0,1-4.69,4.9l-6.37,5.65h12.63v2.45Z"/><circle class="cls-3" cx="271.37" cy="489.77" r="42.33"/><polygon class="cls-4" points="230.39 498.92 223.31 492.74 235.47 491.01 230.39 498.92"/><polygon class="cls-4" points="6.03 264.22 12.28 271.24 0 271.44 6.03 264.22"/><path class="cls-5" d="M271.37,500.9V479.69l-4.49,1.4-.65-2.18,5.82-2h2v24Z"/><circle class="cls-3" cx="48.3" cy="266.69" r="42.33"/><path class="cls-5" d="M48.45,278.23A10.62,10.62,0,0,1,39.57,274l1.94-1.74a8.73,8.73,0,0,0,7,3.54,5.5,5.5,0,0,0,3.71-1.29,4.32,4.32,0,0,0,1.49-3.41,3.81,3.81,0,0,0-1.84-3.38A8.6,8.6,0,0,0,47,266.49H45.49l-.54-1.6,7.52-8.48H40.83V254H56v2l-7.49,8.31a10.57,10.57,0,0,1,5.64,2,5.71,5.71,0,0,1,2.23,4.82,6.58,6.58,0,0,1-2.3,5.16A8.26,8.26,0,0,1,48.45,278.23Z"/><path class="cls-6" d="M117.89,333.71,114,328.22a12,12,0,0,1-1.36.08H108v5.41h-1.8V316.64h6.39a7.71,7.71,0,0,1,5.12,1.56,5.29,5.29,0,0,1,1.85,4.29,5.53,5.53,0,0,1-1,3.38,5.61,5.61,0,0,1-2.89,2l4.17,5.85Zm-1.44-8.07a4.41,4.41,0,0,0,0-6.33,6,6,0,0,0-3.88-1.11H108v8.56h4.54A5.9,5.9,0,0,0,116.45,325.64Z"/><path class="cls-6" d="M135.94,332.15v1.56H123.86V316.64h11.71v1.56h-9.9v6.07h8.83v1.54h-8.83v6.34Z"/><path class="cls-6" d="M154.13,316.64l-7.56,17.07h-1.78l-7.56-17.07h2l6.54,14.83,6.58-14.83Z"/><path class="cls-6" d="M168.67,332.15v1.56H156.6V316.64h11.71v1.56H158.4v6.07h8.83v1.54H158.4v6.34Z"/><path class="cls-6" d="M184.58,333.71l-3.91-5.49a12,12,0,0,1-1.36.08h-4.59v5.41h-1.8V316.64h6.39a7.71,7.71,0,0,1,5.12,1.56,5.29,5.29,0,0,1,1.85,4.29,5.53,5.53,0,0,1-1,3.38,5.61,5.61,0,0,1-2.89,2l4.17,5.85Zm-1.44-8.07a4.41,4.41,0,0,0,0-6.33,6,6,0,0,0-3.88-1.11h-4.54v8.56h4.54A5.9,5.9,0,0,0,183.14,325.64Z"/><path class="cls-6" d="M191.61,333.25a6.67,6.67,0,0,1-2.69-1.61l.71-1.39a6.59,6.59,0,0,0,2.46,1.5,9,9,0,0,0,3.17.57,5.82,5.82,0,0,0,3.44-.84,2.61,2.61,0,0,0,1.15-2.18,2.18,2.18,0,0,0-.63-1.64,4.25,4.25,0,0,0-1.52-.94,24.51,24.51,0,0,0-2.51-.72,24,24,0,0,1-3.08-.94,5.09,5.09,0,0,1-2-1.37,3.66,3.66,0,0,1-.82-2.52,4.23,4.23,0,0,1,.69-2.35,4.68,4.68,0,0,1,2.09-1.7,8.69,8.69,0,0,1,3.52-.63,10.24,10.24,0,0,1,2.86.4,8.24,8.24,0,0,1,2.43,1.11l-.61,1.44a8.66,8.66,0,0,0-2.29-1.06,8.81,8.81,0,0,0-2.39-.35,5.55,5.55,0,0,0-3.38.86,2.68,2.68,0,0,0-1.14,2.23,2.2,2.2,0,0,0,.63,1.65,4,4,0,0,0,1.56,1q.93.33,2.52.72a25.69,25.69,0,0,1,3,.92,4.92,4.92,0,0,1,2,1.36,3.61,3.61,0,0,1,.81,2.48,4.21,4.21,0,0,1-.7,2.35,4.67,4.67,0,0,1-2.13,1.69,9,9,0,0,1-3.54.62A11.18,11.18,0,0,1,191.61,333.25Z"/><path class="cls-6" d="M217.63,332.15v1.56H205.55V316.64h11.71v1.56h-9.9v6.07h8.83v1.54h-8.83v6.34Z"/><path class="cls-6" d="M221.87,316.64h6.95a10.18,10.18,0,0,1,4.78,1.08,7.85,7.85,0,0,1,3.22,3,9.09,9.09,0,0,1,0,8.85,7.92,7.92,0,0,1-3.22,3,10.18,10.18,0,0,1-4.78,1.08h-6.95Zm6.86,15.51a8.3,8.3,0,0,0,3.92-.89,6.33,6.33,0,0,0,2.61-2.46,7.53,7.53,0,0,0,0-7.25,6.33,6.33,0,0,0-2.61-2.46,8.19,8.19,0,0,0-3.92-.89h-5v13.95Z"/></g></g></svg>