<svg xmlns="http://www.w3.org/2000/svg" viewBox="0 0 403.54 402.72"><defs><style>.cls-1{fill:#d0d6e2;}.cls-2{fill:#ff2c2c;}.cls-3{fill:none;stroke:#382f56;stroke-miterlimit:10;stroke-width:2.57px;}.cls-4{fill:#382f56;}.cls-5{fill:#2e2e54;}.cls-6{fill:red;}</style></defs><g id="Layer_2" data-name="Layer 2"><g id="Layer_1-2" data-name="Layer 1"><rect class="cls-1" x="11.77" y="114.63" width="223.07" height="15.73" transform="translate(122.73 -51.31) rotate(45)"/><circle class="cls-1" cx="44.44" cy="43.62" r="36.38"/><rect class="cls-1" x="169.51" y="272.36" width="223.07" height="15.73" transform="translate(281.62 677.11) rotate(-135)"/><circle class="cls-1" cx="359.91" cy="359.1" r="36.38"/><rect class="cls-1" x="11.77" y="272.36" width="223.07" height="15.73" transform="translate(-162.04 169.27) rotate(-45)"/><circle class="cls-1" cx="44.44" cy="359.1" r="36.38"/><rect class="cls-1" x="169.51" y="114.63" width="223.07" height="15.73" transform="translate(566.39 10.38) rotate(135)"/><circle class="cls-1" cx="359.91" cy="43.62" r="36.38"/><polygon class="cls-2" points="202.18 145.85 186.04 188.19 202.18 174.95 218.32 188.19 202.18 145.85"/><rect class="cls-2" x="200.3" y="171.64" width="3.75" height="67.12"/><circle class="cls-3" cx="359.91" cy="43.62" r="42.33"/><polygon class="cls-4" points="337.49 7.53 328.11 6.83 335.43 16.7 337.49 7.53"/><path class="cls-5" d="M44.44,54.75V33.55L40,34.94l-.65-2.17,5.82-2h2v24Z"/><circle class="cls-3" cx="44.44" cy="43.62" r="42.33"/><polygon class="cls-4" points="78.14 18.11 77.15 27.46 87.24 20.45 78.14 18.11"/><path class="cls-5" d="M351.35,54.76V52.68L360,45.05A23.17,23.17,0,0,0,363.88,41a6.09,6.09,0,0,0,1.09-3.4,4.25,4.25,0,0,0-1.4-3.31,4.88,4.88,0,0,0-3.4-1.26,6,6,0,0,0-3.42,1,12,12,0,0,0-3,3.1l-2-1.43a13.29,13.29,0,0,1,3.68-3.83,8.93,8.93,0,0,1,4.9-1.24,7.54,7.54,0,0,1,5.3,1.92,6.36,6.36,0,0,1,2.09,4.89,7.39,7.39,0,0,1-1.33,4.35,30.61,30.61,0,0,1-4.7,4.9l-6.36,5.65H368v2.46Z"/><circle class="cls-3" cx="43.62" cy="359.1" r="42.33"/><polygon class="cls-4" points="323.45 380.73 325.21 371.5 314.57 377.64 323.45 380.73"/><polygon class="cls-4" points="78.72 382.9 87.59 379.81 76.95 373.67 78.72 382.9"/><path class="cls-5" d="M360.07,370.64a10.6,10.6,0,0,1-8.89-4.26l1.94-1.73a8.75,8.75,0,0,0,7,3.54,5.44,5.44,0,0,0,3.71-1.3,4.26,4.26,0,0,0,1.5-3.4,3.84,3.84,0,0,0-1.84-3.39,8.7,8.7,0,0,0-4.83-1.21h-1.53l-.55-1.6,7.52-8.47H352.44V346.4h15.22v2l-7.49,8.3a10.51,10.51,0,0,1,5.63,2,5.66,5.66,0,0,1,2.23,4.81,6.55,6.55,0,0,1-2.3,5.16A8.26,8.26,0,0,1,360.07,370.64Z"/><circle class="cls-3" cx="359.91" cy="359.1" r="42.33"/><path class="cls-5" d="M47.73,370.23v-5.65H35.17l-.69-1.94L48,346.23h2.35v16.1H54v2.25H50.31v5.65Zm-10-7.9h10V350Z"/><path class="cls-6" d="M152.66,80l-3.9-5.49a12,12,0,0,1-1.36.08h-4.59V80H141V62.93h6.4a7.73,7.73,0,0,1,5.12,1.56,5.32,5.32,0,0,1,1.85,4.29,5.6,5.6,0,0,1-1,3.38,5.65,5.65,0,0,1-2.89,2L154.64,80Zm-1.44-8.07a4.39,4.39,0,0,0,0-6.33,5.91,5.91,0,0,0-3.87-1.11h-4.54v8.56h4.54A5.86,5.86,0,0,0,151.22,71.93Z"/><path class="cls-6" d="M170.71,78.44V80H158.64V62.93h11.71v1.56h-9.91v6.07h8.83V72.1h-8.83v6.34Z"/><path class="cls-6" d="M188.91,62.93,181.35,80h-1.78L172,62.93h2l6.53,14.83,6.59-14.83Z"/><path class="cls-6" d="M203.45,78.44V80H191.38V62.93h11.7v1.56h-9.9v6.07H202V72.1h-8.83v6.34Z"/><path class="cls-6" d="M219.35,80l-3.9-5.49a12,12,0,0,1-1.37.08H209.5V80h-1.81V62.93h6.39a7.74,7.74,0,0,1,5.13,1.56,5.32,5.32,0,0,1,1.85,4.29,5.6,5.6,0,0,1-1,3.38,5.65,5.65,0,0,1-2.89,2L221.33,80Zm-1.44-8.07a4.39,4.39,0,0,0,0-6.33A5.91,5.91,0,0,0,214,64.49H209.5v8.56H214A5.86,5.86,0,0,0,217.91,71.93Z"/><path class="cls-6" d="M226.39,79.54a6.9,6.9,0,0,1-2.7-1.61l.71-1.39a6.72,6.72,0,0,0,2.47,1.5,9,9,0,0,0,3.17.57,5.84,5.84,0,0,0,3.44-.84,2.6,2.6,0,0,0,1.14-2.18A2.17,2.17,0,0,0,234,74a4.25,4.25,0,0,0-1.52-.94,24.83,24.83,0,0,0-2.52-.72,25.48,25.48,0,0,1-3.07-.94,5.09,5.09,0,0,1-2-1.37,3.66,3.66,0,0,1-.82-2.52,4.3,4.3,0,0,1,.68-2.35,4.77,4.77,0,0,1,2.1-1.7,8.61,8.61,0,0,1,3.51-.63,10.31,10.31,0,0,1,2.87.4,8.49,8.49,0,0,1,2.43,1.11l-.61,1.44a8.57,8.57,0,0,0-2.3-1.06,8.38,8.38,0,0,0-2.39-.35,5.6,5.6,0,0,0-3.38.86,2.7,2.7,0,0,0-1.13,2.23,2.23,2.23,0,0,0,.62,1.65,4.09,4.09,0,0,0,1.56,1c.63.22,1.47.46,2.53.72a26.29,26.29,0,0,1,3,.92,5,5,0,0,1,2,1.36,3.61,3.61,0,0,1,.8,2.48,4.23,4.23,0,0,1-.69,2.35,4.75,4.75,0,0,1-2.14,1.69,9,9,0,0,1-3.53.62A11.14,11.14,0,0,1,226.39,79.54Z"/><path class="cls-6" d="M252.4,78.44V80H240.33V62.93H252v1.56h-9.9v6.07H251V72.1h-8.83v6.34Z"/><path class="cls-6" d="M256.65,62.93h7A10.18,10.18,0,0,1,268.38,64a7.91,7.91,0,0,1,3.22,3,9.09,9.09,0,0,1,0,8.85,8,8,0,0,1-3.22,3A10.18,10.18,0,0,1,263.6,80h-7Zm6.85,15.51a8.32,8.32,0,0,0,3.93-.89A6.52,6.52,0,0,0,270,75.09a7.53,7.53,0,0,0,0-7.25,6.45,6.45,0,0,0-2.61-2.46,8.2,8.2,0,0,0-3.93-.89h-5.05v14Z"/></g></g></svg>