<svg xmlns="http://www.w3.org/2000/svg" viewBox="0 0 396.99 310.32"><defs><style>.cls-1{fill:#d0d6e2;}.cls-2{fill:#ff2c2c;}.cls-3{fill:#382f56;}.cls-4,.cls-6{fill:none;stroke:#382f56;stroke-miterlimit:10;}.cls-4{stroke-width:2.57px;}.cls-5{fill:#2e2e54;}.cls-6{stroke-width:2.2px;}</style></defs><g id="Layer_2" data-name="Layer 2"><g id="Layer_1-2" data-name="Layer 1"><rect class="cls-1" x="43.62" y="35.76" width="223.07" height="15.73"/><circle class="cls-1" cx="43.62" cy="43.62" r="36.38"/><rect class="cls-1" x="266.7" y="35.76" width="85.34" height="15.73" transform="translate(618.74 87.25) rotate(-180)"/><circle class="cls-1" cx="353.37" cy="43.62" r="36.38"/><rect class="cls-1" x="86.96" y="147.29" width="223.07" height="15.73" transform="translate(43.33 353.66) rotate(-90)"/><circle class="cls-1" cx="198.5" cy="266.7" r="36.38"/><rect class="cls-1" x="198.5" y="35.76" height="15.73" transform="translate(242.22 -154.85) rotate(90.03)"/><polygon class="cls-2" points="198.5 79.16 182.36 121.5 198.5 108.26 214.63 121.5 198.5 79.16"/><rect class="cls-2" x="196.62" y="104.95" width="3.75" height="67.12"/><polygon class="cls-3" points="161.98 245.14 171.22 243.38 161.59 235.74 161.98 245.14"/><circle class="cls-4" cx="198.5" cy="266.7" r="42.33"/><path class="cls-5" d="M198.5,277.83V256.62L194,258l-.64-2.18,5.82-2h2v24Z"/><polygon class="cls-3" points="80.22 22.73 78.1 31.89 88.97 26.17 80.22 22.73"/><circle class="cls-4" cx="43.62" cy="43.62" r="42.33"/><path class="cls-5" d="M43.78,55.16a10.6,10.6,0,0,1-8.89-4.25l1.94-1.74a8.75,8.75,0,0,0,7,3.54,5.48,5.48,0,0,0,3.71-1.29A4.27,4.27,0,0,0,49,48a3.81,3.81,0,0,0-1.84-3.39,8.6,8.6,0,0,0-4.83-1.21H40.82l-.55-1.6,7.52-8.48H36.15V30.93H51.37v2l-7.49,8.31a10.5,10.5,0,0,1,5.63,1.95A5.68,5.68,0,0,1,51.74,48a6.57,6.57,0,0,1-2.29,5.16A8.29,8.29,0,0,1,43.78,55.16Z"/><polygon class="cls-3" points="321.39 15.43 312.29 17.81 322.41 24.77 321.39 15.43"/><circle class="cls-4" cx="353.37" cy="43.62" r="42.33"/><path class="cls-5" d="M344.81,54.76V52.68l8.64-7.63A22.79,22.79,0,0,0,357.33,41a6,6,0,0,0,1.09-3.4A4.24,4.24,0,0,0,357,34.26,4.91,4.91,0,0,0,353.62,33a6,6,0,0,0-3.42,1,12,12,0,0,0-3,3.1l-2-1.43a13.14,13.14,0,0,1,3.67-3.83,9,9,0,0,1,4.91-1.24,7.53,7.53,0,0,1,5.29,1.92,6.33,6.33,0,0,1,2.09,4.89,7.45,7.45,0,0,1-1.32,4.35,31.55,31.55,0,0,1-4.7,4.9l-6.37,5.65h12.63v2.46Z"/><path class="cls-5" d="M294.06,226.71a14.14,14.14,0,0,1-9.73-3.82l1.67-2a13.45,13.45,0,0,0,3.83,2.55,10.9,10.9,0,0,0,4.34.82,6.05,6.05,0,0,0,3.84-1.14,3.59,3.59,0,0,0,1.47-3,3.31,3.31,0,0,0-1.3-2.76,12.62,12.62,0,0,0-4.9-1.77,14.52,14.52,0,0,1-6.13-2.48,5.51,5.51,0,0,1-1.87-4.46A5.79,5.79,0,0,1,287.5,204a8.44,8.44,0,0,1,5.61-1.84,12.91,12.91,0,0,1,8.37,2.93l-1.56,2.07a10.66,10.66,0,0,0-6.88-2.58,5.71,5.71,0,0,0-3.67,1.1,3.45,3.45,0,0,0-1.4,2.81,3.31,3.31,0,0,0,1.35,2.79,14,14,0,0,0,5.12,1.84,13.66,13.66,0,0,1,5.91,2.47A5.41,5.41,0,0,1,302.2,220a6,6,0,0,1-2.28,4.88A9,9,0,0,1,294.06,226.71Z"/><path class="cls-5" d="M310.4,226.37V205.16l-4.49,1.4-.65-2.18,5.82-2h2v24Z"/><rect class="cls-6" x="273.33" y="189.05" width="52.36" height="52.36" rx="17.5"/></g></g></svg>