<svg xmlns="http://www.w3.org/2000/svg" viewBox="0 0 397.31 397.82"><defs><style>.cls-1{fill:#d0d6e2;}.cls-2{fill:#ff2c2c;}.cls-3{fill:#2e2e54;}.cls-4{fill:none;stroke:#382f56;stroke-miterlimit:10;stroke-width:2.2px;}.cls-5{fill:#382f56;}.cls-6{fill:red;}</style></defs><g id="Layer_2" data-name="Layer 2"><g id="Layer_1-2" data-name="Layer 1"><rect class="cls-1" x="37.21" y="33.04" width="160.86" height="11.35"/><rect class="cls-1" x="64.1" y="161.34" width="267.95" height="11.35" transform="translate(31.06 365.09) rotate(-90)"/><circle class="cls-1" cx="37.21" cy="38.71" r="26.23"/><rect class="cls-1" x="198.08" y="33.04" width="160.86" height="11.35" transform="translate(557.01 77.43) rotate(-180)"/><rect class="cls-1" x="18.75" y="206.69" width="358.64" height="11.35" transform="translate(-14.28 410.44) rotate(-90)"/><circle class="cls-1" cx="358.94" cy="38.71" r="26.23"/><polygon class="cls-1" points="197.51 397.82 308.96 308.05 305.42 298.78 193.96 388.55 197.51 397.82"/><circle class="cls-1" cx="310.62" cy="301.91" r="26.23"/><polygon class="cls-1" points="197.5 397.82 86.04 308.05 89.59 298.78 201.05 388.55 197.5 397.82"/><circle class="cls-1" cx="84.38" cy="301.91" r="26.23"/><polygon class="cls-2" points="198.08 134.41 181.94 176.75 198.08 163.51 214.22 176.75 198.08 134.41"/><rect class="cls-2" x="196.2" y="160.2" width="3.75" height="67.12"/><path class="cls-3" d="M38.75,49.84V44.19H26.19l-.68-1.94L39,25.85h2.35V42h3.71v2.24H41.34v5.65ZM28.74,42h10V29.66Z"/><path class="cls-3" d="M350.38,49.84V47.77L359,40.14a22.79,22.79,0,0,0,3.88-4.08A6,6,0,0,0,364,32.65a4.23,4.23,0,0,0-1.39-3.3,4.91,4.91,0,0,0-3.41-1.26,6,6,0,0,0-3.42,1,12.18,12.18,0,0,0-3,3.1l-2-1.43a13,13,0,0,1,3.68-3.83,8.89,8.89,0,0,1,4.9-1.24,7.52,7.52,0,0,1,5.29,1.92,6.32,6.32,0,0,1,2.09,4.88,7.46,7.46,0,0,1-1.32,4.36,31.08,31.08,0,0,1-4.7,4.9l-6.37,5.65H367v2.45Z"/><circle class="cls-4" cx="360.1" cy="37.21" r="36.12"/><polygon class="cls-5" points="324.44 32.59 330.77 27.66 320.49 25.6 324.44 32.59"/><path class="cls-3" d="M310.62,313V291.83l-4.49,1.4-.65-2.18,5.82-2h2v24Z"/><circle class="cls-4" cx="310.62" cy="301.91" r="36.12"/><polygon class="cls-5" points="274.43 301.31 269.65 307.75 280.1 306.99 274.43 301.31"/><path class="cls-3" d="M84.54,313.45a10.57,10.57,0,0,1-8.88-4.26l1.93-1.74a8.75,8.75,0,0,0,7,3.54,5.48,5.48,0,0,0,3.71-1.29,4.27,4.27,0,0,0,1.5-3.4,3.84,3.84,0,0,0-1.84-3.39,8.68,8.68,0,0,0-4.83-1.21H81.58L81,300.1l7.53-8.47H76.91v-2.42H92.13v2l-7.49,8.31a10.43,10.43,0,0,1,5.63,2,5.66,5.66,0,0,1,2.23,4.81,6.57,6.57,0,0,1-2.29,5.16A8.28,8.28,0,0,1,84.54,313.45Z"/><circle class="cls-4" cx="84.38" cy="301.91" r="36.12"/><polygon class="cls-5" points="120.5 298.34 115.26 304.42 125.74 304.42 120.5 298.34"/><circle class="cls-4" cx="37.21" cy="38.71" r="36.12"/><polygon class="cls-5" points="73.44 41.89 78.68 35.82 68.2 35.82 73.44 41.89"/><path class="cls-6" d="M38.49,134.41l-3.91-5.49a12,12,0,0,1-1.36.07H28.63v5.42h-1.8V117.33h6.39a7.72,7.72,0,0,1,5.12,1.57,5.29,5.29,0,0,1,1.85,4.29,5.53,5.53,0,0,1-1,3.38,5.61,5.61,0,0,1-2.89,2l4.17,5.85Zm-1.44-8.07a4.41,4.41,0,0,0,0-6.33,6,6,0,0,0-3.88-1.11H28.63v8.56h4.54A6,6,0,0,0,37.05,126.34Z"/><path class="cls-6" d="M56.54,132.85v1.56H44.46V117.33H56.17v1.57h-9.9V125H55.1v1.54H46.27v6.34Z"/><path class="cls-6" d="M74.73,117.33l-7.56,17.08H65.39l-7.56-17.08h2l6.54,14.84,6.58-14.84Z"/><path class="cls-6" d="M89.27,132.85v1.56H77.2V117.33H88.91v1.57H79V125h8.83v1.54H79v6.34Z"/><path class="cls-6" d="M105.17,134.41l-3.9-5.49a12,12,0,0,1-1.36.07H95.32v5.42h-1.8V117.33h6.39A7.72,7.72,0,0,1,105,118.9a5.32,5.32,0,0,1,1.85,4.29,5.53,5.53,0,0,1-1,3.38,5.61,5.61,0,0,1-2.89,2l4.17,5.85Zm-1.43-8.07a4.41,4.41,0,0,0,0-6.33,6,6,0,0,0-3.88-1.11H95.32v8.56h4.54A6,6,0,0,0,103.74,126.34Z"/><path class="cls-6" d="M112.21,134a6.78,6.78,0,0,1-2.69-1.61l.7-1.39a7,7,0,0,0,2.47,1.5,9,9,0,0,0,3.17.57,5.82,5.82,0,0,0,3.44-.84,2.6,2.6,0,0,0,1.14-2.19,2.16,2.16,0,0,0-.62-1.63,4.12,4.12,0,0,0-1.52-.94,24.51,24.51,0,0,0-2.51-.72,25.72,25.72,0,0,1-3.08-.94,5,5,0,0,1-2-1.38,3.61,3.61,0,0,1-.82-2.51,4.3,4.3,0,0,1,.68-2.35,4.77,4.77,0,0,1,2.1-1.7,8.68,8.68,0,0,1,3.51-.63,10.25,10.25,0,0,1,2.87.4,8.24,8.24,0,0,1,2.43,1.11l-.61,1.44a8.35,8.35,0,0,0-2.29-1.06,8.45,8.45,0,0,0-2.4-.35,5.47,5.47,0,0,0-3.37.86,2.68,2.68,0,0,0-1.14,2.23,2.23,2.23,0,0,0,.62,1.65,4.18,4.18,0,0,0,1.57,1q.93.33,2.52.72a24.45,24.45,0,0,1,3,.92,5,5,0,0,1,2,1.36,3.61,3.61,0,0,1,.81,2.48,4.23,4.23,0,0,1-.7,2.35,4.59,4.59,0,0,1-2.13,1.68,8.83,8.83,0,0,1-3.54.63A11.14,11.14,0,0,1,112.21,134Z"/><path class="cls-6" d="M138.23,132.85v1.56H126.15V117.33h11.71v1.57H128V125h8.83v1.54H128v6.34Z"/><path class="cls-6" d="M142.47,117.33h6.95a10.18,10.18,0,0,1,4.78,1.09,7.79,7.79,0,0,1,3.22,3,9.09,9.09,0,0,1,0,8.85,7.83,7.83,0,0,1-3.22,3,10.06,10.06,0,0,1-4.78,1.09h-6.95Zm6.85,15.52a8.32,8.32,0,0,0,3.93-.89,6.48,6.48,0,0,0,2.61-2.47,7.51,7.51,0,0,0,0-7.24,6.45,6.45,0,0,0-2.61-2.46,8.2,8.2,0,0,0-3.93-.89h-5v13.95Z"/></g></g></svg>