<svg xmlns="http://www.w3.org/2000/svg" viewBox="0 0 375.43 507.52"><defs><style>.cls-1{fill:#2e2e54;}.cls-2{fill:none;stroke:#382f56;stroke-miterlimit:10;stroke-width:2.2px;}.cls-3{fill:#382f56;}.cls-4{fill:#d0d6e2;}.cls-5{fill:#ff2c2c;}</style></defs><g id="Layer_2" data-name="Layer 2"><g id="Layer_1-2" data-name="Layer 1"><path class="cls-1" d="M191.69,491.18v-5.65H179.12l-.68-1.94,13.48-16.41h2.35v16.1H198v2.25h-3.71v5.65Zm-10-7.9h10V471Z"/><circle class="cls-2" cx="190.1" cy="470.3" r="36.12"/><polygon class="cls-3" points="154.8 479.3 162.15 482.51 152.7 487.04 154.8 479.3"/><path class="cls-1" d="M346.47,37.62A11.75,11.75,0,0,1,338,33.84l1.77-1.94q3.36,3.27,6.77,3.27a5.81,5.81,0,0,0,4.15-1.5,5,5,0,0,0,1.6-3.84,4.5,4.5,0,0,0-1.65-3.61,6.38,6.38,0,0,0-4.27-1.4,10.57,10.57,0,0,0-5,1.37L339.52,25l.68-11.6h13.72v2.48H342.55L342,23.5a11.61,11.61,0,0,1,4.7-1.06,8.84,8.84,0,0,1,5.91,2A6.71,6.71,0,0,1,355,29.79a7.29,7.29,0,0,1-2.39,5.65A8.67,8.67,0,0,1,346.47,37.62Z"/><circle class="cls-2" cx="338.21" cy="37.21" r="36.12"/><polygon class="cls-3" points="308.89 16.42 308.19 8.43 316.69 14.56 308.89 16.42"/><path class="cls-1" d="M35.62,47a8.55,8.55,0,0,1-6.77-2.82q-2.49-2.84-2.49-8.89A15.35,15.35,0,0,1,29,26a8.49,8.49,0,0,1,7.24-3.67,11,11,0,0,1,7,2.72l-1.56,2.08a8.73,8.73,0,0,0-5.62-2.35,5.81,5.81,0,0,0-5.07,2.89,13.46,13.46,0,0,0-1.91,7.52v.11a7.8,7.8,0,0,1,6.78-3.65,8.7,8.7,0,0,1,5.83,2.05A6.67,6.67,0,0,1,44.16,39a7.37,7.37,0,0,1-2.45,5.69A8.69,8.69,0,0,1,35.62,47Zm0-2.38A5.63,5.63,0,0,0,39.82,43a5.31,5.31,0,0,0,1.59-4,4.66,4.66,0,0,0-1.64-3.65A6,6,0,0,0,35.59,34a6,6,0,0,0-4.28,1.58,5,5,0,0,0,0,7.51A6.24,6.24,0,0,0,35.65,44.57Z"/><circle class="cls-2" cx="37.21" cy="37.21" r="36.12"/><polygon class="cls-3" points="4.17 22.74 11.51 19.51 2.04 15.01 4.17 22.74"/><rect class="cls-4" x="56.12" y="276.06" width="267.95" height="11.35" transform="translate(471.83 91.64) rotate(90)"/><polygon class="cls-4" points="186.09 149.91 300.5 66.65 308.52 72.49 194.12 155.75 186.09 149.91"/><circle class="cls-4" cx="306.85" cy="66.65" r="26.23"/><rect class="cls-4" x="56.12" y="276.06" width="267.95" height="11.35" transform="translate(471.83 91.64) rotate(90)"/><polygon class="cls-4" points="194.1 149.91 79.69 66.65 71.67 72.49 186.08 155.75 194.1 149.91"/><circle class="cls-4" cx="190.1" cy="421.79" r="26.23"/><circle class="cls-4" cx="73.35" cy="66.65" r="26.23"/><polygon class="cls-5" points="190.59 207.9 174.46 250.24 190.59 237 206.74 250.24 190.59 207.9"/><rect class="cls-5" x="188.72" y="233.69" width="3.75" height="67.12"/><path class="cls-1" d="M73.5,78.19a10.6,10.6,0,0,1-8.88-4.26l1.94-1.73a8.71,8.71,0,0,0,7,3.54,5.47,5.47,0,0,0,3.71-1.3,4.26,4.26,0,0,0,1.5-3.4,3.84,3.84,0,0,0-1.84-3.39,8.68,8.68,0,0,0-4.83-1.21H70.54L70,64.84l7.53-8.47H65.88V54H81.09v2L73.6,64.23a10.49,10.49,0,0,1,5.64,2A5.69,5.69,0,0,1,81.47,71a6.58,6.58,0,0,1-2.3,5.16A8.27,8.27,0,0,1,73.5,78.19Z"/><circle class="cls-2" cx="73.35" cy="66.65" r="36.12"/><path class="cls-1" d="M298.29,77.78V75.7l8.64-7.62A23.12,23.12,0,0,0,310.81,64a6,6,0,0,0,1.09-3.4,4.23,4.23,0,0,0-1.39-3.3A4.91,4.91,0,0,0,307.1,56a6.09,6.09,0,0,0-3.42,1,12,12,0,0,0-3,3.1l-2-1.43a13.16,13.16,0,0,1,3.68-3.83,8.89,8.89,0,0,1,4.9-1.24,7.53,7.53,0,0,1,5.29,1.92,6.34,6.34,0,0,1,2.09,4.89,7.45,7.45,0,0,1-1.32,4.35,31,31,0,0,1-4.7,4.91l-6.37,5.65h12.63v2.45Z"/><path class="cls-1" d="M190.1,432.92v-21.2l-4.5,1.39-.64-2.18,5.82-2h2v24Z"/><circle class="cls-2" cx="190.1" cy="421.79" r="36.12"/><polygon class="cls-3" points="37.72 61.05 42.16 67.73 31.76 66.41 37.72 61.05"/><circle class="cls-2" cx="306.85" cy="66.65" r="36.12"/><polygon class="cls-3" points="271.15 61.07 264.97 66.18 275.3 67.94 271.15 61.07"/><polygon class="cls-3" points="165.88 394.62 167.97 386.88 173.84 395.56 165.88 394.62"/></g></g></svg>