<?xml version="1.0" encoding="UTF-8"?><svg id="b" xmlns="http://www.w3.org/2000/svg" viewBox="0 0 432.102 79.871"><g id="c"><g><g><path d="m119.763,31.275l-.34,2.896-1.926,2.459-1.466.157-6.376-3.687-.2-3.108-3.18-3.526-3.692-.088-2.411-3.512-2.412,11.206.618,10.178-.254,4.625,13.703-2.384,2.908,5.501-.654,4.361-8.36,12.359-7.827,5.065-1.987,2.169h-4.822l1.187-7.451,6.082-1.406,6.35-2.278,3.731-8.19-.824-2.036-14.321,9.136-5.966-2.608h0c-2.963.589-7.288,1.92-11.783,4.919l-22.619,12.108-22.242,1.73-3.783-1.031,14.942-7.316,25.562-8.676,19.369-3.185-.883-2.315c-2.664-.63-9.233-1.681-17.087.736l-27.786,5.448-24.305-6.14-3.741-2.541,18.154-2.828,29.916-.5,24.092,3.836-.457-1.197s-8.417-6.238-21.309-5.912l-33.828-2.944L3.489,29.277l-3.489-4.437,21.864,2.825,34.677,9.79,26.808,13.244-.601-1.575-2.174-1.627h0s-.001-.002-.002-.003l-8.022-6.923-3.272-1.446-18.59-6.687-11.515-12.828-1.152-3.072,11.718,5.569,17.628,11.742,4.234,4.092-2.029-6.155,11.832-14.176,9.814-7.688,10.577-2.726,7.537.624-.357-1.205.254-3.072.782-1.127.436-1.145,1.327,1.781.139,4.544-.666,1.354,3.617,4.072.118.936,4.201,16.448.582.872Z" style="fill:#fff;"/><path d="m113.264,10.554h.798s1.366-.693,1.891-2.29l-2.174,1.46s-.105.599-.515.83Z" style="fill:#fff;"/><path d="m112.884,9.731l.698-.628s.655-1.674-.128-3.469l-.766,2.974s.374.601.196,1.123Z" style="fill:#fff;"/><path d="m106.968,6.466l.275-1.241s-.596-2.359-2.87-3.718l1.496,3.877s.884.367,1.099,1.082Z" style="fill:#fff;"/><path d="m103.959,5.634l-1.452-2.283S99.449.184,94.611.001c-.507-.019-1.444.159-1.444.159l7.509,4.949s2.005-.467,3.283.524Z" style="fill:#fff;"/><path d="m97.499,7.064l-1.776-2.041s-3.495-2.676-8.307-2.135c-.504.057-1.404.372-1.404.372l8.163,3.775s1.913-.761,3.324.029Z" style="fill:#fff;"/><path d="m91.756,8.112l-2.554-1.599s-4.69-1.639-10.087.851c-.565.261-1.521.967-1.521.967l10.332,1.048s2.009-1.604,3.83-1.268Z" style="fill:#fff;"/><path d="m85.377,11.959l-2.427-1.027s-4.462-.59-9.614,3.106c-.54.387-1.453,1.307-1.453,1.307l9.84-1.262s1.921-2.052,3.654-2.124Z" style="fill:#fff;"/><path d="m79.276,18.457l-1.544-.669s-3.128-.204-7.717,3.018c-.481.338-1.353,1.118-1.353,1.118l7.47-1.575s1.861-1.734,3.144-1.892Z" style="fill:#fff;"/><path d="m73.969,24.545l-1.062-.102s-1.909.467-3.966,3.214c-.216.288-.572.908-.572.908l4.123-2.322s.745-1.364,1.476-1.698Z" style="fill:#fff;"/></g><g><g><path d="m160.581,40.227c-6.351,0-11.01-1.326-13.977-3.98-2.967-2.653-4.45-6.783-4.45-12.389,0-5.486,1.521-9.534,4.562-12.143,3.042-2.608,7.782-3.913,14.223-3.913,10.883,0,16.712,3.891,17.487,11.673h-5.546c-.328-2.385-1.446-4.122-3.354-5.21-1.909-1.088-4.771-1.632-8.587-1.632-4.771,0-8.155.85-10.152,2.549-1.998,1.7-2.997,4.606-2.997,8.721,0,4.175.984,7.142,2.952,8.9,2.027,1.76,5.337,2.639,9.929,2.639,7.991,0,12.18-2.594,12.568-7.782h5.635c-.358,4.115-2.095,7.239-5.21,9.37-3.116,2.132-7.477,3.198-13.082,3.198Z" style="fill:#c9c9c9;"/><path d="m212.015,8.472h10.063v31.083h-5.635V13.392h-1.476l-17.219,26.164h-10.063V8.472h5.635v26.119h1.521l17.174-26.119Z" style="fill:#c9c9c9;"/><path d="m247.346,39.556h-5.635V13.302h-11.405v-4.83h28.489v4.83h-11.449v26.253Z" style="fill:#c9c9c9;"/><path d="m307.187,20.995v-12.523h5.635v31.083h-5.635v-13.73h-18.203v13.73h-5.635V8.472h5.635v12.523h18.203Z" style="fill:#c9c9c9;"/><path d="m348.513,39.556h-25.359V8.472h25.045v4.785h-19.41v7.782h17.89v4.786h-17.89v8.99h19.724v4.741Z" style="fill:#c9c9c9;"/><path d="m363.808,20.414h9.794c9.094,0,13.641,3.175,13.641,9.526,0,6.411-4.547,9.616-13.641,9.616h-15.653V8.472h26.745v4.785h-20.886v7.156Zm0,14.401h9.794c2.684,0,4.651-.395,5.904-1.186,1.252-.79,1.878-2.049,1.878-3.779,0-1.61-.626-2.795-1.878-3.556s-3.22-1.141-5.904-1.141h-9.794v9.661Z" style="fill:#c9c9c9;"/><path d="m394.31,23.947c0-5.546,1.535-9.623,4.606-12.232,3.071-2.608,7.827-3.913,14.267-3.913s11.204,1.305,14.29,3.913c3.086,2.609,4.629,6.687,4.629,12.232,0,5.576-1.543,9.683-4.629,12.322-3.086,2.639-7.849,3.958-14.29,3.958s-11.196-1.319-14.267-3.958c-3.071-2.639-4.606-6.746-4.606-12.322Zm8.721,8.855c2.086,1.76,5.471,2.639,10.152,2.639,4.711,0,8.095-.895,10.153-2.684,2.086-1.789,3.13-4.725,3.13-8.811s-1.044-6.992-3.13-8.721c-2.028-1.729-5.412-2.594-10.153-2.594s-8.125.865-10.152,2.594c-2.058,1.699-3.086,4.606-3.086,8.721s1.028,7.066,3.086,8.855Z" style="fill:#c9c9c9;"/></g><g><path d="m154.167,72.38h-2.527l-3.647-5.578h-3.838v5.578h-2.241v-12.467h2.241v5.006h4.1l3.17-5.006h2.502l-3.861,6.126,4.1,6.34Z" style="fill:#c9c9c9;"/><path d="m164.536,72.738c-2.543,0-4.414-.536-5.614-1.609s-1.799-2.745-1.799-5.018c0-2.241.604-3.893,1.812-4.958,1.208-1.064,3.075-1.597,5.602-1.597,2.495,0,4.346.537,5.554,1.609,1.208,1.073,1.812,2.722,1.812,4.946,0,2.257-.6,3.925-1.8,5.006-1.2,1.081-3.055,1.621-5.566,1.621Zm0-1.907c1.843,0,3.154-.365,3.933-1.097.778-.73,1.168-1.938,1.168-3.623,0-1.668-.39-2.86-1.168-3.576-.779-.715-2.09-1.072-3.933-1.072-1.828,0-3.146.366-3.957,1.096-.811.731-1.215,1.915-1.215,3.552,0,1.668.405,2.873,1.215,3.611s2.129,1.108,3.957,1.108Z" style="fill:#c9c9c9;"/><path d="m186.656,64.919v-5.006h2.241v12.467h-2.241v-5.578h-7.604v5.578h-2.241v-12.467h2.241v5.006h7.604Z" style="fill:#c9c9c9;"/><path d="m200.266,72.38h-2.241v-10.583h-4.767v-1.883h11.847v1.883h-4.839v10.583Z" style="fill:#c9c9c9;"/><path d="m217.595,59.556c2.272,0,3.953.533,5.042,1.597,1.088,1.065,1.633,2.709,1.633,4.934,0,2.273-.544,3.949-1.633,5.03s-2.769,1.621-5.042,1.621c-2.94,0-4.895-.938-5.864-2.812v7.699h-2.241v-17.711h2.241v2.36c.985-1.812,2.94-2.717,5.864-2.717Zm-.405,11.299c1.716,0,2.952-.37,3.707-1.108.754-.739,1.132-1.943,1.132-3.611,0-1.684-.369-2.888-1.108-3.611-.739-.723-1.958-1.084-3.659-1.084-3.75,0-5.625,1.382-5.625,4.147v1.001c0,1.335.489,2.38,1.466,3.135.978.755,2.34,1.132,4.088,1.132Z" style="fill:#c9c9c9;"/><path d="m235.902,72.738c-2.543,0-4.414-.536-5.614-1.609s-1.799-2.745-1.799-5.018c0-2.241.604-3.893,1.812-4.958,1.208-1.064,3.075-1.597,5.602-1.597,2.495,0,4.346.537,5.554,1.609,1.208,1.073,1.812,2.722,1.812,4.946,0,2.257-.6,3.925-1.8,5.006-1.2,1.081-3.055,1.621-5.566,1.621Zm0-1.907c1.843,0,3.154-.365,3.933-1.097.778-.73,1.168-1.938,1.168-3.623,0-1.668-.39-2.86-1.168-3.576-.779-.715-2.09-1.072-3.933-1.072-1.828,0-3.146.366-3.957,1.096-.811.731-1.215,1.915-1.215,3.552,0,1.668.405,2.873,1.215,3.611s2.129,1.108,3.957,1.108Z" style="fill:#c9c9c9;"/><path d="m249.464,59.914h10.703v12.467h-2.241v-10.583h-6.221v3.123c0,2.638-.429,4.597-1.288,5.876-.858,1.279-2.177,1.926-3.957,1.942v-1.883c1.033-.063,1.792-.576,2.276-1.538.484-.961.727-2.427.727-4.398v-5.006Z" style="fill:#c9c9c9;"/><path d="m265.768,72.38v-12.467h2.241v4.553h4.076c3.655,0,5.482,1.295,5.482,3.885,0,2.686-1.828,4.028-5.482,4.028h-6.317Zm6.317-6.031h-4.076v4.147h4.076c2.161,0,3.242-.707,3.242-2.121,0-.699-.262-1.212-.787-1.538s-1.343-.489-2.455-.489Z" style="fill:#c9c9c9;"/><path d="m293.728,62.369h5.506c4.72,0,7.08,1.653,7.08,4.958,0,3.369-2.36,5.053-7.08,5.053h-7.866v-16.519h13.659v1.979h-11.299v4.529Zm0,8.033h5.506c1.621,0,2.809-.25,3.563-.751.755-.5,1.132-1.283,1.132-2.348,0-1.001-.381-1.744-1.144-2.229-.763-.484-1.947-.727-3.552-.727h-5.506v6.055Z" style="fill:#c9c9c9;"/><path d="m327.409,72.38h-2.336l-1.645-4.648h-9.964l-1.645,4.648h-2.312l5.888-16.519h6.15l5.864,16.519Zm-10.417-14.541l-2.813,7.914h8.534l-2.812-7.914h-2.908Z" style="fill:#c9c9c9;"/><path d="m340.042,72.738c-3.29,0-5.717-.711-7.282-2.133-1.565-1.422-2.348-3.611-2.348-6.567,0-2.908.802-5.057,2.407-6.448s4.092-2.086,7.461-2.086c5.594,0,8.629,1.979,9.106,5.936h-2.241c-.207-1.351-.87-2.348-1.991-2.992-1.12-.644-2.745-.965-4.875-.965-2.669,0-4.608.517-5.816,1.549-1.192,1.017-1.788,2.694-1.788,5.03,0,2.368.588,4.076,1.764,5.125,1.176,1.049,3.075,1.573,5.697,1.573,4.545,0,6.96-1.469,7.247-4.41h2.265c-.191,2.098-1.108,3.687-2.753,4.768-1.645,1.081-3.929,1.621-6.853,1.621Z" style="fill:#c9c9c9;"/></g></g></g></g></svg>