<svg xmlns="http://www.w3.org/2000/svg" viewBox="0 0 457.73 253.14"><defs><style>.cls-1{fill:#d53b09;fill-rule:evenodd;}</style></defs><g id="Layer_2" data-name="Layer 2"><g id="Подложки"><g id="Слой_1"><g id="_2629383491120" data-name=" 2629383491120"><path class="cls-1" d="M86.5,227.73a128.24,128.24,0,0,0,14.3,4.5l-4.29,18A138.89,138.89,0,0,1,79.78,245ZM93.27,63.67,89,66c-1.42.86-2.73,1.82-4.09,2.73l-2,1.36c-.66.46-1.27,1.06-1.92,1.57l-3.79,3.13L64.57,61.24l4.7-4c.81-.66,1.57-1.37,2.38-2l2.52-1.77c1.72-1.16,3.39-2.38,5.16-3.44l5.46-2.93ZM182.2,84a79.84,79.84,0,0,0-15.56-15.11,75.49,75.49,0,0,0-19.4-9.6L142,57.75l-5.35-1-1.32-.25-1.36-.1-2.73-.25-2.73-.26H123a15.64,15.64,0,0,0-2.73.16l-5.41.55a75.79,75.79,0,0,0-10.56,2.53L98.83,41.48a93.94,93.94,0,0,1,13.34-3.13l6.82-.71a26,26,0,0,1,3.44-.15l3.43-.05h3.44l3.39.3,3.43.31,1.72.15,1.67.3,6.72,1.27,6.57,1.86a93.82,93.82,0,0,1,24.45,12.13,97.32,97.32,0,0,1,19.61,19h0c.35.45.65.91,1,1.36L183.06,85.24A5.88,5.88,0,0,0,182.2,84ZM152.54,192.66a72.56,72.56,0,0,0,24.16-16.42L190,189.07a90.8,90.8,0,0,1-30.41,20.72Zm-44.46,3.19a22.5,22.5,0,0,0,3.18.7l3.24.61-2.88,18.24-4.05-.76a26.17,26.17,0,0,1-4-.91Zm-10.71-3.69c2,.76,4,1.66,6.06,2.32l-5.71,17.59c-2.63-.81-5.1-1.92-7.68-2.94Zm-10-5.31,2.73,1.77L93,190.09l-8.49,16.42-3.59-1.87-3.43-2.23ZM55.88,113.08a71.23,71.23,0,0,0,.31,29.26l-18,4a89.67,89.67,0,0,1-.36-36.84Zm1.82,34.81,1,3.14,1.27,3-17.08,7.07c-.51-1.26-1.06-2.52-1.57-3.79l-1.21-3.94ZM26,84.08a110.42,110.42,0,0,0-6.62,21.47L1.26,102A129.59,129.59,0,0,1,9,76.85Zm-7.68,57.35a108.4,108.4,0,0,0,12.94,38.4h0a107.77,107.77,0,0,0,47.8,44.66l-8,16.68a127.19,127.19,0,0,1-32-21.83A136.49,136.49,0,0,1,25.92,205a137.56,137.56,0,0,1-10.76-16.17h0A127.65,127.65,0,0,1,0,143.85ZM135.67,234.7a109.36,109.36,0,0,0,22-4.29l5.45,17.68a124.14,124.14,0,0,1-25.76,5ZM161.89,229l2.33-.81,2.32-1,7,17.13-2.68,1.11-2.72,1Zm45.53-30.72c1.16-1.21,2.12-2.53,3.18-3.84L225.05,206c-1.26,1.52-2.42,3-3.74,4.45Zm-6,6.27,3.49-3.54,13.44,12.68-4.09,4.15ZM195,210.3c1.26-1.06,2.57-2.08,3.79-3.24l12.38,13.75c-1.42,1.31-2.94,2.57-4.4,3.79ZM221,74.23c-.15-.31-.36-.61-.51-.91h0a107.79,107.79,0,0,0-47.8-44.67l8-16.67a128,128,0,0,1,32,21.77,141.11,141.11,0,0,1,13.14,14.3,142.74,142.74,0,0,1,10.76,16.17h0c.2.35.36.66.56,1ZM116.11,18.44a108.68,108.68,0,0,0-22,4.3L88.63,5.05a124.81,124.81,0,0,1,25.76-5ZM164.22,25a126.26,126.26,0,0,0-14.35-4.34l4.09-18a138.23,138.23,0,0,1,16.77,5.05Zm-74.33-.86L87.56,25l-2.32,1-7-17.13L81,7.68l2.72-1ZM44.36,54.87c-1.16,1.22-2.12,2.53-3.18,3.79L26.73,47.14c1.21-1.51,2.42-3,3.74-4.44Zm6-6.26-3.49,3.53L33.4,39.46l4.09-4.14Zm6.46-5.76C55.53,43.91,54.22,45,53,46.08L40.62,32.39C42,31.07,43.55,29.81,45,28.6Z"/><path class="cls-1" d="M99.64,156.54V106.92a9.15,9.15,0,0,1,9.1-9.1h4.14a8.93,8.93,0,0,1,6.47,2.68,8.69,8.69,0,0,1,2.67,6.42v7.58h-6.41v-7.58a2.46,2.46,0,0,0-.81-1.87,2.55,2.55,0,0,0-1.92-.81h-4.14a2.77,2.77,0,0,0-2.68,2.68v49.62a2.75,2.75,0,0,0,.76,2,2.63,2.63,0,0,0,1.92.75h4.14a2.69,2.69,0,0,0,1.92-.8,2.6,2.6,0,0,0,.81-1.92V146.18H122v10.36a9.13,9.13,0,0,1-9.14,9.09h-4.14a9.15,9.15,0,0,1-9.1-9.09Zm30.12,0V106.92a8.81,8.81,0,0,1,2.67-6.42,8.63,8.63,0,0,1,6.42-2.68h6.42a8.71,8.71,0,0,1,6.41,2.68,8.93,8.93,0,0,1,2.68,6.47v49.62a8.92,8.92,0,0,1-2.68,6.46,8.71,8.71,0,0,1-6.41,2.68h-6.42a8.9,8.9,0,0,1-6.42-2.68A9.2,9.2,0,0,1,129.76,156.54Zm6.41,0a2.79,2.79,0,0,0,.76,2,2.73,2.73,0,0,0,1.92.75h6.42a2.65,2.65,0,0,0,1.92-.75,2.79,2.79,0,0,0,.76-2V106.92a2.46,2.46,0,0,0-.81-1.87,2.53,2.53,0,0,0-1.87-.81h-6.42a2.77,2.77,0,0,0-2.68,2.68v49.62Zm26,9.14V97.82h6.42v28.3h7.18v-19.2a9,9,0,0,1,2.67-6.47,8.63,8.63,0,0,1,6.42-2.68h5.81a8.93,8.93,0,0,1,6.47,2.68,8.7,8.7,0,0,1,2.68,6.42v49.61a9.15,9.15,0,0,1-9.15,9.1h-5.81a9.13,9.13,0,0,1-9.09-9.15v-24.5h-7.18v33.65h-6.42Zm20-9.14a2.64,2.64,0,0,0,.81,1.92,2.47,2.47,0,0,0,1.87.8h5.86a2.64,2.64,0,0,0,1.87-.8,2.86,2.86,0,0,0,.81-1.92V106.92a2.6,2.6,0,0,0-.76-1.92,2.68,2.68,0,0,0-1.92-.76h-5.86a2.62,2.62,0,0,0-1.92.76,2.68,2.68,0,0,0-.76,1.92v49.62Zm24,0V146.18h6.42v10.36a2.75,2.75,0,0,0,2.73,2.72h3.64a2.71,2.71,0,0,0,1.92-.8,2.75,2.75,0,0,0,.75-1.92V137a4.88,4.88,0,0,0-1.31-3.84,6,6,0,0,0-4-1.11H213v-5.91h3.18a4.63,4.63,0,0,0,3.94-1.82,7.43,7.43,0,0,0,1.41-4.6V106.87a2.58,2.58,0,0,0-2.67-2.68h-3.64a2.6,2.6,0,0,0-1.92.76,2.53,2.53,0,0,0-.81,1.92v7.58H206.1v-7.58a9.24,9.24,0,0,1,9.15-9.1h3.69a9.15,9.15,0,0,1,9.09,9.15V119.8a10.88,10.88,0,0,1-1.31,5.31,7.55,7.55,0,0,1-3.79,3.38,7.48,7.48,0,0,1,3.74,2.88,7.8,7.8,0,0,1,1.36,4.55v20.62a8.89,8.89,0,0,1-2.68,6.41,8.65,8.65,0,0,1-6.41,2.73h-3.69a8.9,8.9,0,0,1-6.42-2.68A8.72,8.72,0,0,1,206.05,156.54Zm29.61,9.14V97.82h6.42v30.87l-1.82,25.07.71.2,13.44-56.14h8.64v67.86h-6.42V134.81l1.82-24.15-1-.21L244.1,165.68Zm35.12,0V97.82h6.42v28.3h11.87V97.82h6.42v67.86h-6.42V132H277.14v33.65Zm32.44-15.56V113.28a9.1,9.1,0,0,1,2.62-6.46,8.82,8.82,0,0,1,6.47-2.63h4.2V96.81h6.41v7.38h4.15a9,9,0,0,1,6.46,2.63,8.7,8.7,0,0,1,2.63,6.46v36.84a9.13,9.13,0,0,1-9.09,9.14h-4.15v6.42h-6.41v-6.42h-4.2a8.74,8.74,0,0,1-6.41-2.67A8.86,8.86,0,0,1,303.22,150.12Zm6.41,0a2.77,2.77,0,0,0,.76,2,2.66,2.66,0,0,0,1.92.76h4.2v-42.3h-4.2a2.66,2.66,0,0,0-1.92.76,2.74,2.74,0,0,0-.76,1.92Zm13.29,2.78h4.2a2.52,2.52,0,0,0,1.92-.81,2.65,2.65,0,0,0,.75-1.92V113.33a2.48,2.48,0,0,0-.8-1.87,2.56,2.56,0,0,0-1.87-.8h-4.2Zm21,3.64V106.92a9.15,9.15,0,0,1,9.1-9.1h6.41a8.74,8.74,0,0,1,6.42,2.68,8.93,8.93,0,0,1,2.68,6.47v49.62a8.92,8.92,0,0,1-2.68,6.46,8.74,8.74,0,0,1-6.42,2.68H353a8.9,8.9,0,0,1-6.42-2.68A9.21,9.21,0,0,1,343.94,156.54Zm6.42,0a2.75,2.75,0,0,0,.76,2,2.71,2.71,0,0,0,1.92.75h6.41a2.63,2.63,0,0,0,1.92-.75,2.75,2.75,0,0,0,.76-2V106.92a2.77,2.77,0,0,0-2.68-2.68H353a2.77,2.77,0,0,0-2.73,2.68v49.62ZM375,104.19V97.77H396.9v6.42h-7.79v61.49H382.7V104.19Zm28.29,61.49V97.82h18.55v6.42H409.68v21.93h10.46v5.91H409.68v27.23h12v6.42H403.26Zm22.94,0,10.31-36.23-9.35-31.63h6.57L442,125.36l8.23-27.54h6.57l-9.5,31.38,10.46,36.48h-6.62l-9.24-32.24-9.2,32.24Z"/></g></g></g></g></svg>