<?xml version="1.0" encoding="UTF-8"?><svg id="a" xmlns="http://www.w3.org/2000/svg" xmlns:xlink="http://www.w3.org/1999/xlink" viewBox="0 0 610.349 610.349"><defs><linearGradient id="d" x1="64.838" y1="423.43" x2="406.346" y2="213.748" gradientUnits="userSpaceOnUse"><stop offset="0" stop-color="#ff7029"/><stop offset=".013" stop-color="#f86c2c"/><stop offset=".128" stop-color="#c4524b"/><stop offset=".236" stop-color="#9b3e63"/><stop offset=".333" stop-color="#7e3074"/><stop offset=".417" stop-color="#6c277f"/><stop offset=".478" stop-color="#662483"/><stop offset=".559" stop-color="#572676"/><stop offset=".718" stop-color="#402a63"/><stop offset=".869" stop-color="#322d57"/><stop offset="1" stop-color="#2e2e54"/></linearGradient></defs><g id="b"><g><path d="m331.714,311.353c-2.906,0-5.027-.504-6.362-1.512-1.335-1.008-2.057-2.638-2.166-4.89h1.961c.109,1.671.672,2.856,1.689,3.555,1.017.7,2.652,1.049,4.904,1.049,1.907,0,3.364-.327,4.373-.98,1.008-.654,1.512-1.58,1.512-2.779,0-1.871-1.298-3.015-3.896-3.433l-5.041-.79c-3.233-.508-4.849-2.08-4.849-4.713,0-1.652.654-2.929,1.961-3.828s3.16-1.349,5.558-1.349c2.524,0,4.423.468,5.694,1.403,1.271.936,2.025,2.42,2.261,4.454h-2.016c-.182-1.417-.749-2.447-1.703-3.092-.954-.644-2.366-.967-4.237-.967-1.762,0-3.124.286-4.086.858-.963.572-1.444,1.395-1.444,2.466,0,1.635,1.162,2.634,3.487,2.997l4.931.763c3.596.563,5.394,2.289,5.394,5.176,0,1.798-.686,3.183-2.057,4.155-1.372.972-3.329,1.458-5.871,1.458Z"/><path d="m366.586,310.944h-2.371l-6.348-8.909h-6.348v8.909h-2.043v-18.853h2.043v8.119h6.565l5.912-8.119h2.37l-6.702,9.181,6.92,9.672Z"/><path d="m389.661,292.091h2.261l-8.037,13.949v4.904h-2.043v-4.876l-8.037-13.977h2.289l6.539,11.47h.463l6.566-11.47Z"/><path d="m407.644,311.353c-2.906,0-5.027-.504-6.362-1.512-1.335-1.008-2.057-2.638-2.166-4.89h1.961c.109,1.671.672,2.856,1.689,3.555,1.017.7,2.652,1.049,4.904,1.049,1.907,0,3.364-.327,4.373-.98,1.008-.654,1.512-1.58,1.512-2.779,0-1.871-1.298-3.015-3.896-3.433l-5.041-.79c-3.233-.508-4.849-2.08-4.849-4.713,0-1.652.654-2.929,1.961-3.828s3.16-1.349,5.558-1.349c2.524,0,4.423.468,5.694,1.403,1.271.936,2.025,2.42,2.261,4.454h-2.016c-.182-1.417-.749-2.447-1.703-3.092-.954-.644-2.366-.967-4.237-.967-1.762,0-3.124.286-4.086.858-.963.572-1.444,1.395-1.444,2.466,0,1.635,1.162,2.634,3.487,2.997l4.931.763c3.596.563,5.394,2.289,5.394,5.176,0,1.798-.686,3.183-2.057,4.155-1.372.972-3.329,1.458-5.871,1.458Z"/><path d="m435.46,311.353c-3.706,0-6.457-.817-8.255-2.452-1.798-1.634-2.697-4.123-2.697-7.465,0-3.269.921-5.712,2.765-7.329,1.843-1.616,4.663-2.425,8.459-2.425,6.175,0,9.607,2.198,10.298,6.593h-2.016c-.582-3.197-3.342-4.795-8.282-4.795-3.161,0-5.476.636-6.947,1.907-1.471,1.272-2.207,3.297-2.207,6.076s.726,4.822,2.18,6.13c1.453,1.308,3.714,1.961,6.784,1.961,5.449,0,8.364-1.761,8.745-5.285h2.043c-.236,2.325-1.276,4.086-3.119,5.285-1.844,1.199-4.427,1.798-7.751,1.798Z"/><path d="m463.602,304.16l9.372,6.784h-3.079l-9.454-6.784h-2.534v6.784h-2.07v-18.853h7.546c5.612,0,8.418,1.925,8.418,5.776,0,4.141-2.733,6.239-8.2,6.293Zm-.218-10.271h-5.476v8.445h5.476c2.143,0,3.732-.363,4.768-1.089,1.035-.727,1.553-1.853,1.553-3.378,0-1.362-.518-2.366-1.553-3.011-1.036-.644-2.625-.967-4.768-.967Z"/><path d="m500.299,310.944h-2.098l-2.016-5.64h-11.633l-2.016,5.64h-2.098l6.729-18.853h6.402l6.729,18.853Zm-11.688-17.055l-3.433,9.617h10.38l-3.433-9.617h-3.515Z"/><path d="m511.224,310.944h-2.043v-18.853h6.784c5.921,0,8.882,2.098,8.882,6.293s-2.961,6.266-8.882,6.266h-4.74v6.293Zm0-17.055v8.963h4.768c2.325,0,4.036-.363,5.135-1.09s1.648-1.862,1.648-3.406-.545-2.674-1.635-3.392c-1.09-.717-2.806-1.076-5.149-1.076h-4.768Z"/><path d="m549.256,310.944h-14.821v-18.853h14.63v1.798h-12.586v6.32h11.688v1.826h-11.688v7.11h12.777v1.798Z"/><path d="m566.992,304.16l9.372,6.784h-3.079l-9.454-6.784h-2.534v6.784h-2.07v-18.853h7.546c5.612,0,8.418,1.925,8.418,5.776,0,4.141-2.733,6.239-8.2,6.293Zm-.218-10.271h-5.476v8.445h5.476c2.143,0,3.732-.363,4.768-1.089,1.035-.727,1.553-1.853,1.553-3.378,0-1.362-.518-2.366-1.553-3.011-1.036-.644-2.625-.967-4.768-.967Z"/></g><g><path d="m404.672,354.439c-2.906,0-5.027-.504-6.362-1.512-1.335-1.008-2.057-2.638-2.166-4.89h1.961c.109,1.671.672,2.856,1.689,3.555,1.017.7,2.652,1.049,4.904,1.049,1.907,0,3.364-.327,4.373-.98,1.008-.654,1.512-1.58,1.512-2.779,0-1.871-1.298-3.015-3.896-3.433l-5.041-.79c-3.233-.508-4.849-2.08-4.849-4.713,0-1.652.654-2.929,1.961-3.828s3.16-1.349,5.558-1.349c2.524,0,4.423.468,5.694,1.403,1.271.936,2.025,2.42,2.261,4.454h-2.016c-.182-1.417-.749-2.447-1.703-3.092-.954-.644-2.366-.967-4.237-.967-1.762,0-3.124.286-4.086.858-.963.572-1.444,1.395-1.444,2.466,0,1.635,1.162,2.634,3.487,2.997l4.931.763c3.596.563,5.394,2.289,5.394,5.176,0,1.798-.686,3.183-2.057,4.155-1.372.972-3.329,1.458-5.871,1.458Z"/><path d="m429.79,354.03h-2.043v-17.055h-7.301v-1.798h16.673v1.798h-7.329v17.055Z"/><path d="m453.955,354.439c-2.779,0-4.854-.581-6.226-1.744-1.372-1.162-2.057-2.933-2.057-5.312v-12.206h2.07v12.206c0,1.816.504,3.146,1.512,3.991s2.575,1.267,4.7,1.267c2.18,0,3.782-.422,4.809-1.267,1.026-.845,1.539-2.175,1.539-3.991v-12.206h2.043v12.206c0,2.379-.695,4.15-2.084,5.312-1.39,1.163-3.492,1.744-6.307,1.744Z"/><path d="m482.453,354.03h-9.808v-18.853h9.481c3.869,0,6.752.772,8.65,2.316,1.898,1.544,2.847,3.887,2.847,7.029,0,6.339-3.724,9.508-11.17,9.508Zm-7.764-17.055v15.256h7.71c3.106,0,5.408-.626,6.906-1.879,1.499-1.253,2.248-3.197,2.248-5.831,0-2.579-.758-4.481-2.275-5.708s-3.873-1.839-7.07-1.839h-7.519Z"/><path d="m505.338,354.03h-2.043v-18.853h2.043v18.853Z"/><path d="m526.207,354.439c-7.465,0-11.197-3.278-11.197-9.835s3.732-9.835,11.197-9.835c3.76,0,6.566.813,8.418,2.438s2.779,4.091,2.779,7.397-.926,5.771-2.779,7.396c-1.853,1.626-4.659,2.438-8.418,2.438Zm0-1.798c3.124,0,5.426-.649,6.906-1.948,1.48-1.298,2.22-3.328,2.22-6.089,0-2.779-.74-4.813-2.22-6.103-1.48-1.289-3.783-1.934-6.906-1.934s-5.426.645-6.907,1.934c-1.48,1.29-2.22,3.324-2.22,6.103,0,2.761.745,4.791,2.234,6.089,1.489,1.299,3.787,1.948,6.893,1.948Z"/></g><g id="c"><path d="m254.859,319.712v42.399h42.403v-36.971h287.542v-4.159h-287.542v-164.334l-23.021-23.224c72.035,15.706,128.957,71.856,145.79,143.46h16.024c-18.679-86.359-91.092-152.714-180.496-162.305l-32.527-32.816-13.19,32.909C106.155,126.254,25.545,214.207,25.545,320.98c0,114.657,92.946,207.607,207.603,207.607,98.195,0,180.467-68.176,202.065-159.776h-16.101c-21.252,82.883-96.454,144.143-185.964,144.143-2.521,0-5.025-.049-7.522-.146V89.796l24.249,24.249,18.122,18.122,25.257,25.261v162.285h-38.394Zm-47.042,191.583c-94.047-12.397-166.639-92.876-166.639-190.315,0-95.82,70.201-175.243,161.98-189.64l-20.634,51.49v161.821l-4.635,4.639v51.783h-41.151v4.037h9.721v79.768h35.466v-134.539l25.891-25.887v186.842Z" style="fill:url(#d);"/></g></g></svg>