<svg xmlns="http://www.w3.org/2000/svg" viewBox="0 0 473.87 595.93"><defs><style>.cls-1{fill:#d0d6e2;}.cls-2{fill:#ff7133;}.cls-3{fill:#2e2e54;}.cls-4,.cls-5,.cls-6,.cls-7,.cls-8{fill:none;stroke-miterlimit:10;stroke-width:2px;}.cls-4{stroke:#93ff15;}.cls-5{stroke:#646368;}.cls-6{stroke:#ff7133;}.cls-7{stroke:#2e2e54;}.cls-8{stroke:#ff2c2c;}.cls-9{fill:#ff2c2c;}.cls-10{fill:#93ff15;}</style></defs><g id="Layer_2" data-name="Layer 2"><g id="Layer_1-2" data-name="Layer 1"><polygon class="cls-1" points="369.89 519.93 378.5 540.15 95.37 540.15 103.97 519.93 116.17 491.25 201.23 467.46 176.88 238.13 163.39 238.13 0 274.46 31.48 217.5 182.87 151.13 193.36 102.83 208.73 78.29 265.14 78.29 280.5 102.83 290.99 151.13 442.39 217.5 473.87 274.46 310.48 238.13 296.99 238.13 272.63 467.46 357.7 491.25 369.89 519.93"/><polygon class="cls-2" points="378.5 540.15 95.37 540.15 103.97 519.93 369.89 519.93 378.5 540.15"/><polygon class="cls-3" points="248.26 474.41 236.98 538.54 236.93 538.83 236.88 538.54 225.6 474.41 236.88 449.58 236.93 449.47 236.98 449.58 248.26 474.41"/><path class="cls-3" d="M218.66,44.93V23.72l-4.49,1.4-.65-2.18,5.82-2h2v24Z"/><path class="cls-3" d="M224,49.29l15.79-31.52h2.42L226.46,49.29Z"/><path class="cls-3" d="M243,44.93V42.85l8.65-7.62a23.16,23.16,0,0,0,3.88-4.09,6.06,6.06,0,0,0,1.09-3.4,4.24,4.24,0,0,0-1.4-3.3,4.88,4.88,0,0,0-3.4-1.26,6,6,0,0,0-3.42,1,12,12,0,0,0-3,3.09l-2-1.43A13.29,13.29,0,0,1,247.12,22a9,9,0,0,1,4.9-1.24,7.48,7.48,0,0,1,5.29,1.93,6.33,6.33,0,0,1,2.1,4.88,7.49,7.49,0,0,1-1.33,4.36,31,31,0,0,1-4.7,4.9L247,42.48h12.63v2.45Z"/><path class="cls-3" d="M63.31,309.63a10.6,10.6,0,0,1-8.88-4.26l1.94-1.73a8.71,8.71,0,0,0,7,3.54,5.46,5.46,0,0,0,3.71-1.29,4.29,4.29,0,0,0,1.5-3.41,3.84,3.84,0,0,0-1.84-3.39,8.68,8.68,0,0,0-4.83-1.2H60.35l-.55-1.6,7.53-8.48H55.69v-2.42H70.9v2l-7.49,8.3a10.66,10.66,0,0,1,5.64,2,5.69,5.69,0,0,1,2.23,4.82A6.56,6.56,0,0,1,69,307.6,8.27,8.27,0,0,1,63.31,309.63Z"/><path class="cls-3" d="M409,309.22v-5.65H396.41l-.68-1.94,13.48-16.41h2.35v16.1h3.71v2.25h-3.71v5.65Zm-10-7.9h10V289Z"/><path class="cls-3" d="M200.47,508.53a11.75,11.75,0,0,1-8.51-3.78l1.77-1.94c2.25,2.18,4.5,3.27,6.77,3.27a5.84,5.84,0,0,0,4.16-1.5,5.05,5.05,0,0,0,1.6-3.84,4.5,4.5,0,0,0-1.65-3.61,6.43,6.43,0,0,0-4.28-1.4,10.67,10.67,0,0,0-5,1.36l-1.8-1.19.68-11.6h13.71v2.48H196.55l-.51,7.63a11.65,11.65,0,0,1,4.7-1.06,8.79,8.79,0,0,1,5.91,2A6.71,6.71,0,0,1,209,500.7a7.32,7.32,0,0,1-2.38,5.65A8.71,8.71,0,0,1,200.47,508.53Z"/><path class="cls-3" d="M321.19,586.51a8.52,8.52,0,0,1-6.77-2.83q-2.49-2.82-2.49-8.88a15.35,15.35,0,0,1,2.67-9.26,8.48,8.48,0,0,1,7.24-3.68,11,11,0,0,1,7,2.73l-1.56,2.07a8.78,8.78,0,0,0-5.62-2.35,5.82,5.82,0,0,0-5.07,2.9,13.44,13.44,0,0,0-1.91,7.52v.1a7.8,7.8,0,0,1,6.78-3.64,8.69,8.69,0,0,1,5.83,2,6.69,6.69,0,0,1,2.4,5.35,7.35,7.35,0,0,1-2.45,5.68A8.65,8.65,0,0,1,321.19,586.51Zm0-2.38a5.67,5.67,0,0,0,4.17-1.57,5.31,5.31,0,0,0,1.59-3.95,4.7,4.7,0,0,0-1.64-3.66,6.09,6.09,0,0,0-4.18-1.44,6,6,0,0,0-4.28,1.58,5,5,0,0,0,0,7.5A6.24,6.24,0,0,0,321.22,584.13Z"/><circle class="cls-4" cx="407.46" cy="298.19" r="19.86"/><circle class="cls-5" cx="236.93" cy="33.9" r="32.9"/><circle class="cls-6" cx="321.39" cy="575.07" r="19.86"/><circle class="cls-7" cx="200.47" cy="497.1" r="19.86"/><circle class="cls-8" cx="63.06" cy="298.19" r="19.86"/><polygon class="cls-9" points="14.3 248.3 163.39 215.15 163.39 237.84 0 274.17 14.3 248.3"/><polygon class="cls-10" points="459.57 248.59 310.48 215.44 310.48 238.13 473.87 274.46 459.57 248.59"/><polygon class="cls-9" points="236.93 202.21 220.79 244.54 236.93 231.31 253.07 244.54 236.93 202.21"/><rect class="cls-9" x="235.06" y="228" width="3.75" height="67.12"/></g></g></svg>