<svg xmlns="http://www.w3.org/2000/svg" viewBox="0 0 396.06 417.87"><defs><style>.cls-1{fill:#d0d6e2;}.cls-2{fill:#2e2e54;}.cls-3,.cls-5{fill:none;stroke:#382f56;stroke-miterlimit:10;}.cls-3{stroke-width:2.2px;}.cls-4{fill:#382f56;}.cls-5{stroke-width:2.2px;}.cls-6{fill:#ff2c2c;}.cls-7{fill:red;}</style></defs><g id="Layer_2" data-name="Layer 2"><g id="Layer_1-2" data-name="Layer 1"><rect class="cls-1" x="35.97" y="31.54" width="160.86" height="11.35"/><rect class="cls-1" x="62.86" y="159.84" width="267.95" height="11.35" transform="translate(31.32 362.35) rotate(-90)"/><polygon class="cls-1" points="200.84 297.34 86.43 380.6 78.41 374.76 192.81 291.5 200.84 297.34"/><circle class="cls-1" cx="35.97" cy="37.21" r="26.23"/><circle class="cls-1" cx="80.08" cy="380.6" r="26.23"/><rect class="cls-1" x="196.84" y="31.54" width="160.86" height="11.35" transform="translate(554.53 74.43) rotate(-180)"/><rect class="cls-1" x="62.86" y="159.84" width="267.95" height="11.35" transform="translate(31.32 362.35) rotate(-90)"/><polygon class="cls-1" points="192.83 297.34 307.24 380.6 315.26 374.76 200.86 291.5 192.83 297.34"/><circle class="cls-1" cx="357.7" cy="37.21" r="26.23"/><circle class="cls-1" cx="313.59" cy="380.6" r="26.23"/><path class="cls-2" d="M39.26,48.34V42.69H26.7L26,40.75,39.5,24.35h2.34v16.1h3.71v2.24H41.84v5.65Zm-10-7.89h10V28.16Z"/><path class="cls-2" d="M347.91,48.34V46.27l8.65-7.63a23.17,23.17,0,0,0,3.88-4.08,6.09,6.09,0,0,0,1.09-3.4,4.25,4.25,0,0,0-1.4-3.31,4.88,4.88,0,0,0-3.4-1.26,6,6,0,0,0-3.42,1,12,12,0,0,0-3,3.1l-2-1.43A13.16,13.16,0,0,1,352,25.42a8.91,8.91,0,0,1,4.9-1.24,7.52,7.52,0,0,1,5.29,1.92,6.33,6.33,0,0,1,2.1,4.88A7.4,7.4,0,0,1,363,35.34a30.61,30.61,0,0,1-4.7,4.9l-6.36,5.65h12.63v2.45Z"/><path class="cls-2" d="M313.74,392.14a10.64,10.64,0,0,1-8.89-4.25l1.94-1.74a8.75,8.75,0,0,0,7,3.54,5.48,5.48,0,0,0,3.71-1.29A4.28,4.28,0,0,0,319,385a3.81,3.81,0,0,0-1.84-3.38,8.6,8.6,0,0,0-4.83-1.21h-1.53l-.55-1.6,7.52-8.48H306.11v-2.41h15.22v2l-7.49,8.31a10.5,10.5,0,0,1,5.63,1.95A5.68,5.68,0,0,1,321.7,385a6.57,6.57,0,0,1-2.29,5.16A8.28,8.28,0,0,1,313.74,392.14Z"/><path class="cls-2" d="M80.09,391.73v-21.2l-4.5,1.39L75,369.74l5.82-2h2v24Z"/><circle class="cls-3" cx="315.31" cy="380.6" r="36.12"/><polygon class="cls-4" points="279.48 376.02 275.74 368.93 285.95 371.29 279.48 376.02"/><circle class="cls-3" cx="358.85" cy="37.21" r="36.12"/><polygon class="cls-4" points="323.01 41.79 319.28 48.89 329.49 46.53 323.01 41.79"/><circle class="cls-3" cx="37.21" cy="37.21" r="36.12"/><polygon class="cls-4" points="73.15 41.47 66.44 45.88 76.52 48.75 73.15 41.47"/><circle class="cls-5" cx="80.68" cy="380.6" r="36.16"/><polygon class="cls-4" points="116.56 376.02 120.31 368.91 110.08 371.27 116.56 376.02"/><polygon class="cls-6" points="196.84 133.34 180.69 175.68 196.84 162.44 212.97 175.68 196.84 133.34"/><rect class="cls-6" x="194.96" y="159.13" width="3.75" height="67.12"/><path class="cls-7" d="M145.71,391.73l-3.9-5.48c-.44,0-.89.07-1.37.07h-4.58v5.41h-1.81V374.66h6.39a7.74,7.74,0,0,1,5.13,1.56,5.32,5.32,0,0,1,1.85,4.29,5.57,5.57,0,0,1-1,3.38,5.65,5.65,0,0,1-2.89,2l4.17,5.85Zm-1.44-8.07a4.39,4.39,0,0,0,0-6.33,5.91,5.91,0,0,0-3.87-1.11h-4.54v8.56h4.54A5.86,5.86,0,0,0,144.27,383.66Z"/><path class="cls-7" d="M163.76,390.17v1.56H151.69V374.66H163.4v1.56h-9.9v6.07h8.83v1.54H153.5v6.34Z"/><path class="cls-7" d="M182,374.66l-7.56,17.07h-1.78l-7.56-17.07H167l6.53,14.83,6.59-14.83Z"/><path class="cls-7" d="M196.5,390.17v1.56H184.42V374.66h11.71v1.56h-9.9v6.07h8.83v1.54h-8.83v6.34Z"/><path class="cls-7" d="M212.4,391.73l-3.9-5.48c-.44,0-.89.07-1.37.07h-4.58v5.41h-1.81V374.66h6.39a7.74,7.74,0,0,1,5.13,1.56,5.32,5.32,0,0,1,1.85,4.29,5.57,5.57,0,0,1-1,3.38,5.65,5.65,0,0,1-2.89,2l4.17,5.85ZM211,383.66a4.39,4.39,0,0,0,0-6.33,5.91,5.91,0,0,0-3.87-1.11h-4.54v8.56h4.54A5.86,5.86,0,0,0,211,383.66Z"/><path class="cls-7" d="M219.44,391.27a6.67,6.67,0,0,1-2.69-1.61l.7-1.39a6.72,6.72,0,0,0,2.47,1.5,9,9,0,0,0,3.17.57,5.84,5.84,0,0,0,3.44-.84,2.6,2.6,0,0,0,1.14-2.18,2.19,2.19,0,0,0-.62-1.64,4.25,4.25,0,0,0-1.52-.94c-.61-.21-1.44-.45-2.52-.71a27.45,27.45,0,0,1-3.07-.94,4.93,4.93,0,0,1-2-1.38,3.65,3.65,0,0,1-.82-2.51,4.31,4.31,0,0,1,.68-2.36,4.68,4.68,0,0,1,2.1-1.69,8.44,8.44,0,0,1,3.51-.64,10.69,10.69,0,0,1,2.87.4,8.49,8.49,0,0,1,2.43,1.11l-.61,1.44a8.57,8.57,0,0,0-2.3-1.06,8.75,8.75,0,0,0-2.39-.35,5.54,5.54,0,0,0-3.37.86,2.7,2.7,0,0,0-1.14,2.24,2.22,2.22,0,0,0,.62,1.64,4,4,0,0,0,1.56.95c.63.22,1.47.46,2.53.72a25.45,25.45,0,0,1,3,.92,5.06,5.06,0,0,1,2,1.36,3.66,3.66,0,0,1,.8,2.48,4.26,4.26,0,0,1-.69,2.36,4.8,4.8,0,0,1-2.14,1.68,9,9,0,0,1-3.53.62A10.88,10.88,0,0,1,219.44,391.27Z"/><path class="cls-7" d="M245.45,390.17v1.56H233.38V374.66h11.71v1.56h-9.91v6.07H244v1.54h-8.83v6.34Z"/><path class="cls-7" d="M249.7,374.66h6.95a10.18,10.18,0,0,1,4.78,1.08,8,8,0,0,1,3.22,3,9.09,9.09,0,0,1,0,8.85,7.91,7.91,0,0,1-3.22,3,10.18,10.18,0,0,1-4.78,1.08H249.7Zm6.85,15.51a8.2,8.2,0,0,0,3.93-.89,6.45,6.45,0,0,0,2.61-2.46,7.53,7.53,0,0,0,0-7.25,6.45,6.45,0,0,0-2.61-2.46,8.32,8.32,0,0,0-3.93-.89H251.5v13.95Z"/></g></g></svg>