<svg xmlns="http://www.w3.org/2000/svg" viewBox="0 0 396.69 201.82"><defs><style>.cls-1{fill:#d0d6e2;}.cls-2{fill:#2e2e54;}.cls-3{fill:none;stroke:#382f56;stroke-miterlimit:10;stroke-width:2.2px;}.cls-4{fill:#382f56;}.cls-5{fill:#ff2c2c;}.cls-6{fill:red;}</style></defs><g id="Layer_2" data-name="Layer 2"><g id="Layer_1-2" data-name="Layer 1"><rect class="cls-1" x="37.2" y="86.84" width="160.86" height="11.35"/><circle class="cls-1" cx="37.2" cy="92.52" r="26.23"/><rect class="cls-1" x="198.06" y="86.84" width="160.86" height="11.35" transform="translate(556.98 185.03) rotate(-180)"/><circle class="cls-1" cx="358.92" cy="92.52" r="26.23"/><path class="cls-2" d="M349,103.65v-2.08L357.61,94a23.51,23.51,0,0,0,3.88-4.09,6.09,6.09,0,0,0,1.09-3.4,4.24,4.24,0,0,0-1.4-3.3,4.88,4.88,0,0,0-3.4-1.26,6.09,6.09,0,0,0-3.42,1,12.18,12.18,0,0,0-3,3.1l-2-1.43a13.14,13.14,0,0,1,3.67-3.83,8.93,8.93,0,0,1,4.9-1.24,7.54,7.54,0,0,1,5.3,1.92,6.37,6.37,0,0,1,2.09,4.89A7.39,7.39,0,0,1,364,90.64a30.89,30.89,0,0,1-4.69,4.91L353,101.2h12.63v2.45Z"/><path class="cls-2" d="M37.52,103.65V82.44L33,83.84l-.64-2.18,5.82-2h2v24Z"/><path class="cls-2" d="M124.08,186a14.15,14.15,0,0,1-9.74-3.82l1.67-2a13.59,13.59,0,0,0,3.83,2.55,10.9,10.9,0,0,0,4.34.82,6.05,6.05,0,0,0,3.84-1.14,3.59,3.59,0,0,0,1.47-3,3.31,3.31,0,0,0-1.3-2.76,12.62,12.62,0,0,0-4.9-1.77,14.47,14.47,0,0,1-6.12-2.48,5.48,5.48,0,0,1-1.88-4.46,5.79,5.79,0,0,1,2.22-4.66,8.44,8.44,0,0,1,5.61-1.84,13,13,0,0,1,8.38,2.93l-1.57,2.07a10.67,10.67,0,0,0-6.88-2.59,5.71,5.71,0,0,0-3.67,1.11,3.44,3.44,0,0,0-1.4,2.81,3.31,3.31,0,0,0,1.35,2.79,14.17,14.17,0,0,0,5.12,1.84,13.66,13.66,0,0,1,5.91,2.47,5.41,5.41,0,0,1,1.85,4.34,6,6,0,0,1-2.28,4.88A9,9,0,0,1,124.08,186Z"/><path class="cls-2" d="M140.41,185.68V164.47l-4.49,1.4-.65-2.18,5.83-2h2v24Z"/><circle class="cls-3" cx="359.47" cy="92.52" r="36.12"/><polygon class="cls-4" points="323.64 97.1 319.9 104.19 330.12 101.83 323.64 97.1"/><circle class="cls-3" cx="37.21" cy="92.91" r="36.12"/><polygon class="cls-4" points="73.15 97.17 66.44 101.57 76.52 104.45 73.15 97.17"/><rect class="cls-3" x="103.34" y="148.36" width="52.36" height="52.36" rx="17.5"/><path class="cls-2" d="M257.05,186a14.17,14.17,0,0,1-9.74-3.82l1.67-2a13.59,13.59,0,0,0,3.83,2.55,10.9,10.9,0,0,0,4.34.82,6.1,6.1,0,0,0,3.85-1.14,3.61,3.61,0,0,0,1.46-3,3.33,3.33,0,0,0-1.29-2.76,12.68,12.68,0,0,0-4.9-1.77,14.52,14.52,0,0,1-6.13-2.48,5.48,5.48,0,0,1-1.87-4.46,5.81,5.81,0,0,1,2.21-4.66,8.49,8.49,0,0,1,5.62-1.84,13,13,0,0,1,8.37,2.93l-1.57,2.07a10.65,10.65,0,0,0-6.87-2.59,5.74,5.74,0,0,0-3.68,1.11,3.43,3.43,0,0,0-1.39,2.81,3.3,3.3,0,0,0,1.34,2.79,14.31,14.31,0,0,0,5.13,1.84,13.61,13.61,0,0,1,5.9,2.47,5.39,5.39,0,0,1,1.86,4.34,6,6,0,0,1-2.29,4.88A9,9,0,0,1,257.05,186Z"/><path class="cls-2" d="M268.93,185.68V183.6l8.65-7.63a23.17,23.17,0,0,0,3.88-4.08,6.09,6.09,0,0,0,1.09-3.4,4.25,4.25,0,0,0-1.4-3.31,4.93,4.93,0,0,0-3.4-1.26,6,6,0,0,0-3.42,1,12,12,0,0,0-3,3.1l-2-1.43a13.29,13.29,0,0,1,3.68-3.83,8.91,8.91,0,0,1,4.9-1.24,7.52,7.52,0,0,1,5.29,1.92,6.33,6.33,0,0,1,2.1,4.89,7.46,7.46,0,0,1-1.33,4.35,30.61,30.61,0,0,1-4.7,4.9L273,183.22h12.63v2.46Z"/><rect class="cls-3" x="240.42" y="148.36" width="52.36" height="52.36" rx="17.5" transform="translate(533.2 349.09) rotate(-180)"/><polygon class="cls-5" points="198.06 0 181.92 42.34 198.06 29.1 214.2 42.34 198.06 0"/><rect class="cls-5" x="196.19" y="25.79" width="3.75" height="67.12"/><path class="cls-6" d="M137.67,128.63l-3.9-5.48c-.44,0-.89.07-1.36.07h-4.59v5.41H126V111.56h6.39a7.71,7.71,0,0,1,5.12,1.56,5.32,5.32,0,0,1,1.85,4.29,5.51,5.51,0,0,1-1,3.38,5.61,5.61,0,0,1-2.89,2l4.17,5.85Zm-1.43-8.07a4.41,4.41,0,0,0,0-6.33,6,6,0,0,0-3.88-1.11h-4.54v8.56h4.54A5.9,5.9,0,0,0,136.24,120.56Z"/><path class="cls-6" d="M155.73,127.07v1.56H143.65V111.56h11.71v1.56h-9.9v6.07h8.83v1.54h-8.83v6.34Z"/><path class="cls-6" d="M173.92,111.56l-7.56,17.07h-1.78L157,111.56H159l6.54,14.83,6.58-14.83Z"/><path class="cls-6" d="M188.46,127.07v1.56H176.39V111.56h11.7v1.56h-9.9v6.07H187v1.54h-8.83v6.34Z"/><path class="cls-6" d="M204.36,128.63l-3.9-5.48c-.44,0-.89.07-1.36.07h-4.59v5.41h-1.8V111.56h6.39a7.73,7.73,0,0,1,5.12,1.56,5.32,5.32,0,0,1,1.85,4.29,5.57,5.57,0,0,1-1,3.38,5.65,5.65,0,0,1-2.89,2l4.17,5.85Zm-1.44-8.07a4.39,4.39,0,0,0,0-6.33,5.91,5.91,0,0,0-3.87-1.11h-4.54v8.56h4.54A5.86,5.86,0,0,0,202.92,120.56Z"/><path class="cls-6" d="M211.4,128.17a6.67,6.67,0,0,1-2.69-1.61l.7-1.39a6.72,6.72,0,0,0,2.47,1.5,9,9,0,0,0,3.17.57,5.82,5.82,0,0,0,3.44-.84,2.6,2.6,0,0,0,1.14-2.18,2.19,2.19,0,0,0-.62-1.64,4.25,4.25,0,0,0-1.52-.94c-.6-.21-1.44-.45-2.52-.71a28.13,28.13,0,0,1-3.07-.94,5,5,0,0,1-2-1.38,3.65,3.65,0,0,1-.82-2.51,4.31,4.31,0,0,1,.68-2.36,4.68,4.68,0,0,1,2.1-1.69,8.47,8.47,0,0,1,3.51-.64,10.69,10.69,0,0,1,2.87.4,8.49,8.49,0,0,1,2.43,1.11l-.61,1.44a8.57,8.57,0,0,0-2.3-1.06,8.75,8.75,0,0,0-2.39-.35,5.54,5.54,0,0,0-3.37.86,2.7,2.7,0,0,0-1.14,2.24,2.22,2.22,0,0,0,.62,1.64,4.06,4.06,0,0,0,1.57,1q.93.33,2.52.72a26.29,26.29,0,0,1,3,.92,5,5,0,0,1,2,1.36,3.61,3.61,0,0,1,.81,2.48,4.21,4.21,0,0,1-.7,2.35,4.67,4.67,0,0,1-2.13,1.69,9,9,0,0,1-3.54.62A10.88,10.88,0,0,1,211.4,128.17Z"/><path class="cls-6" d="M237.42,127.07v1.56H225.34V111.56h11.71v1.56h-9.9v6.07H236v1.54h-8.83v6.34Z"/><path class="cls-6" d="M241.66,111.56h7a10.18,10.18,0,0,1,4.78,1.08,8,8,0,0,1,3.22,3,9.09,9.09,0,0,1,0,8.85,7.91,7.91,0,0,1-3.22,3,10.18,10.18,0,0,1-4.78,1.08h-7Zm6.85,15.51a8.2,8.2,0,0,0,3.93-.89,6.45,6.45,0,0,0,2.61-2.46,7.53,7.53,0,0,0,0-7.25,6.45,6.45,0,0,0-2.61-2.46,8.32,8.32,0,0,0-3.93-.89h-5v13.95Z"/></g></g></svg>