<svg xmlns="http://www.w3.org/2000/svg" viewBox="0 0 391.23 391.22"><defs><style>.cls-1{fill:none;stroke:#8088a8;stroke-miterlimit:10;stroke-width:3px;stroke-dasharray:16;}.cls-2{fill:#d0d6e2;}.cls-3{fill:#2e2e54;}</style></defs><g id="Layer_2" data-name="Layer 2"><g id="Layer_1-2" data-name="Layer 1"><path class="cls-1" d="M379.08,327.63a36.38,36.38,0,1,1-56.41,6.17l-127-127.06L68.56,333.8a36.37,36.37,0,1,1-11.12-11.13L184.49,195.61l-127-127A36.39,36.39,0,1,1,68.56,57.43L195.62,184.49,322.67,57.43a36.37,36.37,0,1,1,11.12,11.13l-127,127.05L333.79,322.67A36.4,36.4,0,0,1,379.08,327.63Z"/><rect class="cls-2" x="73.05" y="170.1" width="245.12" height="51.02" rx="16.23"/><path class="cls-3" d="M136.08,192.3v-9.44h8.18v9.44h-1.4v-8.2h-5.37v8.2Z"/><path class="cls-3" d="M147.4,195.22V182.86h1.41v1.9a4.24,4.24,0,0,1,3.62-2.1,4.35,4.35,0,0,1,3.15,1.34,5.41,5.41,0,0,1,0,7.15,4.32,4.32,0,0,1-3.15,1.35,4.22,4.22,0,0,1-3.62-2v4.73Zm4.77-4a3.14,3.14,0,0,0,2.37-1,3.71,3.71,0,0,0,1-2.68,3.66,3.66,0,0,0-1-2.64,3.14,3.14,0,0,0-2.35-1,3.26,3.26,0,0,0-2.39,1,3.89,3.89,0,0,0,0,5.25A3.25,3.25,0,0,0,152.17,191.24Z"/><path class="cls-3" d="M167.36,191.07a5,5,0,0,1-7,0,5,5,0,0,1,0-7,5,5,0,0,1,7,0,5,5,0,0,1,0,7Zm-3.49.19a3.26,3.26,0,0,0,2.5-1.06,3.94,3.94,0,0,0,0-5.22,3.29,3.29,0,0,0-2.49-1.08,3.23,3.23,0,0,0-2.49,1.07,3.78,3.78,0,0,0-1,2.62,3.65,3.65,0,0,0,1,2.6A3.28,3.28,0,0,0,163.87,191.26Z"/><path class="cls-3" d="M171.32,192.3v-9.44h1.41v7.47l5.6-7.47h1.37v9.44h-1.4v-7.47l-5.63,7.47Z"/><path class="cls-3" d="M185.84,192.52a6,6,0,0,1-3.91-1.41l.71-1a4.77,4.77,0,0,0,3.16,1.23,2.91,2.91,0,0,0,1.65-.45,1.4,1.4,0,0,0,.69-1.23,1.29,1.29,0,0,0-.62-1.14,3.14,3.14,0,0,0-1.76-.41h-1.25v-1.16h1.27a2.43,2.43,0,0,0,1.52-.44,1.41,1.41,0,0,0,.58-1.18,1.16,1.16,0,0,0-.57-1,2.57,2.57,0,0,0-1.47-.39,4.47,4.47,0,0,0-2.87,1l-.69-1a5.79,5.79,0,0,1,3.65-1.19,4,4,0,0,1,2.49.7,2.29,2.29,0,0,1-.59,4,2.32,2.32,0,0,1,1.75,2.32,2.52,2.52,0,0,1-1,2A4.2,4.2,0,0,1,185.84,192.52Z"/><path class="cls-3" d="M192.19,192.3v-9.44h4.57a3.59,3.59,0,0,1,2.24.64,2.06,2.06,0,0,1,.84,1.72,2.24,2.24,0,0,1-1.57,2.17c1.39.38,2.08,1.16,2.08,2.34a2.23,2.23,0,0,1-.93,1.88,4.1,4.1,0,0,1-2.5.69Zm1.41-5.39h2.9a2.28,2.28,0,0,0,1.4-.39,1.3,1.3,0,0,0,.52-1.12,1.17,1.17,0,0,0-.49-1,2.34,2.34,0,0,0-1.39-.36H193.6Zm0,4.19h3.14a2.68,2.68,0,0,0,1.59-.42,1.35,1.35,0,0,0,.58-1.17,1.21,1.21,0,0,0-.61-1.08,3.26,3.26,0,0,0-1.74-.38h-3Z"/><path class="cls-3" d="M210.72,191.07a5,5,0,0,1-7,0,5,5,0,0,1,0-7,5,5,0,0,1,7,0,5,5,0,0,1,0,7Zm-3.48.19a3.22,3.22,0,0,0,2.49-1.06,3.71,3.71,0,0,0,1-2.61,3.66,3.66,0,0,0-1-2.61,3.26,3.26,0,0,0-2.49-1.08,3.19,3.19,0,0,0-2.48,1.07,3.74,3.74,0,0,0-1,2.62,3.65,3.65,0,0,0,1,2.6A3.29,3.29,0,0,0,207.24,191.26Z"/><path class="cls-3" d="M214.05,192.45a4.5,4.5,0,0,1-1.13-.15l.16-1.2a2.63,2.63,0,0,0,.68.12,1.74,1.74,0,0,0,.65-.1,1.34,1.34,0,0,0,.56-.53,3.28,3.28,0,0,0,.47-1.21,19.51,19.51,0,0,0,.28-2.23c.08-1,.12-2.13.12-3.5v-.79h6.68v9.44h-1.41v-8.2h-3.94v.22A34.73,34.73,0,0,1,217,188a15.66,15.66,0,0,1-.41,2.38,3.39,3.39,0,0,1-.69,1.33,2,2,0,0,1-.85.61A3.24,3.24,0,0,1,214.05,192.45Z"/><path class="cls-3" d="M225.66,192.3v-9.44h1.41v4.07h5.44v-4.07h1.4v9.44h-1.4v-4.13h-5.44v4.13Z"/><path class="cls-3" d="M239.87,192.5a4,4,0,0,1-2.49-.78,2.61,2.61,0,0,1-1-2.19,2.68,2.68,0,0,1,1.1-2.29,4.9,4.9,0,0,1,2.94-.8,10.48,10.48,0,0,1,2.88.4v-.29a2.41,2.41,0,0,0-.73-1.9,3,3,0,0,0-2.06-.66,6.91,6.91,0,0,0-2.87.68l-.42-1.15a8.14,8.14,0,0,1,3.43-.81,4.11,4.11,0,0,1,3,1,3.72,3.72,0,0,1,1,2.77v5.77h-1.39v-1.4A4.08,4.08,0,0,1,239.87,192.5Zm.27-1.13a3.54,3.54,0,0,0,2.23-.71,2.23,2.23,0,0,0,.91-1.83V188a9.82,9.82,0,0,0-2.76-.41,3.47,3.47,0,0,0-2,.52,1.65,1.65,0,0,0-.73,1.42,1.61,1.61,0,0,0,.68,1.37A2.76,2.76,0,0,0,240.14,191.37Z"/><path class="cls-3" d="M246.79,192.3l2.88-3.65a3.52,3.52,0,0,1-1.82-1,2.6,2.6,0,0,1-.7-1.84,2.69,2.69,0,0,1,.95-2.13,3.88,3.88,0,0,1,2.61-.81h4.44v9.44h-1.41v-3.43h-2.61c-.11.14-.49.64-1.13,1.5l-1.48,1.93Zm4-4.62h2.92V184.1h-3a2.6,2.6,0,0,0-1.64.47,1.56,1.56,0,0,0-.59,1.29,1.6,1.6,0,0,0,.63,1.33A2.55,2.55,0,0,0,250.82,187.68Z"/><path class="cls-3" d="M129.16,210.86v-9.44h1.41v5.45l5.17-5.45h1.73l-3.94,4.09,4.05,5.35h-1.66l-3.36-4.32-2,2v2.28Z"/><path class="cls-3" d="M146.8,209.63a5,5,0,0,1-7,0,5,5,0,0,1,0-7,5,5,0,0,1,7,0,5,5,0,0,1,0,7Zm-3.49.19a3.26,3.26,0,0,0,2.5-1.06,3.94,3.94,0,0,0,0-5.22,3.29,3.29,0,0,0-2.49-1.08,3.23,3.23,0,0,0-2.49,1.07,3.8,3.8,0,0,0-1,2.62,3.67,3.67,0,0,0,1,2.61A3.28,3.28,0,0,0,143.31,209.82Z"/><path class="cls-3" d="M150.76,210.86v-9.44h1.41v4.08h5.44v-4.08H159v9.44h-1.41v-4.12h-5.44v4.12Z"/><path class="cls-3" d="M167.84,213.79V210.1a3.62,3.62,0,0,1-2.36,1,3.41,3.41,0,0,1-2.78-1.32,5.67,5.67,0,0,1-1.06-3.62,5.57,5.57,0,0,1,1.06-3.58,3.41,3.41,0,0,1,2.78-1.32,3.48,3.48,0,0,1,2.36,1v-4.17h1.42v4.17a3.45,3.45,0,0,1,2.35-1,3.4,3.4,0,0,1,2.8,1.33,5.63,5.63,0,0,1,1.06,3.6,5.57,5.57,0,0,1-1.07,3.59,3.41,3.41,0,0,1-2.79,1.32,3,3,0,0,1-1.28-.24,5.9,5.9,0,0,1-1.07-.72v3.69Zm-2.07-4a2.77,2.77,0,0,0,2.07-.93v-5.48a2.77,2.77,0,0,0-2.07-.93,2.26,2.26,0,0,0-2,1,4.76,4.76,0,0,0-.67,2.72C163.11,208.61,164,209.82,165.77,209.82Zm5.57,0q2.67,0,2.67-3.67a4.67,4.67,0,0,0-.68-2.69,2.26,2.26,0,0,0-2-1,2.81,2.81,0,0,0-2.08.93v5.48A2.81,2.81,0,0,0,171.34,209.82Z"/><path class="cls-3" d="M178.1,210.86v-9.44h1.4v7.47l5.61-7.47h1.37v9.44h-1.41V203.4l-5.62,7.46Z"/><path class="cls-3" d="M189.62,210.86v-9.44H196v1.25h-5v8.19Z"/><path class="cls-3" d="M199.53,213.84a4.69,4.69,0,0,1-2-.47l.48-1.12a3.2,3.2,0,0,0,1.48.35,1.59,1.59,0,0,0,1.08-.39,4.16,4.16,0,0,0,.85-1.38l-4.29-9.41h1.55l3.44,7.87,3-7.87h1.5l-4,9.75a5.27,5.27,0,0,1-1.33,2.06A2.72,2.72,0,0,1,199.53,213.84Z"/><path class="cls-3" d="M208.86,213.79V201.42h1.41v1.9a4.23,4.23,0,0,1,3.61-2.1,4.32,4.32,0,0,1,3.16,1.35,5.4,5.4,0,0,1,0,7.14,4.32,4.32,0,0,1-3.16,1.35,4.2,4.2,0,0,1-3.61-2v4.73Zm4.77-4a3.14,3.14,0,0,0,2.37-1,3.72,3.72,0,0,0,.95-2.68,3.62,3.62,0,0,0-1-2.63,3.11,3.11,0,0,0-2.35-1,3.26,3.26,0,0,0-2.39,1,3.58,3.58,0,0,0-1,2.63,3.53,3.53,0,0,0,1,2.62A3.25,3.25,0,0,0,213.63,209.8Z"/><path class="cls-3" d="M223.8,211.06a4.06,4.06,0,0,1-2.49-.78,2.59,2.59,0,0,1-1-2.19,2.65,2.65,0,0,1,1.1-2.28,4.84,4.84,0,0,1,2.94-.81,10.82,10.82,0,0,1,2.88.4v-.29a2.41,2.41,0,0,0-.73-1.9,3,3,0,0,0-2.06-.65,6.92,6.92,0,0,0-2.87.67l-.42-1.15a8.32,8.32,0,0,1,3.44-.8,4.16,4.16,0,0,1,3,1,3.78,3.78,0,0,1,1,2.77v5.77h-1.39v-1.4A4.08,4.08,0,0,1,223.8,211.06Zm.27-1.13a3.48,3.48,0,0,0,2.23-.71,2.2,2.2,0,0,0,.91-1.83v-.87a9.73,9.73,0,0,0-2.75-.4,3.43,3.43,0,0,0-2,.52,1.72,1.72,0,0,0-.05,2.78A2.76,2.76,0,0,0,224.07,209.93Z"/><path class="cls-3" d="M239.7,213.22v-2.36h-8.14v-9.44H233v8.2h5.29v-8.2h1.41v8.2h1.42l-.22,3.6Z"/><path class="cls-3" d="M243,210.86v-9.44h1.4v7.47l5.61-7.47h1.37v9.44H250V203.4l-5.62,7.46Z"/><path class="cls-3" d="M253.71,210.86l2.88-3.65a3.44,3.44,0,0,1-1.81-1,2.61,2.61,0,0,1-.71-1.85,2.67,2.67,0,0,1,1-2.12,3.83,3.83,0,0,1,2.61-.82h4.44v9.44h-1.41v-3.43h-2.61c-.11.15-.48.65-1.13,1.5s-1.14,1.5-1.48,1.93Zm4-4.62h2.92v-3.57h-3a2.6,2.6,0,0,0-1.64.46,1.56,1.56,0,0,0-.59,1.29,1.6,1.6,0,0,0,.63,1.33A2.55,2.55,0,0,0,257.74,206.24Z"/></g></g></svg>