<svg xmlns="http://www.w3.org/2000/svg" viewBox="0 0 511.07 456.88"><defs><style>.cls-1{fill:#382f56;}.cls-2{fill:#d0d6e2;}.cls-3{fill:#2e2e54;}.cls-4{fill:none;stroke:#382f56;stroke-miterlimit:10;stroke-width:2.57px;}.cls-5{fill:#ff2c2c;}</style></defs><g id="Layer_2" data-name="Layer 2"><g id="Layer_1-2" data-name="Layer 1"><polygon class="cls-1" points="11.74 256.27 12.21 246.88 2.52 254.43 11.74 256.27"/><rect class="cls-2" x="203.3" y="311.43" width="211.92" height="14.95" transform="translate(187.71 746.19) rotate(-120)"/><circle class="cls-2" cx="362.24" cy="410.67" r="34.56"/><rect class="cls-2" x="97.34" y="127.9" width="211.92" height="14.95" transform="translate(218.89 -108.38) rotate(60)"/><circle class="cls-2" cx="150.32" cy="43.61" r="34.56"/><rect class="cls-2" x="255.53" y="220.97" width="211.92" height="14.95" transform="translate(722.99 456.88) rotate(-180)"/><circle class="cls-2" cx="467.46" cy="228.44" r="34.56"/><rect class="cls-2" x="43.61" y="220.97" width="211.92" height="14.95"/><circle class="cls-2" cx="43.61" cy="228.44" r="34.56"/><rect class="cls-2" x="203.3" y="130.5" width="211.92" height="14.95" transform="matrix(-0.5, 0.87, -0.87, -0.5, 583.39, -60.87)"/><circle class="cls-2" cx="362.24" cy="46.21" r="34.56"/><rect class="cls-2" x="97.34" y="314.03" width="211.92" height="14.95" transform="translate(-176.78 336.82) rotate(-60)"/><circle class="cls-2" cx="150.32" cy="413.27" r="34.56"/><path class="cls-3" d="M353.68,57.34V55.26l8.65-7.62a23.51,23.51,0,0,0,3.88-4.09,6,6,0,0,0,1.09-3.4,4.21,4.21,0,0,0-1.4-3.3,4.88,4.88,0,0,0-3.4-1.26,6,6,0,0,0-3.42,1,12,12,0,0,0-3,3.09l-2-1.43a13.14,13.14,0,0,1,3.67-3.83,9,9,0,0,1,4.91-1.24A7.53,7.53,0,0,1,368,35.09,6.39,6.39,0,0,1,370.09,40a7.42,7.42,0,0,1-1.33,4.36,31.35,31.35,0,0,1-4.69,4.9l-6.37,5.65h12.63v2.45Z"/><circle class="cls-4" cx="362.24" cy="46.21" r="42.33"/><polygon class="cls-1" points="380.35 7.95 383.44 16.83 389.59 6.19 380.35 7.95"/><path class="cls-3" d="M467.35,240a11.76,11.76,0,0,1-8.51-3.78l1.77-1.94q3.38,3.27,6.78,3.27a5.83,5.83,0,0,0,4.15-1.5,5,5,0,0,0,1.6-3.85,4.5,4.5,0,0,0-1.65-3.6,6.38,6.38,0,0,0-4.27-1.4,10.59,10.59,0,0,0-5,1.36l-1.8-1.19.68-11.61h13.72v2.49H463.44l-.51,7.62a11.76,11.76,0,0,1,4.7-1,8.74,8.74,0,0,1,5.9,2,6.67,6.67,0,0,1,2.33,5.36,7.3,7.3,0,0,1-2.38,5.65A8.74,8.74,0,0,1,467.35,240Z"/><circle class="cls-4" cx="467.46" cy="228.44" r="42.33"/><path class="cls-3" d="M362.25,421.8V400.6l-4.5,1.39-.64-2.18,5.82-2h2v24Z"/><circle class="cls-4" cx="362.24" cy="410.67" r="42.33"/><path class="cls-3" d="M150.48,424.81a10.6,10.6,0,0,1-8.89-4.26l1.94-1.73a8.75,8.75,0,0,0,7,3.54,5.44,5.44,0,0,0,3.71-1.3,4.26,4.26,0,0,0,1.5-3.4,3.84,3.84,0,0,0-1.84-3.39,8.7,8.7,0,0,0-4.83-1.21h-1.53l-.55-1.6,7.52-8.47H142.85v-2.42h15.22v2l-7.49,8.3a10.51,10.51,0,0,1,5.63,2,5.66,5.66,0,0,1,2.23,4.81,6.55,6.55,0,0,1-2.3,5.16A8.26,8.26,0,0,1,150.48,424.81Z"/><circle class="cls-4" cx="150.32" cy="413.27" r="42.33"/><path class="cls-3" d="M43.94,240a8.56,8.56,0,0,1-6.78-2.83q-2.47-2.82-2.48-8.88A15.35,15.35,0,0,1,37.35,219a8.48,8.48,0,0,1,7.23-3.68,11,11,0,0,1,7.05,2.73l-1.57,2.07a8.74,8.74,0,0,0-5.61-2.34,5.81,5.81,0,0,0-5.07,2.89,13.38,13.38,0,0,0-1.91,7.52v.1a7.8,7.8,0,0,1,6.77-3.64,8.72,8.72,0,0,1,5.84,2,6.71,6.71,0,0,1,2.4,5.35A7.39,7.39,0,0,1,50,237.73,8.67,8.67,0,0,1,43.94,240Zm0-2.38A5.69,5.69,0,0,0,48.14,236a5.3,5.3,0,0,0,1.58-3.95,4.69,4.69,0,0,0-1.63-3.66A6.11,6.11,0,0,0,43.9,227a6,6,0,0,0-4.27,1.58,5,5,0,0,0,0,7.5A6.16,6.16,0,0,0,44,237.6Z"/><circle class="cls-4" cx="43.61" cy="228.44" r="42.33"/><path class="cls-3" d="M151,54.74V49.09H138.46l-.68-1.94,13.48-16.4h2.35v16.1h3.71v2.24h-3.71v5.65Zm-10-7.89h10V34.56Z"/><circle class="cls-4" cx="150.32" cy="43.61" r="42.33"/><polygon class="cls-1" points="494.12 261.69 503.35 259.9 493.7 252.3 494.12 261.69"/><polygon class="cls-1" points="107.76 42.45 101.86 49.76 114.14 49.36 107.76 42.45"/><polygon class="cls-1" points="382.45 447.58 373.21 445.82 379.35 456.45 382.45 447.58"/><polygon class="cls-1" points="123.67 446.5 126.92 455.32 132.87 444.57 123.67 446.5"/><polygon class="cls-5" points="255.53 174.51 239.4 216.84 255.53 203.61 271.67 216.84 255.53 174.51"/><rect class="cls-5" x="253.66" y="200.3" width="3.75" height="67.12"/></g></g></svg>