<svg xmlns="http://www.w3.org/2000/svg" viewBox="0 0 454.29 515.98"><defs><style>.cls-1{fill:#d0d6e2;}.cls-2{fill:#2e2e54;}.cls-3{fill:none;stroke:#382f56;stroke-miterlimit:10;stroke-width:2.57px;}.cls-4{fill:#382f56;}.cls-5{fill:#ff2c2c;}.cls-6{fill:red;}</style></defs><g id="Layer_2" data-name="Layer 2"><g id="Layer_1-2" data-name="Layer 1"><rect class="cls-1" x="122.48" y="354.46" width="211.92" height="14.95" transform="translate(-133.49 590.37) rotate(-90)"/><circle class="cls-1" cx="228.44" cy="467.89" r="34.56"/><rect class="cls-1" x="122.48" y="142.54" width="211.92" height="14.95" transform="translate(378.45 -78.43) rotate(90)"/><circle class="cls-1" cx="228.44" cy="44.05" r="34.56"/><rect class="cls-1" x="212.95" y="302.23" width="211.92" height="14.95" transform="translate(440.24 737.37) rotate(-150)"/><circle class="cls-1" cx="410.67" cy="362.68" r="34.56"/><rect class="cls-1" x="29.42" y="196.27" width="211.92" height="14.95" transform="matrix(0.87, 0.5, -0.5, 0.87, 120.01, -40.39)"/><circle class="cls-1" cx="43.61" cy="150.76" r="34.56"/><rect class="cls-1" x="212.95" y="197.77" width="211.92" height="14.95" transform="translate(697.71 223.53) rotate(150)"/><circle class="cls-1" cx="410.67" cy="152.26" r="34.56"/><rect class="cls-1" x="29.42" y="303.73" width="211.92" height="14.95" transform="translate(-137.46 109.38) rotate(-30)"/><circle class="cls-1" cx="43.61" cy="364.18" r="34.56"/><path class="cls-2" d="M228.34,55.59a11.75,11.75,0,0,1-8.51-3.78l1.77-1.94c2.25,2.18,4.5,3.27,6.77,3.27a5.84,5.84,0,0,0,4.16-1.5,5.06,5.06,0,0,0,1.6-3.85,4.5,4.5,0,0,0-1.65-3.6,6.43,6.43,0,0,0-4.28-1.4,10.55,10.55,0,0,0-5,1.36L221.4,43l.68-11.61h13.71v2.49H224.42l-.51,7.62a11.76,11.76,0,0,1,4.7-1.05,8.79,8.79,0,0,1,5.91,2,6.7,6.7,0,0,1,2.33,5.36,7.33,7.33,0,0,1-2.38,5.65A8.76,8.76,0,0,1,228.34,55.59Z"/><path class="cls-2" d="M45.31,161.89v-5.65H32.75l-.68-1.94,13.48-16.41H47.9V154h3.71v2.25H47.9v5.65Zm-10-7.9h10V141.71Z"/><path class="cls-2" d="M400.42,161.89v-2.08l8.64-7.62a23.14,23.14,0,0,0,3.88-4.08A6,6,0,0,0,414,144.7a4.23,4.23,0,0,0-1.39-3.3,4.91,4.91,0,0,0-3.41-1.26,6,6,0,0,0-3.42,1,12.29,12.29,0,0,0-3,3.09l-2-1.43a13,13,0,0,1,3.68-3.82,8.89,8.89,0,0,1,4.9-1.25,7.48,7.48,0,0,1,5.29,1.93,6.33,6.33,0,0,1,2.1,4.88,7.49,7.49,0,0,1-1.33,4.36,31.52,31.52,0,0,1-4.7,4.9l-6.37,5.65h12.63v2.45Z"/><path class="cls-2" d="M410.67,373.81v-21.2L406.18,354l-.65-2.18,5.82-2h2v24Z"/><path class="cls-2" d="M228.76,479.43a8.56,8.56,0,0,1-6.77-2.82q-2.49-2.83-2.49-8.89a15.38,15.38,0,0,1,2.68-9.26,8.47,8.47,0,0,1,7.23-3.67,11,11,0,0,1,7.05,2.72l-1.57,2.08a8.71,8.71,0,0,0-5.62-2.35,5.81,5.81,0,0,0-5.07,2.89,13.46,13.46,0,0,0-1.9,7.52v.11a7.78,7.78,0,0,1,6.77-3.65,8.73,8.73,0,0,1,5.84,2.05,6.67,6.67,0,0,1,2.4,5.34,7.41,7.41,0,0,1-2.45,5.69A8.73,8.73,0,0,1,228.76,479.43Zm0-2.38a5.67,5.67,0,0,0,4.17-1.57,5.33,5.33,0,0,0,1.58-3.94,4.66,4.66,0,0,0-1.63-3.66,6.07,6.07,0,0,0-4.19-1.45,6,6,0,0,0-4.27,1.58,5,5,0,0,0,0,7.51A6.24,6.24,0,0,0,228.8,477.05Z"/><circle class="cls-3" cx="229.7" cy="43.61" r="42.33"/><polygon class="cls-4" points="271.7 38.25 276.08 29.93 264.11 32.7 271.7 38.25"/><path class="cls-2" d="M43.77,375.72a10.62,10.62,0,0,1-8.89-4.25l1.94-1.74a8.75,8.75,0,0,0,7,3.54A5.48,5.48,0,0,0,47.51,372a4.29,4.29,0,0,0,1.5-3.41,3.81,3.81,0,0,0-1.84-3.38A8.62,8.62,0,0,0,42.34,364H40.81l-.55-1.6,7.52-8.48H36.14v-2.42H51.36v2l-7.49,8.3a10.59,10.59,0,0,1,5.63,2,5.67,5.67,0,0,1,2.23,4.82,6.53,6.53,0,0,1-2.3,5.15A8.26,8.26,0,0,1,43.77,375.72Z"/><circle class="cls-3" cx="43.61" cy="364.18" r="42.33"/><polygon class="cls-4" points="81.01 384.46 89.62 380.68 78.53 375.39 81.01 384.46"/><circle class="cls-3" cx="410.67" cy="362.68" r="42.33"/><polygon class="cls-4" points="385.83 396.94 387.95 406.1 395.2 396.18 385.83 396.94"/><circle class="cls-3" cx="43.61" cy="150.76" r="42.33"/><polygon class="cls-4" points="79.04 127.85 88.17 130.08 78.18 137.22 79.04 127.85"/><circle class="cls-3" cx="410.67" cy="152.26" r="42.33"/><polygon class="cls-4" points="386 118.11 388.06 108.94 395.38 118.8 386 118.11"/><circle class="cls-3" cx="228.44" cy="467.89" r="42.33"/><polygon class="cls-4" points="241.83 508.02 236.83 515.98 233.22 504.24 241.83 508.02"/><polygon class="cls-5" points="228.44 203.74 212.3 246.08 228.44 232.84 244.58 246.08 228.44 203.74"/><rect class="cls-5" x="226.57" y="229.53" width="3.75" height="67.12"/><path class="cls-6" d="M311.64,263.09l-3.9-5.49a12.16,12.16,0,0,1-1.37.08h-4.58v5.41H300V246h6.39a7.7,7.7,0,0,1,5.12,1.56,5.3,5.3,0,0,1,1.86,4.29,5.6,5.6,0,0,1-1,3.38,5.65,5.65,0,0,1-2.89,2l4.17,5.85ZM310.2,255a4.41,4.41,0,0,0,0-6.33,5.94,5.94,0,0,0-3.88-1.11h-4.53v8.56h4.53A5.94,5.94,0,0,0,310.2,255Z"/><path class="cls-6" d="M329.69,261.53v1.56H317.62V246h11.71v1.56h-9.91v6.07h8.83v1.54h-8.83v6.34Z"/><path class="cls-6" d="M347.89,246l-7.56,17.07h-1.79L331,246h1.95l6.54,14.83L346.06,246Z"/><path class="cls-6" d="M362.43,261.53v1.56H350.35V246h11.71v1.56h-9.9v6.07H361v1.54h-8.83v6.34Z"/><path class="cls-6" d="M378.33,263.09l-3.9-5.49a12.16,12.16,0,0,1-1.37.08h-4.58v5.41h-1.81V246h6.39a7.7,7.7,0,0,1,5.12,1.56,5.3,5.3,0,0,1,1.86,4.29,5.29,5.29,0,0,1-3.91,5.37l4.18,5.85ZM376.89,255a4.41,4.41,0,0,0,0-6.33,5.94,5.94,0,0,0-3.88-1.11h-4.53v8.56H373A5.94,5.94,0,0,0,376.89,255Z"/><path class="cls-6" d="M385.37,262.63a6.83,6.83,0,0,1-2.7-1.61l.71-1.39a7,7,0,0,0,2.46,1.5,9.06,9.06,0,0,0,3.17.57,5.8,5.8,0,0,0,3.44-.84,2.58,2.58,0,0,0,1.15-2.18A2.21,2.21,0,0,0,393,257a4.38,4.38,0,0,0-1.53-.94,24.51,24.51,0,0,0-2.51-.72,25.48,25.48,0,0,1-3.07-.94,5.12,5.12,0,0,1-2-1.37,3.7,3.7,0,0,1-.81-2.52,4.22,4.22,0,0,1,.68-2.35,4.66,4.66,0,0,1,2.1-1.7,8.61,8.61,0,0,1,3.51-.63,10.31,10.31,0,0,1,2.87.4,8.3,8.3,0,0,1,2.42,1.11l-.61,1.44a8.51,8.51,0,0,0-2.29-1.06,8.38,8.38,0,0,0-2.39-.35,5.57,5.57,0,0,0-3.38.86,2.67,2.67,0,0,0-1.13,2.23,2.19,2.19,0,0,0,.62,1.65,4,4,0,0,0,1.56.95c.63.22,1.47.46,2.53.72a25.45,25.45,0,0,1,3,.92,5,5,0,0,1,2,1.36,3.66,3.66,0,0,1,.8,2.48,4.23,4.23,0,0,1-.69,2.35,4.75,4.75,0,0,1-2.14,1.69,9,9,0,0,1-3.54.62A11.08,11.08,0,0,1,385.37,262.63Z"/><path class="cls-6" d="M411.38,261.53v1.56H399.31V246H411v1.56h-9.91v6.07h8.83v1.54h-8.83v6.34Z"/><path class="cls-6" d="M415.63,246h6.95a10.21,10.21,0,0,1,4.78,1.08,8,8,0,0,1,3.22,3,9.16,9.16,0,0,1,0,8.85,8,8,0,0,1-3.22,3,10.21,10.21,0,0,1-4.78,1.08h-6.95Zm6.85,15.51a8.34,8.34,0,0,0,3.93-.89,6.52,6.52,0,0,0,2.61-2.46,7.6,7.6,0,0,0,0-7.25,6.45,6.45,0,0,0-2.61-2.46,8.23,8.23,0,0,0-3.93-.89h-5.05v13.95Z"/></g></g></svg>