<svg xmlns="http://www.w3.org/2000/svg" viewBox="0 0 456.68 515.98"><defs><style>.cls-1{fill:#d0d6e2;}.cls-2{fill:#2e2e54;}.cls-3{fill:none;stroke:#382f56;stroke-miterlimit:10;stroke-width:2.57px;}.cls-4{fill:#382f56;}.cls-5{fill:#ff2c2c;}</style></defs><g id="Layer_2" data-name="Layer 2"><g id="Layer_1-2" data-name="Layer 1"><rect class="cls-1" x="124.87" y="354.46" width="211.92" height="14.95" transform="translate(-131.1 592.76) rotate(-90)"/><circle class="cls-1" cx="230.83" cy="467.89" r="34.56"/><rect class="cls-1" x="124.87" y="142.54" width="211.92" height="14.95" transform="translate(380.84 -80.82) rotate(90)"/><circle class="cls-1" cx="230.83" cy="44.05" r="34.56"/><rect class="cls-1" x="215.34" y="302.23" width="211.92" height="14.95" transform="translate(444.7 738.56) rotate(-150)"/><circle class="cls-1" cx="413.06" cy="362.68" r="34.56"/><rect class="cls-1" x="31.81" y="196.27" width="211.92" height="14.95" transform="translate(120.33 -41.59) rotate(30)"/><circle class="cls-1" cx="46" cy="150.76" r="34.56"/><rect class="cls-1" x="215.34" y="197.77" width="211.92" height="14.95" transform="translate(702.17 222.33) rotate(150)"/><circle class="cls-1" cx="413.06" cy="152.26" r="34.56"/><rect class="cls-1" x="31.81" y="303.73" width="211.92" height="14.95" transform="translate(-137.14 110.58) rotate(-30)"/><circle class="cls-1" cx="46" cy="364.18" r="34.56"/><path class="cls-2" d="M230.73,55.59a11.75,11.75,0,0,1-8.51-3.78L224,49.87c2.25,2.18,4.5,3.27,6.77,3.27a5.84,5.84,0,0,0,4.16-1.5,5.06,5.06,0,0,0,1.6-3.85,4.48,4.48,0,0,0-1.66-3.6,6.38,6.38,0,0,0-4.27-1.4,10.55,10.55,0,0,0-5,1.36L223.78,43l.69-11.61h13.71v2.49H226.81l-.51,7.62a11.76,11.76,0,0,1,4.7-1.05,8.79,8.79,0,0,1,5.91,2,6.7,6.7,0,0,1,2.33,5.36,7.33,7.33,0,0,1-2.38,5.65A8.74,8.74,0,0,1,230.73,55.59Z"/><path class="cls-2" d="M47.7,161.89v-5.65H35.14l-.68-1.94,13.48-16.41h2.35V154H54v2.25H50.29v5.65Zm-10-7.9h10V141.71Z"/><path class="cls-2" d="M402.81,161.89v-2.08l8.64-7.62a23.14,23.14,0,0,0,3.88-4.08,6,6,0,0,0,1.09-3.41,4.23,4.23,0,0,0-1.39-3.3,4.91,4.91,0,0,0-3.41-1.26,6,6,0,0,0-3.42,1,12.1,12.1,0,0,0-3,3.09l-2-1.43a13,13,0,0,1,3.68-3.82,8.89,8.89,0,0,1,4.9-1.25,7.48,7.48,0,0,1,5.29,1.93,6.32,6.32,0,0,1,2.09,4.88,7.48,7.48,0,0,1-1.32,4.36,31.52,31.52,0,0,1-4.7,4.9l-6.37,5.65h12.63v2.45Z"/><path class="cls-2" d="M413.06,373.81v-21.2L408.57,354l-.65-2.18,5.82-2h2v24Z"/><path class="cls-2" d="M231.15,479.43a8.56,8.56,0,0,1-6.77-2.82c-1.66-1.89-2.48-4.85-2.48-8.89a15.37,15.37,0,0,1,2.67-9.26,8.47,8.47,0,0,1,7.23-3.67,11,11,0,0,1,7,2.72l-1.57,2.08a8.71,8.71,0,0,0-5.62-2.35,5.81,5.81,0,0,0-5.07,2.89,13.46,13.46,0,0,0-1.9,7.52v.11a7.78,7.78,0,0,1,6.77-3.65,8.73,8.73,0,0,1,5.84,2.05,6.67,6.67,0,0,1,2.4,5.34,7.41,7.41,0,0,1-2.45,5.69A8.73,8.73,0,0,1,231.15,479.43Zm0-2.38a5.67,5.67,0,0,0,4.17-1.57,5.33,5.33,0,0,0,1.58-3.94,4.66,4.66,0,0,0-1.63-3.66,6.67,6.67,0,0,0-8.46.13,5,5,0,0,0,0,7.51A6.24,6.24,0,0,0,231.19,477.05Z"/><circle class="cls-3" cx="231.13" cy="43.61" r="42.33"/><polygon class="cls-4" points="189.13 38.25 184.75 29.93 196.72 32.7 189.13 38.25"/><path class="cls-2" d="M46.16,375.72a10.62,10.62,0,0,1-8.89-4.25l1.94-1.74a8.75,8.75,0,0,0,7,3.54A5.48,5.48,0,0,0,49.9,372a4.29,4.29,0,0,0,1.5-3.41,3.81,3.81,0,0,0-1.84-3.38A8.62,8.62,0,0,0,44.73,364H43.19l-.54-1.6,7.52-8.48H38.53v-2.42H53.75v2l-7.49,8.3a10.59,10.59,0,0,1,5.63,2,5.67,5.67,0,0,1,2.23,4.82,6.53,6.53,0,0,1-2.3,5.15A8.26,8.26,0,0,1,46.16,375.72Z"/><circle class="cls-3" cx="46" cy="364.18" r="42.33"/><polygon class="cls-4" points="8.61 384.46 0 380.68 11.09 375.39 8.61 384.46"/><circle class="cls-3" cx="413.06" cy="362.68" r="42.33"/><polygon class="cls-4" points="437.9 396.94 435.78 406.1 428.53 396.18 437.9 396.94"/><circle class="cls-3" cx="46" cy="150.76" r="42.33"/><polygon class="cls-4" points="10.57 127.85 1.44 130.08 11.44 137.22 10.57 127.85"/><circle class="cls-3" cx="413.06" cy="152.26" r="42.33"/><polygon class="cls-4" points="437.73 118.11 435.68 108.94 428.36 118.8 437.73 118.11"/><circle class="cls-3" cx="230.83" cy="467.89" r="42.33"/><polygon class="cls-4" points="217.44 508.02 222.44 515.98 226.05 504.24 217.44 508.02"/><polygon class="cls-5" points="230.83 203.74 214.69 246.08 230.83 232.84 246.97 246.08 230.83 203.74"/><rect class="cls-5" x="228.96" y="229.53" width="3.75" height="67.12"/></g></g></svg>