<svg xmlns="http://www.w3.org/2000/svg" viewBox="0 0 404.79 402.72"><defs><style>.cls-1{fill:#d0d6e2;}.cls-2{fill:#ff2c2c;}.cls-3{fill:none;stroke:#382f56;stroke-miterlimit:10;stroke-width:2.57px;}.cls-4{fill:#382f56;}.cls-5{fill:#2e2e54;}</style></defs><g id="Layer_2" data-name="Layer 2"><g id="Layer_1-2" data-name="Layer 1"><rect class="cls-1" x="12.67" y="114.63" width="223.07" height="15.73" transform="translate(123 -51.95) rotate(45)"/><circle class="cls-1" cx="45.34" cy="43.62" r="36.38"/><rect class="cls-1" x="170.41" y="272.36" width="223.07" height="15.73" transform="translate(283.16 677.75) rotate(-135)"/><circle class="cls-1" cx="360.82" cy="359.1" r="36.38"/><rect class="cls-1" x="12.67" y="272.36" width="223.07" height="15.73" transform="translate(-161.77 169.91) rotate(-45)"/><circle class="cls-1" cx="45.34" cy="359.1" r="36.38"/><rect class="cls-1" x="170.41" y="114.63" width="223.07" height="15.73" transform="translate(567.93 9.74) rotate(135)"/><circle class="cls-1" cx="360.82" cy="43.62" r="36.38"/><polygon class="cls-2" points="203.08 145.85 186.94 188.19 203.08 174.95 219.22 188.19 203.08 145.85"/><rect class="cls-2" x="201.21" y="171.64" width="3.75" height="67.12"/><circle class="cls-3" cx="45.34" cy="43.62" r="42.33"/><polygon class="cls-4" points="22.92 7.53 13.54 6.83 20.85 16.7 22.92 7.53"/><path class="cls-5" d="M45.34,54.75V33.55l-4.49,1.39-.65-2.17,5.82-2h2v24Z"/><circle class="cls-3" cx="360.82" cy="43.62" r="42.33"/><polygon class="cls-4" points="394.51 18.11 393.52 27.46 403.62 20.45 394.51 18.11"/><path class="cls-5" d="M352.25,54.76V52.68l8.65-7.63A23.17,23.17,0,0,0,364.78,41a6,6,0,0,0,1.09-3.4,4.24,4.24,0,0,0-1.39-3.31A4.93,4.93,0,0,0,361.07,33a6,6,0,0,0-3.42,1,12,12,0,0,0-3,3.1l-2-1.43a13.27,13.27,0,0,1,3.67-3.83,9,9,0,0,1,4.91-1.24,7.53,7.53,0,0,1,5.29,1.92,6.36,6.36,0,0,1,2.09,4.89,7.39,7.39,0,0,1-1.33,4.35,30.91,30.91,0,0,1-4.69,4.9l-6.37,5.65H368.9v2.46Z"/><circle class="cls-3" cx="360.82" cy="359.1" r="42.33"/><polygon class="cls-4" points="8.88 380.73 10.64 371.5 0 377.64 8.88 380.73"/><polygon class="cls-4" points="395.91 382.9 404.79 379.81 394.15 373.67 395.91 382.9"/><path class="cls-5" d="M361,370.64a10.59,10.59,0,0,1-8.88-4.26l1.94-1.73a8.73,8.73,0,0,0,7,3.54,5.42,5.42,0,0,0,3.71-1.3,4.26,4.26,0,0,0,1.5-3.4,3.84,3.84,0,0,0-1.84-3.39,8.68,8.68,0,0,0-4.83-1.21H358l-.55-1.6,7.53-8.47H353.35V346.4h15.21v2l-7.49,8.3a10.57,10.57,0,0,1,5.64,2,5.69,5.69,0,0,1,2.23,4.81,6.58,6.58,0,0,1-2.3,5.16A8.27,8.27,0,0,1,361,370.64Z"/><circle class="cls-3" cx="45.34" cy="359.1" r="42.33"/><path class="cls-5" d="M48.63,370.23v-5.65H36.07l-.68-1.94,13.48-16.41h2.34v16.1h3.71v2.25H51.21v5.65Zm-10-7.9h10V350Z"/></g></g></svg>