<svg xmlns="http://www.w3.org/2000/svg" viewBox="0 0 404.79 402.72"><defs><style>.cls-1{fill:#d0d6e2;}.cls-2{fill:#ff2c2c;}.cls-3{fill:none;stroke:#382f56;stroke-miterlimit:10;stroke-width:2.57px;}.cls-4{fill:#382f56;}.cls-5{fill:#2e2e54;}</style></defs><g id="Layer_2" data-name="Layer 2"><g id="Layer_1-2" data-name="Layer 1"><rect class="cls-1" x="12.67" y="114.63" width="223.07" height="15.73" transform="translate(123 -51.95) rotate(45)"/><circle class="cls-1" cx="45.34" cy="43.62" r="36.38"/><rect class="cls-1" x="170.41" y="272.36" width="223.07" height="15.73" transform="translate(283.16 677.75) rotate(-135)"/><circle class="cls-1" cx="360.82" cy="359.1" r="36.38"/><rect class="cls-1" x="12.67" y="272.36" width="223.07" height="15.73" transform="translate(-161.77 169.91) rotate(-45)"/><circle class="cls-1" cx="45.34" cy="359.1" r="36.38"/><rect class="cls-1" x="170.41" y="114.63" width="223.07" height="15.73" transform="translate(567.93 9.74) rotate(135)"/><circle class="cls-1" cx="360.82" cy="43.62" r="36.38"/><polygon class="cls-2" points="203.08 145.85 186.94 188.19 203.08 174.95 219.22 188.19 203.08 145.85"/><rect class="cls-2" x="201.21" y="171.64" width="3.75" height="67.12"/><circle class="cls-3" cx="45.34" cy="43.62" r="42.33"/><polygon class="cls-4" points="22.92 7.53 13.54 6.83 20.85 16.7 22.92 7.53"/><path class="cls-5" d="M48.63,54.76V49.11H36.07l-.68-1.94L48.87,30.76h2.34v16.1h3.71v2.25H51.21v5.65Zm-10-7.9h10V34.57Z"/><circle class="cls-3" cx="360.82" cy="43.62" r="42.33"/><polygon class="cls-4" points="394.51 18.11 393.52 27.46 403.62 20.45 394.51 18.11"/><path class="cls-5" d="M352.26,54.76V52.68l8.64-7.63A23.17,23.17,0,0,0,364.78,41a6,6,0,0,0,1.09-3.4,4.21,4.21,0,0,0-1.4-3.31,4.88,4.88,0,0,0-3.4-1.26,6,6,0,0,0-3.42,1,12,12,0,0,0-3,3.1l-2-1.43a13.14,13.14,0,0,1,3.67-3.83,9,9,0,0,1,4.91-1.24,7.53,7.53,0,0,1,5.29,1.92,6.36,6.36,0,0,1,2.09,4.89,7.39,7.39,0,0,1-1.33,4.35,30.91,30.91,0,0,1-4.69,4.9l-6.37,5.65H368.9v2.46Z"/><circle class="cls-3" cx="360.82" cy="359.1" r="42.33"/><polygon class="cls-4" points="8.88 380.73 10.64 371.5 0 377.64 8.88 380.73"/><polygon class="cls-4" points="395.91 382.9 404.79 379.81 394.15 373.67 395.91 382.9"/><path class="cls-5" d="M360.82,370.23V349l-4.5,1.4-.64-2.18,5.82-2h2v24Z"/><circle class="cls-3" cx="45.34" cy="359.1" r="42.33"/><path class="cls-5" d="M45.5,370.64a10.6,10.6,0,0,1-8.89-4.26l1.94-1.73a8.75,8.75,0,0,0,7,3.54,5.45,5.45,0,0,0,3.71-1.3,4.26,4.26,0,0,0,1.5-3.4,3.84,3.84,0,0,0-1.84-3.39,8.73,8.73,0,0,0-4.83-1.2H42.53L42,357.3l7.52-8.48H37.87V346.4H53.09v2l-7.49,8.3a10.54,10.54,0,0,1,5.63,2,5.67,5.67,0,0,1,2.23,4.82,6.57,6.57,0,0,1-2.3,5.15A8.26,8.26,0,0,1,45.5,370.64Z"/></g></g></svg>