<svg xmlns="http://www.w3.org/2000/svg" viewBox="0 0 403.54 402.72"><defs><style>.cls-1{fill:#d0d6e2;}.cls-2{fill:#ff2c2c;}.cls-3{fill:none;stroke:#382f56;stroke-miterlimit:10;stroke-width:2.57px;}.cls-4{fill:#382f56;}.cls-5{fill:#2e2e54;}.cls-6{fill:red;}</style></defs><g id="Layer_2" data-name="Layer 2"><g id="Layer_1-2" data-name="Layer 1"><rect class="cls-1" x="10.96" y="114.63" width="223.07" height="15.73" transform="translate(122.49 -50.74) rotate(45)"/><circle class="cls-1" cx="43.62" cy="43.62" r="36.38"/><rect class="cls-1" x="168.69" y="272.36" width="223.07" height="15.73" transform="translate(280.23 676.53) rotate(-135)"/><circle class="cls-1" cx="359.1" cy="359.1" r="36.38"/><rect class="cls-1" x="10.96" y="272.36" width="223.07" height="15.73" transform="translate(-162.28 168.69) rotate(-45)"/><circle class="cls-1" cx="43.62" cy="359.1" r="36.38"/><rect class="cls-1" x="168.69" y="114.63" width="223.07" height="15.73" transform="translate(565 10.96) rotate(135)"/><circle class="cls-1" cx="359.1" cy="43.62" r="36.38"/><polygon class="cls-2" points="201.36 145.85 185.22 188.19 201.36 174.95 217.5 188.19 201.36 145.85"/><rect class="cls-2" x="199.49" y="171.64" width="3.75" height="67.12"/><circle class="cls-3" cx="43.62" cy="43.62" r="42.33"/><polygon class="cls-4" points="66.05 7.53 75.43 6.83 68.11 16.7 66.05 7.53"/><path class="cls-5" d="M46.91,54.76V49.11H34.35l-.68-1.94L47.15,30.76H49.5v16.1h3.71v2.25H49.5v5.65Zm-10-7.9h10V34.57Z"/><circle class="cls-3" cx="359.1" cy="43.62" r="42.33"/><polygon class="cls-4" points="325.4 18.11 326.39 27.46 316.3 20.45 325.4 18.11"/><path class="cls-5" d="M350.54,54.76V52.68l8.64-7.63A22.79,22.79,0,0,0,363.06,41a6,6,0,0,0,1.09-3.4,4.24,4.24,0,0,0-1.39-3.31A4.91,4.91,0,0,0,359.35,33a6,6,0,0,0-3.42,1,12.18,12.18,0,0,0-3,3.1l-2-1.43a13.16,13.16,0,0,1,3.68-3.83,8.89,8.89,0,0,1,4.9-1.24,7.52,7.52,0,0,1,5.29,1.92,6.33,6.33,0,0,1,2.09,4.89,7.45,7.45,0,0,1-1.32,4.35,31.08,31.08,0,0,1-4.7,4.9l-6.37,5.65h12.63v2.46Z"/><circle class="cls-3" cx="359.91" cy="359.1" r="42.33"/><polygon class="cls-4" points="80.09 380.73 78.33 371.5 88.97 377.64 80.09 380.73"/><polygon class="cls-4" points="324.82 382.9 315.94 379.81 326.58 373.67 324.82 382.9"/><path class="cls-5" d="M359.1,370.23V349l-4.49,1.4-.65-2.18,5.82-2h2v24Z"/><circle class="cls-3" cx="43.62" cy="359.1" r="42.33"/><path class="cls-5" d="M43.78,370.64a10.6,10.6,0,0,1-8.89-4.26l1.94-1.73a8.75,8.75,0,0,0,7,3.54,5.44,5.44,0,0,0,3.71-1.3,4.26,4.26,0,0,0,1.5-3.4,3.84,3.84,0,0,0-1.84-3.39,8.7,8.7,0,0,0-4.83-1.2H40.82l-.55-1.6,7.52-8.48H36.15V346.4H51.37v2l-7.49,8.3a10.51,10.51,0,0,1,5.63,2,5.67,5.67,0,0,1,2.23,4.82,6.57,6.57,0,0,1-2.29,5.15A8.3,8.3,0,0,1,43.78,370.64Z"/><path class="cls-6" d="M147.56,322.72l-3.91-5.49a11.84,11.84,0,0,1-1.36.08H137.7v5.41h-1.8V305.65h6.39a7.7,7.7,0,0,1,5.12,1.56,5.3,5.3,0,0,1,1.86,4.29,5.54,5.54,0,0,1-1,3.38,5.61,5.61,0,0,1-2.89,2l4.17,5.85Zm-1.44-8.07a4.41,4.41,0,0,0,0-6.33,6,6,0,0,0-3.88-1.11H137.7v8.56h4.54A5.9,5.9,0,0,0,146.12,314.65Z"/><path class="cls-6" d="M165.61,321.16v1.56H153.53V305.65h11.71v1.56h-9.9v6.07h8.83v1.54h-8.83v6.34Z"/><path class="cls-6" d="M183.8,305.65l-7.56,17.07h-1.78l-7.56-17.07h1.95l6.54,14.83L182,305.65Z"/><path class="cls-6" d="M198.34,321.16v1.56H186.27V305.65H198v1.56h-9.91v6.07h8.83v1.54h-8.83v6.34Z"/><path class="cls-6" d="M214.25,322.72l-3.91-5.49a12,12,0,0,1-1.36.08h-4.59v5.41h-1.8V305.65H209a7.71,7.71,0,0,1,5.12,1.56A5.29,5.29,0,0,1,216,311.5a5.53,5.53,0,0,1-1,3.38,5.61,5.61,0,0,1-2.89,2l4.17,5.85Zm-1.44-8.07a4.41,4.41,0,0,0,0-6.33,6,6,0,0,0-3.88-1.11h-4.54v8.56h4.54A5.9,5.9,0,0,0,212.81,314.65Z"/><path class="cls-6" d="M221.28,322.26a6.67,6.67,0,0,1-2.69-1.61l.71-1.39a6.59,6.59,0,0,0,2.46,1.5,9,9,0,0,0,3.17.57,5.8,5.8,0,0,0,3.44-.84,2.61,2.61,0,0,0,1.15-2.18,2.18,2.18,0,0,0-.63-1.64,4.25,4.25,0,0,0-1.52-.94,24.51,24.51,0,0,0-2.51-.72,24,24,0,0,1-3.08-.94,5.09,5.09,0,0,1-2-1.37,3.66,3.66,0,0,1-.82-2.52,4.23,4.23,0,0,1,.69-2.35,4.68,4.68,0,0,1,2.09-1.7,8.69,8.69,0,0,1,3.52-.63,10.24,10.24,0,0,1,2.86.4,8.24,8.24,0,0,1,2.43,1.11l-.61,1.44a8.66,8.66,0,0,0-2.29-1.06,8.81,8.81,0,0,0-2.39-.35,5.55,5.55,0,0,0-3.38.86,2.68,2.68,0,0,0-1.14,2.23,2.2,2.2,0,0,0,.63,1.65,4,4,0,0,0,1.56,1q.93.33,2.52.72a25.69,25.69,0,0,1,3,.92,4.92,4.92,0,0,1,2,1.36,3.61,3.61,0,0,1,.81,2.48,4.21,4.21,0,0,1-.7,2.35,4.67,4.67,0,0,1-2.13,1.69,9,9,0,0,1-3.54.62A11.18,11.18,0,0,1,221.28,322.26Z"/><path class="cls-6" d="M247.3,321.16v1.56H235.22V305.65h11.71v1.56H237v6.07h8.83v1.54H237v6.34Z"/><path class="cls-6" d="M251.54,305.65h7a10.18,10.18,0,0,1,4.78,1.08,7.85,7.85,0,0,1,3.22,3,9.09,9.09,0,0,1,0,8.85,7.92,7.92,0,0,1-3.22,3,10.18,10.18,0,0,1-4.78,1.08h-7Zm6.86,15.51a8.3,8.3,0,0,0,3.92-.89,6.33,6.33,0,0,0,2.61-2.46,7.53,7.53,0,0,0,0-7.25,6.33,6.33,0,0,0-2.61-2.46,8.19,8.19,0,0,0-3.92-.89h-5v14Z"/></g></g></svg>