<svg xmlns="http://www.w3.org/2000/svg" viewBox="0 0 399.52 310.32"><defs><style>.cls-1{fill:#d0d6e2;}.cls-2{fill:#ff2c2c;}.cls-3{fill:#382f56;}.cls-4,.cls-6{fill:none;stroke:#382f56;stroke-miterlimit:10;}.cls-4{stroke-width:2.57px;}.cls-5{fill:#2e2e54;}.cls-6{stroke-width:2.2px;}.cls-7{fill:red;}</style></defs><g id="Layer_2" data-name="Layer 2"><g id="Layer_1-2" data-name="Layer 1"><rect class="cls-1" x="46.15" y="35.76" width="223.07" height="15.73"/><circle class="cls-1" cx="46.15" cy="43.62" r="36.38"/><rect class="cls-1" x="269.22" y="35.76" width="85.34" height="15.73" transform="translate(623.79 87.25) rotate(-180)"/><circle class="cls-1" cx="355.89" cy="43.62" r="36.38"/><rect class="cls-1" x="89.49" y="147.29" width="223.07" height="15.73" transform="translate(45.86 356.18) rotate(-90)"/><circle class="cls-1" cx="201.02" cy="266.7" r="36.38"/><rect class="cls-1" x="201.02" y="35.76" height="15.73" transform="translate(244.75 -157.38) rotate(90.03)"/><polygon class="cls-2" points="201.02 79.16 184.88 121.5 201.02 108.26 217.16 121.5 201.02 79.16"/><rect class="cls-2" x="199.15" y="104.95" width="3.75" height="67.12"/><polygon class="cls-3" points="237.54 245.14 228.3 243.38 237.93 235.74 237.54 245.14"/><circle class="cls-4" cx="201.02" cy="266.7" r="42.33"/><path class="cls-5" d="M201,277.83V256.62l-4.49,1.4-.65-2.18,5.82-2h2v24Z"/><polygon class="cls-3" points="8.75 22.73 10.87 31.89 0 26.17 8.75 22.73"/><circle class="cls-4" cx="45.34" cy="43.62" r="42.33"/><path class="cls-5" d="M46.31,55.16a10.6,10.6,0,0,1-8.89-4.25l1.94-1.74a8.75,8.75,0,0,0,7,3.54,5.5,5.5,0,0,0,3.71-1.29,4.27,4.27,0,0,0,1.5-3.4,3.84,3.84,0,0,0-1.84-3.39,8.64,8.64,0,0,0-4.83-1.21H43.34l-.54-1.6,7.52-8.48H38.68V30.93H53.9v2l-7.49,8.31A10.53,10.53,0,0,1,52,43.16,5.68,5.68,0,0,1,54.27,48,6.58,6.58,0,0,1,52,53.14,8.25,8.25,0,0,1,46.31,55.16Z"/><polygon class="cls-3" points="387.87 15.43 396.97 17.81 386.85 24.77 387.87 15.43"/><circle class="cls-4" cx="355.89" cy="43.62" r="42.33"/><path class="cls-5" d="M347.33,54.76V52.68L356,45.05A23.17,23.17,0,0,0,359.86,41a6.09,6.09,0,0,0,1.09-3.4,4.25,4.25,0,0,0-1.4-3.31,4.88,4.88,0,0,0-3.4-1.26,6,6,0,0,0-3.42,1,12,12,0,0,0-3,3.1l-2-1.43a13.16,13.16,0,0,1,3.68-3.83,8.91,8.91,0,0,1,4.9-1.24,7.54,7.54,0,0,1,5.3,1.92,6.36,6.36,0,0,1,2.09,4.89,7.39,7.39,0,0,1-1.33,4.35,30.61,30.61,0,0,1-4.7,4.9l-6.36,5.65H364v2.46Z"/><path class="cls-5" d="M296.59,226.71a14.12,14.12,0,0,1-9.73-3.82l1.66-2a13.73,13.73,0,0,0,3.83,2.55,10.94,10.94,0,0,0,4.34.82,6.1,6.1,0,0,0,3.85-1.14,3.58,3.58,0,0,0,1.46-3,3.33,3.33,0,0,0-1.29-2.76,12.68,12.68,0,0,0-4.9-1.77,14.52,14.52,0,0,1-6.13-2.48,5.48,5.48,0,0,1-1.87-4.46A5.81,5.81,0,0,1,290,204a8.49,8.49,0,0,1,5.62-1.84,13,13,0,0,1,8.37,2.93l-1.56,2.07a10.68,10.68,0,0,0-6.88-2.58,5.74,5.74,0,0,0-3.68,1.1,3.44,3.44,0,0,0-1.39,2.81,3.32,3.32,0,0,0,1.34,2.79,14.12,14.12,0,0,0,5.13,1.84,13.61,13.61,0,0,1,5.9,2.47,5.39,5.39,0,0,1,1.86,4.34,6,6,0,0,1-2.28,4.88A9,9,0,0,1,296.59,226.71Z"/><path class="cls-5" d="M312.93,226.37V205.16l-4.49,1.4-.65-2.18,5.82-2h2v24Z"/><rect class="cls-6" x="275.85" y="189.05" width="52.36" height="52.36" rx="17.5"/><path class="cls-7" d="M50.16,155.16l-3.9-5.49a12.16,12.16,0,0,1-1.37.08H40.3v5.41H38.5V138.09h6.39A7.7,7.7,0,0,1,50,139.65a5.3,5.3,0,0,1,1.86,4.29A5.32,5.32,0,0,1,48,149.31l4.17,5.85Zm-1.44-8.07a4.41,4.41,0,0,0,0-6.33,6,6,0,0,0-3.88-1.11H40.3v8.56h4.54A5.9,5.9,0,0,0,48.72,147.09Z"/><path class="cls-7" d="M68.21,153.6v1.56H56.14V138.09h11.7v1.56h-9.9v6.07h8.83v1.54H57.94v6.34Z"/><path class="cls-7" d="M86.41,138.09l-7.57,17.07H77.06L69.5,138.09h2L78,152.92l6.59-14.83Z"/><path class="cls-7" d="M100.94,153.6v1.56H88.87V138.09h11.71v1.56h-9.9v6.07h8.83v1.54H90.68v6.34Z"/><path class="cls-7" d="M116.85,155.16l-3.9-5.49a12.16,12.16,0,0,1-1.37.08H107v5.41h-1.8V138.09h6.39a7.7,7.7,0,0,1,5.12,1.56,5.3,5.3,0,0,1,1.86,4.29,5.54,5.54,0,0,1-1,3.38,5.61,5.61,0,0,1-2.89,2l4.17,5.85Zm-1.44-8.07a4.41,4.41,0,0,0,0-6.33,6,6,0,0,0-3.88-1.11H107v8.56h4.54A5.9,5.9,0,0,0,115.41,147.09Z"/><path class="cls-7" d="M123.89,154.7a6.64,6.64,0,0,1-2.7-1.61l.71-1.39a6.75,6.75,0,0,0,2.46,1.5,9.06,9.06,0,0,0,3.17.57,5.8,5.8,0,0,0,3.44-.84,2.58,2.58,0,0,0,1.15-2.18,2.21,2.21,0,0,0-.62-1.64,4.38,4.38,0,0,0-1.53-.94,24.51,24.51,0,0,0-2.51-.72,23.29,23.29,0,0,1-3.07-.94,5.12,5.12,0,0,1-2-1.37,3.7,3.7,0,0,1-.81-2.52,4.22,4.22,0,0,1,.68-2.35,4.66,4.66,0,0,1,2.1-1.7,8.61,8.61,0,0,1,3.51-.63,10.24,10.24,0,0,1,2.86.4,8.24,8.24,0,0,1,2.43,1.11l-.61,1.44a8.51,8.51,0,0,0-2.29-1.06,8.38,8.38,0,0,0-2.39-.35,5.57,5.57,0,0,0-3.38.86,2.67,2.67,0,0,0-1.13,2.23,2.19,2.19,0,0,0,.62,1.65,4,4,0,0,0,1.56.95c.62.22,1.47.46,2.52.72a25.12,25.12,0,0,1,3,.92,4.92,4.92,0,0,1,2,1.36,3.61,3.61,0,0,1,.81,2.48,4.13,4.13,0,0,1-.7,2.35,4.67,4.67,0,0,1-2.13,1.69,9,9,0,0,1-3.54.62A11.08,11.08,0,0,1,123.89,154.7Z"/><path class="cls-7" d="M149.9,153.6v1.56H137.83V138.09h11.7v1.56h-9.9v6.07h8.83v1.54h-8.83v6.34Z"/><path class="cls-7" d="M154.14,138.09h7a10.23,10.23,0,0,1,4.78,1.08,8,8,0,0,1,3.22,3,9.16,9.16,0,0,1,0,8.85,8,8,0,0,1-3.22,3,10.23,10.23,0,0,1-4.78,1.08h-7ZM161,153.6a8.37,8.37,0,0,0,3.93-.89,6.45,6.45,0,0,0,2.61-2.46,7.6,7.6,0,0,0,0-7.25,6.45,6.45,0,0,0-2.61-2.46,8.25,8.25,0,0,0-3.93-.89H156V153.6Z"/></g></g></svg>