<svg xmlns="http://www.w3.org/2000/svg" viewBox="0 0 403.95 397.82"><defs><style>.cls-1{fill:#d0d6e2;}.cls-2{fill:#ff2c2c;}.cls-3{fill:#2e2e54;}.cls-4{fill:none;stroke:#382f56;stroke-miterlimit:10;stroke-width:2.2px;}.cls-5{fill:#382f56;}</style></defs><g id="Layer_2" data-name="Layer 2"><g id="Layer_1-2" data-name="Layer 1"><rect class="cls-1" x="41.47" y="33.04" width="160.86" height="11.35"/><rect class="cls-1" x="68.35" y="161.34" width="267.95" height="11.35" transform="translate(35.31 369.34) rotate(-90)"/><circle class="cls-1" cx="41.47" cy="38.71" r="26.23"/><rect class="cls-1" x="202.33" y="33.04" width="160.86" height="11.35" transform="translate(565.52 77.43) rotate(-180)"/><rect class="cls-1" x="23.01" y="206.69" width="358.64" height="11.35" transform="translate(-10.03 414.69) rotate(-90)"/><circle class="cls-1" cx="363.19" cy="38.71" r="26.23"/><polygon class="cls-1" points="201.76 397.82 313.21 308.05 309.67 298.78 198.21 388.55 201.76 397.82"/><circle class="cls-1" cx="314.87" cy="301.91" r="26.23"/><polygon class="cls-1" points="201.75 397.82 90.3 308.05 93.84 298.78 205.3 388.55 201.75 397.82"/><circle class="cls-1" cx="88.64" cy="301.91" r="26.23"/><polygon class="cls-2" points="202.33 134.41 186.19 176.75 202.33 163.51 218.47 176.75 202.33 134.41"/><rect class="cls-2" x="200.45" y="160.2" width="3.75" height="67.12"/><path class="cls-3" d="M43,49.84V44.19H30.44l-.68-1.94,13.48-16.4h2.35V42H49.3v2.24H45.59v5.65ZM33,42H43V29.66Z"/><path class="cls-3" d="M354.63,49.84V47.77l8.64-7.63a22.43,22.43,0,0,0,3.88-4.08,6,6,0,0,0,1.09-3.41,4.23,4.23,0,0,0-1.39-3.3,4.91,4.91,0,0,0-3.41-1.26,6,6,0,0,0-3.42,1,12,12,0,0,0-3,3.1l-2-1.43a13,13,0,0,1,3.68-3.83,8.89,8.89,0,0,1,4.9-1.24,7.52,7.52,0,0,1,5.29,1.92,6.33,6.33,0,0,1,2.1,4.88,7.47,7.47,0,0,1-1.33,4.36,31.08,31.08,0,0,1-4.7,4.9l-6.36,5.65h12.62v2.45Z"/><circle class="cls-4" cx="364.35" cy="37.21" r="36.12"/><polygon class="cls-5" points="400 32.59 393.67 27.66 403.95 25.6 400 32.59"/><path class="cls-3" d="M314.87,313V291.83l-4.49,1.4-.65-2.18,5.82-2h2v24Z"/><circle class="cls-4" cx="314.87" cy="301.91" r="36.12"/><polygon class="cls-5" points="351.06 301.31 355.85 307.75 345.39 306.99 351.06 301.31"/><path class="cls-3" d="M88.79,313.45a10.59,10.59,0,0,1-8.88-4.26l1.94-1.74a8.71,8.71,0,0,0,7,3.54,5.46,5.46,0,0,0,3.71-1.29,4.27,4.27,0,0,0,1.5-3.4,3.84,3.84,0,0,0-1.84-3.39,8.68,8.68,0,0,0-4.83-1.21H85.83l-.55-1.6,7.53-8.47H81.17v-2.42H96.38v2l-7.49,8.31a10.49,10.49,0,0,1,5.64,2,5.69,5.69,0,0,1,2.23,4.81,6.58,6.58,0,0,1-2.3,5.16A8.27,8.27,0,0,1,88.79,313.45Z"/><circle class="cls-4" cx="88.64" cy="301.91" r="36.12"/><polygon class="cls-5" points="52.52 298.34 57.76 304.42 47.28 304.42 52.52 298.34"/><circle class="cls-4" cx="41.47" cy="38.71" r="36.12"/><polygon class="cls-5" points="5.24 41.89 0 35.82 10.48 35.82 5.24 41.89"/></g></g></svg>