<svg xmlns="http://www.w3.org/2000/svg" viewBox="0 0 316.96 478.08"><defs><style>.cls-1{fill:#2e2e54;}.cls-2{fill:none;stroke:#382f56;stroke-miterlimit:10;stroke-width:2.2px;}.cls-3{fill:#382f56;}.cls-4{fill:#d0d6e2;}.cls-5{fill:#ff2c2c;}</style></defs><g id="Layer_2" data-name="Layer 2"><g id="Layer_1-2" data-name="Layer 1"><path class="cls-1" d="M159.18,462.15a10.6,10.6,0,0,1-8.88-4.25l1.94-1.74a8.71,8.71,0,0,0,7,3.54,5.48,5.48,0,0,0,3.71-1.29,4.28,4.28,0,0,0,1.5-3.41,3.81,3.81,0,0,0-1.84-3.38,8.6,8.6,0,0,0-4.83-1.21h-1.53l-.55-1.6,7.53-8.48H151.55v-2.41h15.22v2l-7.49,8.31a10.5,10.5,0,0,1,5.63,1.95,5.68,5.68,0,0,1,2.23,4.82,6.57,6.57,0,0,1-2.29,5.16A8.26,8.26,0,0,1,159.18,462.15Z"/><circle class="cls-2" cx="158.34" cy="440.87" r="36.12"/><polygon class="cls-3" points="193.64 449.87 186.28 453.08 195.73 457.61 193.64 449.87"/><rect class="cls-4" x="24.36" y="246.63" width="267.95" height="11.35" transform="translate(410.64 93.96) rotate(90)"/><polygon class="cls-4" points="154.34 120.48 268.74 37.21 276.76 43.05 162.36 126.32 154.34 120.48"/><circle class="cls-4" cx="275.09" cy="37.21" r="26.23"/><rect class="cls-4" x="24.36" y="246.63" width="267.95" height="11.35" transform="translate(410.64 93.96) rotate(90)"/><polygon class="cls-4" points="162.34 120.48 47.94 37.21 39.91 43.05 154.32 126.32 162.34 120.48"/><circle class="cls-4" cx="158.34" cy="392.36" r="26.23"/><circle class="cls-4" cx="41.59" cy="37.21" r="26.23"/><polygon class="cls-5" points="158.84 178.47 142.69 220.8 158.84 207.57 174.97 220.8 158.84 178.47"/><rect class="cls-5" x="156.96" y="204.26" width="3.75" height="67.12"/><path class="cls-1" d="M44.12,47.8V42.15H31.56l-.68-1.94L44.36,23.8h2.35V39.9h3.71v2.25H46.71V47.8Zm-10-7.9h10V27.61Z"/><circle class="cls-2" cx="41.59" cy="37.21" r="36.12"/><path class="cls-1" d="M266.53,48.34V46.27l8.64-7.63a22.79,22.79,0,0,0,3.88-4.08,6,6,0,0,0,1.09-3.41,4.23,4.23,0,0,0-1.39-3.3,4.91,4.91,0,0,0-3.41-1.26,6,6,0,0,0-3.42,1,12.18,12.18,0,0,0-3,3.1l-2-1.43a13,13,0,0,1,3.68-3.83,8.89,8.89,0,0,1,4.9-1.24,7.52,7.52,0,0,1,5.29,1.92A6.32,6.32,0,0,1,282.93,31a7.46,7.46,0,0,1-1.32,4.36,31.08,31.08,0,0,1-4.7,4.9l-6.37,5.65h12.63v2.45Z"/><circle class="cls-2" cx="275.09" cy="37.21" r="36.12"/><path class="cls-1" d="M158.34,403.49V382.28l-4.5,1.4-.64-2.18,5.82-2h2v24Z"/><circle class="cls-2" cx="158.34" cy="392.36" r="36.12"/><polygon class="cls-3" points="5.96 31.61 10.4 38.3 0 36.98 5.96 31.61"/><polygon class="cls-3" points="310.78 31.64 316.96 36.75 306.63 38.5 310.78 31.64"/><polygon class="cls-3" points="182.56 365.19 180.46 357.44 174.59 366.13 182.56 365.19"/></g></g></svg>