<svg xmlns="http://www.w3.org/2000/svg" viewBox="0 0 307.93 478.08"><defs><style>.cls-1{fill:#2e2e54;}.cls-2{fill:none;stroke:#382f56;stroke-miterlimit:10;stroke-width:2.2px;}.cls-3{fill:#382f56;}.cls-4{fill:#d0d6e2;}.cls-5{fill:#ff2c2c;}.cls-6{fill:red;}</style></defs><g id="Layer_2" data-name="Layer 2"><g id="Layer_1-2" data-name="Layer 1"><path class="cls-1" d="M154.81,462.15a10.62,10.62,0,0,1-8.89-4.25l1.94-1.74a8.75,8.75,0,0,0,7,3.54,5.48,5.48,0,0,0,3.71-1.29,4.28,4.28,0,0,0,1.5-3.41,3.81,3.81,0,0,0-1.84-3.38,8.62,8.62,0,0,0-4.83-1.21h-1.53l-.55-1.6,7.52-8.48H147.18v-2.41H162.4v2l-7.49,8.31a10.5,10.5,0,0,1,5.63,1.95,5.68,5.68,0,0,1,2.23,4.82,6.55,6.55,0,0,1-2.3,5.16A8.25,8.25,0,0,1,154.81,462.15Z"/><circle class="cls-2" cx="153.96" cy="440.87" r="36.12"/><polygon class="cls-3" points="118.66 449.87 126.02 453.08 116.57 457.61 118.66 449.87"/><rect class="cls-4" x="19.99" y="246.63" width="267.95" height="11.35" transform="translate(406.26 98.34) rotate(90)"/><polygon class="cls-4" points="149.96 120.48 264.37 37.21 272.39 43.05 157.99 126.32 149.96 120.48"/><circle class="cls-4" cx="270.71" cy="37.21" r="26.23"/><rect class="cls-4" x="19.99" y="246.63" width="267.95" height="11.35" transform="translate(406.26 98.34) rotate(90)"/><polygon class="cls-4" points="157.97 120.48 43.56 37.21 35.54 43.05 149.94 126.32 157.97 120.48"/><circle class="cls-4" cx="153.96" cy="392.36" r="26.23"/><circle class="cls-4" cx="37.21" cy="37.21" r="26.23"/><polygon class="cls-5" points="154.46 178.47 138.32 220.8 154.46 207.57 170.6 220.8 154.46 178.47"/><rect class="cls-5" x="152.59" y="204.26" width="3.75" height="67.12"/><path class="cls-1" d="M39.75,47.8V42.15H27.19l-.68-1.94L40,23.8h2.35V39.9h3.71v2.25H42.34V47.8Zm-10-7.9h10V27.61Z"/><circle class="cls-2" cx="37.21" cy="37.21" r="36.12"/><path class="cls-1" d="M262.15,48.34V46.27l8.65-7.63a23.17,23.17,0,0,0,3.88-4.08,6,6,0,0,0,1.09-3.41,4.24,4.24,0,0,0-1.4-3.3,4.88,4.88,0,0,0-3.4-1.26,6,6,0,0,0-3.42,1,12,12,0,0,0-3,3.1l-2-1.43a13,13,0,0,1,3.67-3.83,8.93,8.93,0,0,1,4.9-1.24,7.54,7.54,0,0,1,5.3,1.92A6.35,6.35,0,0,1,278.56,31a7.4,7.4,0,0,1-1.33,4.36,30.91,30.91,0,0,1-4.69,4.9l-6.37,5.65H278.8v2.45Z"/><circle class="cls-2" cx="270.71" cy="37.21" r="36.12"/><path class="cls-1" d="M154,403.49V382.28l-4.49,1.4-.65-2.18,5.83-2h2v24Z"/><circle class="cls-2" cx="153.96" cy="392.36" r="36.12"/><polygon class="cls-3" points="72.84 31.61 68.4 38.3 78.8 36.98 72.84 31.61"/><polygon class="cls-3" points="235.02 31.64 228.84 36.75 239.17 38.5 235.02 31.64"/><polygon class="cls-3" points="129.74 365.19 131.84 357.44 137.71 366.13 129.74 365.19"/><path class="cls-6" d="M178.91,146.66l-3.9-5.49a12,12,0,0,1-1.36.07h-4.59v5.42h-1.8V129.58h6.39a7.68,7.68,0,0,1,5.12,1.57,5.32,5.32,0,0,1,1.85,4.29,5.6,5.6,0,0,1-1,3.38,5.54,5.54,0,0,1-2.89,2l4.17,5.86Zm-1.43-8.08a3.86,3.86,0,0,0,1.34-3.14,3.93,3.93,0,0,0-1.34-3.19,6,6,0,0,0-3.88-1.1h-4.54v8.56h4.54A5.91,5.91,0,0,0,177.48,138.58Z"/><path class="cls-6" d="M197,145.1v1.56H184.89V129.58H196.6v1.57h-9.9v6.07h8.83v1.54H186.7v6.34Z"/><path class="cls-6" d="M215.16,129.58l-7.56,17.08h-1.78l-7.56-17.08h2l6.54,14.83,6.58-14.83Z"/><path class="cls-6" d="M229.7,145.1v1.56H217.63V129.58h11.7v1.57h-9.9v6.07h8.83v1.54h-8.83v6.34Z"/><path class="cls-6" d="M245.6,146.66l-3.9-5.49a12,12,0,0,1-1.36.07h-4.59v5.42H234V129.58h6.39a7.68,7.68,0,0,1,5.12,1.57,5.32,5.32,0,0,1,1.85,4.29,5.27,5.27,0,0,1-3.9,5.36l4.17,5.86Zm-1.44-8.08a3.84,3.84,0,0,0,1.35-3.14,3.9,3.9,0,0,0-1.35-3.19,5.91,5.91,0,0,0-3.87-1.1h-4.54v8.56h4.54A5.86,5.86,0,0,0,244.16,138.58Z"/><path class="cls-6" d="M252.64,146.2a6.78,6.78,0,0,1-2.69-1.61l.7-1.4a6.72,6.72,0,0,0,2.47,1.5,8.81,8.81,0,0,0,3.17.58,5.82,5.82,0,0,0,3.44-.84,2.6,2.6,0,0,0,1.14-2.19,2.16,2.16,0,0,0-.62-1.63,4.12,4.12,0,0,0-1.52-.94,24.08,24.08,0,0,0-2.52-.72,26.07,26.07,0,0,1-3.07-.94,5,5,0,0,1-2-1.38,3.61,3.61,0,0,1-.82-2.51,4.27,4.27,0,0,1,.68-2.35,4.7,4.7,0,0,1,2.1-1.7,8.64,8.64,0,0,1,3.51-.63,10.31,10.31,0,0,1,2.87.4A8.49,8.49,0,0,1,262,131l-.61,1.44a8.28,8.28,0,0,0-2.3-1.06,8.4,8.4,0,0,0-2.39-.36,5.47,5.47,0,0,0-3.37.87,2.68,2.68,0,0,0-1.14,2.23,2.26,2.26,0,0,0,.62,1.65,4.22,4.22,0,0,0,1.56.95c.63.22,1.47.46,2.53.72a26.53,26.53,0,0,1,3,.91,5.12,5.12,0,0,1,2,1.37,3.61,3.61,0,0,1,.8,2.48,4.23,4.23,0,0,1-.69,2.35,4.62,4.62,0,0,1-2.14,1.68,8.78,8.78,0,0,1-3.53.63A11.14,11.14,0,0,1,252.64,146.2Z"/><path class="cls-6" d="M278.66,145.1v1.56H266.58V129.58h11.71v1.57h-9.9v6.07h8.83v1.54h-8.83v6.34Z"/><path class="cls-6" d="M282.9,129.58h7a10.18,10.18,0,0,1,4.78,1.09,7.89,7.89,0,0,1,3.22,3,9.11,9.11,0,0,1,0,8.86,7.89,7.89,0,0,1-3.22,3,10.06,10.06,0,0,1-4.78,1.09h-7Zm6.85,15.52a8.32,8.32,0,0,0,3.93-.89,6.54,6.54,0,0,0,2.61-2.47,7.51,7.51,0,0,0,0-7.24,6.45,6.45,0,0,0-2.61-2.46,8.2,8.2,0,0,0-3.93-.89H284.7V145.1Z"/></g></g></svg>