<svg xmlns="http://www.w3.org/2000/svg" viewBox="0 0 382.01 509.06"><defs><style>.cls-1{fill:#2e2e54;}.cls-2{fill:none;stroke:#382f56;stroke-miterlimit:10;stroke-width:2.2px;}.cls-3{fill:#382f56;}.cls-4{fill:#d0d6e2;}.cls-5{fill:#ff2c2c;}.cls-6{fill:red;}</style></defs><g id="Layer_2" data-name="Layer 2"><g id="Layer_1-2" data-name="Layer 1"><path class="cls-1" d="M191.68,492.72v-5.65H179.12l-.68-1.94,13.48-16.41h2.35v16.1H198v2.25h-3.71v5.65Zm-10-7.9h10V472.54Z"/><circle class="cls-2" cx="190.1" cy="471.85" r="36.12"/><polygon class="cls-3" points="225.4 480.85 218.04 484.05 227.49 488.59 225.4 480.85"/><path class="cls-1" d="M346.47,39.17A11.75,11.75,0,0,1,338,35.39l1.77-1.94q3.36,3.27,6.77,3.27a5.81,5.81,0,0,0,4.15-1.5,5,5,0,0,0,1.6-3.85,4.52,4.52,0,0,0-1.65-3.61,6.38,6.38,0,0,0-4.27-1.39,10.55,10.55,0,0,0-5,1.36l-1.81-1.19.68-11.61h13.72v2.49H342.55L342,25a11.78,11.78,0,0,1,4.7-1.06,8.75,8.75,0,0,1,5.9,2A6.66,6.66,0,0,1,355,31.34,7.31,7.31,0,0,1,352.59,37,8.72,8.72,0,0,1,346.47,39.17Z"/><circle class="cls-2" cx="344.8" cy="37.21" r="36.12"/><polygon class="cls-3" points="374.12 16.42 374.82 8.43 366.32 14.56 374.12 16.42"/><path class="cls-1" d="M27.45,42.37a8.52,8.52,0,0,1-6.77-2.83q-2.49-2.82-2.49-8.88a15.35,15.35,0,0,1,2.67-9.26,8.5,8.5,0,0,1,7.24-3.68,11,11,0,0,1,7,2.73l-1.56,2.07A8.78,8.78,0,0,0,28,20.17a5.82,5.82,0,0,0-5.07,2.9A13.44,13.44,0,0,0,21,30.59v.1a7.8,7.8,0,0,1,6.78-3.64,8.69,8.69,0,0,1,5.83,2A6.69,6.69,0,0,1,36,34.44a7.35,7.35,0,0,1-2.45,5.68A8.65,8.65,0,0,1,27.45,42.37Zm0-2.38a5.67,5.67,0,0,0,4.17-1.57,5.31,5.31,0,0,0,1.59-4,4.7,4.7,0,0,0-1.64-3.66,6.09,6.09,0,0,0-4.18-1.44A6,6,0,0,0,23.14,31a5,5,0,0,0,0,7.5A6.24,6.24,0,0,0,27.48,40Z"/><circle class="cls-2" cx="37.21" cy="38.76" r="36.12"/><polygon class="cls-3" points="70.26 24.29 62.92 21.05 72.39 16.55 70.26 24.29"/><rect class="cls-4" x="56.12" y="277.6" width="267.95" height="11.35" transform="translate(473.37 93.18) rotate(90)"/><polygon class="cls-4" points="186.09 151.46 300.5 68.19 308.52 74.03 194.12 157.3 186.09 151.46"/><circle class="cls-4" cx="306.85" cy="68.19" r="26.23"/><rect class="cls-4" x="56.12" y="277.6" width="267.95" height="11.35" transform="translate(473.37 93.18) rotate(90)"/><polygon class="cls-4" points="194.1 151.46 79.69 68.19 71.67 74.03 186.08 157.3 194.1 151.46"/><circle class="cls-4" cx="190.1" cy="423.33" r="26.23"/><circle class="cls-4" cx="73.35" cy="68.19" r="26.23"/><polygon class="cls-5" points="190.59 209.45 174.46 251.78 190.59 238.54 206.74 251.78 190.59 209.45"/><rect class="cls-5" x="188.72" y="235.23" width="3.75" height="67.12"/><path class="cls-1" d="M73.5,79.73a10.62,10.62,0,0,1-8.88-4.25l1.94-1.74a8.71,8.71,0,0,0,7,3.54A5.46,5.46,0,0,0,77.24,76a4.29,4.29,0,0,0,1.5-3.41A3.81,3.81,0,0,0,76.9,69.2,8.6,8.6,0,0,0,72.07,68H70.54L70,66.39l7.53-8.48H65.88V55.49H81.09v2l-7.49,8.3a10.66,10.66,0,0,1,5.64,2,5.69,5.69,0,0,1,2.23,4.82,6.56,6.56,0,0,1-2.3,5.15A8.27,8.27,0,0,1,73.5,79.73Z"/><path class="cls-1" d="M298.29,79.32V77.24l8.64-7.62a23.14,23.14,0,0,0,3.88-4.08,6,6,0,0,0,1.09-3.41,4.23,4.23,0,0,0-1.39-3.3,4.91,4.91,0,0,0-3.41-1.26,6,6,0,0,0-3.42,1,12.12,12.12,0,0,0-3,3.09l-2-1.42a12.92,12.92,0,0,1,3.68-3.83,8.89,8.89,0,0,1,4.9-1.25,7.5,7.5,0,0,1,5.29,1.93A6.32,6.32,0,0,1,314.69,62a7.48,7.48,0,0,1-1.32,4.36,31.52,31.52,0,0,1-4.7,4.9l-6.37,5.65h12.63v2.45Z"/><circle class="cls-2" cx="306.85" cy="68.19" r="36.12"/><path class="cls-1" d="M190.1,434.47V413.26l-4.5,1.39-.64-2.17,5.82-2h2v24Z"/><circle class="cls-2" cx="73.35" cy="68.19" r="36.12"/><polygon class="cls-3" points="108.97 62.59 104.54 69.28 114.93 67.95 108.97 62.59"/><polygon class="cls-3" points="342.54 62.62 348.73 67.72 338.39 69.48 342.54 62.62"/><circle class="cls-2" cx="190.1" cy="423.33" r="36.12"/><polygon class="cls-3" points="214.32 396.16 212.22 388.42 206.35 397.1 214.32 396.16"/><path class="cls-6" d="M230.77,337.7l-3.9-5.49a12.16,12.16,0,0,1-1.37.08h-4.58v5.41h-1.81V320.63h6.39a7.7,7.7,0,0,1,5.12,1.56,5.3,5.3,0,0,1,1.86,4.29,5.57,5.57,0,0,1-1,3.38,5.64,5.64,0,0,1-2.9,2l4.18,5.85Zm-1.44-8.07a4.41,4.41,0,0,0,0-6.33,5.94,5.94,0,0,0-3.88-1.11h-4.53v8.56h4.53A5.89,5.89,0,0,0,229.33,329.63Z"/><path class="cls-6" d="M248.82,336.14v1.56H236.75V320.63h11.7v1.56h-9.9v6.07h8.83v1.54h-8.83v6.34Z"/><path class="cls-6" d="M267,320.63l-7.56,17.07h-1.79l-7.56-17.07h1.95l6.54,14.83,6.59-14.83Z"/><path class="cls-6" d="M281.56,336.14v1.56H269.48V320.63h11.71v1.56h-9.9v6.07h8.83v1.54h-8.83v6.34Z"/><path class="cls-6" d="M297.46,337.7l-3.9-5.49a12.16,12.16,0,0,1-1.37.08H287.6v5.41h-1.8V320.63h6.39a7.7,7.7,0,0,1,5.12,1.56,5.3,5.3,0,0,1,1.86,4.29,5.51,5.51,0,0,1-1,3.38,5.57,5.57,0,0,1-2.89,2l4.17,5.85ZM296,329.63a4.41,4.41,0,0,0,0-6.33,5.94,5.94,0,0,0-3.88-1.11H287.6v8.56h4.54A5.89,5.89,0,0,0,296,329.63Z"/><path class="cls-6" d="M304.5,337.24a6.64,6.64,0,0,1-2.7-1.61l.71-1.39a6.75,6.75,0,0,0,2.46,1.5,9.06,9.06,0,0,0,3.17.57,5.8,5.8,0,0,0,3.44-.84,2.58,2.58,0,0,0,1.15-2.18,2.22,2.22,0,0,0-.62-1.64,4.38,4.38,0,0,0-1.53-.94c-.6-.21-1.44-.45-2.51-.71a27.45,27.45,0,0,1-3.07-.94,5.14,5.14,0,0,1-2-1.38,3.69,3.69,0,0,1-.81-2.51,4.23,4.23,0,0,1,.68-2.36,4.58,4.58,0,0,1,2.1-1.69,8.44,8.44,0,0,1,3.51-.64,10.75,10.75,0,0,1,2.87.4A8.3,8.3,0,0,1,313.8,322l-.61,1.44a8.51,8.51,0,0,0-2.29-1.06,8.75,8.75,0,0,0-2.39-.35,5.57,5.57,0,0,0-3.38.86,2.69,2.69,0,0,0-1.13,2.24,2.19,2.19,0,0,0,.62,1.64,4,4,0,0,0,1.56.95c.62.22,1.47.46,2.52.72a25.12,25.12,0,0,1,3,.92,4.92,4.92,0,0,1,2,1.36,3.61,3.61,0,0,1,.81,2.48,4.13,4.13,0,0,1-.7,2.35,4.67,4.67,0,0,1-2.13,1.69,9,9,0,0,1-3.54.62A10.82,10.82,0,0,1,304.5,337.24Z"/><path class="cls-6" d="M330.51,336.14v1.56H318.44V320.63h11.7v1.56h-9.9v6.07h8.83v1.54h-8.83v6.34Z"/><path class="cls-6" d="M334.76,320.63h6.95a10.21,10.21,0,0,1,4.78,1.08,8,8,0,0,1,3.22,3,9.16,9.16,0,0,1,0,8.85,8,8,0,0,1-3.22,3,10.21,10.21,0,0,1-4.78,1.08h-6.95Zm6.85,15.51a8.25,8.25,0,0,0,3.93-.89,6.45,6.45,0,0,0,2.61-2.46,7.6,7.6,0,0,0,0-7.25,6.45,6.45,0,0,0-2.61-2.46,8.37,8.37,0,0,0-3.93-.89h-5.05v13.95Z"/></g></g></svg>