<?xml version="1.0" encoding="UTF-8"?><svg id="b" xmlns="http://www.w3.org/2000/svg" viewBox="0 0 442.203 149.113"><g id="c"><g><g><line x1="1.352" y1="147.613" x2="441.154" y2="147.613" style="fill:none; stroke:#50546d; stroke-miterlimit:10; stroke-width:3px;"/><g><path d="m33.307,124.638h.006l-15.067,22.975-15.067-22.975c-2.007-2.925-3.179-6.471-3.179-10.287,0-10.078,8.168-18.246,18.246-18.246s18.24,8.168,18.24,18.246c0,3.816-1.172,7.362-3.179,10.287Z" style="fill:#ff7133;"/><text transform="translate(9.748 121.462)" style="fill:#fff; font-family:GothamPro-Medium, &apos;Gotham Pro&apos;; font-size:21.4px; font-weight:500; letter-spacing:.032em;"><tspan x="0" y="0">Д</tspan></text></g></g><g><g><polygon points="301.558 26.451 394.087 26.451 383.592 43.563 394.533 43.563 404.582 26.451 404.582 21.818 412.63 21.818 412.63 12.16 391.169 12.16 391.169 21.818 301.558 21.818 301.558 26.451" style="fill:#ff7133;"/><polygon points="332.022 11.89 332.022 31.299 318.801 48.265 284.314 48.265 271.093 31.299 271.093 11.89 281.844 0 321.272 0 332.022 11.89" style="fill:#50546d;"/><polygon points="301.558 26.451 209.028 26.451 219.523 43.563 208.583 43.563 198.534 26.451 198.534 21.818 190.485 21.818 190.485 12.16 211.946 12.16 211.946 21.818 301.558 21.818 301.558 26.451" style="fill:#50546d;"/></g><rect x="163.625" y="6.33" width="80.608" height="2.06" style="fill:#8088a8;"/><rect x="198.185" y="8.39" width="6.062" height="7.806" style="fill:#50546d;"/><rect x="361.596" y="6.33" width="80.608" height="2.06" style="fill:#8088a8;"/><rect x="398.869" y="8.39" width="6.062" height="7.806" style="fill:#ff7133;"/></g><g><rect x="301.894" y="57.221" width="2.041" height="13.665" style="fill:#ff7133;"/><rect x="301.894" y="74.808" width="2.041" height="13.665" style="fill:#ff7133;"/><rect x="301.894" y="92.395" width="2.041" height="13.665" style="fill:#ff7133;"/><rect x="301.894" y="109.982" width="2.041" height="13.665" style="fill:#ff7133;"/><rect x="301.894" y="127.569" width="2.041" height="13.665" style="fill:#ff7133;"/></g><polygon points="302.914 146.111 294.498 132.152 311.331 132.152 302.914 146.111" style="fill:#ff7133;"/></g></g></svg>