<?xml version="1.0" encoding="UTF-8"?><svg id="b" xmlns="http://www.w3.org/2000/svg" viewBox="0 0 448.073 141.405"><g id="c"><g><g><path d="m33.287,116.979h.006l-15.058,22.961-15.058-22.961c-2.005-2.924-3.177-6.467-3.177-10.281,0-10.072,8.163-18.235,18.235-18.235s18.229,8.163,18.229,18.235c0,3.814-1.172,7.357-3.177,10.281Z" style="fill:#ff7133;"/><path d="m9.955,117.966v-5.561h1.454c1.27-2.51,1.903-6.01,1.903-10.501v-2.117h10.438v12.618h1.86l-.363,5.561h-2.182v-3.208h-10.544l-.257,3.208h-2.31Zm4.256-5.561h6.908v-10.244h-5.282v1.711c0,3.493-.542,6.338-1.626,8.533Z" style="fill:#fff;"/></g><line x1="1.35" y1="139.905" x2="440.885" y2="139.905" style="fill:none; stroke:#50546d; stroke-miterlimit:10; stroke-width:3px;"/><g><g><polygon points="314.286 25.656 224.538 25.656 234.717 42.254 224.105 42.254 214.359 25.656 214.359 21.162 206.552 21.162 206.552 11.794 227.368 11.794 227.368 21.162 314.286 21.162 314.286 25.656" style="fill:#ff7133;"/><polygon points="284.737 11.533 284.737 30.359 297.561 46.815 331.012 46.815 343.835 30.359 343.835 11.533 333.408 0 295.165 0 284.737 11.533" style="fill:#50546d;"/><polygon points="314.286 25.656 404.035 25.656 393.855 42.254 404.467 42.254 414.214 25.656 414.214 21.162 422.021 21.162 422.021 11.794 401.205 11.794 401.205 21.162 314.286 21.162 314.286 25.656" style="fill:#50546d;"/></g><rect x="369.888" y="6.14" width="78.185" height="1.998" style="fill:#8088a8;"/><rect x="408.673" y="8.138" width="5.88" height="7.571" transform="translate(823.225 23.846) rotate(-180)" style="fill:#50546d;"/><rect x="177.868" y="6.14" width="78.185" height="1.998" style="fill:#8088a8;"/><rect x="214.02" y="8.138" width="5.88" height="7.571" transform="translate(433.92 23.846) rotate(-180)" style="fill:#ff7133;"/></g><g><polygon points="18.232 88.463 11.889 77.943 24.575 77.943 18.232 88.463" style="fill:#ff7133;"/><g><rect x="17.463" y="56.096" width="1.538" height="10.299" style="fill:#ff7133;"/><rect x="188.107" y="13.997" width="1.538" height="10.299" transform="translate(208.023 -169.731) rotate(90)" style="fill:#ff7133;"/><rect x="174.853" y="13.997" width="1.538" height="10.299" transform="translate(194.768 -156.476) rotate(90)" style="fill:#ff7133;"/><rect x="161.599" y="13.997" width="1.538" height="10.299" transform="translate(181.514 -143.222) rotate(90)" style="fill:#ff7133;"/><rect x="148.344" y="13.997" width="1.538" height="10.299" transform="translate(168.259 -129.967) rotate(90)" style="fill:#ff7133;"/><rect x="135.09" y="13.997" width="1.538" height="10.299" transform="translate(155.005 -116.713) rotate(90)" style="fill:#ff7133;"/><rect x="18.284" y="17.556" width="1.538" height="3.18" transform="translate(38.199 .093) rotate(90)" style="fill:#ff7133;"/><g><rect x="121.298" y="13.997" width="1.538" height="10.299" transform="translate(141.213 -102.921) rotate(90)" style="fill:#ff7133;"/><rect x="108.043" y="13.997" width="1.538" height="10.299" transform="translate(127.958 -89.667) rotate(90)" style="fill:#ff7133;"/><rect x="94.789" y="13.997" width="1.538" height="10.299" transform="translate(114.704 -76.412) rotate(90)" style="fill:#ff7133;"/><rect x="81.534" y="13.997" width="1.538" height="10.299" transform="translate(101.449 -63.158) rotate(90)" style="fill:#ff7133;"/><rect x="68.28" y="13.997" width="1.538" height="10.299" transform="translate(88.195 -49.903) rotate(90)" style="fill:#ff7133;"/></g><rect x="54.488" y="13.997" width="1.538" height="10.299" transform="translate(74.403 -36.111) rotate(90)" style="fill:#ff7133;"/><rect x="41.233" y="13.997" width="1.538" height="10.299" transform="translate(61.149 -22.857) rotate(90)" style="fill:#ff7133;"/><rect x="17.463" y="31.455" width="1.538" height="10.299" transform="translate(36.464 73.208) rotate(180)" style="fill:#ff7133;"/><rect x="27.979" y="13.997" width="1.538" height="10.299" transform="translate(47.894 -9.602) rotate(90)" style="fill:#ff7133;"/><rect x="17.463" y="18.812" width="1.538" height="10.299" style="fill:#ff7133;"/><rect x="17.463" y="43.464" width="1.538" height="10.299" style="fill:#ff7133;"/><rect x="17.463" y="68.729" width="1.538" height="10.299" style="fill:#ff7133;"/></g></g></g></g></svg>