<svg width="142" height="142" viewBox="0 0 142 142" fill="none" xmlns="http://www.w3.org/2000/svg">
<g clip-path="url(#clip0_184_268)">
<path d="M71.0019 142C31.8505 142 0 110.15 0 70.9981C0 31.8467 31.8505 0 71.0019 0C110.153 0 142 31.8502 142 70.9981C142 110.146 110.15 142 71.0019 142ZM71.0019 6.86204C35.6349 6.86204 6.86204 35.6346 6.86204 70.9981C6.86204 106.362 35.6349 135.138 71.0019 135.138C106.369 135.138 135.138 106.365 135.138 70.9981C135.138 35.6312 106.365 6.86204 71.0019 6.86204Z" fill="#BBBBBC"/>
<path d="M71.0046 90.6534C60.1694 90.6534 51.3516 81.8357 51.3516 71.0006C51.3516 60.1654 60.1694 51.3477 71.0046 51.3477C81.8397 51.3477 90.6575 60.162 90.6575 71.0006C90.6575 81.8392 81.8397 90.6534 71.0046 90.6534ZM71.0046 58.2097C63.9504 58.2097 58.2136 63.9464 58.2136 71.0006C58.2136 78.0547 63.9504 83.7914 71.0046 83.7914C78.0587 83.7914 83.7955 78.0547 83.7955 71.0006C83.7955 63.9464 78.0587 58.2097 71.0046 58.2097Z" fill="#BBBBBC"/>
<path d="M65.9925 123.533L77.2832 123.396L77.0672 105.689L65.7765 105.827L65.9925 123.533Z" fill="#BBBBBC"/>
<path d="M23.0031 92.9308L28.7676 102.64L43.9936 93.5995L38.2291 83.8907L23.0031 92.9308Z" fill="#BBBBBC"/>
<path d="M28.0085 40.3982L22.4824 50.2451L37.9244 58.9111L43.4505 49.0642L28.0085 40.3982Z" fill="#BBBBBC"/>
<path d="M76.0055 18.4677L64.7148 18.6055L64.9309 36.3117L76.2216 36.1739L76.0055 18.4677Z" fill="#BBBBBC"/>
<path d="M118.997 49.0715L113.232 39.3623L98.0064 48.4025L103.771 58.1116L118.997 49.0715Z" fill="#BBBBBC"/>
<path d="M113.992 101.6L119.518 91.7539L104.076 83.0879L98.5497 92.9344L113.992 101.6Z" fill="#BBBBBC"/>
</g>
<defs>
<clipPath id="clip0_184_268">
<rect width="142" height="142" fill="white"/>
</clipPath>
</defs>
</svg>
