<svg width="142" height="142" viewBox="0 0 142 142" fill="none" xmlns="http://www.w3.org/2000/svg">
<path d="M95.0025 8.46567H87.3878C87.1666 8.46567 86.9862 8.28526 86.9862 8.064V0.401668C86.9862 0.18041 86.8058 0 86.5845 0H55.3327C55.1114 0 54.931 0.18041 54.931 0.401668V8.06741C54.931 8.28867 54.7506 8.46908 54.5294 8.46908H47.3163C39.9603 8.46908 34 14.4328 34 21.7854V129.079C34 136.217 39.7834 142 46.9147 142H94.594C101.953 142 107.917 136.036 107.917 128.677V21.3837C107.917 14.2524 102.141 8.46908 95.0025 8.46908V8.46567ZM101.317 127.363C101.317 132.724 96.9735 137.074 91.6054 137.074H50.7135C45.1276 137.074 40.6003 132.547 40.6003 126.961V23.855C40.6003 18.2691 45.1276 13.7418 50.7135 13.7418H91.2037C96.7896 13.7418 101.317 18.2691 101.317 23.855V127.363Z" fill="#2E2E54"/>
<path d="M86.5289 92.0825L67.4054 108.503C67.2658 108.622 67.0548 108.612 66.9289 108.479L51.2229 92.0586C51.0119 91.8374 51.1685 91.4698 51.4748 91.4698H62.4662C62.6126 91.4698 62.7454 91.3779 62.7931 91.2383L68.5151 75.1137C68.5968 74.889 68.4266 74.6507 68.1883 74.6507H57.1424C56.9008 74.6507 56.7339 74.4125 56.8156 74.1878L68.3824 41.571C68.43 41.4314 68.5628 41.3395 68.7092 41.3395H81.5285C81.7668 41.3395 81.9335 41.5744 81.8586 41.799L74.5537 63.1453C74.4754 63.37 74.6457 63.6049 74.884 63.6049H85.6677C85.906 63.6049 86.0728 63.8397 85.9979 64.0644L76.7766 91.0102C76.6983 91.2349 76.8684 91.4698 77.1067 91.4698H86.3076C86.631 91.4698 86.7774 91.8714 86.5358 92.0825H86.5289Z" fill="#2E2E54"/>
</svg>
