<svg width="142" height="142" viewBox="0 0 142 142" fill="none" xmlns="http://www.w3.org/2000/svg">
<path d="M120.378 72.609V76.8459C120.378 79.4243 118.334 81.4488 115.728 81.4488H110.894C109.776 87.5256 107.547 93.0517 104.015 97.8393L107.547 101.338C109.407 103.181 109.407 106.125 107.547 107.784L104.572 110.731C102.712 112.575 99.7375 112.575 98.0622 110.731L94.527 107.233C89.6924 110.731 84.1126 112.944 77.9754 114.048V118.836C77.9754 121.414 75.9308 123.439 73.3255 123.439H69.0482C66.443 123.439 64.3984 121.414 64.3984 118.836V114.048C58.2612 112.944 52.6813 110.731 47.8468 107.233L44.4995 110.731C42.6395 112.575 39.665 112.575 37.805 110.731L35.0151 107.784C33.1551 105.94 33.1551 103.181 35.0151 101.338L38.5503 97.8393C35.2031 93.0517 32.7858 87.5256 31.6678 81.4488H26.8333C24.228 81.4488 22.1834 79.4243 22.1834 76.8459V72.609C22.1834 70.0306 24.228 68.0061 26.8333 68.0061H31.6678C32.5978 61.9293 35.0151 56.4032 38.5503 51.6156L35.0151 48.302C33.1551 46.4588 33.1551 43.5144 35.0151 41.8559L37.993 38.9082C39.853 37.065 42.8276 37.065 44.5029 38.9082L47.8501 42.2252C52.6847 38.9082 58.2645 36.5144 64.4017 35.4098V30.6223C64.4017 28.0439 66.4463 26.0194 69.0516 26.0194H73.3288C75.9341 26.0194 77.9787 28.0439 77.9787 30.6223V35.4098C84.1159 36.3297 89.6958 38.7235 94.5303 42.2252L98.0656 38.7269C99.9255 36.8837 102.715 36.8837 104.575 38.7269L107.55 41.6746C109.41 43.5178 109.41 46.4621 107.55 48.3053L104.018 51.619C107.55 56.4065 109.783 61.9327 110.897 68.0094H115.732C118.337 68.0094 120.382 70.0339 120.382 72.6123L120.378 72.609ZM71.2775 100.233C85.7845 100.233 97.6862 88.2642 97.1289 73.7135C96.5716 60.4555 85.7845 49.5878 72.3921 49.2219C57.7005 48.6713 45.6108 60.2708 45.6108 74.8214C45.4261 88.8181 56.9552 100.236 71.2775 100.236V100.233Z" fill="#2E2E54"/>
<path d="M119.016 27.0882C106.456 14.5284 90.1398 7.94138 73.6855 7.40085C72.3896 7.35721 71.322 8.43155 71.322 9.73083V12.504C71.322 13.7529 72.3191 14.7433 73.568 14.7903C88.1825 15.3141 102.653 21.1592 113.799 32.3055C138.002 56.5084 137.166 96.1987 111.405 119.364C88.8774 139.622 53.8303 139.605 31.3228 119.327C5.60239 96.155 4.79998 56.5151 28.9895 32.3256C31.7626 29.5525 34.7406 27.1117 37.8696 25.01C39.3065 24.0465 39.6926 22.0992 38.7962 20.6186L38.3363 19.8565C37.3627 18.245 35.2475 17.8253 33.6864 18.8762C30.178 21.2364 26.8542 23.976 23.7454 27.0848C-3.58661 54.4168 -2.53912 99.3579 26.861 125.32C52.0476 147.559 90.64 147.556 115.84 125.334C145.274 99.3781 146.355 54.4302 119.013 27.0848L119.016 27.0882Z" fill="#2E2E54"/>
<path d="M64.8909 0C59.2606 0 54.7081 4.57939 54.7081 10.2096C54.7081 15.8398 59.2606 20.3924 64.8909 20.3924C70.5211 20.3924 75.1005 15.8398 75.1005 10.2096C75.1005 4.57939 70.5211 0 64.8909 0ZM64.8909 16.6893C61.3321 16.6893 58.4146 13.7717 58.4146 10.213C58.4146 6.624 61.3321 3.7367 64.8909 3.7367C68.4798 3.7367 71.3671 6.624 71.3671 10.213C71.3671 13.7717 68.4798 16.6893 64.8909 16.6893Z" fill="#2E2E54"/>
</svg>
