<svg width="142" height="142" viewBox="0 0 142 142" fill="none" xmlns="http://www.w3.org/2000/svg">
<path d="M71.0572 141.995C37.3923 141.995 10 114.619 10 80.9737C10 54.4392 26.9327 31.1276 52.1331 22.9623C54.1951 22.2893 56.4186 23.4266 57.0876 25.4925C57.7566 27.5584 56.6232 29.7778 54.5573 30.4468C32.6112 37.5576 17.8702 57.8627 17.8702 80.9737C17.8702 110.282 41.7288 134.125 71.0572 134.125C100.386 134.125 124.209 110.282 124.209 80.9737C124.209 57.8903 109.476 37.5851 87.5492 30.4468C85.4832 29.7739 84.3539 27.5545 85.0268 25.4886C85.6997 23.4227 87.9152 22.2932 89.9851 22.9662C115.162 31.163 132.079 54.4746 132.079 80.9776C132.079 114.623 104.702 141.999 71.0572 141.999V141.995Z" fill="#BBBBBC"/>
<path d="M71.0406 49.1889C68.8684 49.1889 67.1055 47.426 67.1055 45.2538V3.93511C67.1055 1.76293 68.8684 0 71.0406 0C73.2128 0 74.9757 1.76293 74.9757 3.93511V45.2538C74.9757 47.426 73.2128 49.1889 71.0406 49.1889Z" fill="#BBBBBC"/>
</svg>
