<?xml version="1.0" encoding="UTF-8" standalone="no"?>
<!-- Generator: Adobe Illustrator 19.1.0, SVG Export Plug-In . SVG Version: 6.00 Build 0)  -->

<svg
   version="1.1"
   id="Capa_1"
   x="0px"
   y="0px"
   viewBox="28 -43 141.7 141.7"
   style="enable-background:new 28 -43 141.7 141.7;"
   xml:space="preserve"
   sodipodi:docname="cf_icon_armed_active.svg"
   inkscape:version="1.1.2 (0a00cf5339, 2022-02-04)"
   xmlns:inkscape="http://www.inkscape.org/namespaces/inkscape"
   xmlns:sodipodi="http://sodipodi.sourceforge.net/DTD/sodipodi-0.dtd"
   xmlns="http://www.w3.org/2000/svg"
   xmlns:svg="http://www.w3.org/2000/svg"><defs
   id="defs13" /><sodipodi:namedview
   id="namedview11"
   pagecolor="#ffffff"
   bordercolor="#666666"
   borderopacity="1.0"
   inkscape:pageshadow="2"
   inkscape:pageopacity="0.0"
   inkscape:pagecheckerboard="0"
   showgrid="false"
   inkscape:zoom="5.8574454"
   inkscape:cx="70.849998"
   inkscape:cy="70.849998"
   inkscape:window-width="1920"
   inkscape:window-height="1012"
   inkscape:window-x="0"
   inkscape:window-y="1080"
   inkscape:window-maximized="1"
   inkscape:current-layer="Capa_1" />
<style
   type="text/css"
   id="style2">
	.st0{fill:#FFCC00;}
</style>
<g
   id="g8">
	<g
   id="g6">
		<path
   class="st0"
   d="M157.1,71.9l-52-97.5c-1.3-2.4-3.8-4-6.6-4c-2.8,0-5.3,1.5-6.6,4L39.6,71.9c-1.2,2.3-1.2,5.1,0.2,7.4    c1.4,2.3,3.8,3.7,6.5,3.7h104.3c2.6,0,5.1-1.4,6.4-3.7C158.3,77,158.4,74.2,157.1,71.9L157.1,71.9z M98.5,67.9    c-4.1,0-7.5-3.3-7.5-7.5c0-4.1,3.4-7.5,7.5-7.5c4.1,0,7.5,3.4,7.5,7.5C106,64.6,102.6,67.9,98.5,67.9L98.5,67.9z M106,38    c0,4.2-3.4,7.5-7.5,7.5c-4.1,0-7.5-3.3-7.5-7.5V8c0-4.1,3.4-7.5,7.5-7.5c4.1,0,7.5,3.4,7.5,7.5V38z M106,38"
   id="path4" />
	</g>
</g>
<path
   style="fill:#ff7133;stroke-width:0.170723"
   d="m 17.243012,125.81863 c -2.537,-0.39948 -4.645934,-2.00219 -5.755986,-4.37431 -0.696891,-1.48923 -0.83844,-3.56903 -0.346873,-5.09667 0.412146,-1.28083 52.95753,-99.26417 53.764271,-100.256244 0.707392,-0.869904 1.843723,-1.677872 3.027225,-2.152458 0.665299,-0.266785 1.270879,-0.350824 2.576904,-0.357609 1.569129,-0.0082 1.796993,0.03415 2.816927,0.522888 1.327243,0.636001 2.230845,1.338615 2.989331,2.324414 0.506296,0.65803 51.984399,96.989549 52.956399,99.097869 1.77175,3.84304 -0.22152,8.43131 -4.34763,10.00768 l -0.97876,0.37394 -52.924099,0.0225 c -29.108252,0.0123 -53.308221,-0.038 -53.777709,-0.11195 z m 55.137524,-15.11046 c 2.941142,-0.76607 5.092312,-3.12623 5.59069,-6.13383 0.53558,-3.23213 -1.238079,-6.564201 -4.248337,-7.981118 -2.230056,-1.049677 -4.358584,-1.01127 -6.655777,0.120101 -3.700821,1.822659 -5.166911,6.311777 -3.299908,10.104197 1.544843,3.13802 5.186874,4.78313 8.613332,3.89065 z m -0.0817,-22.369035 c 2.708538,-0.638368 4.903242,-2.835878 5.543,-5.550087 0.385008,-1.633412 0.393376,-32.02764 0.0092,-33.502494 -0.802049,-3.079279 -3.124457,-5.227926 -6.21396,-5.749039 -3.854065,-0.650072 -7.714677,2.03564 -8.535429,5.937845 -0.131985,0.627512 -0.190286,5.729532 -0.190286,16.652293 0,16.91449 -0.01082,16.68573 0.871655,18.415538 0.479245,0.939398 1.924001,2.448522 2.881855,3.010249 0.918991,0.538938 2.691798,1.029215 3.758297,1.039373 0.42254,0.004 1.266578,-0.11013 1.875642,-0.253678 z"
   id="path867"
   transform="translate(28,-43)" /></svg>
