<svg width="142" height="142" viewBox="0 0 142 142" fill="none" xmlns="http://www.w3.org/2000/svg">
<g clip-path="url(#clip0_184_311)">
<path d="M141.93 68.371V74.4953C141.93 78.223 138.975 81.1541 135.206 81.1541H128.214C126.6 89.9406 123.373 97.9305 118.263 104.855L123.369 109.914C126.062 112.576 126.062 116.838 123.369 119.235L119.07 123.497C116.38 126.159 112.077 126.159 109.657 123.497L104.547 118.438C97.5546 123.497 89.4864 126.693 80.6114 128.29V135.211C80.6114 138.939 77.6532 141.87 73.888 141.87H67.7024C63.9372 141.87 60.9789 138.942 60.9789 135.211V128.29C52.1039 126.693 44.0358 123.497 37.0433 118.438L32.2023 123.497C29.513 126.159 25.2099 126.159 22.5205 123.497L18.4865 119.235C15.7971 116.572 15.7971 112.576 18.4865 109.914L23.5963 104.855C18.7554 97.9305 15.2592 89.944 13.6456 81.1541H6.65319C2.88804 81.1541 -0.0703125 78.223 -0.0703125 74.4953V68.371C-0.0703125 64.6433 2.88804 61.7122 6.65319 61.7122H13.6456C14.9903 52.9223 18.4865 44.9358 23.5963 38.0115L18.4865 33.2183C15.7971 30.5561 15.7971 26.2939 18.4865 23.8973L22.7895 19.6351C25.4789 16.973 29.7819 16.973 32.2023 19.6351L37.0433 24.4284C44.0358 19.6351 52.1039 16.1729 60.9789 14.5763V7.6588C60.9789 3.9311 63.9372 1 67.7024 1H73.888C77.6532 1 80.6114 3.9311 80.6114 7.6588V14.5831C89.4864 15.9142 97.5546 19.3764 104.547 24.4352L109.657 19.373C112.346 16.7108 116.38 16.7108 119.07 19.373L123.369 23.6352C126.062 26.2973 126.062 30.5595 123.369 33.2217L118.263 38.0149C123.369 44.9392 126.597 52.9257 128.214 61.7156H135.206C138.971 61.7156 141.93 64.6399 141.93 68.371ZM70.9331 108.314C91.9103 108.314 109.122 91.0062 108.316 69.9676C107.509 50.7946 91.9103 35.0838 72.5467 34.5527C51.3005 33.7527 33.8194 50.5291 33.8194 71.5676C33.5505 91.8062 50.2247 108.314 70.9331 108.314Z" fill="#BBBBBC"/>
</g>
<defs>
<clipPath id="clip0_184_311">
<rect width="142" height="142" fill="white"/>
</clipPath>
</defs>
</svg>
