<svg width="142" height="142" viewBox="0 0 142 142" fill="none" xmlns="http://www.w3.org/2000/svg">
<g clip-path="url(#clip0_184_14)">
<path d="M122.173 38.1686C120.367 38.1686 118.905 36.7065 118.905 34.9007V25.5776H109.887C108.081 25.5776 106.619 24.1155 106.619 22.3098C106.619 20.5041 108.081 19.042 109.887 19.042H122.169C123.975 19.042 125.437 20.5041 125.437 22.3098V34.9007C125.437 36.7065 123.978 38.1686 122.173 38.1686Z" fill="#2E2E54"/>
<path d="M19.8264 38.1686C18.0207 38.1686 16.5586 36.7065 16.5586 34.9007V22.3098C16.5586 20.5041 18.0207 19.042 19.8264 19.042H63.5317C65.3374 19.042 66.7995 20.5041 66.7995 22.3098C66.7995 24.1155 65.3374 25.5776 63.5317 25.5776H23.0943V34.9007C23.0943 36.7065 21.6322 38.1686 19.8264 38.1686Z" fill="#2E2E54"/>
<path d="M122.178 90.0636H19.8343C18.0285 90.0636 16.5664 88.6015 16.5664 86.7958V43.8127C16.5664 42.007 18.0285 40.5449 19.8343 40.5449C21.64 40.5449 23.1021 42.007 23.1021 43.8127V83.5315H118.914V43.8127C118.914 42.007 120.376 40.5449 122.181 40.5449C123.987 40.5449 125.449 42.007 125.449 43.8127V86.7958C125.449 88.6015 123.984 90.0636 122.178 90.0636Z" fill="#2E2E54"/>
<path d="M109.891 25.5774C108.086 25.5774 106.623 24.1153 106.623 22.3096V10.5356H66.7994V22.3096C66.7994 24.1153 65.3372 25.5774 63.5315 25.5774C61.7258 25.5774 60.2637 24.1153 60.2637 22.3096V7.26782C60.2637 5.4621 61.7258 4 63.5315 4H109.887C111.693 4 113.155 5.4621 113.155 7.26782V22.3096C113.155 24.1153 111.693 25.5774 109.887 25.5774H109.891Z" fill="#2E2E54"/>
<path d="M19.8279 47.0804H3.26784C1.46213 47.0804 0 45.6183 0 43.8126V34.8997C0 33.094 1.46213 31.6318 3.26784 31.6318H19.8279C21.6336 31.6318 23.0958 33.094 23.0958 34.8997C23.0958 36.7054 21.6336 38.1675 19.8279 38.1675H6.53569V40.5447H19.8279C21.6336 40.5447 23.0958 42.0068 23.0958 43.8126C23.0958 45.6183 21.6336 47.0804 19.8279 47.0804Z" fill="#2E2E54"/>
<path d="M138.732 47.0804H122.172C120.366 47.0804 118.904 45.6183 118.904 43.8126C118.904 42.0068 120.366 40.5447 122.172 40.5447H135.464V38.1675H122.172C120.366 38.1675 118.904 36.7054 118.904 34.8997C118.904 33.094 120.366 31.6318 122.172 31.6318H138.732C140.538 31.6318 142 33.094 142 34.8997V43.8126C142 45.6183 140.538 47.0804 138.732 47.0804Z" fill="#2E2E54"/>
<path d="M51.1023 137.033C50.2994 137.033 49.4967 136.742 48.8656 136.15L43.8026 131.402C41.3833 129.134 40.3418 125.838 41.015 122.591C41.6882 119.344 43.9568 116.736 47.0773 115.614L54.7421 112.868C56.8038 112.128 56.7195 110.281 56.6459 109.73C56.5723 109.18 56.1586 107.377 53.9777 107.213L31.5518 105.526C26.65 105.158 22.8105 101.017 22.8105 96.1013V86.7922C22.8105 84.9865 24.2727 83.5244 26.0784 83.5244C27.8841 83.5244 29.3462 84.9865 29.3462 86.7922V96.1013C29.3462 97.616 30.5314 98.8923 32.0461 99.008L54.472 100.695C59.0372 101.038 62.5118 104.316 63.1289 108.85C63.7425 113.384 61.2602 117.468 56.9545 119.011L49.2897 121.76C47.9012 122.258 47.5193 123.432 47.4176 123.913C47.3194 124.393 47.2001 125.624 48.28 126.63L53.343 131.378C54.6578 132.612 54.7244 134.681 53.4902 135.995C52.845 136.679 51.9757 137.026 51.1062 137.026L51.1023 137.033Z" fill="#2E2E54"/>
</g>
<defs>
<clipPath id="clip0_184_14">
<rect width="142" height="142" fill="white"/>
</clipPath>
</defs>
</svg>
