<svg width="142" height="142" viewBox="0 0 142 142" fill="none" xmlns="http://www.w3.org/2000/svg">
<g clip-path="url(#clip0_184_24)">
<path d="M138.473 34.8362H3.52807C1.58058 34.8362 0 33.2557 0 31.3082V3.52807C0 1.58058 1.58058 0 3.52807 0H138.473C140.421 0 142.002 1.58058 142.002 3.52807V31.3082C142.002 33.2557 140.421 34.8362 138.473 34.8362ZM7.05615 27.7801H134.945V7.05615H7.05615V27.7801Z" fill="#2E2E54"/>
<path d="M138.473 141.999H3.52807C1.58058 141.999 0 140.419 0 138.471V49.158C0 47.2105 1.58058 45.6299 3.52807 45.6299H138.473C140.421 45.6299 142.002 47.2105 142.002 49.158V138.471C142.002 140.419 140.421 141.999 138.473 141.999ZM7.05615 134.943H134.945V52.686H7.05615V134.943Z" fill="#2E2E54"/>
</g>
<defs>
<clipPath id="clip0_184_24">
<rect width="142" height="142" fill="white"/>
</clipPath>
</defs>
</svg>
