<svg width="142" height="142" viewBox="0 0 142 142" fill="none" xmlns="http://www.w3.org/2000/svg">
<path d="M46.5633 114.769C44.2949 114.769 42.1106 113.879 40.4453 112.213L16.7237 88.4918C16.3205 88.0851 15.7631 87.8572 15.1881 87.8572H3.26762C1.46203 87.8572 0 86.3952 0 84.5896C0 82.784 1.46203 81.322 3.26762 81.322H15.1881C17.5161 81.322 19.7003 82.2301 21.3446 83.8744L45.0662 107.593C45.8585 108.385 46.7842 108.252 47.1453 108.16C47.5064 108.066 48.3792 107.733 48.6877 106.653L69.5731 33.3178C70.6495 29.5383 73.8853 27.0561 77.8156 27H77.9594C81.83 27 85.0697 29.3701 86.2442 33.0724L100.363 77.6232C100.773 78.9204 101.871 79.1132 102.323 79.1343C102.775 79.1693 103.89 79.0712 104.423 77.823L113.023 57.7722C114.398 54.5677 117.539 52.4992 121.024 52.4992H138.732C140.538 52.4992 142 53.9612 142 55.7668C142 57.5724 140.538 59.0344 138.732 59.0344H121.024C120.154 59.0344 119.372 59.5497 119.029 60.3491L110.428 80.3999C108.98 83.7762 105.692 85.8307 102.004 85.6625C98.3329 85.4837 95.244 83.1031 94.1361 79.6006L80.0175 35.0498C79.5758 33.6579 78.3627 33.4931 77.9174 33.5352C77.4336 33.5422 76.2627 33.7105 75.8666 35.1094L54.9812 108.444C54.1257 111.442 51.8151 113.703 48.7965 114.485C48.0567 114.678 47.3102 114.773 46.574 114.773L46.5633 114.769Z" fill="#2E2E54"/>
</svg>
