<svg width="142" height="142" viewBox="0 0 142 142" fill="none" xmlns="http://www.w3.org/2000/svg">
<path d="M70.9985 99.6279C46.5529 99.6279 22.1069 91.0629 1.2425 73.9329C0.456131 73.2861 0 72.3192 0 71.3014C0 70.2835 0.456052 69.3167 1.24583 68.6733C17.375 55.4412 36.2685 46.9408 55.8869 44.0847C66.0145 42.6311 76.2036 42.6379 86.1405 44.1085C105.745 46.9613 124.635 55.4548 140.754 68.6733C141.541 69.3202 142 70.2869 142 71.3048C142 72.3226 141.544 73.2894 140.757 73.9362C119.896 91.0662 95.4475 99.6312 71.0019 99.6312L70.9985 99.6279ZM8.89534 71.3048C46.5289 99.9376 95.4712 99.9342 133.101 71.3048C118.702 60.3739 102.208 53.3237 85.1498 50.8421C75.8461 49.4668 66.3243 49.46 56.8606 50.8216C39.8021 53.3033 23.3054 60.3636 8.89534 71.3048Z" fill="#2E2E54"/>
<path d="M71.0099 86.7607C57.5497 86.7607 46.6016 75.8094 46.6016 62.3525C46.6016 55.7143 49.2331 49.505 54.0092 44.8685C54.5403 44.3544 55.2245 44.0243 55.9598 43.9358C66.0397 42.6796 76.1844 42.6898 86.0771 43.9562C86.8022 44.0481 87.4831 44.3749 88.0073 44.8821C92.7766 49.488 95.4012 55.6905 95.4012 62.3525C95.4012 75.8128 84.46 86.7607 71.0099 86.7607ZM57.9786 50.5467C55.0237 53.7875 53.4067 57.9373 53.4067 62.3492C53.4067 72.0546 61.3012 79.9489 71.0066 79.9489C80.712 79.9489 88.5895 72.0546 88.5895 62.3492C88.5895 57.9203 86.9826 53.7739 84.0379 50.5604C75.4627 49.5595 66.724 49.5493 57.9786 50.5467Z" fill="#2E2E54"/>
<path d="M71.0055 70.52C75.5121 70.52 79.1653 66.8666 79.1653 62.3601C79.1653 57.8535 75.5121 54.2002 71.0055 54.2002C66.4989 54.2002 62.8457 57.8535 62.8457 62.3601C62.8457 66.8666 66.4989 70.52 71.0055 70.52Z" fill="#2E2E54"/>
</svg>
