<svg width="142" height="142" viewBox="0 0 142 142" fill="none" xmlns="http://www.w3.org/2000/svg">
<g clip-path="url(#clip0_184_223)">
<path d="M127.771 110.647H120.674V79.463C120.674 78.4483 119.848 77.6216 118.829 77.6216H23.8399C22.8252 77.6216 21.9985 78.4483 21.9985 79.463V110.647H14.9023V79.463C14.9023 74.5347 18.9116 70.5254 23.8399 70.5254H118.829C123.758 70.5254 127.771 74.5347 127.771 79.463V110.647Z" fill="#BBBBBC"/>
<path d="M74.8872 31.3506H67.791V74.0731H74.8872V31.3506Z" fill="#BBBBBC"/>
<path d="M74.8872 74.0732H67.791V110.647H74.8872V74.0732Z" fill="#BBBBBC"/>
<path d="M71.3383 34.899C61.7159 34.899 53.8887 27.0684 53.8887 17.4495C53.8887 7.83063 61.7194 0 71.3383 0C80.9571 0 88.7877 7.82708 88.7877 17.4495C88.7877 27.0719 80.9571 34.899 71.3383 34.899ZM71.3383 7.09618C65.6294 7.09618 60.9848 11.7406 60.9848 17.4495C60.9848 23.1584 65.6294 27.8028 71.3383 27.8028C77.0472 27.8028 81.6915 23.1584 81.6915 17.4495C81.6915 11.7406 77.0472 7.09618 71.3383 7.09618Z" fill="#BBBBBC"/>
<path d="M124.221 142.001C114.598 142.001 106.771 134.173 106.771 124.551C106.771 114.929 114.602 107.102 124.221 107.102C133.84 107.102 141.67 114.932 141.67 124.551C141.67 134.17 133.84 142.001 124.221 142.001ZM124.221 114.198C118.512 114.198 113.868 118.842 113.868 124.551C113.868 130.26 118.512 134.904 124.221 134.904C129.93 134.904 134.574 130.26 134.574 124.551C134.574 118.842 129.93 114.198 124.221 114.198Z" fill="#BBBBBC"/>
<path d="M71.3383 142.001C61.7159 142.001 53.8887 134.173 53.8887 124.551C53.8887 114.929 61.7194 107.102 71.3383 107.102C80.9571 107.102 88.7877 114.932 88.7877 124.551C88.7877 134.17 80.9571 142.001 71.3383 142.001ZM71.3383 114.198C65.6294 114.198 60.9848 118.842 60.9848 124.551C60.9848 130.26 65.6294 134.904 71.3383 134.904C77.0472 134.904 81.6915 130.26 81.6915 124.551C81.6915 118.842 77.0472 114.198 71.3383 114.198Z" fill="#BBBBBC"/>
<path d="M18.4496 142.001C8.82719 142.001 1 134.173 1 124.551C1 114.929 8.83074 107.102 18.4496 107.102C28.0685 107.102 35.899 114.932 35.899 124.551C35.899 134.17 28.0685 142.001 18.4496 142.001ZM18.4496 114.198C12.7407 114.198 8.09618 118.842 8.09618 124.551C8.09618 130.26 12.7407 134.904 18.4496 134.904C24.1585 134.904 28.8028 130.26 28.8028 124.551C28.8028 118.842 24.1585 114.198 18.4496 114.198Z" fill="#BBBBBC"/>
</g>
<defs>
<clipPath id="clip0_184_223">
<rect width="142" height="142" fill="white"/>
</clipPath>
</defs>
</svg>
