<svg width="142" height="142" viewBox="0 0 142 142" fill="none" xmlns="http://www.w3.org/2000/svg">
<path d="M138.891 123.472H3.10891C1.39319 123.472 0 122.079 0 120.364V21.1089C0 19.3932 1.39319 18 3.10891 18H138.891C140.607 18 142 19.3932 142 21.1089V120.364C142 122.079 140.607 123.472 138.891 123.472ZM6.21782 117.255H135.779V24.2178H6.21782V117.255Z" fill="#BBBBBC"/>
<path d="M126.182 109.182H15.8099C14.0942 109.182 12.701 107.789 12.701 106.073V43.0784C12.701 41.3627 14.0942 39.9696 15.8099 39.9696H126.182C127.898 39.9696 129.291 41.3627 129.291 43.0784V106.073C129.291 107.789 127.898 109.182 126.182 109.182ZM18.9221 102.964H123.073V46.1907H18.9221V102.964Z" fill="#BBBBBC"/>
<path d="M32.8158 86.5157C32.0197 86.5157 31.2237 86.2138 30.6163 85.603C29.4016 84.3882 29.4016 82.4185 30.6163 81.2038L41.0547 70.7654L30.5476 60.2582C29.3329 59.0435 29.3329 57.0739 30.5476 55.8592C31.7623 54.6445 33.7285 54.6445 34.9467 55.8592L47.65 68.5658C48.8647 69.7806 48.8647 71.7502 47.65 72.9649L35.012 85.603C34.4046 86.2103 33.6119 86.5157 32.8158 86.5157Z" fill="#BBBBBC"/>
<path d="M85.1309 73.843H58.4274C56.7117 73.843 55.3185 72.4498 55.3185 70.7341C55.3185 69.0184 56.7117 67.6252 58.4274 67.6252H85.1309C86.8466 67.6252 88.2398 69.0184 88.2398 70.7341C88.2398 72.4498 86.8466 73.843 85.1309 73.843Z" fill="#BBBBBC"/>
<path d="M23.6704 35.8942C25.5618 35.8942 27.0952 34.3609 27.0952 32.4696C27.0952 30.5782 25.5618 29.045 23.6704 29.045C21.7791 29.045 20.2461 30.5782 20.2461 32.4696C20.2461 34.3609 21.7791 35.8942 23.6704 35.8942Z" fill="#BBBBBC"/>
<path d="M36.1756 35.8942C38.0669 35.8942 39.6003 34.3609 39.6003 32.4696C39.6003 30.5782 38.0669 29.045 36.1756 29.045C34.2842 29.045 32.7512 30.5782 32.7512 32.4696C32.7512 34.3609 34.2842 35.8942 36.1756 35.8942Z" fill="#BBBBBC"/>
</svg>
