<?xml version="1.0" encoding="UTF-8" standalone="no"?>
<!-- Generator: Adobe Illustrator 19.1.0, SVG Export Plug-In . SVG Version: 6.00 Build 0)  -->

<svg
   version="1.1"
   id="Capa_1"
   x="0px"
   y="0px"
   viewBox="28 -43 141.7 141.7"
   style="enable-background:new 28 -43 141.7 141.7;"
   xml:space="preserve"
   sodipodi:docname="cf_icon_failsafe_active.svg"
   inkscape:version="1.1.2 (0a00cf5339, 2022-02-04)"
   xmlns:inkscape="http://www.inkscape.org/namespaces/inkscape"
   xmlns:sodipodi="http://sodipodi.sourceforge.net/DTD/sodipodi-0.dtd"
   xmlns="http://www.w3.org/2000/svg"
   xmlns:svg="http://www.w3.org/2000/svg"><defs
   id="defs11" /><sodipodi:namedview
   id="namedview9"
   pagecolor="#ffffff"
   bordercolor="#666666"
   borderopacity="1.0"
   inkscape:pageshadow="2"
   inkscape:pageopacity="0.0"
   inkscape:pagecheckerboard="0"
   showgrid="false"
   inkscape:zoom="5.8574454"
   inkscape:cx="70.849998"
   inkscape:cy="70.849998"
   inkscape:window-width="1920"
   inkscape:window-height="1012"
   inkscape:window-x="0"
   inkscape:window-y="1080"
   inkscape:window-maximized="1"
   inkscape:current-layer="Capa_1" />
<style
   type="text/css"
   id="style2">
	.st0{fill:#E60000;}
</style>
<g
   id="g6">
	<path
   class="st0"
   d="M98.9,87l60.9-61.9c0.8-0.8,1.2-1.9,1.1-3l0,0C156.7-8.4,130.5-32,98.9-32c-31.5,0-57.7,23.5-62,53.8v0.1V22   l0,0c-0.1,1,0.3,2.1,1.1,2.9l42.9,43.8 M107,68.2l14.8-49.6c3.3-4.7,8.7-7.8,14.9-7.8c7.2,0,13.4,4.2,16.4,10.3L107,68.2z M83.7,19   c3.2-4.9,8.8-8.2,15.2-8.2c6.2,0,11.7,3.1,15,7.9L99,68.7L83.7,19z M44.5,20.8c3-6,9.1-10.1,16.2-10.1c6.2,0,11.7,3.1,14.9,7.8   l15.1,49.4L44.5,20.8z"
   id="path4" />
</g>
<path
   style="fill:#ff7133;stroke-width:0.170723"
   d="M 57.929258,116.65256 C 29.197921,87.41879 9.59943,67.330312 9.3339279,66.842292 8.9029126,66.050043 8.9996459,64.147657 9.6220191,61.176606 12.194409,48.896667 18.028346,38.166746 26.964996,29.278975 38.644237,17.663613 54.440669,11.109554 70.782525,11.098749 c 14.259486,-0.0094 27.94909,4.805941 39.163015,13.775735 2.43056,1.944158 6.52914,5.94623 8.53201,8.331118 7.38073,8.788496 12.09913,18.863564 14.0036,29.901499 0.40543,2.349843 0.38061,3.116645 -0.13183,4.072355 -0.25239,0.470718 -61.077306,62.422684 -61.395782,62.533414 -0.07725,0.0268 -5.938173,-5.85028 -13.02428,-13.06031 z M 78.623051,86.449871 c 6.504571,-21.825964 7.338081,-24.751963 7.150675,-25.102134 -0.388208,-0.725373 -2.513323,-2.899123 -3.775875,-3.86229 -3.266961,-2.492279 -6.892175,-3.707737 -11.05865,-3.707737 -5.849802,0 -11.041766,2.535267 -14.552695,7.106171 l -0.80306,1.045509 7.083637,23.026418 c 9.206701,29.927752 8.28355,27.024942 8.451845,26.576432 0.07772,-0.20714 3.454579,-11.4942 7.504123,-25.082369 z m 24.555469,0.207744 22.02618,-22.519672 -0.35368,-0.698641 c -1.10072,-2.174318 -3.72347,-5.100988 -5.85717,-6.535882 -2.2346,-1.502755 -5.03728,-2.600488 -7.56909,-2.964601 -2.14821,-0.308947 -5.55534,-0.122731 -7.45452,0.407429 -3.72699,1.04039 -7.117182,3.23683 -9.375838,6.074417 l -0.895424,1.124936 -7.372545,24.754819 c -4.054899,13.61515 -7.371319,24.83093 -7.36982,24.92396 0.0034,0.21002 -1.910669,2.15132 24.221907,-24.566765 z M 55.20372,86.050618 47.633425,61.278531 46.602681,60.046282 c -2.245368,-2.68432 -5.880122,-4.956569 -9.385091,-5.867044 -2.236081,-0.580861 -6.017164,-0.660489 -8.277378,-0.17432 -3.432915,0.738416 -6.21554,2.25675 -8.813587,4.809117 -1.576918,1.549192 -3.281991,3.798454 -3.571914,4.711923 -0.0874,0.27537 0.482175,0.945854 2.929755,3.448805 18.96633,19.395411 43.15624,43.981257 43.21508,43.922417 0.04096,-0.041 -3.332162,-11.221913 -7.495826,-24.846562 z"
   id="path865"
   transform="translate(28,-43)" /></svg>
