<svg width="142" height="142" viewBox="0 0 142 142" fill="none" xmlns="http://www.w3.org/2000/svg">
<path d="M67.0078 126.348C66.458 126.348 65.9012 126.219 65.3828 125.944C63.685 125.043 63.0378 122.938 63.9354 121.241C76.2623 97.975 78.7082 71.3034 70.8208 46.1452C68.2879 38.063 64.7703 30.4227 60.3691 23.4295C59.3463 21.8047 59.8333 19.6581 61.4581 18.6317C63.0829 17.6158 65.2331 18.0958 66.256 19.7206C70.9773 27.2183 74.7487 35.4084 77.459 44.0612C85.9065 71.0077 83.2867 99.5755 70.0831 124.497C69.4568 125.677 68.253 126.348 67.0039 126.348H67.0078Z" fill="#BBBBBC"/>
<path d="M30.4872 107.258C29.934 107.258 29.374 107.126 28.8487 106.848C27.1543 105.943 26.5175 103.835 27.4221 102.137C34.6345 88.6516 36.0715 73.1447 31.4755 58.4764C30.0421 53.9117 28.0412 49.5452 25.5258 45.4989C24.5098 43.8671 25.011 41.7239 26.6427 40.708C28.271 39.6886 30.4175 40.1931 31.4335 41.8248C34.2586 46.3687 36.5063 51.2674 38.1137 56.3958C43.2768 72.8629 41.6592 90.2763 33.5595 105.421C32.9333 106.594 31.7293 107.258 30.4872 107.258Z" fill="#BBBBBC"/>
<path d="M96.9476 141.996C96.4014 141.996 95.8479 141.868 95.3295 141.596C93.6281 140.702 92.9777 138.597 93.8719 136.896C110.36 105.587 113.62 69.7716 103.05 36.0441C99.6263 25.1228 94.853 14.7931 88.8548 5.34357C87.8249 3.72226 88.3049 1.57209 89.9297 0.542248C91.551 -0.487599 93.7012 -0.00744774 94.7311 1.61734C101.053 11.5818 106.084 22.4648 109.688 33.9636C120.818 69.4759 117.388 107.184 100.03 140.142C99.4074 141.325 98.2001 142 96.9476 142V141.996Z" fill="#BBBBBC"/>
</svg>
