<svg width="142" height="142" viewBox="0 0 142 142" fill="none" xmlns="http://www.w3.org/2000/svg">
<g clip-path="url(#clip0_184_203)">
<path d="M70.5258 142C50.9369 142 35 127.114 35 108.819V26.4541C35 24.7072 36.4177 23.2895 38.1646 23.2895H102.893C104.64 23.2895 106.058 24.7072 106.058 26.4541V108.819C106.058 127.114 90.121 142 70.5258 142ZM41.3292 29.6187V108.819C41.3292 123.626 54.4275 135.671 70.5258 135.671C86.6241 135.671 99.7319 123.626 99.7319 108.819V29.6187H41.3292Z" fill="#BBBBBC"/>
<path d="M93.1078 29.6206H47.9489C46.2021 29.6206 44.7843 28.2029 44.7843 26.456V3.1646C44.7843 1.41774 46.2021 0 47.9489 0H93.1078C94.8547 0 96.2724 1.41774 96.2724 3.1646V26.456C96.2724 28.2029 94.8547 29.6206 93.1078 29.6206ZM51.1136 23.2914H89.9432V6.3292H51.1136V23.2914Z" fill="#BBBBBC"/>
<path d="M70.5298 29.0619C69.0899 29.0619 67.9253 27.8941 67.9253 26.4574V13.8939C67.9253 12.454 69.093 11.2895 70.5298 11.2895C71.9665 11.2895 73.1342 12.4572 73.1342 13.8939V26.4574C73.1342 27.8973 71.9665 29.0619 70.5298 29.0619Z" fill="#BBBBBC"/>
<path d="M58.8415 29.0619C57.4016 29.0619 56.237 27.8941 56.237 26.4574V13.8939C56.237 12.454 57.4048 11.2895 58.8415 11.2895C60.2782 11.2895 61.446 12.4572 61.446 13.8939V26.4574C61.446 27.8973 60.2782 29.0619 58.8415 29.0619Z" fill="#BBBBBC"/>
<path d="M82.218 29.0619C80.7781 29.0619 79.6135 27.8941 79.6135 26.4574V13.8939C79.6135 12.454 80.7813 11.2895 82.218 11.2895C83.6547 11.2895 84.8225 12.4572 84.8225 13.8939V26.4574C84.8225 27.8973 83.6547 29.0619 82.218 29.0619Z" fill="#BBBBBC"/>
</g>
<defs>
<clipPath id="clip0_184_203">
<rect width="142" height="142" fill="white"/>
</clipPath>
</defs>
</svg>
