<svg width="142" height="142" viewBox="0 0 142 142" fill="none" xmlns="http://www.w3.org/2000/svg">
<path d="M138.596 124.017H3.40429C1.52512 124.017 0 122.492 0 120.613V20.4043C0 18.5251 1.52512 17 3.40429 17H138.596C140.475 17 142 18.5251 142 20.4043V120.613C142 122.492 140.475 124.017 138.596 124.017ZM6.80859 117.209H135.191V23.8086H6.80859V117.209Z" fill="#2E2E54"/>
<path d="M122.511 102.432H19.4941C17.615 102.432 16.0898 100.906 16.0898 99.0272V49.2871C16.0898 47.4079 17.615 45.8828 19.4941 45.8828H122.511C124.391 45.8828 125.916 47.4079 125.916 49.2871V99.0272C125.916 100.906 124.391 102.432 122.511 102.432ZM22.8984 95.6229H119.107V52.6914H22.8984V95.6229Z" fill="#2E2E54"/>
<path d="M40.2943 39.4873H19.4941C17.615 39.4873 16.0898 37.9622 16.0898 36.083C16.0898 34.2038 17.615 32.6787 19.4941 32.6787H40.2943C42.1735 32.6787 43.6986 34.2038 43.6986 36.083C43.6986 37.9622 42.1735 39.4873 40.2943 39.4873Z" fill="#2E2E54"/>
<path d="M60.1883 39.4873H51.2246C49.3454 39.4873 47.8203 37.9622 47.8203 36.083C47.8203 34.2038 49.3454 32.6787 51.2246 32.6787H60.1883C62.0675 32.6787 63.5926 34.2038 63.5926 36.083C63.5926 37.9622 62.0675 39.4873 60.1883 39.4873Z" fill="#2E2E54"/>
</svg>
