<?xml version="1.0" encoding="UTF-8"?><svg id="b" xmlns="http://www.w3.org/2000/svg" viewBox="0 0 121.407 121.407"><g id="c"><g><rect width="121.407" height="121.407" rx="28.648" ry="28.648" style="fill:#ff1212;"/><g><line x1="73.508" y1="27.701" x2="73.508" y2="38.371" style="fill:none; stroke:#f9f9f9; stroke-linecap:round; stroke-miterlimit:10; stroke-width:3.082px;"/><line x1="60.704" y1="27.701" x2="60.704" y2="38.371" style="fill:none; stroke:#f9f9f9; stroke-linecap:round; stroke-miterlimit:10; stroke-width:3.082px;"/><line x1="47.899" y1="27.701" x2="47.899" y2="38.371" style="fill:none; stroke:#f9f9f9; stroke-linecap:round; stroke-miterlimit:10; stroke-width:3.082px;"/><path d="m30.719,36.266h59.97c1.81,0,3.279,1.469,3.279,3.279v29.985c0,18.359-14.905,33.264-33.264,33.264h0c-18.359,0-33.264-14.905-33.264-33.264v-29.985c0-1.81,1.469-3.279,3.279-3.279Z" style="fill:#f9f9f9;"/><path d="m43.06,18.724h35.286c3.148,0,5.704,2.556,5.704,5.704v42.783c0,12.886-10.462,23.347-23.347,23.347h0c-12.886,0-23.347-10.462-23.347-23.347V24.428c0-3.148,2.556-5.704,5.704-5.704Z" style="fill:none; stroke:#f9f9f9; stroke-miterlimit:10; stroke-width:3.082px;"/><rect x="52.69" y="66.974" width="16.026" height="54.227" style="fill:#f9f9f9;"/></g><g><line x1="48.319" y1="54.589" x2="73.088" y2="79.358" style="fill:none; stroke:#ff1212; stroke-linecap:round; stroke-miterlimit:10; stroke-width:2.956px;"/><line x1="73.088" y1="54.589" x2="48.319" y2="79.358" style="fill:none; stroke:#ff1212; stroke-linecap:round; stroke-miterlimit:10; stroke-width:2.956px;"/></g></g></g></svg>