<?xml version="1.0" encoding="UTF-8"?><svg id="a" xmlns="http://www.w3.org/2000/svg" viewBox="0 0 141.7 141.7"><path d="m137.385,61.227l-.377,3.218-2.14,2.733-1.629.175-7.084-4.096-.222-3.453-3.534-3.917-4.103-.097-2.679-3.902-2.68,12.451.687,11.309-.282,5.139,15.226-2.649,3.231,6.112-.727,4.846-9.289,13.732-8.696,5.627-2.208,2.41h-5.358l1.319-8.279,6.758-1.562,7.055-2.531,4.146-9.1-.915-2.262-15.913,10.151-6.629-2.898h0c-3.293.655-8.098,2.133-13.092,5.465l-25.132,13.453-24.713,1.923-4.203-1.145,16.602-8.129,28.402-9.64,21.521-3.539-.982-2.572c-2.96-.7-10.259-1.868-18.986.818l-30.874,6.053-27.006-6.822-4.157-2.824,20.171-3.142,33.24-.555,26.769,4.262-.508-1.33s-9.352-6.932-23.676-6.569l-37.587-3.271-28.938-17.811-3.877-4.93,24.293,3.139,38.53,10.878,29.787,14.715-.668-1.75-2.415-1.808h0s-.002-.002-.002-.003l-8.913-7.692-3.636-1.607-20.655-7.43-12.794-14.254-1.281-3.414,13.02,6.188,19.587,13.046,4.704,4.547-2.255-6.839,13.147-15.751,10.904-8.542,11.752-3.028,8.374.693-.397-1.339.282-3.413.868-1.252.485-1.273,1.474,1.979.154,5.048-.74,1.504,4.019,4.524.131,1.04,4.668,18.275.646.969Z" style="fill:#2e2e54;"/><path d="m130.164,38.204h.887s1.517-.77,2.101-2.544l-2.416,1.622s-.117.665-.572.922Z" style="fill:#2e2e54;"/><path d="m129.742,37.289l.776-.698s.728-1.86-.143-3.854l-.851,3.305s.416.667.217,1.248Z" style="fill:#2e2e54;"/><path d="m123.168,33.661l.305-1.379s-.662-2.621-3.189-4.132l1.663,4.308s.983.408,1.221,1.203Z" style="fill:#2e2e54;"/><path d="m119.825,32.736l-1.614-2.537s-3.397-3.519-8.773-3.721c-.563-.021-1.604.176-1.604.176l8.343,5.499s2.228-.519,3.648.582Z" style="fill:#2e2e54;"/><path d="m112.647,34.326l-1.974-2.268s-3.884-2.973-9.229-2.372c-.56.063-1.56.414-1.56.414l9.07,4.194s2.125-.846,3.694.032Z" style="fill:#2e2e54;"/><path d="m106.265,35.49l-2.838-1.776s-5.211-1.821-11.207.946c-.628.29-1.69,1.075-1.69,1.075l11.48,1.165s2.232-1.782,4.255-1.409Z" style="fill:#2e2e54;"/><path d="m99.179,39.765l-2.696-1.141s-4.957-.656-10.683,3.451c-.6.43-1.615,1.453-1.615,1.453l10.933-1.402s2.134-2.28,4.06-2.36Z" style="fill:#2e2e54;"/><path d="m92.399,46.985l-1.715-.743s-3.475-.226-8.574,3.353c-.534.375-1.504,1.242-1.504,1.242l8.3-1.75s2.068-1.926,3.493-2.103Z" style="fill:#2e2e54;"/><path d="m86.503,53.749l-1.18-.114s-2.121.518-4.407,3.571c-.24.32-.635,1.009-.635,1.009l4.582-2.58s.827-1.516,1.64-1.886Z" style="fill:#2e2e54;"/></svg>