<?xml version="1.0" encoding="UTF-8"?><svg id="a" xmlns="http://www.w3.org/2000/svg" viewBox="0 0 105.391 83.641"><rect x="13.687" y="11.85" width="78.016" height="59.941" rx="13.384" ry="13.384" style="fill:#9f9da8;"/><g><line x1="52.695" y1="26.166" x2="52.695" y2="47.854" style="fill:none; stroke:#fff; stroke-miterlimit:10; stroke-width:3px;"/><line x1="52.695" y1="26.166" x2="52.695" y2="47.854" style="fill:none; stroke:#2e2e54; stroke-miterlimit:10; stroke-width:3px;"/><line x1="33.913" y1="58.698" x2="52.695" y2="47.854" style="fill:none; stroke:#2e2e54; stroke-miterlimit:10; stroke-width:3px;"/><line x1="71.478" y1="58.698" x2="52.695" y2="47.854" style="fill:none; stroke:#2e2e54; stroke-miterlimit:10; stroke-width:3px;"/><path d="m51.814,23.213l-3.834,6.641c-.392.678.098,1.526.881,1.526h7.669c.783,0,1.273-.848.881-1.526l-3.834-6.641c-.392-.678-1.37-.678-1.762,0Z" style="fill:#2e2e54;"/><path d="m31.796,60.937h7.669c.783,0,1.273-.848.881-1.526l-3.834-6.641c-.392-.678-1.37-.678-1.762,0l-3.834,6.641c-.392.678.098,1.526.881,1.526Z" style="fill:#2e2e54;"/><path d="m74.476,59.411l-3.834-6.641c-.392-.678-1.37-.678-1.762,0l-3.834,6.641c-.392.678.098,1.526.881,1.526h7.669c.783,0,1.273-.848.881-1.526Z" style="fill:#2e2e54;"/></g></svg>