<?xml version="1.0" encoding="UTF-8"?><svg id="a" xmlns="http://www.w3.org/2000/svg" viewBox="0 0 105.391 83.641"><rect x="13.687" y="11.85" width="78.016" height="59.941" rx="13.384" ry="13.384" style="fill:#ff7133;"/><g><path d="m63.537,59.884c5.328-3.527,8.845-9.571,8.845-16.438,0-10.874-8.814-19.688-19.685-19.688s-19.688,8.814-19.688,19.688c0,6.867,3.516,12.911,8.848,16.434" style="fill:none; stroke:#fff; stroke-linecap:round; stroke-miterlimit:10; stroke-width:2px;"/><line x1="52.696" y1="27.976" x2="52.696" y2="33.009" style="fill:none; stroke:#fff; stroke-linecap:round; stroke-miterlimit:10; stroke-width:2px;"/><line x1="37.158" y1="43.446" x2="42.75" y2="43.446" style="fill:none; stroke:#fff; stroke-linecap:round; stroke-miterlimit:10; stroke-width:2px;"/><line x1="62.692" y1="43.446" x2="68.283" y2="43.446" style="fill:none; stroke:#fff; stroke-linecap:round; stroke-miterlimit:10; stroke-width:2px;"/><line x1="60.542" y1="36.029" x2="64.842" y2="32.455" style="fill:none; stroke:#fff; stroke-linecap:round; stroke-miterlimit:10; stroke-width:2px;"/><line x1="60.542" y1="36.029" x2="64.842" y2="32.455" style="fill:none; stroke:#fff; stroke-linecap:round; stroke-miterlimit:10; stroke-width:2px;"/><line x1="44.9" y1="36.582" x2="40.6" y2="33.009" style="fill:none; stroke:#fff; stroke-linecap:round; stroke-miterlimit:10; stroke-width:2px;"/><line x1="60.542" y1="36.029" x2="64.842" y2="32.455" style="fill:none; stroke:#fff; stroke-linecap:round; stroke-miterlimit:10; stroke-width:2px;"/><line x1="44.9" y1="36.582" x2="40.6" y2="33.009" style="fill:none; stroke:#fff; stroke-linecap:round; stroke-miterlimit:10; stroke-width:2px;"/><line x1="60.542" y1="50.863" x2="64.842" y2="54.436" style="fill:none; stroke:#fff; stroke-linecap:round; stroke-miterlimit:10; stroke-width:2px;"/><line x1="44.9" y1="50.309" x2="40.6" y2="53.883" style="fill:none; stroke:#fff; stroke-linecap:round; stroke-miterlimit:10; stroke-width:2px;"/><line x1="52.696" y1="40.336" x2="52.696" y2="49.58" style="fill:none; stroke:#fff; stroke-linecap:round; stroke-miterlimit:10; stroke-width:2px;"/><circle cx="52.721" cy="52.096" r="1.986" style="fill:none; stroke:#fff; stroke-linecap:round; stroke-miterlimit:10; stroke-width:2px;"/></g></svg>