<?xml version="1.0" encoding="UTF-8"?><svg id="a" xmlns="http://www.w3.org/2000/svg" viewBox="0 0 105.391 83.641"><rect x="13.687" y="11.85" width="78.016" height="59.941" rx="13.384" ry="13.384" style="fill:#ff7133;"/><g><path d="m51.597,63.571l-9.042-15.66c-.539-.933.135-2.1,1.212-2.1h17.855c1.078,0,1.751,1.167,1.212,2.1l-9.042,15.66c-.488.845-1.708.845-2.196,0Z" style="fill:none; stroke:#fff; stroke-miterlimit:10; stroke-width:2.752px;"/><path d="m63.821,37.034l-10.03-17.37c-.49-.84-1.71-.84-2.19,0l-10.03,17.37c-.54.93.13,2.1,1.21,2.1h19.83c1.07,0,1.75-1.17,1.21-2.1Zm-9.18-2.34h-.66l-2.46-3.18v3.18h-.77v-4.46h.72l2.4,3.08v-3.08h.77v4.46Z" style="fill:#fff;"/><path d="m52.798,55.145c-.759,0-1.422-.255-1.99-.764l.504-.6c.478.413.979.62,1.507.62.259,0,.464-.056.616-.167s.229-.26.229-.446c0-.178-.072-.318-.218-.426s-.432-.211-.859-.311c-.554-.131-.957-.299-1.209-.5-.252-.203-.379-.513-.379-.931,0-.409.152-.741.457-.999.305-.256.695-.385,1.172-.385.654,0,1.231.2,1.731.6l-.45.635c-.44-.328-.872-.491-1.295-.491-.24,0-.43.054-.568.163s-.208.248-.208.416c0,.187.076.33.229.433.151.103.453.208.902.317.527.127.915.297,1.162.511.248.214.371.514.371.899,0,.441-.156.789-.47,1.043s-.725.382-1.233.382Z" style="fill:#fff;"/></g></svg>