<?xml version="1.0" encoding="UTF-8" standalone="no"?>
<svg
   id="b"
   viewBox="0 0 58.073 47.678"
   version="1.1"
   sodipodi:docname="showp.svg"
   inkscape:version="1.1.2 (0a00cf5339, 2022-02-04)"
   xmlns:inkscape="http://www.inkscape.org/namespaces/inkscape"
   xmlns:sodipodi="http://sodipodi.sourceforge.net/DTD/sodipodi-0.dtd"
   xmlns="http://www.w3.org/2000/svg"
   xmlns:svg="http://www.w3.org/2000/svg">
  <defs
     id="defs20" />
  <sodipodi:namedview
     id="namedview18"
     pagecolor="#ffffff"
     bordercolor="#666666"
     borderopacity="1.0"
     inkscape:pageshadow="2"
     inkscape:pageopacity="0.0"
     inkscape:pagecheckerboard="0"
     showgrid="false"
     inkscape:zoom="17.408448"
     inkscape:cx="29.008904"
     inkscape:cy="23.839001"
     inkscape:window-width="1920"
     inkscape:window-height="1012"
     inkscape:window-x="0"
     inkscape:window-y="0"
     inkscape:window-maximized="1"
     inkscape:current-layer="b" />
  <g
     id="c">
    <g
       id="g14">
      <circle
         cx="29.085"
         cy="31.661"
         r="5.987"
         style="fill:#cbcbd4;"
         id="circle2" />
      <g
         id="g12">
        <path
           d="m57.746,31.845c-6.958-8.846-17.407-13.929-28.667-13.949h-.064c-11.234,0-21.674,5.048-28.649,13.852-.487.61-.489,1.463-.004,2.074l.009.011c6.978,8.802,17.413,13.846,28.641,13.846h.068c11.26-.02,21.709-5.105,28.665-13.951.436-.553.436-1.327,0-1.882Zm-28.665-8.725c5.329,0,9.666,4.337,9.666,9.666s-4.337,9.666-9.666,9.666-9.666-4.335-9.666-9.666,4.337-9.666,9.666-9.666ZM2.598,32.788c5.296-6.464,12.62-10.677,20.709-12.03-4.474,2.156-7.568,6.737-7.568,12.028s3.099,9.877,7.578,12.032c-8.092-1.351-15.42-5.566-20.718-12.03Zm32.316,11.997c4.441-2.167,7.51-6.732,7.51-11.999s-3.065-9.826-7.502-11.995c8.017,1.388,15.267,5.587,20.516,11.995-5.25,6.412-12.504,10.611-20.523,11.999Z"
           style="fill:#cbcbd4;"
           id="path4" />
        <path
           d="m29.085,8.751c-.92,0-1.665-.746-1.665-1.665V1.665c0-.92.746-1.665,1.665-1.665s1.665.746,1.665,1.665v5.42c0,.92-.746,1.665-1.665,1.665Z"
           style="fill:#cbcbd4;"
           id="path6" />
        <path
           d="m40.504,14.547c-.263,0-.529-.067-.773-.208-.741-.427-.994-1.374-.567-2.115l2.52-4.364c.427-.741,1.375-.994,2.115-.567s.994,1.374.567,2.115l-2.52,4.364c-.287.497-.807.774-1.342.774Z"
           style="fill:#cbcbd4;"
           id="path8" />
        <path
           d="m16.798,12.044c-.576,0-1.135-.299-1.444-.833l-2.71-4.694c-.46-.796-.187-1.815.609-2.275.796-.46,1.815-.187,2.275.61l2.71,4.694c.46.796.187,1.815-.609,2.275-.262.151-.549.223-.831.223Z"
           style="fill:#cbcbd4;"
           id="path10" />
      </g>
    </g>
  </g>
  <path
     style="fill:#757575;stroke-width:0.0574434;fill-opacity:1"
     d="M 27.658985,47.615502 C 23.369567,47.474214 19.041053,46.538091 15.021443,44.882397 13.790572,44.375396 11.561468,43.258919 10.425973,42.580693 6.7759723,40.400566 3.6630307,37.743143 0.95398356,34.494747 0.25491781,33.656503 0.08447507,33.361222 0.0443666,32.918899 -0.01341438,32.28168 0.14180377,32.015488 1.48692,30.444989 c 0.6488079,-0.75752 2.8635298,-2.97208 3.6255404,-3.625276 2.3697604,-2.031357 4.8729428,-3.707842 7.4963606,-5.020622 11.224512,-5.616839 24.5761,-5.098754 35.298954,1.369714 3.192664,1.925946 6.226147,4.493597 8.734398,7.393116 1.158259,1.338935 1.337775,1.60973 1.387682,2.093246 0.04761,0.461293 -0.09004,0.787145 -0.596797,1.412758 -4.934523,6.091902 -11.563106,10.399294 -19.032162,12.367495 -3.483159,0.917861 -6.993863,1.303539 -10.741911,1.180082 z m -4.370483,-2.828938 c -0.01316,-0.0106 -0.253595,-0.143093 -0.53429,-0.294436 -2.434385,-1.312548 -4.404126,-3.380681 -5.637304,-5.918902 -0.861209,-1.772604 -1.254952,-3.354663 -1.329575,-5.342233 -0.186915,-4.978405 2.452515,-9.620876 6.879244,-12.099845 0.346397,-0.193981 0.61908,-0.363426 0.605963,-0.376543 -0.01312,-0.01312 -0.485569,0.06876 -1.049892,0.181947 -6.570094,1.317782 -12.5176139,4.499345 -17.2886236,9.248365 -1.1588941,1.153552 -2.3882511,2.550446 -2.3311473,2.648836 0.1452832,0.250322 1.6151605,1.839476 2.5458319,2.752418 2.6557484,2.605158 5.271173,4.469823 8.608979,6.137764 2.616091,1.307293 5.257666,2.236657 8.012599,2.81901 1.368542,0.289291 1.626331,0.330657 1.518215,0.243619 z m 12.548831,-0.151576 c 7.554003,-1.529973 14.34342,-5.556194 19.30658,-11.449077 l 0.328252,-0.389742 -0.143708,-0.188411 c -0.694049,-0.909945 -2.896654,-3.148038 -4.119961,-4.186341 -4.340473,-3.684051 -9.285004,-6.142671 -14.81042,-7.36434 -0.493938,-0.10921 -1.040242,-0.214797 -1.214009,-0.234638 l -0.315938,-0.03608 0.523726,0.283214 c 3.607468,1.950805 6.140136,5.49579 6.824321,9.552031 0.266401,1.579375 0.202273,3.595975 -0.164398,5.169733 -0.855431,3.671527 -3.363646,6.951562 -6.652298,8.699321 -0.715545,0.380278 -0.719954,0.378825 0.437853,0.144325 z m -4.70754,-2.38108 c 2.089271,-0.482329 3.797548,-1.485234 5.211387,-3.059529 1.057471,-1.177483 1.810204,-2.661471 2.211294,-4.359489 0.15347,-0.649712 0.161735,-0.753976 0.161296,-2.034723 -4.02e-4,-1.179969 -0.01652,-1.423427 -0.128032,-1.933794 -0.197364,-0.903325 -0.438967,-1.588959 -0.846829,-2.403181 -2.014698,-4.021971 -6.43836,-6.109225 -10.83987,-5.114667 -3.144047,0.710424 -5.759251,3.016345 -6.90769,6.090766 -0.816087,2.1847 -0.791653,4.668892 0.06744,6.856462 1.14417,2.913482 3.523647,5.037407 6.57193,5.866117 0.843372,0.22928 1.392748,0.284923 2.636681,0.267051 1.043838,-0.015 1.255369,-0.03488 1.862393,-0.175013 z"
     id="path874" />
  <path
     style="fill:#757575;fill-opacity:1;stroke-width:0.0574434"
     d="m 28.463192,37.592244 c -0.07898,-0.01409 -0.298705,-0.05251 -0.488268,-0.08539 -1.159555,-0.2011 -2.287909,-0.818153 -3.161606,-1.72896 -0.510022,-0.531685 -0.757277,-0.875896 -1.045506,-1.455478 -0.46673,-0.938519 -0.617895,-1.613954 -0.610665,-2.728561 0.0045,-0.700003 0.02896,-0.921904 0.152985,-1.390463 0.650348,-2.456892 2.686694,-4.207739 5.191969,-4.464047 2.451069,-0.250762 4.820125,1.071542 5.90924,3.29828 0.365013,0.746283 0.524524,1.296224 0.596435,2.056304 0.323264,3.41683 -2.291349,6.393242 -5.711655,6.502008 -0.379126,0.01206 -0.753944,0.01039 -0.832929,-0.0037 z"
     id="path1135" />
  <path
     style="fill:#757575;fill-opacity:1;stroke-width:0.0574434"
     d="M 28.55892,8.6352552 C 28.183659,8.5055188 27.764401,8.117085 27.594982,7.7421854 L 27.457933,7.4389171 V 4.3656965 c 0,-3.0035615 0.0027,-3.0791459 0.120956,-3.3346342 0.606102,-1.30992477 2.395601,-1.32059414 2.992022,-0.017839 l 0.135458,0.2958802 -0.0158,3.1223503 -0.0158,3.1223501 -0.142088,0.2781799 c -0.355836,0.6966393 -1.240631,1.05673 -1.973761,0.8032714 z"
     id="path1174" />
  <path
     style="fill:#757575;fill-opacity:1;stroke-width:0.0574434"
     d="m 40.021698,14.427856 c -0.461398,-0.16437 -0.751891,-0.450586 -0.930149,-0.916457 -0.130176,-0.340208 -0.144257,-0.569529 -0.05476,-0.891818 0.06975,-0.251166 2.691268,-4.8196159 2.884261,-5.0263171 0.07013,-0.075107 0.243824,-0.2051843 0.385997,-0.2890608 0.221694,-0.1307918 0.323919,-0.1525029 0.718042,-0.1525029 0.397843,0 0.495616,0.021203 0.728174,0.1579124 0.696145,0.4092286 0.986064,1.2794137 0.648571,1.9466682 -0.243238,0.4809033 -2.593265,4.5241232 -2.739774,4.7137782 -0.345824,0.447669 -1.087643,0.654699 -1.640361,0.457797 z"
     id="path1213" />
  <path
     style="fill:#757575;fill-opacity:1;stroke-width:0.0574434"
     d="M 16.342268,11.951994 C 16.080147,11.87226 15.85699,11.730636 15.642307,11.50777 15.525672,11.386689 14.783557,10.166076 13.993162,8.7952957 12.421828,6.0701355 12.362546,5.9356198 12.48727,5.3782963 c 0.291345,-1.3018667 1.841063,-1.765667 2.748495,-0.8225708 0.235984,0.2452592 2.981161,4.9420122 3.108722,5.3187459 0.112426,0.3320356 0.08128,0.8611736 -0.06977,1.1855666 -0.164723,0.35374 -0.581701,0.732984 -0.940234,0.855148 -0.277201,0.09445 -0.745587,0.111828 -0.992212,0.03681 z"
     id="path1252" />
</svg>
