<?xml version="1.0" encoding="UTF-8"?><svg id="a" xmlns="http://www.w3.org/2000/svg" viewBox="0 0 206.184 140.443"><g id="b"><path d="m178.805,59.272l-.429,3.662-2.435,3.11-1.854.199-8.061-4.661-.253-3.93-4.021-4.458-4.668-.111-3.048-4.441-3.049,14.168.781,12.869-.321,5.848,17.326-3.014,3.677,6.955-.827,5.514-10.571,15.626-9.896,6.404-2.513,2.742h-6.097l1.501-9.421,7.69-1.778,8.028-2.88,4.718-10.356-1.041-2.574-18.108,11.551-7.543-3.298h0c-3.747.745-9.215,2.427-14.898,6.219l-28.599,15.308-28.122,2.188-4.783-1.303,18.892-9.25,32.32-10.969,24.49-4.028-1.117-2.927c-3.368-.797-11.674-2.126-21.605.931l-35.132,6.888-30.731-7.763-4.731-3.213,22.953-3.576,37.825-.632,30.461,4.85-.578-1.514s-10.642-7.888-26.942-7.475l-42.772-3.722-32.93-20.268-4.412-5.61,27.644,3.572,43.845,12.378,33.896,16.745-.76-1.992-2.749-2.057h0s-.002-.003-.003-.004l-10.143-8.753-4.137-1.829-23.505-8.455-14.559-16.22-1.457-3.884,14.816,7.042,22.289,14.846,5.353,5.174-2.566-7.782,14.96-17.924,12.409-9.72,13.373-3.446,9.529.788-.452-1.524.321-3.884.988-1.425.552-1.448,1.678,2.252.175,5.745-.842,1.712,4.573,5.148.149,1.184,5.312,20.796.735,1.103Z" style="fill:#fff;"/><path d="m170.587,33.072h1.009s1.727-.877,2.391-2.895l-2.749,1.846s-.133.757-.651,1.049Z" style="fill:#fff;"/><path d="m170.107,32.031l.883-.794s.828-2.117-.162-4.386l-.968,3.761s.473.759.247,1.42Z" style="fill:#fff;"/><path d="m162.626,27.903l.347-1.569s-.753-2.982-3.628-4.701l1.892,4.902s1.118.464,1.389,1.369Z" style="fill:#fff;"/><path d="m158.822,26.851l-1.836-2.887s-3.866-4.004-9.983-4.235c-.641-.024-1.825.201-1.825.201l9.494,6.258s2.535-.591,4.151.663Z" style="fill:#fff;"/><path d="m150.654,28.66l-2.246-2.58s-4.42-3.383-10.503-2.699c-.637.072-1.775.471-1.775.471l10.321,4.773s2.419-.962,4.203.036Z" style="fill:#fff;"/><path d="m143.393,29.984l-3.229-2.021s-5.93-2.072-12.753,1.076c-.715.33-1.923,1.223-1.923,1.223l13.064,1.326s2.54-2.027,4.842-1.604Z" style="fill:#fff;"/><path d="m135.328,34.848l-3.068-1.299s-5.641-.746-12.156,3.927c-.683.49-1.838,1.653-1.838,1.653l12.442-1.596s2.429-2.595,4.621-2.686Z" style="fill:#fff;"/><path d="m127.614,43.065l-1.952-.845s-3.955-.258-9.757,3.816c-.608.427-1.711,1.413-1.711,1.413l9.445-1.991s2.353-2.192,3.975-2.393Z" style="fill:#fff;"/><path d="m120.904,50.762l-1.342-.13s-2.413.59-5.015,4.063c-.273.364-.723,1.149-.723,1.149l5.214-2.936s.941-1.725,1.866-2.146Z" style="fill:#fff;"/></g></svg>